<?xml version='1.0' encoding='utf-8'?>
<mlt LC_NUMERIC="C" producer="main_bin" root="/home/xaxkrt/ehw" version="7.24.0">
 <profile colorspace="709" description="HD 1080p 25 fps" display_aspect_den="9" display_aspect_num="16" frame_rate_den="1" frame_rate_num="25" height="1080" progressive="1" sample_aspect_den="1" sample_aspect_num="1" width="1920"/>
 <chain id="chain8" out="00:11:58.640">
  <property name="length">17967</property>
  <property name="eof">pause</property>
  <property name="resource">AreYouAnNPCA.m4s</property>
  <property name="mlt_service">avformat</property>
  <property name="meta.media.nb_streams">1</property>
  <property name="meta.media.0.stream.type">audio</property>
  <property name="meta.media.0.codec.sample_fmt">fltp</property>
  <property name="meta.media.0.codec.sample_rate">48000</property>
  <property name="meta.media.0.codec.channels">2</property>
  <property name="meta.media.0.codec.layout">stereo</property>
  <property name="meta.media.0.codec.name">aac</property>
  <property name="meta.media.0.codec.long_name">AAC (Advanced Audio Coding)</property>
  <property name="meta.media.0.codec.bit_rate">903</property>
  <property name="meta.attr.0.stream.handler_name.markup">Bento4 Sound Handler</property>
  <property name="meta.attr.0.stream.vendor_id.markup">[0][0][0][0]</property>
  <property name="meta.attr.major_brand.markup">isom</property>
  <property name="meta.attr.minor_version.markup">512</property>
  <property name="meta.attr.compatible_brands.markup">isomiso2avc1mp41iso5</property>
  <property name="meta.attr.encoder.markup">Lavf58.29.100</property>
  <property name="meta.attr.description.markup">Packed by Bilibili XCoder v2.0.2</property>
  <property name="seekable">1</property>
  <property name="audio_index">0</property>
  <property name="video_index">-1</property>
  <property name="astream">0</property>
  <property name="kdenlive:folderid">-1</property>
  <property name="kdenlive:id">4</property>
  <property name="kdenlive:clip_type">1</property>
  <property name="kdenlive:file_size">13402209</property>
  <property name="kdenlive:file_hash">ff19a0e6fbc9396668986d1385224d06</property>
  <property name="kdenlive:thumbZoomFactor">0.00729483</property>
  <property name="kdenlive:thumbZoomStart">0</property>
  <property name="kdenlive:monitorPosition">102</property>
  <property name="kdenlive:audio_max0">226</property>
 </chain>
 <chain id="chain9" out="00:00:01.680">
  <property name="length">43</property>
  <property name="eof">pause</property>
  <property name="resource">areyoufree.m4a</property>
  <property name="mlt_service">avformat</property>
  <property name="meta.media.nb_streams">1</property>
  <property name="meta.media.0.stream.type">audio</property>
  <property name="meta.media.0.codec.sample_fmt">fltp</property>
  <property name="meta.media.0.codec.sample_rate">48000</property>
  <property name="meta.media.0.codec.channels">2</property>
  <property name="meta.media.0.codec.layout">stereo</property>
  <property name="meta.media.0.codec.name">aac</property>
  <property name="meta.media.0.codec.long_name">AAC (Advanced Audio Coding)</property>
  <property name="meta.media.0.codec.bit_rate">147998</property>
  <property name="meta.attr.0.stream.creation_time.markup">2024-07-31T08:26:18.000000Z</property>
  <property name="meta.attr.0.stream.language.markup">eng</property>
  <property name="meta.attr.0.stream.handler_name.markup">SoundHandle</property>
  <property name="meta.attr.0.stream.vendor_id.markup">[0][0][0][0]</property>
  <property name="meta.attr.major_brand.markup">mp42</property>
  <property name="meta.attr.minor_version.markup">0</property>
  <property name="meta.attr.compatible_brands.markup">isommp42</property>
  <property name="meta.attr.creation_time.markup">2024-07-31T08:26:18.000000Z</property>
  <property name="meta.attr.com.android.version.markup">12</property>
  <property name="seekable">1</property>
  <property name="audio_index">0</property>
  <property name="video_index">-1</property>
  <property name="astream">0</property>
  <property name="kdenlive:folderid">-1</property>
  <property name="kdenlive:id">5</property>
  <property name="kdenlive:clip_type">1</property>
  <property name="kdenlive:file_size">34859</property>
  <property name="kdenlive:file_hash">43c6b52996840b580566d8c7dc32999c</property>
  <property name="kdenlive:audio_max0">130</property>
  <property name="kdenlive:monitorPosition">13</property>
 </chain>
 <chain id="chain10" out="00:00:03.920">
  <property name="length">99</property>
  <property name="eof">pause</property>
  <property name="resource">freetochoose.m4a</property>
  <property name="mlt_service">avformat</property>
  <property name="meta.media.nb_streams">1</property>
  <property name="meta.media.0.stream.type">audio</property>
  <property name="meta.media.0.codec.sample_fmt">fltp</property>
  <property name="meta.media.0.codec.sample_rate">48000</property>
  <property name="meta.media.0.codec.channels">2</property>
  <property name="meta.media.0.codec.layout">stereo</property>
  <property name="meta.media.0.codec.name">aac</property>
  <property name="meta.media.0.codec.long_name">AAC (Advanced Audio Coding)</property>
  <property name="meta.media.0.codec.bit_rate">148000</property>
  <property name="meta.attr.0.stream.creation_time.markup">2024-07-31T08:26:34.000000Z</property>
  <property name="meta.attr.0.stream.language.markup">eng</property>
  <property name="meta.attr.0.stream.handler_name.markup">SoundHandle</property>
  <property name="meta.attr.0.stream.vendor_id.markup">[0][0][0][0]</property>
  <property name="meta.attr.major_brand.markup">mp42</property>
  <property name="meta.attr.minor_version.markup">0</property>
  <property name="meta.attr.compatible_brands.markup">isommp42</property>
  <property name="meta.attr.creation_time.markup">2024-07-31T08:26:34.000000Z</property>
  <property name="meta.attr.com.android.version.markup">12</property>
  <property name="seekable">1</property>
  <property name="audio_index">0</property>
  <property name="video_index">-1</property>
  <property name="astream">0</property>
  <property name="kdenlive:folderid">-1</property>
  <property name="kdenlive:id">6</property>
  <property name="kdenlive:clip_type">1</property>
  <property name="kdenlive:file_size">76720</property>
  <property name="kdenlive:file_hash">c7558049d8f526b03021ec0c22ec711b</property>
  <property name="kdenlive:audio_max0">122</property>
  <property name="kdenlive:monitorPosition">13</property>
 </chain>
 <chain id="chain11" out="00:00:05.640">
  <property name="length">142</property>
  <property name="eof">pause</property>
  <property name="resource">oraeryouannpc.m4a</property>
  <property name="mlt_service">avformat</property>
  <property name="meta.media.nb_streams">1</property>
  <property name="meta.media.0.stream.type">audio</property>
  <property name="meta.media.0.codec.sample_fmt">fltp</property>
  <property name="meta.media.0.codec.sample_rate">48000</property>
  <property name="meta.media.0.codec.channels">2</property>
  <property name="meta.media.0.codec.layout">stereo</property>
  <property name="meta.media.0.codec.name">aac</property>
  <property name="meta.media.0.codec.long_name">AAC (Advanced Audio Coding)</property>
  <property name="meta.media.0.codec.bit_rate">148000</property>
  <property name="meta.attr.0.stream.creation_time.markup">2024-07-31T08:27:00.000000Z</property>
  <property name="meta.attr.0.stream.language.markup">eng</property>
  <property name="meta.attr.0.stream.handler_name.markup">SoundHandle</property>
  <property name="meta.attr.0.stream.vendor_id.markup">[0][0][0][0]</property>
  <property name="meta.attr.major_brand.markup">mp42</property>
  <property name="meta.attr.minor_version.markup">0</property>
  <property name="meta.attr.compatible_brands.markup">isommp42</property>
  <property name="meta.attr.creation_time.markup">2024-07-31T08:27:00.000000Z</property>
  <property name="meta.attr.com.android.version.markup">12</property>
  <property name="seekable">1</property>
  <property name="audio_index">0</property>
  <property name="video_index">-1</property>
  <property name="astream">0</property>
  <property name="kdenlive:folderid">-1</property>
  <property name="kdenlive:id">7</property>
  <property name="kdenlive:clip_type">1</property>
  <property name="kdenlive:file_size">108708</property>
  <property name="kdenlive:file_hash">d724933787362617799b458b156c994f</property>
  <property name="kdenlive:audio_max0">122</property>
  <property name="kdenlive:monitorPosition">0</property>
 </chain>
 <chain id="chain12" out="00:00:03.760">
  <property name="length">95</property>
  <property name="eof">pause</property>
  <property name="resource">youfeel.m4a</property>
  <property name="mlt_service">avformat</property>
  <property name="meta.media.nb_streams">1</property>
  <property name="meta.media.0.stream.type">audio</property>
  <property name="meta.media.0.codec.sample_fmt">fltp</property>
  <property name="meta.media.0.codec.sample_rate">48000</property>
  <property name="meta.media.0.codec.channels">2</property>
  <property name="meta.media.0.codec.layout">stereo</property>
  <property name="meta.media.0.codec.name">aac</property>
  <property name="meta.media.0.codec.long_name">AAC (Advanced Audio Coding)</property>
  <property name="meta.media.0.codec.bit_rate">147998</property>
  <property name="meta.attr.0.stream.creation_time.markup">2024-07-31T08:28:01.000000Z</property>
  <property name="meta.attr.0.stream.language.markup">eng</property>
  <property name="meta.attr.0.stream.handler_name.markup">SoundHandle</property>
  <property name="meta.attr.0.stream.vendor_id.markup">[0][0][0][0]</property>
  <property name="meta.attr.major_brand.markup">mp42</property>
  <property name="meta.attr.minor_version.markup">0</property>
  <property name="meta.attr.compatible_brands.markup">isommp42</property>
  <property name="meta.attr.creation_time.markup">2024-07-31T08:28:01.000000Z</property>
  <property name="meta.attr.com.android.version.markup">12</property>
  <property name="seekable">1</property>
  <property name="audio_index">0</property>
  <property name="video_index">-1</property>
  <property name="astream">0</property>
  <property name="kdenlive:folderid">-1</property>
  <property name="kdenlive:id">8</property>
  <property name="kdenlive:clip_type">1</property>
  <property name="kdenlive:file_size">73560</property>
  <property name="kdenlive:file_hash">c3cccfef5c6cae8fc895ff77e8d47d87</property>
  <property name="kdenlive:audio_max0">134</property>
  <property name="kdenlive:monitorPosition">0</property>
 </chain>
 <chain id="chain13" out="00:11:58.600">
  <property name="length">17966</property>
  <property name="eof">pause</property>
  <property name="resource">withzimu.m4s</property>
  <property name="mlt_service">avformat-novalidate</property>
  <property name="meta.media.nb_streams">1</property>
  <property name="meta.media.0.stream.type">video</property>
  <property name="meta.media.0.stream.frame_rate">30</property>
  <property name="meta.media.0.stream.sample_aspect_ratio">1</property>
  <property name="meta.media.0.codec.width">1920</property>
  <property name="meta.media.0.codec.height">1080</property>
  <property name="meta.media.0.codec.rotate">0</property>
  <property name="meta.media.0.codec.pix_fmt">yuv420p</property>
  <property name="meta.media.0.codec.sample_aspect_ratio">0</property>
  <property name="meta.media.0.codec.colorspace">709</property>
  <property name="meta.media.0.codec.color_trc">1</property>
  <property name="meta.media.0.codec.name">libdav1d</property>
  <property name="meta.media.0.codec.long_name">dav1d AV1 decoder by VideoLAN</property>
  <property name="meta.media.0.codec.bit_rate">5621</property>
  <property name="meta.attr.0.stream.handler_name.markup">Bento4 Video Handler</property>
  <property name="meta.attr.0.stream.vendor_id.markup">[0][0][0][0]</property>
  <property name="meta.attr.major_brand.markup">isom</property>
  <property name="meta.attr.minor_version.markup">512</property>
  <property name="meta.attr.compatible_brands.markup">isomiso2mp41iso5</property>
  <property name="meta.attr.encoder.markup">Lavf58.29.100</property>
  <property name="meta.attr.description.markup">Bilibili VXCode Swarm Transcoder v1.0.12</property>
  <property name="seekable">1</property>
  <property name="meta.media.sample_aspect_num">1</property>
  <property name="meta.media.sample_aspect_den">1</property>
  <property name="format">3</property>
  <property name="audio_index">-1</property>
  <property name="video_index">0</property>
  <property name="vstream">0</property>
  <property name="meta.media.frame_rate_num">30</property>
  <property name="meta.media.frame_rate_den">1</property>
  <property name="meta.media.colorspace">709</property>
  <property name="meta.media.color_trc">1</property>
  <property name="meta.media.has_b_frames">0</property>
  <property name="meta.media.width">1920</property>
  <property name="meta.media.height">1080</property>
  <property name="meta.media.aspect_ratio">1</property>
  <property name="meta.media.color_range">mpeg</property>
  <property name="meta.media.top_field_first">0</property>
  <property name="meta.media.progressive">1</property>
  <property name="kdenlive:folderid">-1</property>
  <property name="kdenlive:id">9</property>
  <property name="mute_on_pause">0</property>
  <property name="kdenlive:clip_type">2</property>
  <property name="kdenlive:file_size">52949691</property>
  <property name="kdenlive:file_hash">04b64a898f62b2b689274525b610643c</property>
  <property name="kdenlive:monitorPosition">2686</property>
 </chain>
 <chain id="chain16" out="00:00:05.520">
  <property name="length">139</property>
  <property name="eof">pause</property>
  <property name="resource">freewillis.m4a</property>
  <property name="mlt_service">avformat</property>
  <property name="meta.media.nb_streams">1</property>
  <property name="meta.media.0.stream.type">audio</property>
  <property name="meta.media.0.codec.sample_fmt">fltp</property>
  <property name="meta.media.0.codec.sample_rate">48000</property>
  <property name="meta.media.0.codec.channels">2</property>
  <property name="meta.media.0.codec.layout">stereo</property>
  <property name="meta.media.0.codec.name">aac</property>
  <property name="meta.media.0.codec.long_name">AAC (Advanced Audio Coding)</property>
  <property name="meta.media.0.codec.bit_rate">148001</property>
  <property name="meta.attr.0.stream.creation_time.markup">2024-07-31T09:00:52.000000Z</property>
  <property name="meta.attr.0.stream.language.markup">eng</property>
  <property name="meta.attr.0.stream.handler_name.markup">SoundHandle</property>
  <property name="meta.attr.0.stream.vendor_id.markup">[0][0][0][0]</property>
  <property name="meta.attr.major_brand.markup">mp42</property>
  <property name="meta.attr.minor_version.markup">0</property>
  <property name="meta.attr.compatible_brands.markup">isommp42</property>
  <property name="meta.attr.creation_time.markup">2024-07-31T09:00:52.000000Z</property>
  <property name="meta.attr.com.android.version.markup">12</property>
  <property name="seekable">1</property>
  <property name="audio_index">0</property>
  <property name="video_index">-1</property>
  <property name="astream">0</property>
  <property name="kdenlive:folderid">-1</property>
  <property name="kdenlive:id">10</property>
  <property name="kdenlive:clip_type">1</property>
  <property name="kdenlive:file_size">106339</property>
  <property name="kdenlive:file_hash">8ae0eeb854818e8bf25ed21b8d812315</property>
  <property name="kdenlive:audio_max0">151</property>
  <property name="kdenlive:monitorPosition">0</property>
 </chain>
 <chain id="chain17" out="00:00:03.320">
  <property name="length">84</property>
  <property name="eof">pause</property>
  <property name="resource">isfreewilleven.m4a</property>
  <property name="mlt_service">avformat</property>
  <property name="meta.media.nb_streams">1</property>
  <property name="meta.media.0.stream.type">audio</property>
  <property name="meta.media.0.codec.sample_fmt">fltp</property>
  <property name="meta.media.0.codec.sample_rate">48000</property>
  <property name="meta.media.0.codec.channels">2</property>
  <property name="meta.media.0.codec.layout">stereo</property>
  <property name="meta.media.0.codec.name">aac</property>
  <property name="meta.media.0.codec.long_name">AAC (Advanced Audio Coding)</property>
  <property name="meta.media.0.codec.bit_rate">148000</property>
  <property name="meta.attr.0.stream.creation_time.markup">2024-07-31T09:15:01.000000Z</property>
  <property name="meta.attr.0.stream.language.markup">eng</property>
  <property name="meta.attr.0.stream.handler_name.markup">SoundHandle</property>
  <property name="meta.attr.0.stream.vendor_id.markup">[0][0][0][0]</property>
  <property name="meta.attr.major_brand.markup">mp42</property>
  <property name="meta.attr.minor_version.markup">0</property>
  <property name="meta.attr.compatible_brands.markup">isommp42</property>
  <property name="meta.attr.creation_time.markup">2024-07-31T09:15:01.000000Z</property>
  <property name="meta.attr.com.android.version.markup">12</property>
  <property name="seekable">1</property>
  <property name="audio_index">0</property>
  <property name="video_index">-1</property>
  <property name="astream">0</property>
  <property name="kdenlive:folderid">-1</property>
  <property name="kdenlive:id">11</property>
  <property name="kdenlive:clip_type">1</property>
  <property name="kdenlive:file_size">65267</property>
  <property name="kdenlive:file_hash">50331fee643aae8e2b2c5bdf94f0984d</property>
  <property name="kdenlive:audio_max0">140</property>
  <property name="kdenlive:monitorPosition">0</property>
 </chain>
 <chain id="chain18" out="00:00:05.680">
  <property name="length">143</property>
  <property name="eof">pause</property>
  <property name="resource">itm.m4a</property>
  <property name="mlt_service">avformat</property>
  <property name="meta.media.nb_streams">1</property>
  <property name="meta.media.0.stream.type">audio</property>
  <property name="meta.media.0.codec.sample_fmt">fltp</property>
  <property name="meta.media.0.codec.sample_rate">48000</property>
  <property name="meta.media.0.codec.channels">2</property>
  <property name="meta.media.0.codec.layout">stereo</property>
  <property name="meta.media.0.codec.name">aac</property>
  <property name="meta.media.0.codec.long_name">AAC (Advanced Audio Coding)</property>
  <property name="meta.media.0.codec.bit_rate">147999</property>
  <property name="meta.attr.0.stream.creation_time.markup">2024-07-31T09:03:14.000000Z</property>
  <property name="meta.attr.0.stream.language.markup">eng</property>
  <property name="meta.attr.0.stream.handler_name.markup">SoundHandle</property>
  <property name="meta.attr.0.stream.vendor_id.markup">[0][0][0][0]</property>
  <property name="meta.attr.major_brand.markup">mp42</property>
  <property name="meta.attr.minor_version.markup">0</property>
  <property name="meta.attr.compatible_brands.markup">isommp42</property>
  <property name="meta.attr.creation_time.markup">2024-07-31T09:03:14.000000Z</property>
  <property name="meta.attr.com.android.version.markup">12</property>
  <property name="seekable">1</property>
  <property name="audio_index">0</property>
  <property name="video_index">-1</property>
  <property name="astream">0</property>
  <property name="kdenlive:folderid">-1</property>
  <property name="kdenlive:id">12</property>
  <property name="kdenlive:clip_type">1</property>
  <property name="kdenlive:file_size">109497</property>
  <property name="kdenlive:file_hash">57c20def7668769d13d6198599c5d167</property>
  <property name="kdenlive:audio_max0">142</property>
  <property name="kdenlive:monitorPosition">0</property>
 </chain>
 <chain id="chain19" out="00:00:03.960">
  <property name="length">100</property>
  <property name="eof">pause</property>
  <property name="resource">itmeansyouare.m4a</property>
  <property name="mlt_service">avformat</property>
  <property name="meta.media.nb_streams">1</property>
  <property name="meta.media.0.stream.type">audio</property>
  <property name="meta.media.0.codec.sample_fmt">fltp</property>
  <property name="meta.media.0.codec.sample_rate">48000</property>
  <property name="meta.media.0.codec.channels">2</property>
  <property name="meta.media.0.codec.layout">stereo</property>
  <property name="meta.media.0.codec.name">aac</property>
  <property name="meta.media.0.codec.long_name">AAC (Advanced Audio Coding)</property>
  <property name="meta.media.0.codec.bit_rate">148001</property>
  <property name="meta.attr.0.stream.creation_time.markup">2024-07-31T09:06:02.000000Z</property>
  <property name="meta.attr.0.stream.language.markup">eng</property>
  <property name="meta.attr.0.stream.handler_name.markup">SoundHandle</property>
  <property name="meta.attr.0.stream.vendor_id.markup">[0][0][0][0]</property>
  <property name="meta.attr.major_brand.markup">mp42</property>
  <property name="meta.attr.minor_version.markup">0</property>
  <property name="meta.attr.compatible_brands.markup">isommp42</property>
  <property name="meta.attr.creation_time.markup">2024-07-31T09:06:02.000000Z</property>
  <property name="meta.attr.com.android.version.markup">12</property>
  <property name="seekable">1</property>
  <property name="audio_index">0</property>
  <property name="video_index">-1</property>
  <property name="astream">0</property>
  <property name="kdenlive:folderid">-1</property>
  <property name="kdenlive:id">13</property>
  <property name="kdenlive:clip_type">1</property>
  <property name="kdenlive:file_size">77510</property>
  <property name="kdenlive:file_hash">ba9c4a02bf3a183627219b40bbd4a830</property>
  <property name="kdenlive:audio_max0">107</property>
  <property name="kdenlive:monitorPosition">0</property>
 </chain>
 <chain id="chain20" out="00:00:03.720">
  <property name="length">94</property>
  <property name="eof">pause</property>
  <property name="resource">itsatthe.m4a</property>
  <property name="mlt_service">avformat</property>
  <property name="meta.media.nb_streams">1</property>
  <property name="meta.media.0.stream.type">audio</property>
  <property name="meta.media.0.codec.sample_fmt">fltp</property>
  <property name="meta.media.0.codec.sample_rate">48000</property>
  <property name="meta.media.0.codec.channels">2</property>
  <property name="meta.media.0.codec.layout">stereo</property>
  <property name="meta.media.0.codec.name">aac</property>
  <property name="meta.media.0.codec.long_name">AAC (Advanced Audio Coding)</property>
  <property name="meta.media.0.codec.bit_rate">148001</property>
  <property name="meta.attr.0.stream.creation_time.markup">2024-07-31T09:04:30.000000Z</property>
  <property name="meta.attr.0.stream.language.markup">eng</property>
  <property name="meta.attr.0.stream.handler_name.markup">SoundHandle</property>
  <property name="meta.attr.0.stream.vendor_id.markup">[0][0][0][0]</property>
  <property name="meta.attr.major_brand.markup">mp42</property>
  <property name="meta.attr.minor_version.markup">0</property>
  <property name="meta.attr.compatible_brands.markup">isommp42</property>
  <property name="meta.attr.creation_time.markup">2024-07-31T09:04:30.000000Z</property>
  <property name="meta.attr.com.android.version.markup">12</property>
  <property name="seekable">1</property>
  <property name="audio_index">0</property>
  <property name="video_index">-1</property>
  <property name="astream">0</property>
  <property name="kdenlive:folderid">-1</property>
  <property name="kdenlive:id">14</property>
  <property name="kdenlive:clip_type">1</property>
  <property name="kdenlive:file_size">72770</property>
  <property name="kdenlive:file_hash">c643726929a1f94fa8fc9ea1cdeb5ecc</property>
  <property name="kdenlive:audio_max0">122</property>
  <property name="kdenlive:monitorPosition">30</property>
 </chain>
 <chain id="chain21" out="00:00:06.240">
  <property name="length">157</property>
  <property name="eof">pause</property>
  <property name="resource">likewhenyoudes.m4a</property>
  <property name="mlt_service">avformat</property>
  <property name="meta.media.nb_streams">1</property>
  <property name="meta.media.0.stream.type">audio</property>
  <property name="meta.media.0.codec.sample_fmt">fltp</property>
  <property name="meta.media.0.codec.sample_rate">48000</property>
  <property name="meta.media.0.codec.channels">2</property>
  <property name="meta.media.0.codec.layout">stereo</property>
  <property name="meta.media.0.codec.name">aac</property>
  <property name="meta.media.0.codec.long_name">AAC (Advanced Audio Coding)</property>
  <property name="meta.media.0.codec.bit_rate">148000</property>
  <property name="meta.attr.0.stream.creation_time.markup">2024-07-31T09:00:26.000000Z</property>
  <property name="meta.attr.0.stream.language.markup">eng</property>
  <property name="meta.attr.0.stream.handler_name.markup">SoundHandle</property>
  <property name="meta.attr.0.stream.vendor_id.markup">[0][0][0][0]</property>
  <property name="meta.attr.major_brand.markup">mp42</property>
  <property name="meta.attr.minor_version.markup">0</property>
  <property name="meta.attr.compatible_brands.markup">isommp42</property>
  <property name="meta.attr.creation_time.markup">2024-07-31T09:00:26.000000Z</property>
  <property name="meta.attr.com.android.version.markup">12</property>
  <property name="seekable">1</property>
  <property name="audio_index">0</property>
  <property name="video_index">-1</property>
  <property name="astream">0</property>
  <property name="kdenlive:folderid">-1</property>
  <property name="kdenlive:id">15</property>
  <property name="kdenlive:clip_type">1</property>
  <property name="kdenlive:file_size">119765</property>
  <property name="kdenlive:file_hash">d9711f180c9783b7531fc8052b687c8b</property>
  <property name="kdenlive:audio_max0">141</property>
  <property name="kdenlive:monitorPosition">0</property>
 </chain>
 <chain id="chain22" out="00:00:04.160">
  <property name="length">105</property>
  <property name="eof">pause</property>
  <property name="resource">moreal.m4a</property>
  <property name="mlt_service">avformat</property>
  <property name="meta.media.nb_streams">1</property>
  <property name="meta.media.0.stream.type">audio</property>
  <property name="meta.media.0.codec.sample_fmt">fltp</property>
  <property name="meta.media.0.codec.sample_rate">48000</property>
  <property name="meta.media.0.codec.channels">2</property>
  <property name="meta.media.0.codec.layout">stereo</property>
  <property name="meta.media.0.codec.name">aac</property>
  <property name="meta.media.0.codec.long_name">AAC (Advanced Audio Coding)</property>
  <property name="meta.media.0.codec.bit_rate">148001</property>
  <property name="meta.attr.0.stream.creation_time.markup">2024-07-31T09:14:01.000000Z</property>
  <property name="meta.attr.0.stream.language.markup">eng</property>
  <property name="meta.attr.0.stream.handler_name.markup">SoundHandle</property>
  <property name="meta.attr.0.stream.vendor_id.markup">[0][0][0][0]</property>
  <property name="meta.attr.major_brand.markup">mp42</property>
  <property name="meta.attr.minor_version.markup">0</property>
  <property name="meta.attr.compatible_brands.markup">isommp42</property>
  <property name="meta.attr.creation_time.markup">2024-07-31T09:14:01.000000Z</property>
  <property name="meta.attr.com.android.version.markup">12</property>
  <property name="seekable">1</property>
  <property name="audio_index">0</property>
  <property name="video_index">-1</property>
  <property name="astream">0</property>
  <property name="kdenlive:folderid">-1</property>
  <property name="kdenlive:id">16</property>
  <property name="kdenlive:clip_type">1</property>
  <property name="kdenlive:file_size">81064</property>
  <property name="kdenlive:file_hash">4c59c76a8c887970542af7b2b40397fe</property>
  <property name="kdenlive:audio_max0">137</property>
  <property name="kdenlive:monitorPosition">0</property>
 </chain>
 <chain id="chain23" out="00:00:03.640">
  <property name="length">92</property>
  <property name="eof">pause</property>
  <property name="resource">nometter.m4a</property>
  <property name="mlt_service">avformat</property>
  <property name="meta.media.nb_streams">1</property>
  <property name="meta.media.0.stream.type">audio</property>
  <property name="meta.media.0.codec.sample_fmt">fltp</property>
  <property name="meta.media.0.codec.sample_rate">48000</property>
  <property name="meta.media.0.codec.channels">2</property>
  <property name="meta.media.0.codec.layout">stereo</property>
  <property name="meta.media.0.codec.name">aac</property>
  <property name="meta.media.0.codec.long_name">AAC (Advanced Audio Coding)</property>
  <property name="meta.media.0.codec.bit_rate">148000</property>
  <property name="meta.attr.0.stream.creation_time.markup">2024-07-31T09:17:20.000000Z</property>
  <property name="meta.attr.0.stream.language.markup">eng</property>
  <property name="meta.attr.0.stream.handler_name.markup">SoundHandle</property>
  <property name="meta.attr.0.stream.vendor_id.markup">[0][0][0][0]</property>
  <property name="meta.attr.major_brand.markup">mp42</property>
  <property name="meta.attr.minor_version.markup">0</property>
  <property name="meta.attr.compatible_brands.markup">isommp42</property>
  <property name="meta.attr.creation_time.markup">2024-07-31T09:17:20.000000Z</property>
  <property name="meta.attr.com.android.version.markup">12</property>
  <property name="seekable">1</property>
  <property name="audio_index">0</property>
  <property name="video_index">-1</property>
  <property name="astream">0</property>
  <property name="kdenlive:folderid">-1</property>
  <property name="kdenlive:id">17</property>
  <property name="kdenlive:clip_type">1</property>
  <property name="kdenlive:file_size">71191</property>
  <property name="kdenlive:file_hash">d6e8358bcda8f5ce576d45d07a10e6e8</property>
  <property name="kdenlive:audio_max0">143</property>
  <property name="kdenlive:monitorPosition">0</property>
 </chain>
 <chain id="chain24" out="00:00:04.120">
  <property name="length">104</property>
  <property name="eof">pause</property>
  <property name="resource">sowellfcul.m4a</property>
  <property name="mlt_service">avformat</property>
  <property name="meta.media.nb_streams">1</property>
  <property name="meta.media.0.stream.type">audio</property>
  <property name="meta.media.0.codec.sample_fmt">fltp</property>
  <property name="meta.media.0.codec.sample_rate">48000</property>
  <property name="meta.media.0.codec.channels">2</property>
  <property name="meta.media.0.codec.layout">stereo</property>
  <property name="meta.media.0.codec.name">aac</property>
  <property name="meta.media.0.codec.long_name">AAC (Advanced Audio Coding)</property>
  <property name="meta.media.0.codec.bit_rate">148001</property>
  <property name="meta.attr.0.stream.creation_time.markup">2024-07-31T09:14:50.000000Z</property>
  <property name="meta.attr.0.stream.language.markup">eng</property>
  <property name="meta.attr.0.stream.handler_name.markup">SoundHandle</property>
  <property name="meta.attr.0.stream.vendor_id.markup">[0][0][0][0]</property>
  <property name="meta.attr.major_brand.markup">mp42</property>
  <property name="meta.attr.minor_version.markup">0</property>
  <property name="meta.attr.compatible_brands.markup">isommp42</property>
  <property name="meta.attr.creation_time.markup">2024-07-31T09:14:50.000000Z</property>
  <property name="meta.attr.com.android.version.markup">12</property>
  <property name="seekable">1</property>
  <property name="audio_index">0</property>
  <property name="video_index">-1</property>
  <property name="astream">0</property>
  <property name="kdenlive:folderid">-1</property>
  <property name="kdenlive:id">18</property>
  <property name="kdenlive:clip_type">1</property>
  <property name="kdenlive:file_size">80275</property>
  <property name="kdenlive:file_hash">879d0ae04efcb809f472f3916eac53b4</property>
  <property name="kdenlive:audio_max0">155</property>
  <property name="kdenlive:monitorPosition">0</property>
 </chain>
 <chain id="chain25" out="00:00:03.080">
  <property name="length">78</property>
  <property name="eof">pause</property>
  <property name="resource">sowewikllues.m4a</property>
  <property name="mlt_service">avformat</property>
  <property name="meta.media.nb_streams">1</property>
  <property name="meta.media.0.stream.type">audio</property>
  <property name="meta.media.0.codec.sample_fmt">fltp</property>
  <property name="meta.media.0.codec.sample_rate">48000</property>
  <property name="meta.media.0.codec.channels">2</property>
  <property name="meta.media.0.codec.layout">stereo</property>
  <property name="meta.media.0.codec.name">aac</property>
  <property name="meta.media.0.codec.long_name">AAC (Advanced Audio Coding)</property>
  <property name="meta.media.0.codec.bit_rate">148002</property>
  <property name="meta.attr.0.stream.creation_time.markup">2024-07-31T09:18:11.000000Z</property>
  <property name="meta.attr.0.stream.language.markup">eng</property>
  <property name="meta.attr.0.stream.handler_name.markup">SoundHandle</property>
  <property name="meta.attr.0.stream.vendor_id.markup">[0][0][0][0]</property>
  <property name="meta.attr.major_brand.markup">mp42</property>
  <property name="meta.attr.minor_version.markup">0</property>
  <property name="meta.attr.compatible_brands.markup">isommp42</property>
  <property name="meta.attr.creation_time.markup">2024-07-31T09:18:11.000000Z</property>
  <property name="meta.attr.com.android.version.markup">12</property>
  <property name="seekable">1</property>
  <property name="audio_index">0</property>
  <property name="video_index">-1</property>
  <property name="astream">0</property>
  <property name="kdenlive:folderid">-1</property>
  <property name="kdenlive:id">19</property>
  <property name="kdenlive:clip_type">1</property>
  <property name="kdenlive:file_size">61319</property>
  <property name="kdenlive:file_hash">cb55084e37b80ce1e32e18f3d112ce3f</property>
  <property name="kdenlive:audio_max0">142</property>
  <property name="kdenlive:monitorPosition">0</property>
 </chain>
 <chain id="chain26" out="00:00:06.920">
  <property name="length">174</property>
  <property name="eof">pause</property>
  <property name="resource">thattheveryidea.m4a</property>
  <property name="mlt_service">avformat</property>
  <property name="meta.media.nb_streams">1</property>
  <property name="meta.media.0.stream.type">audio</property>
  <property name="meta.media.0.codec.sample_fmt">fltp</property>
  <property name="meta.media.0.codec.sample_rate">48000</property>
  <property name="meta.media.0.codec.channels">2</property>
  <property name="meta.media.0.codec.layout">stereo</property>
  <property name="meta.media.0.codec.name">aac</property>
  <property name="meta.media.0.codec.long_name">AAC (Advanced Audio Coding)</property>
  <property name="meta.media.0.codec.bit_rate">148001</property>
  <property name="meta.attr.0.stream.creation_time.markup">2024-07-31T09:22:04.000000Z</property>
  <property name="meta.attr.0.stream.language.markup">eng</property>
  <property name="meta.attr.0.stream.handler_name.markup">SoundHandle</property>
  <property name="meta.attr.0.stream.vendor_id.markup">[0][0][0][0]</property>
  <property name="meta.attr.major_brand.markup">mp42</property>
  <property name="meta.attr.minor_version.markup">0</property>
  <property name="meta.attr.compatible_brands.markup">isommp42</property>
  <property name="meta.attr.creation_time.markup">2024-07-31T09:22:04.000000Z</property>
  <property name="meta.attr.com.android.version.markup">12</property>
  <property name="seekable">1</property>
  <property name="audio_index">0</property>
  <property name="video_index">-1</property>
  <property name="astream">0</property>
  <property name="kdenlive:folderid">-1</property>
  <property name="kdenlive:id">20</property>
  <property name="kdenlive:clip_type">1</property>
  <property name="kdenlive:file_size">132403</property>
  <property name="kdenlive:file_hash">f25f18dbaba44199342110a1b3c16de3</property>
  <property name="kdenlive:audio_max0">127</property>
  <property name="kdenlive:monitorPosition">56</property>
 </chain>
 <chain id="chain27" out="00:00:04.840">
  <property name="length">122</property>
  <property name="eof">pause</property>
  <property name="resource">thebisis.m4a</property>
  <property name="mlt_service">avformat</property>
  <property name="meta.media.nb_streams">1</property>
  <property name="meta.media.0.stream.type">audio</property>
  <property name="meta.media.0.codec.sample_fmt">fltp</property>
  <property name="meta.media.0.codec.sample_rate">48000</property>
  <property name="meta.media.0.codec.channels">2</property>
  <property name="meta.media.0.codec.layout">stereo</property>
  <property name="meta.media.0.codec.name">aac</property>
  <property name="meta.media.0.codec.long_name">AAC (Advanced Audio Coding)</property>
  <property name="meta.media.0.codec.bit_rate">147998</property>
  <property name="meta.attr.0.stream.creation_time.markup">2024-07-31T09:07:10.000000Z</property>
  <property name="meta.attr.0.stream.language.markup">eng</property>
  <property name="meta.attr.0.stream.handler_name.markup">SoundHandle</property>
  <property name="meta.attr.0.stream.vendor_id.markup">[0][0][0][0]</property>
  <property name="meta.attr.major_brand.markup">mp42</property>
  <property name="meta.attr.minor_version.markup">0</property>
  <property name="meta.attr.compatible_brands.markup">isommp42</property>
  <property name="meta.attr.creation_time.markup">2024-07-31T09:07:10.000000Z</property>
  <property name="meta.attr.com.android.version.markup">12</property>
  <property name="seekable">1</property>
  <property name="audio_index">0</property>
  <property name="video_index">-1</property>
  <property name="astream">0</property>
  <property name="kdenlive:folderid">-1</property>
  <property name="kdenlive:id">21</property>
  <property name="kdenlive:clip_type">1</property>
  <property name="kdenlive:file_size">93700</property>
  <property name="kdenlive:file_hash">42aa60ad3aec5eaa79f92130137d50a1</property>
  <property name="kdenlive:audio_max0">128</property>
  <property name="kdenlive:monitorPosition">65</property>
 </chain>
 <chain id="chain28" out="00:00:01.920">
  <property name="length">49</property>
  <property name="eof">pause</property>
  <property name="resource">thefirstcamp.m4a</property>
  <property name="mlt_service">avformat</property>
  <property name="meta.media.nb_streams">1</property>
  <property name="meta.media.0.stream.type">audio</property>
  <property name="meta.media.0.codec.sample_fmt">fltp</property>
  <property name="meta.media.0.codec.sample_rate">48000</property>
  <property name="meta.media.0.codec.channels">2</property>
  <property name="meta.media.0.codec.layout">stereo</property>
  <property name="meta.media.0.codec.name">aac</property>
  <property name="meta.media.0.codec.long_name">AAC (Advanced Audio Coding)</property>
  <property name="meta.media.0.codec.bit_rate">148002</property>
  <property name="meta.attr.0.stream.creation_time.markup">2024-07-31T09:18:24.000000Z</property>
  <property name="meta.attr.0.stream.language.markup">eng</property>
  <property name="meta.attr.0.stream.handler_name.markup">SoundHandle</property>
  <property name="meta.attr.0.stream.vendor_id.markup">[0][0][0][0]</property>
  <property name="meta.attr.major_brand.markup">mp42</property>
  <property name="meta.attr.minor_version.markup">0</property>
  <property name="meta.attr.compatible_brands.markup">isommp42</property>
  <property name="meta.attr.creation_time.markup">2024-07-31T09:18:24.000000Z</property>
  <property name="meta.attr.com.android.version.markup">12</property>
  <property name="seekable">1</property>
  <property name="audio_index">0</property>
  <property name="video_index">-1</property>
  <property name="astream">0</property>
  <property name="kdenlive:folderid">-1</property>
  <property name="kdenlive:id">22</property>
  <property name="kdenlive:clip_type">1</property>
  <property name="kdenlive:file_size">39598</property>
  <property name="kdenlive:file_hash">c43294639f259ee200c372c906911b1b</property>
  <property name="kdenlive:audio_max0">125</property>
  <property name="kdenlive:monitorPosition">0</property>
 </chain>
 <chain id="chain29" out="00:00:04.680">
  <property name="length">118</property>
  <property name="eof">pause</property>
  <property name="resource">thesearetoomany.m4a</property>
  <property name="mlt_service">avformat</property>
  <property name="meta.media.nb_streams">1</property>
  <property name="meta.media.0.stream.type">audio</property>
  <property name="meta.media.0.codec.sample_fmt">fltp</property>
  <property name="meta.media.0.codec.sample_rate">48000</property>
  <property name="meta.media.0.codec.channels">2</property>
  <property name="meta.media.0.codec.layout">stereo</property>
  <property name="meta.media.0.codec.name">aac</property>
  <property name="meta.media.0.codec.long_name">AAC (Advanced Audio Coding)</property>
  <property name="meta.media.0.codec.bit_rate">148001</property>
  <property name="meta.attr.0.stream.creation_time.markup">2024-07-31T09:11:44.000000Z</property>
  <property name="meta.attr.0.stream.language.markup">eng</property>
  <property name="meta.attr.0.stream.handler_name.markup">SoundHandle</property>
  <property name="meta.attr.0.stream.vendor_id.markup">[0][0][0][0]</property>
  <property name="meta.attr.major_brand.markup">mp42</property>
  <property name="meta.attr.minor_version.markup">0</property>
  <property name="meta.attr.compatible_brands.markup">isommp42</property>
  <property name="meta.attr.creation_time.markup">2024-07-31T09:11:44.000000Z</property>
  <property name="meta.attr.com.android.version.markup">12</property>
  <property name="seekable">1</property>
  <property name="audio_index">0</property>
  <property name="video_index">-1</property>
  <property name="astream">0</property>
  <property name="kdenlive:folderid">-1</property>
  <property name="kdenlive:id">23</property>
  <property name="kdenlive:clip_type">1</property>
  <property name="kdenlive:file_size">90937</property>
  <property name="kdenlive:file_hash">268befcc9f7760b1e006212ef2bd3490</property>
  <property name="kdenlive:audio_max0">142</property>
  <property name="kdenlive:monitorPosition">0</property>
 </chain>
 <chain id="chain30" out="00:00:02.640">
  <property name="length">67</property>
  <property name="eof">pause</property>
  <property name="resource">thewillbeabout.m4a</property>
  <property name="mlt_service">avformat</property>
  <property name="meta.media.nb_streams">1</property>
  <property name="meta.media.0.stream.type">audio</property>
  <property name="meta.media.0.codec.sample_fmt">fltp</property>
  <property name="meta.media.0.codec.sample_rate">48000</property>
  <property name="meta.media.0.codec.channels">2</property>
  <property name="meta.media.0.codec.layout">stereo</property>
  <property name="meta.media.0.codec.name">aac</property>
  <property name="meta.media.0.codec.long_name">AAC (Advanced Audio Coding)</property>
  <property name="meta.media.0.codec.bit_rate">148002</property>
  <property name="meta.attr.0.stream.creation_time.markup">2024-07-31T09:17:48.000000Z</property>
  <property name="meta.attr.0.stream.language.markup">eng</property>
  <property name="meta.attr.0.stream.handler_name.markup">SoundHandle</property>
  <property name="meta.attr.0.stream.vendor_id.markup">[0][0][0][0]</property>
  <property name="meta.attr.major_brand.markup">mp42</property>
  <property name="meta.attr.minor_version.markup">0</property>
  <property name="meta.attr.compatible_brands.markup">isommp42</property>
  <property name="meta.attr.creation_time.markup">2024-07-31T09:17:48.000000Z</property>
  <property name="meta.attr.com.android.version.markup">12</property>
  <property name="seekable">1</property>
  <property name="audio_index">0</property>
  <property name="video_index">-1</property>
  <property name="astream">0</property>
  <property name="kdenlive:folderid">-1</property>
  <property name="kdenlive:id">24</property>
  <property name="kdenlive:clip_type">1</property>
  <property name="kdenlive:file_size">53025</property>
  <property name="kdenlive:file_hash">b4e2fb38b1c4902e02a3f0f28ad1f1b1</property>
  <property name="kdenlive:audio_max0">136</property>
  <property name="kdenlive:monitorPosition">0</property>
 </chain>
 <chain id="chain31" out="00:00:04.160">
  <property name="length">105</property>
  <property name="eof">pause</property>
  <property name="resource">twomain.m4a</property>
  <property name="mlt_service">avformat</property>
  <property name="meta.media.nb_streams">1</property>
  <property name="meta.media.0.stream.type">audio</property>
  <property name="meta.media.0.codec.sample_fmt">fltp</property>
  <property name="meta.media.0.codec.sample_rate">48000</property>
  <property name="meta.media.0.codec.channels">2</property>
  <property name="meta.media.0.codec.layout">stereo</property>
  <property name="meta.media.0.codec.name">aac</property>
  <property name="meta.media.0.codec.long_name">AAC (Advanced Audio Coding)</property>
  <property name="meta.media.0.codec.bit_rate">148001</property>
  <property name="meta.attr.0.stream.creation_time.markup">2024-07-31T09:16:24.000000Z</property>
  <property name="meta.attr.0.stream.language.markup">eng</property>
  <property name="meta.attr.0.stream.handler_name.markup">SoundHandle</property>
  <property name="meta.attr.0.stream.vendor_id.markup">[0][0][0][0]</property>
  <property name="meta.attr.major_brand.markup">mp42</property>
  <property name="meta.attr.minor_version.markup">0</property>
  <property name="meta.attr.compatible_brands.markup">isommp42</property>
  <property name="meta.attr.creation_time.markup">2024-07-31T09:16:24.000000Z</property>
  <property name="meta.attr.com.android.version.markup">12</property>
  <property name="seekable">1</property>
  <property name="audio_index">0</property>
  <property name="video_index">-1</property>
  <property name="astream">0</property>
  <property name="kdenlive:folderid">-1</property>
  <property name="kdenlive:id">25</property>
  <property name="kdenlive:clip_type">1</property>
  <property name="kdenlive:file_size">81064</property>
  <property name="kdenlive:file_hash">febfae53a30aa815715766df0627e0ab</property>
  <property name="kdenlive:audio_max0">132</property>
  <property name="kdenlive:monitorPosition">0</property>
 </chain>
 <chain id="chain32" out="00:00:03.200">
  <property name="length">81</property>
  <property name="eof">pause</property>
  <property name="resource">withnofree.m4a</property>
  <property name="mlt_service">avformat</property>
  <property name="meta.media.nb_streams">1</property>
  <property name="meta.media.0.stream.type">audio</property>
  <property name="meta.media.0.codec.sample_fmt">fltp</property>
  <property name="meta.media.0.codec.sample_rate">48000</property>
  <property name="meta.media.0.codec.channels">2</property>
  <property name="meta.media.0.codec.layout">stereo</property>
  <property name="meta.media.0.codec.name">aac</property>
  <property name="meta.media.0.codec.long_name">AAC (Advanced Audio Coding)</property>
  <property name="meta.media.0.codec.bit_rate">147998</property>
  <property name="meta.attr.0.stream.creation_time.markup">2024-07-31T08:58:59.000000Z</property>
  <property name="meta.attr.0.stream.language.markup">eng</property>
  <property name="meta.attr.0.stream.handler_name.markup">SoundHandle</property>
  <property name="meta.attr.0.stream.vendor_id.markup">[0][0][0][0]</property>
  <property name="meta.attr.major_brand.markup">mp42</property>
  <property name="meta.attr.minor_version.markup">0</property>
  <property name="meta.attr.compatible_brands.markup">isommp42</property>
  <property name="meta.attr.creation_time.markup">2024-07-31T08:58:59.000000Z</property>
  <property name="meta.attr.com.android.version.markup">12</property>
  <property name="seekable">1</property>
  <property name="audio_index">0</property>
  <property name="video_index">-1</property>
  <property name="astream">0</property>
  <property name="kdenlive:folderid">-1</property>
  <property name="kdenlive:id">26</property>
  <property name="kdenlive:clip_type">1</property>
  <property name="kdenlive:file_size">62896</property>
  <property name="kdenlive:file_hash">bfb99afe9c58f9c0f6dab25821ef34ba</property>
  <property name="kdenlive:audio_max0">133</property>
  <property name="kdenlive:monitorPosition">0</property>
 </chain>
 <chain id="chain33" out="00:00:02.240">
  <property name="length">57</property>
  <property name="eof">pause</property>
  <property name="resource">youareannpc.m4a</property>
  <property name="mlt_service">avformat</property>
  <property name="meta.media.nb_streams">1</property>
  <property name="meta.media.0.stream.type">audio</property>
  <property name="meta.media.0.codec.sample_fmt">fltp</property>
  <property name="meta.media.0.codec.sample_rate">48000</property>
  <property name="meta.media.0.codec.channels">2</property>
  <property name="meta.media.0.codec.layout">stereo</property>
  <property name="meta.media.0.codec.name">aac</property>
  <property name="meta.media.0.codec.long_name">AAC (Advanced Audio Coding)</property>
  <property name="meta.media.0.codec.bit_rate">147997</property>
  <property name="meta.attr.0.stream.creation_time.markup">2024-07-31T09:23:00.000000Z</property>
  <property name="meta.attr.0.stream.language.markup">eng</property>
  <property name="meta.attr.0.stream.handler_name.markup">SoundHandle</property>
  <property name="meta.attr.0.stream.vendor_id.markup">[0][0][0][0]</property>
  <property name="meta.attr.major_brand.markup">mp42</property>
  <property name="meta.attr.minor_version.markup">0</property>
  <property name="meta.attr.compatible_brands.markup">isommp42</property>
  <property name="meta.attr.creation_time.markup">2024-07-31T09:23:00.000000Z</property>
  <property name="meta.attr.com.android.version.markup">12</property>
  <property name="seekable">1</property>
  <property name="audio_index">0</property>
  <property name="video_index">-1</property>
  <property name="astream">0</property>
  <property name="kdenlive:folderid">-1</property>
  <property name="kdenlive:id">27</property>
  <property name="kdenlive:clip_type">1</property>
  <property name="kdenlive:file_size">45126</property>
  <property name="kdenlive:file_hash">9629b38095fe666e8cdf56e5f9f4ab4b</property>
  <property name="kdenlive:audio_max0">126</property>
  <property name="kdenlive:monitorPosition">0</property>
 </chain>
 <chain id="chain34" out="00:00:04.360">
  <property name="length">110</property>
  <property name="eof">pause</property>
  <property name="resource">youexp.m4a</property>
  <property name="mlt_service">avformat</property>
  <property name="meta.media.nb_streams">1</property>
  <property name="meta.media.0.stream.type">audio</property>
  <property name="meta.media.0.codec.sample_fmt">fltp</property>
  <property name="meta.media.0.codec.sample_rate">48000</property>
  <property name="meta.media.0.codec.channels">2</property>
  <property name="meta.media.0.codec.layout">stereo</property>
  <property name="meta.media.0.codec.name">aac</property>
  <property name="meta.media.0.codec.long_name">AAC (Advanced Audio Coding)</property>
  <property name="meta.media.0.codec.bit_rate">148000</property>
  <property name="meta.attr.0.stream.creation_time.markup">2024-07-31T08:59:41.000000Z</property>
  <property name="meta.attr.0.stream.language.markup">eng</property>
  <property name="meta.attr.0.stream.handler_name.markup">SoundHandle</property>
  <property name="meta.attr.0.stream.vendor_id.markup">[0][0][0][0]</property>
  <property name="meta.attr.major_brand.markup">mp42</property>
  <property name="meta.attr.minor_version.markup">0</property>
  <property name="meta.attr.compatible_brands.markup">isommp42</property>
  <property name="meta.attr.creation_time.markup">2024-07-31T08:59:41.000000Z</property>
  <property name="meta.attr.com.android.version.markup">12</property>
  <property name="seekable">1</property>
  <property name="audio_index">0</property>
  <property name="video_index">-1</property>
  <property name="astream">0</property>
  <property name="kdenlive:folderid">-1</property>
  <property name="kdenlive:id">28</property>
  <property name="kdenlive:clip_type">1</property>
  <property name="kdenlive:file_size">85012</property>
  <property name="kdenlive:file_hash">0c6629c242beb696e9a1982a38aea869</property>
  <property name="kdenlive:audio_max0">132</property>
  <property name="kdenlive:monitorPosition">0</property>
 </chain>
 <chain id="chain46" out="00:00:05.600">
  <property name="length">141</property>
  <property name="eof">pause</property>
  <property name="resource">ph.m4a</property>
  <property name="mlt_service">avformat</property>
  <property name="meta.media.nb_streams">1</property>
  <property name="meta.media.0.stream.type">audio</property>
  <property name="meta.media.0.codec.sample_fmt">fltp</property>
  <property name="meta.media.0.codec.sample_rate">48000</property>
  <property name="meta.media.0.codec.channels">2</property>
  <property name="meta.media.0.codec.layout">stereo</property>
  <property name="meta.media.0.codec.name">aac</property>
  <property name="meta.media.0.codec.long_name">AAC (Advanced Audio Coding)</property>
  <property name="meta.media.0.codec.bit_rate">148000</property>
  <property name="meta.attr.0.stream.creation_time.markup">2024-07-31T10:15:15.000000Z</property>
  <property name="meta.attr.0.stream.language.markup">eng</property>
  <property name="meta.attr.0.stream.handler_name.markup">SoundHandle</property>
  <property name="meta.attr.0.stream.vendor_id.markup">[0][0][0][0]</property>
  <property name="meta.attr.major_brand.markup">mp42</property>
  <property name="meta.attr.minor_version.markup">0</property>
  <property name="meta.attr.compatible_brands.markup">isommp42</property>
  <property name="meta.attr.creation_time.markup">2024-07-31T10:15:15.000000Z</property>
  <property name="meta.attr.com.android.version.markup">12</property>
  <property name="seekable">1</property>
  <property name="audio_index">0</property>
  <property name="video_index">-1</property>
  <property name="astream">0</property>
  <property name="kdenlive:folderid">-1</property>
  <property name="kdenlive:id">29</property>
  <property name="kdenlive:clip_type">1</property>
  <property name="kdenlive:file_size">107917</property>
  <property name="kdenlive:file_hash">53bd04208eaecb75d58e90b384a79b53</property>
  <property name="kdenlive:audio_max0">143</property>
  <property name="kdenlive:monitorPosition">0</property>
 </chain>
 <chain id="chain47" out="00:00:02.560">
  <property name="length">65</property>
  <property name="eof">pause</property>
  <property name="resource">butthismaybe.m4a</property>
  <property name="mlt_service">avformat</property>
  <property name="meta.media.nb_streams">1</property>
  <property name="meta.media.0.stream.type">audio</property>
  <property name="meta.media.0.codec.sample_fmt">fltp</property>
  <property name="meta.media.0.codec.sample_rate">48000</property>
  <property name="meta.media.0.codec.channels">2</property>
  <property name="meta.media.0.codec.layout">stereo</property>
  <property name="meta.media.0.codec.name">aac</property>
  <property name="meta.media.0.codec.long_name">AAC (Advanced Audio Coding)</property>
  <property name="meta.media.0.codec.bit_rate">147998</property>
  <property name="meta.attr.0.stream.creation_time.markup">2024-07-31T10:18:45.000000Z</property>
  <property name="meta.attr.0.stream.language.markup">eng</property>
  <property name="meta.attr.0.stream.handler_name.markup">SoundHandle</property>
  <property name="meta.attr.0.stream.vendor_id.markup">[0][0][0][0]</property>
  <property name="meta.attr.major_brand.markup">mp42</property>
  <property name="meta.attr.minor_version.markup">0</property>
  <property name="meta.attr.compatible_brands.markup">isommp42</property>
  <property name="meta.attr.creation_time.markup">2024-07-31T10:18:45.000000Z</property>
  <property name="meta.attr.com.android.version.markup">12</property>
  <property name="seekable">1</property>
  <property name="audio_index">0</property>
  <property name="video_index">-1</property>
  <property name="astream">0</property>
  <property name="kdenlive:folderid">-1</property>
  <property name="kdenlive:id">30</property>
  <property name="kdenlive:clip_type">1</property>
  <property name="kdenlive:file_size">51445</property>
  <property name="kdenlive:file_hash">a60524027e6ac994fe95e650394f1969</property>
  <property name="kdenlive:audio_max0">133</property>
  <property name="kdenlive:monitorPosition">0</property>
 </chain>
 <chain id="chain48" out="00:00:03.440">
  <property name="length">87</property>
  <property name="eof">pause</property>
  <property name="resource">oratleast.m4a</property>
  <property name="mlt_service">avformat</property>
  <property name="meta.media.nb_streams">1</property>
  <property name="meta.media.0.stream.type">audio</property>
  <property name="meta.media.0.codec.sample_fmt">fltp</property>
  <property name="meta.media.0.codec.sample_rate">48000</property>
  <property name="meta.media.0.codec.channels">2</property>
  <property name="meta.media.0.codec.layout">stereo</property>
  <property name="meta.media.0.codec.name">aac</property>
  <property name="meta.media.0.codec.long_name">AAC (Advanced Audio Coding)</property>
  <property name="meta.media.0.codec.bit_rate">148000</property>
  <property name="meta.attr.0.stream.creation_time.markup">2024-07-31T10:18:22.000000Z</property>
  <property name="meta.attr.0.stream.language.markup">eng</property>
  <property name="meta.attr.0.stream.handler_name.markup">SoundHandle</property>
  <property name="meta.attr.0.stream.vendor_id.markup">[0][0][0][0]</property>
  <property name="meta.attr.major_brand.markup">mp42</property>
  <property name="meta.attr.minor_version.markup">0</property>
  <property name="meta.attr.compatible_brands.markup">isommp42</property>
  <property name="meta.attr.creation_time.markup">2024-07-31T10:18:22.000000Z</property>
  <property name="meta.attr.com.android.version.markup">12</property>
  <property name="seekable">1</property>
  <property name="audio_index">0</property>
  <property name="video_index">-1</property>
  <property name="astream">0</property>
  <property name="kdenlive:folderid">-1</property>
  <property name="kdenlive:id">31</property>
  <property name="kdenlive:clip_type">1</property>
  <property name="kdenlive:file_size">67637</property>
  <property name="kdenlive:file_hash">511385f70438d775021a6db830a3abcc</property>
  <property name="kdenlive:audio_max0">125</property>
  <property name="kdenlive:monitorPosition">26</property>
 </chain>
 <chain id="chain50" out="00:11:58.680">
  <property name="length">17968</property>
  <property name="eof">pause</property>
  <property name="resource">bgm.mp3</property>
  <property name="mlt_service">avformat</property>
  <property name="meta.media.nb_streams">1</property>
  <property name="meta.media.0.stream.type">audio</property>
  <property name="meta.media.0.codec.sample_fmt">fltp</property>
  <property name="meta.media.0.codec.sample_rate">48000</property>
  <property name="meta.media.0.codec.channels">2</property>
  <property name="meta.media.0.codec.layout">stereo</property>
  <property name="meta.media.0.codec.name">mp3float</property>
  <property name="meta.media.0.codec.long_name">MP3 (MPEG audio layer 3)</property>
  <property name="meta.media.0.codec.bit_rate">128000</property>
  <property name="meta.attr.0.stream.encoder.markup">Lavc58.54</property>
  <property name="meta.attr.encoder.markup">Lavf58.29.100</property>
  <property name="seekable">1</property>
  <property name="audio_index">0</property>
  <property name="video_index">-1</property>
  <property name="astream">0</property>
  <property name="kdenlive:folderid">-1</property>
  <property name="kdenlive:id">32</property>
  <property name="kdenlive:clip_type">1</property>
  <property name="kdenlive:file_size">11499501</property>
  <property name="kdenlive:file_hash">330b856bfb169a2bac82a3c659e63e34</property>
  <property name="kdenlive:audio_max0">182</property>
  <property name="kdenlive:monitorPosition">0</property>
 </chain>
 <chain id="chain61" out="00:00:05.680">
  <property name="length">143</property>
  <property name="eof">pause</property>
  <property name="resource">acthionsandre.m4a</property>
  <property name="mlt_service">avformat</property>
  <property name="meta.media.nb_streams">1</property>
  <property name="meta.media.0.stream.type">audio</property>
  <property name="meta.media.0.codec.sample_fmt">fltp</property>
  <property name="meta.media.0.codec.sample_rate">48000</property>
  <property name="meta.media.0.codec.channels">2</property>
  <property name="meta.media.0.codec.layout">stereo</property>
  <property name="meta.media.0.codec.name">aac</property>
  <property name="meta.media.0.codec.long_name">AAC (Advanced Audio Coding)</property>
  <property name="meta.media.0.codec.bit_rate">147999</property>
  <property name="meta.attr.0.stream.creation_time.markup">2024-08-01T04:44:10.000000Z</property>
  <property name="meta.attr.0.stream.language.markup">eng</property>
  <property name="meta.attr.0.stream.handler_name.markup">SoundHandle</property>
  <property name="meta.attr.0.stream.vendor_id.markup">[0][0][0][0]</property>
  <property name="meta.attr.major_brand.markup">mp42</property>
  <property name="meta.attr.minor_version.markup">0</property>
  <property name="meta.attr.compatible_brands.markup">isommp42</property>
  <property name="meta.attr.creation_time.markup">2024-08-01T04:44:10.000000Z</property>
  <property name="meta.attr.com.android.version.markup">12</property>
  <property name="seekable">1</property>
  <property name="audio_index">0</property>
  <property name="video_index">-1</property>
  <property name="astream">0</property>
  <property name="kdenlive:folderid">-1</property>
  <property name="kdenlive:id">33</property>
  <property name="kdenlive:clip_type">1</property>
  <property name="kdenlive:file_size">109497</property>
  <property name="kdenlive:file_hash">d1113339d2634940ffd4e7b6d1304a13</property>
  <property name="kdenlive:audio_max0">114</property>
  <property name="kdenlive:monitorPosition">36</property>
 </chain>
 <chain id="chain62" out="00:00:03.080">
  <property name="length">78</property>
  <property name="eof">pause</property>
  <property name="resource">andnoted.m4a</property>
  <property name="mlt_service">avformat</property>
  <property name="meta.media.nb_streams">1</property>
  <property name="meta.media.0.stream.type">audio</property>
  <property name="meta.media.0.codec.sample_fmt">fltp</property>
  <property name="meta.media.0.codec.sample_rate">48000</property>
  <property name="meta.media.0.codec.channels">2</property>
  <property name="meta.media.0.codec.layout">stereo</property>
  <property name="meta.media.0.codec.name">aac</property>
  <property name="meta.media.0.codec.long_name">AAC (Advanced Audio Coding)</property>
  <property name="meta.media.0.codec.bit_rate">147999</property>
  <property name="meta.attr.0.stream.creation_time.markup">2024-08-01T04:51:06.000000Z</property>
  <property name="meta.attr.0.stream.language.markup">eng</property>
  <property name="meta.attr.0.stream.handler_name.markup">SoundHandle</property>
  <property name="meta.attr.0.stream.vendor_id.markup">[0][0][0][0]</property>
  <property name="meta.attr.major_brand.markup">mp42</property>
  <property name="meta.attr.minor_version.markup">0</property>
  <property name="meta.attr.compatible_brands.markup">isommp42</property>
  <property name="meta.attr.creation_time.markup">2024-08-01T04:51:06.000000Z</property>
  <property name="meta.attr.com.android.version.markup">12</property>
  <property name="seekable">1</property>
  <property name="audio_index">0</property>
  <property name="video_index">-1</property>
  <property name="astream">0</property>
  <property name="kdenlive:folderid">-1</property>
  <property name="kdenlive:id">34</property>
  <property name="kdenlive:clip_type">1</property>
  <property name="kdenlive:file_size">60923</property>
  <property name="kdenlive:file_hash">fcf02e4ca74ccca8b24714816ad20ff9</property>
  <property name="kdenlive:audio_max0">110</property>
  <property name="kdenlive:monitorPosition">0</property>
 </chain>
 <chain id="chain63" out="00:00:02.520">
  <property name="length">64</property>
  <property name="eof">pause</property>
  <property name="resource">andtheseare.m4a</property>
  <property name="mlt_service">avformat</property>
  <property name="meta.media.nb_streams">1</property>
  <property name="meta.media.0.stream.type">audio</property>
  <property name="meta.media.0.codec.sample_fmt">fltp</property>
  <property name="meta.media.0.codec.sample_rate">48000</property>
  <property name="meta.media.0.codec.channels">2</property>
  <property name="meta.media.0.codec.layout">stereo</property>
  <property name="meta.media.0.codec.name">aac</property>
  <property name="meta.media.0.codec.long_name">AAC (Advanced Audio Coding)</property>
  <property name="meta.media.0.codec.bit_rate">148000</property>
  <property name="meta.attr.0.stream.creation_time.markup">2024-08-01T03:22:08.000000Z</property>
  <property name="meta.attr.0.stream.language.markup">eng</property>
  <property name="meta.attr.0.stream.handler_name.markup">SoundHandle</property>
  <property name="meta.attr.0.stream.vendor_id.markup">[0][0][0][0]</property>
  <property name="meta.attr.major_brand.markup">mp42</property>
  <property name="meta.attr.minor_version.markup">0</property>
  <property name="meta.attr.compatible_brands.markup">isommp42</property>
  <property name="meta.attr.creation_time.markup">2024-08-01T03:22:08.000000Z</property>
  <property name="meta.attr.com.android.version.markup">12</property>
  <property name="seekable">1</property>
  <property name="audio_index">0</property>
  <property name="video_index">-1</property>
  <property name="astream">0</property>
  <property name="kdenlive:folderid">-1</property>
  <property name="kdenlive:id">35</property>
  <property name="kdenlive:clip_type">1</property>
  <property name="kdenlive:file_size">50654</property>
  <property name="kdenlive:file_hash">bcf05e127442f2023db51a022f0d6110</property>
  <property name="kdenlive:audio_max0">144</property>
  <property name="kdenlive:monitorPosition">0</property>
 </chain>
 <chain id="chain64" out="00:00:05.800">
  <property name="length">146</property>
  <property name="eof">pause</property>
  <property name="resource">andwedontnowwhy.m4a</property>
  <property name="mlt_service">avformat</property>
  <property name="meta.media.nb_streams">1</property>
  <property name="meta.media.0.stream.type">audio</property>
  <property name="meta.media.0.codec.sample_fmt">fltp</property>
  <property name="meta.media.0.codec.sample_rate">48000</property>
  <property name="meta.media.0.codec.channels">2</property>
  <property name="meta.media.0.codec.layout">stereo</property>
  <property name="meta.media.0.codec.name">aac</property>
  <property name="meta.media.0.codec.long_name">AAC (Advanced Audio Coding)</property>
  <property name="meta.media.0.codec.bit_rate">147999</property>
  <property name="meta.attr.0.stream.creation_time.markup">2024-08-01T04:29:30.000000Z</property>
  <property name="meta.attr.0.stream.language.markup">eng</property>
  <property name="meta.attr.0.stream.handler_name.markup">SoundHandle</property>
  <property name="meta.attr.0.stream.vendor_id.markup">[0][0][0][0]</property>
  <property name="meta.attr.major_brand.markup">mp42</property>
  <property name="meta.attr.minor_version.markup">0</property>
  <property name="meta.attr.compatible_brands.markup">isommp42</property>
  <property name="meta.attr.creation_time.markup">2024-08-01T04:29:30.000000Z</property>
  <property name="meta.attr.com.android.version.markup">12</property>
  <property name="seekable">1</property>
  <property name="audio_index">0</property>
  <property name="video_index">-1</property>
  <property name="astream">0</property>
  <property name="kdenlive:folderid">-1</property>
  <property name="kdenlive:id">36</property>
  <property name="kdenlive:clip_type">1</property>
  <property name="kdenlive:file_size">111472</property>
  <property name="kdenlive:file_hash">695d27d2ca56a67a25d9703863296eee</property>
  <property name="kdenlive:audio_max0">132</property>
  <property name="kdenlive:monitorPosition">0</property>
 </chain>
 <chain id="chain65" out="00:00:06.560">
  <property name="length">165</property>
  <property name="eof">pause</property>
  <property name="resource">asthemicro.m4a</property>
  <property name="mlt_service">avformat</property>
  <property name="meta.media.nb_streams">1</property>
  <property name="meta.media.0.stream.type">audio</property>
  <property name="meta.media.0.codec.sample_fmt">fltp</property>
  <property name="meta.media.0.codec.sample_rate">48000</property>
  <property name="meta.media.0.codec.channels">2</property>
  <property name="meta.media.0.codec.layout">stereo</property>
  <property name="meta.media.0.codec.name">aac</property>
  <property name="meta.media.0.codec.long_name">AAC (Advanced Audio Coding)</property>
  <property name="meta.media.0.codec.bit_rate">148000</property>
  <property name="meta.attr.0.stream.creation_time.markup">2024-08-01T04:43:22.000000Z</property>
  <property name="meta.attr.0.stream.language.markup">eng</property>
  <property name="meta.attr.0.stream.handler_name.markup">SoundHandle</property>
  <property name="meta.attr.0.stream.vendor_id.markup">[0][0][0][0]</property>
  <property name="meta.attr.major_brand.markup">mp42</property>
  <property name="meta.attr.minor_version.markup">0</property>
  <property name="meta.attr.compatible_brands.markup">isommp42</property>
  <property name="meta.attr.creation_time.markup">2024-08-01T04:43:22.000000Z</property>
  <property name="meta.attr.com.android.version.markup">12</property>
  <property name="seekable">1</property>
  <property name="audio_index">0</property>
  <property name="video_index">-1</property>
  <property name="astream">0</property>
  <property name="kdenlive:folderid">-1</property>
  <property name="kdenlive:id">37</property>
  <property name="kdenlive:clip_type">1</property>
  <property name="kdenlive:file_size">125294</property>
  <property name="kdenlive:file_hash">d1a91b45bb6b0df7d4f19251cd1cb5d1</property>
  <property name="kdenlive:audio_max0">140</property>
  <property name="kdenlive:monitorPosition">0</property>
 </chain>
 <chain id="chain66" out="00:00:06.680">
  <property name="length">168</property>
  <property name="eof">pause</property>
  <property name="resource">asupersmart.m4a</property>
  <property name="mlt_service">avformat</property>
  <property name="meta.media.nb_streams">1</property>
  <property name="meta.media.0.stream.type">audio</property>
  <property name="meta.media.0.codec.sample_fmt">fltp</property>
  <property name="meta.media.0.codec.sample_rate">48000</property>
  <property name="meta.media.0.codec.channels">2</property>
  <property name="meta.media.0.codec.layout">stereo</property>
  <property name="meta.media.0.codec.name">aac</property>
  <property name="meta.media.0.codec.long_name">AAC (Advanced Audio Coding)</property>
  <property name="meta.media.0.codec.bit_rate">148001</property>
  <property name="meta.attr.0.stream.creation_time.markup">2024-08-01T04:50:13.000000Z</property>
  <property name="meta.attr.0.stream.language.markup">eng</property>
  <property name="meta.attr.0.stream.handler_name.markup">SoundHandle</property>
  <property name="meta.attr.0.stream.vendor_id.markup">[0][0][0][0]</property>
  <property name="meta.attr.major_brand.markup">mp42</property>
  <property name="meta.attr.minor_version.markup">0</property>
  <property name="meta.attr.compatible_brands.markup">isommp42</property>
  <property name="meta.attr.creation_time.markup">2024-08-01T04:50:13.000000Z</property>
  <property name="meta.attr.com.android.version.markup">12</property>
  <property name="seekable">1</property>
  <property name="audio_index">0</property>
  <property name="video_index">-1</property>
  <property name="astream">0</property>
  <property name="kdenlive:folderid">-1</property>
  <property name="kdenlive:id">38</property>
  <property name="kdenlive:clip_type">1</property>
  <property name="kdenlive:file_size">127665</property>
  <property name="kdenlive:file_hash">8bc1d622cffa6a76b3966b597e93c02a</property>
  <property name="kdenlive:audio_max0">114</property>
  <property name="kdenlive:monitorPosition">0</property>
 </chain>
 <chain id="chain67" out="00:00:03.320">
  <property name="length">84</property>
  <property name="eof">pause</property>
  <property name="resource">creating.m4a</property>
  <property name="mlt_service">avformat</property>
  <property name="meta.media.nb_streams">1</property>
  <property name="meta.media.0.stream.type">audio</property>
  <property name="meta.media.0.codec.sample_fmt">fltp</property>
  <property name="meta.media.0.codec.sample_rate">48000</property>
  <property name="meta.media.0.codec.channels">2</property>
  <property name="meta.media.0.codec.layout">stereo</property>
  <property name="meta.media.0.codec.name">aac</property>
  <property name="meta.media.0.codec.long_name">AAC (Advanced Audio Coding)</property>
  <property name="meta.media.0.codec.bit_rate">147999</property>
  <property name="meta.attr.0.stream.creation_time.markup">2024-08-01T04:45:30.000000Z</property>
  <property name="meta.attr.0.stream.language.markup">eng</property>
  <property name="meta.attr.0.stream.handler_name.markup">SoundHandle</property>
  <property name="meta.attr.0.stream.vendor_id.markup">[0][0][0][0]</property>
  <property name="meta.attr.major_brand.markup">mp42</property>
  <property name="meta.attr.minor_version.markup">0</property>
  <property name="meta.attr.compatible_brands.markup">isommp42</property>
  <property name="meta.attr.creation_time.markup">2024-08-01T04:45:30.000000Z</property>
  <property name="meta.attr.com.android.version.markup">12</property>
  <property name="seekable">1</property>
  <property name="audio_index">0</property>
  <property name="video_index">-1</property>
  <property name="astream">0</property>
  <property name="kdenlive:folderid">-1</property>
  <property name="kdenlive:id">39</property>
  <property name="kdenlive:clip_type">1</property>
  <property name="kdenlive:file_size">65661</property>
  <property name="kdenlive:file_hash">37071169cdabb039bbf5529af9756f37</property>
  <property name="kdenlive:audio_max0">127</property>
  <property name="kdenlive:monitorPosition">0</property>
 </chain>
 <chain id="chain68" out="00:00:04.480">
  <property name="length">113</property>
  <property name="eof">pause</property>
  <property name="resource">ifyouplay.m4a</property>
  <property name="mlt_service">avformat</property>
  <property name="meta.media.nb_streams">1</property>
  <property name="meta.media.0.stream.type">audio</property>
  <property name="meta.media.0.codec.sample_fmt">fltp</property>
  <property name="meta.media.0.codec.sample_rate">48000</property>
  <property name="meta.media.0.codec.channels">2</property>
  <property name="meta.media.0.codec.layout">stereo</property>
  <property name="meta.media.0.codec.name">aac</property>
  <property name="meta.media.0.codec.long_name">AAC (Advanced Audio Coding)</property>
  <property name="meta.media.0.codec.bit_rate">147999</property>
  <property name="meta.attr.0.stream.creation_time.markup">2024-08-01T04:34:41.000000Z</property>
  <property name="meta.attr.0.stream.language.markup">eng</property>
  <property name="meta.attr.0.stream.handler_name.markup">SoundHandle</property>
  <property name="meta.attr.0.stream.vendor_id.markup">[0][0][0][0]</property>
  <property name="meta.attr.major_brand.markup">mp42</property>
  <property name="meta.attr.minor_version.markup">0</property>
  <property name="meta.attr.compatible_brands.markup">isommp42</property>
  <property name="meta.attr.creation_time.markup">2024-08-01T04:34:41.000000Z</property>
  <property name="meta.attr.com.android.version.markup">12</property>
  <property name="seekable">1</property>
  <property name="audio_index">0</property>
  <property name="video_index">-1</property>
  <property name="astream">0</property>
  <property name="kdenlive:folderid">-1</property>
  <property name="kdenlive:id">40</property>
  <property name="kdenlive:clip_type">1</property>
  <property name="kdenlive:file_size">86985</property>
  <property name="kdenlive:file_hash">e9c4882d3b2307fdc3e67ae280d94c25</property>
  <property name="kdenlive:audio_max0">125</property>
  <property name="kdenlive:monitorPosition">0</property>
 </chain>
 <chain id="chain69" out="00:00:03.440">
  <property name="length">87</property>
  <property name="eof">pause</property>
  <property name="resource">itssomehow.m4a</property>
  <property name="mlt_service">avformat</property>
  <property name="meta.media.nb_streams">1</property>
  <property name="meta.media.0.stream.type">audio</property>
  <property name="meta.media.0.codec.sample_fmt">fltp</property>
  <property name="meta.media.0.codec.sample_rate">48000</property>
  <property name="meta.media.0.codec.channels">2</property>
  <property name="meta.media.0.codec.layout">stereo</property>
  <property name="meta.media.0.codec.name">aac</property>
  <property name="meta.media.0.codec.long_name">AAC (Advanced Audio Coding)</property>
  <property name="meta.media.0.codec.bit_rate">148000</property>
  <property name="meta.attr.0.stream.creation_time.markup">2024-08-01T03:19:36.000000Z</property>
  <property name="meta.attr.0.stream.language.markup">eng</property>
  <property name="meta.attr.0.stream.handler_name.markup">SoundHandle</property>
  <property name="meta.attr.0.stream.vendor_id.markup">[0][0][0][0]</property>
  <property name="meta.attr.major_brand.markup">mp42</property>
  <property name="meta.attr.minor_version.markup">0</property>
  <property name="meta.attr.compatible_brands.markup">isommp42</property>
  <property name="meta.attr.creation_time.markup">2024-08-01T03:19:36.000000Z</property>
  <property name="meta.attr.com.android.version.markup">12</property>
  <property name="seekable">1</property>
  <property name="audio_index">0</property>
  <property name="video_index">-1</property>
  <property name="astream">0</property>
  <property name="kdenlive:folderid">-1</property>
  <property name="kdenlive:id">41</property>
  <property name="kdenlive:clip_type">1</property>
  <property name="kdenlive:file_size">67637</property>
  <property name="kdenlive:file_hash">dbf585bed171f7985cb0446281067749</property>
  <property name="kdenlive:audio_max0">151</property>
  <property name="kdenlive:monitorPosition">0</property>
 </chain>
 <chain id="chain70" out="00:00:03.800">
  <property name="length">96</property>
  <property name="eof">pause</property>
  <property name="resource">mowimageian.m4a</property>
  <property name="mlt_service">avformat</property>
  <property name="meta.media.nb_streams">1</property>
  <property name="meta.media.0.stream.type">audio</property>
  <property name="meta.media.0.codec.sample_fmt">fltp</property>
  <property name="meta.media.0.codec.sample_rate">48000</property>
  <property name="meta.media.0.codec.channels">2</property>
  <property name="meta.media.0.codec.layout">stereo</property>
  <property name="meta.media.0.codec.name">aac</property>
  <property name="meta.media.0.codec.long_name">AAC (Advanced Audio Coding)</property>
  <property name="meta.media.0.codec.bit_rate">148002</property>
  <property name="meta.attr.0.stream.creation_time.markup">2024-08-01T04:48:39.000000Z</property>
  <property name="meta.attr.0.stream.language.markup">eng</property>
  <property name="meta.attr.0.stream.handler_name.markup">SoundHandle</property>
  <property name="meta.attr.0.stream.vendor_id.markup">[0][0][0][0]</property>
  <property name="meta.attr.major_brand.markup">mp42</property>
  <property name="meta.attr.minor_version.markup">0</property>
  <property name="meta.attr.compatible_brands.markup">isommp42</property>
  <property name="meta.attr.creation_time.markup">2024-08-01T04:48:39.000000Z</property>
  <property name="meta.attr.com.android.version.markup">12</property>
  <property name="seekable">1</property>
  <property name="audio_index">0</property>
  <property name="video_index">-1</property>
  <property name="astream">0</property>
  <property name="kdenlive:folderid">-1</property>
  <property name="kdenlive:id">42</property>
  <property name="kdenlive:clip_type">1</property>
  <property name="kdenlive:file_size">74349</property>
  <property name="kdenlive:file_hash">a147c1079888f13e3d1e99476e8c3823</property>
  <property name="kdenlive:audio_max0">129</property>
  <property name="kdenlive:monitorPosition">0</property>
 </chain>
 <chain id="chain71" out="00:00:04.800">
  <property name="length">121</property>
  <property name="eof">pause</property>
  <property name="resource">putcilsare.m4a</property>
  <property name="mlt_service">avformat</property>
  <property name="meta.media.nb_streams">1</property>
  <property name="meta.media.0.stream.type">audio</property>
  <property name="meta.media.0.codec.sample_fmt">fltp</property>
  <property name="meta.media.0.codec.sample_rate">48000</property>
  <property name="meta.media.0.codec.channels">2</property>
  <property name="meta.media.0.codec.layout">stereo</property>
  <property name="meta.media.0.codec.name">aac</property>
  <property name="meta.media.0.codec.long_name">AAC (Advanced Audio Coding)</property>
  <property name="meta.media.0.codec.bit_rate">148001</property>
  <property name="meta.attr.0.stream.creation_time.markup">2024-08-01T04:24:54.000000Z</property>
  <property name="meta.attr.0.stream.language.markup">eng</property>
  <property name="meta.attr.0.stream.handler_name.markup">SoundHandle</property>
  <property name="meta.attr.0.stream.vendor_id.markup">[0][0][0][0]</property>
  <property name="meta.attr.major_brand.markup">mp42</property>
  <property name="meta.attr.minor_version.markup">0</property>
  <property name="meta.attr.compatible_brands.markup">isommp42</property>
  <property name="meta.attr.creation_time.markup">2024-08-01T04:24:54.000000Z</property>
  <property name="meta.attr.com.android.version.markup">12</property>
  <property name="seekable">1</property>
  <property name="audio_index">0</property>
  <property name="video_index">-1</property>
  <property name="astream">0</property>
  <property name="kdenlive:folderid">-1</property>
  <property name="kdenlive:id">43</property>
  <property name="kdenlive:clip_type">1</property>
  <property name="kdenlive:file_size">92912</property>
  <property name="kdenlive:file_hash">ca463df489862afe1a5e27a3ba05b2db</property>
  <property name="kdenlive:audio_max0">139</property>
  <property name="kdenlive:monitorPosition">45</property>
 </chain>
 <chain id="chain72" out="00:00:06.600">
  <property name="length">166</property>
  <property name="eof">pause</property>
  <property name="resource">sofunmently.m4a</property>
  <property name="mlt_service">avformat</property>
  <property name="meta.media.nb_streams">1</property>
  <property name="meta.media.0.stream.type">audio</property>
  <property name="meta.media.0.codec.sample_fmt">fltp</property>
  <property name="meta.media.0.codec.sample_rate">48000</property>
  <property name="meta.media.0.codec.channels">2</property>
  <property name="meta.media.0.codec.layout">stereo</property>
  <property name="meta.media.0.codec.name">aac</property>
  <property name="meta.media.0.codec.long_name">AAC (Advanced Audio Coding)</property>
  <property name="meta.media.0.codec.bit_rate">148000</property>
  <property name="meta.attr.0.stream.creation_time.markup">2024-08-01T03:29:21.000000Z</property>
  <property name="meta.attr.0.stream.language.markup">eng</property>
  <property name="meta.attr.0.stream.handler_name.markup">SoundHandle</property>
  <property name="meta.attr.0.stream.vendor_id.markup">[0][0][0][0]</property>
  <property name="meta.attr.major_brand.markup">mp42</property>
  <property name="meta.attr.minor_version.markup">0</property>
  <property name="meta.attr.compatible_brands.markup">isommp42</property>
  <property name="meta.attr.creation_time.markup">2024-08-01T03:29:21.000000Z</property>
  <property name="meta.attr.com.android.version.markup">12</property>
  <property name="seekable">1</property>
  <property name="audio_index">0</property>
  <property name="video_index">-1</property>
  <property name="astream">0</property>
  <property name="kdenlive:folderid">-1</property>
  <property name="kdenlive:id">44</property>
  <property name="kdenlive:clip_type">1</property>
  <property name="kdenlive:file_size">126084</property>
  <property name="kdenlive:file_hash">efa64c7f5bcb4cf09c707d13d792da64</property>
  <property name="kdenlive:audio_max0">146</property>
  <property name="kdenlive:monitorPosition">0</property>
 </chain>
 <chain id="chain73" out="00:00:04.760">
  <property name="length">120</property>
  <property name="eof">pause</property>
  <property name="resource">thatexcen.m4a</property>
  <property name="mlt_service">avformat</property>
  <property name="meta.media.nb_streams">1</property>
  <property name="meta.media.0.stream.type">audio</property>
  <property name="meta.media.0.codec.sample_fmt">fltp</property>
  <property name="meta.media.0.codec.sample_rate">48000</property>
  <property name="meta.media.0.codec.channels">2</property>
  <property name="meta.media.0.codec.layout">stereo</property>
  <property name="meta.media.0.codec.name">aac</property>
  <property name="meta.media.0.codec.long_name">AAC (Advanced Audio Coding)</property>
  <property name="meta.media.0.codec.bit_rate">148001</property>
  <property name="meta.attr.0.stream.creation_time.markup">2024-08-01T04:47:32.000000Z</property>
  <property name="meta.attr.0.stream.language.markup">eng</property>
  <property name="meta.attr.0.stream.handler_name.markup">SoundHandle</property>
  <property name="meta.attr.0.stream.vendor_id.markup">[0][0][0][0]</property>
  <property name="meta.attr.major_brand.markup">mp42</property>
  <property name="meta.attr.minor_version.markup">0</property>
  <property name="meta.attr.compatible_brands.markup">isommp42</property>
  <property name="meta.attr.creation_time.markup">2024-08-01T04:47:32.000000Z</property>
  <property name="meta.attr.com.android.version.markup">12</property>
  <property name="seekable">1</property>
  <property name="audio_index">0</property>
  <property name="video_index">-1</property>
  <property name="astream">0</property>
  <property name="kdenlive:folderid">-1</property>
  <property name="kdenlive:id">45</property>
  <property name="kdenlive:clip_type">1</property>
  <property name="kdenlive:file_size">92121</property>
  <property name="kdenlive:file_hash">421ca079cabdad43cefc8431db078ccd</property>
  <property name="kdenlive:audio_max0">119</property>
  <property name="kdenlive:monitorPosition">0</property>
 </chain>
 <chain id="chain74" out="00:00:04.200">
  <property name="length">106</property>
  <property name="eof">pause</property>
  <property name="resource">theirspeeds.m4a</property>
  <property name="mlt_service">avformat</property>
  <property name="meta.media.nb_streams">1</property>
  <property name="meta.media.0.stream.type">audio</property>
  <property name="meta.media.0.codec.sample_fmt">fltp</property>
  <property name="meta.media.0.codec.sample_rate">48000</property>
  <property name="meta.media.0.codec.channels">2</property>
  <property name="meta.media.0.codec.layout">stereo</property>
  <property name="meta.media.0.codec.name">aac</property>
  <property name="meta.media.0.codec.long_name">AAC (Advanced Audio Coding)</property>
  <property name="meta.media.0.codec.bit_rate">148000</property>
  <property name="meta.attr.0.stream.creation_time.markup">2024-08-01T04:39:37.000000Z</property>
  <property name="meta.attr.0.stream.language.markup">eng</property>
  <property name="meta.attr.0.stream.handler_name.markup">SoundHandle</property>
  <property name="meta.attr.0.stream.vendor_id.markup">[0][0][0][0]</property>
  <property name="meta.attr.major_brand.markup">mp42</property>
  <property name="meta.attr.minor_version.markup">0</property>
  <property name="meta.attr.compatible_brands.markup">isommp42</property>
  <property name="meta.attr.creation_time.markup">2024-08-01T04:39:37.000000Z</property>
  <property name="meta.attr.com.android.version.markup">12</property>
  <property name="seekable">1</property>
  <property name="audio_index">0</property>
  <property name="video_index">-1</property>
  <property name="astream">0</property>
  <property name="kdenlive:folderid">-1</property>
  <property name="kdenlive:id">46</property>
  <property name="kdenlive:clip_type">1</property>
  <property name="kdenlive:file_size">81853</property>
  <property name="kdenlive:file_hash">2e4b31a8059626991bf892c4e9d8c89b</property>
  <property name="kdenlive:audio_max0">118</property>
  <property name="kdenlive:monitorPosition">0</property>
 </chain>
 <chain id="chain75" out="00:00:05.760">
  <property name="length">145</property>
  <property name="eof">pause</property>
  <property name="resource">thelawsofph.m4a</property>
  <property name="mlt_service">avformat</property>
  <property name="meta.media.nb_streams">1</property>
  <property name="meta.media.0.stream.type">audio</property>
  <property name="meta.media.0.codec.sample_fmt">fltp</property>
  <property name="meta.media.0.codec.sample_rate">48000</property>
  <property name="meta.media.0.codec.channels">2</property>
  <property name="meta.media.0.codec.layout">stereo</property>
  <property name="meta.media.0.codec.name">aac</property>
  <property name="meta.media.0.codec.long_name">AAC (Advanced Audio Coding)</property>
  <property name="meta.media.0.codec.bit_rate">147999</property>
  <property name="meta.attr.0.stream.creation_time.markup">2024-08-01T04:37:59.000000Z</property>
  <property name="meta.attr.0.stream.language.markup">eng</property>
  <property name="meta.attr.0.stream.handler_name.markup">SoundHandle</property>
  <property name="meta.attr.0.stream.vendor_id.markup">[0][0][0][0]</property>
  <property name="meta.attr.major_brand.markup">mp42</property>
  <property name="meta.attr.minor_version.markup">0</property>
  <property name="meta.attr.compatible_brands.markup">isommp42</property>
  <property name="meta.attr.creation_time.markup">2024-08-01T04:37:59.000000Z</property>
  <property name="meta.attr.com.android.version.markup">12</property>
  <property name="seekable">1</property>
  <property name="audio_index">0</property>
  <property name="video_index">-1</property>
  <property name="astream">0</property>
  <property name="kdenlive:folderid">-1</property>
  <property name="kdenlive:id">47</property>
  <property name="kdenlive:clip_type">1</property>
  <property name="kdenlive:file_size">110286</property>
  <property name="kdenlive:file_hash">0932959cf4d2d4d90688a7e9ee5f5ee8</property>
  <property name="kdenlive:audio_max0">104</property>
  <property name="kdenlive:monitorPosition">0</property>
 </chain>
 <chain id="chain76" out="00:00:05.880">
  <property name="length">148</property>
  <property name="eof">pause</property>
  <property name="resource">theselawscom.m4a</property>
  <property name="mlt_service">avformat</property>
  <property name="meta.media.nb_streams">1</property>
  <property name="meta.media.0.stream.type">audio</property>
  <property name="meta.media.0.codec.sample_fmt">fltp</property>
  <property name="meta.media.0.codec.sample_rate">48000</property>
  <property name="meta.media.0.codec.channels">2</property>
  <property name="meta.media.0.codec.layout">stereo</property>
  <property name="meta.media.0.codec.name">aac</property>
  <property name="meta.media.0.codec.long_name">AAC (Advanced Audio Coding)</property>
  <property name="meta.media.0.codec.bit_rate">148000</property>
  <property name="meta.attr.0.stream.creation_time.markup">2024-08-01T04:41:38.000000Z</property>
  <property name="meta.attr.0.stream.language.markup">eng</property>
  <property name="meta.attr.0.stream.handler_name.markup">SoundHandle</property>
  <property name="meta.attr.0.stream.vendor_id.markup">[0][0][0][0]</property>
  <property name="meta.attr.major_brand.markup">mp42</property>
  <property name="meta.attr.minor_version.markup">0</property>
  <property name="meta.attr.compatible_brands.markup">isommp42</property>
  <property name="meta.attr.creation_time.markup">2024-08-01T04:41:38.000000Z</property>
  <property name="meta.attr.com.android.version.markup">12</property>
  <property name="seekable">1</property>
  <property name="audio_index">0</property>
  <property name="video_index">-1</property>
  <property name="astream">0</property>
  <property name="kdenlive:folderid">-1</property>
  <property name="kdenlive:id">48</property>
  <property name="kdenlive:clip_type">1</property>
  <property name="kdenlive:file_size">113052</property>
  <property name="kdenlive:file_hash">4462200b5e6dfd69576f29e05ba6bca0</property>
  <property name="kdenlive:audio_max0">122</property>
  <property name="kdenlive:monitorPosition">0</property>
 </chain>
 <chain id="chain77" out="00:00:03.720">
  <property name="length">94</property>
  <property name="eof">pause</property>
  <property name="resource">theybly.m4a</property>
  <property name="mlt_service">avformat</property>
  <property name="meta.media.nb_streams">1</property>
  <property name="meta.media.0.stream.type">audio</property>
  <property name="meta.media.0.codec.sample_fmt">fltp</property>
  <property name="meta.media.0.codec.sample_rate">48000</property>
  <property name="meta.media.0.codec.channels">2</property>
  <property name="meta.media.0.codec.layout">stereo</property>
  <property name="meta.media.0.codec.name">aac</property>
  <property name="meta.media.0.codec.long_name">AAC (Advanced Audio Coding)</property>
  <property name="meta.media.0.codec.bit_rate">147999</property>
  <property name="meta.attr.0.stream.creation_time.markup">2024-08-01T04:26:22.000000Z</property>
  <property name="meta.attr.0.stream.language.markup">eng</property>
  <property name="meta.attr.0.stream.handler_name.markup">SoundHandle</property>
  <property name="meta.attr.0.stream.vendor_id.markup">[0][0][0][0]</property>
  <property name="meta.attr.major_brand.markup">mp42</property>
  <property name="meta.attr.minor_version.markup">0</property>
  <property name="meta.attr.compatible_brands.markup">isommp42</property>
  <property name="meta.attr.creation_time.markup">2024-08-01T04:26:22.000000Z</property>
  <property name="meta.attr.com.android.version.markup">12</property>
  <property name="seekable">1</property>
  <property name="audio_index">0</property>
  <property name="video_index">-1</property>
  <property name="astream">0</property>
  <property name="kdenlive:folderid">-1</property>
  <property name="kdenlive:id">49</property>
  <property name="kdenlive:clip_type">1</property>
  <property name="kdenlive:file_size">72771</property>
  <property name="kdenlive:file_hash">7bf25fac8aac5f921eb43032f7645880</property>
  <property name="kdenlive:audio_max0">129</property>
  <property name="kdenlive:monitorPosition">47</property>
 </chain>
 <chain id="chain78" out="00:00:04.160">
  <property name="length">105</property>
  <property name="eof">pause</property>
  <property name="resource">thingshappen.m4a</property>
  <property name="mlt_service">avformat</property>
  <property name="meta.media.nb_streams">1</property>
  <property name="meta.media.0.stream.type">audio</property>
  <property name="meta.media.0.codec.sample_fmt">fltp</property>
  <property name="meta.media.0.codec.sample_rate">48000</property>
  <property name="meta.media.0.codec.channels">2</property>
  <property name="meta.media.0.codec.layout">stereo</property>
  <property name="meta.media.0.codec.name">aac</property>
  <property name="meta.media.0.codec.long_name">AAC (Advanced Audio Coding)</property>
  <property name="meta.media.0.codec.bit_rate">147998</property>
  <property name="meta.attr.0.stream.creation_time.markup">2024-08-01T04:47:51.000000Z</property>
  <property name="meta.attr.0.stream.language.markup">eng</property>
  <property name="meta.attr.0.stream.handler_name.markup">SoundHandle</property>
  <property name="meta.attr.0.stream.vendor_id.markup">[0][0][0][0]</property>
  <property name="meta.attr.major_brand.markup">mp42</property>
  <property name="meta.attr.minor_version.markup">0</property>
  <property name="meta.attr.compatible_brands.markup">isommp42</property>
  <property name="meta.attr.creation_time.markup">2024-08-01T04:47:51.000000Z</property>
  <property name="meta.attr.com.android.version.markup">12</property>
  <property name="seekable">1</property>
  <property name="audio_index">0</property>
  <property name="video_index">-1</property>
  <property name="astream">0</property>
  <property name="kdenlive:folderid">-1</property>
  <property name="kdenlive:id">50</property>
  <property name="kdenlive:clip_type">1</property>
  <property name="kdenlive:file_size">80666</property>
  <property name="kdenlive:file_hash">7cc8500445fb8b910f0f69c69a9ffcf6</property>
  <property name="kdenlive:audio_max0">117</property>
  <property name="kdenlive:monitorPosition">0</property>
 </chain>
 <chain id="chain79" out="00:00:05.440">
  <property name="length">137</property>
  <property name="eof">pause</property>
  <property name="resource">wcithmensthat.m4a</property>
  <property name="mlt_service">avformat</property>
  <property name="meta.media.nb_streams">1</property>
  <property name="meta.media.0.stream.type">audio</property>
  <property name="meta.media.0.codec.sample_fmt">fltp</property>
  <property name="meta.media.0.codec.sample_rate">48000</property>
  <property name="meta.media.0.codec.channels">2</property>
  <property name="meta.media.0.codec.layout">stereo</property>
  <property name="meta.media.0.codec.name">aac</property>
  <property name="meta.media.0.codec.long_name">AAC (Advanced Audio Coding)</property>
  <property name="meta.media.0.codec.bit_rate">148000</property>
  <property name="meta.attr.0.stream.creation_time.markup">2024-08-01T04:32:21.000000Z</property>
  <property name="meta.attr.0.stream.language.markup">eng</property>
  <property name="meta.attr.0.stream.handler_name.markup">SoundHandle</property>
  <property name="meta.attr.0.stream.vendor_id.markup">[0][0][0][0]</property>
  <property name="meta.attr.major_brand.markup">mp42</property>
  <property name="meta.attr.minor_version.markup">0</property>
  <property name="meta.attr.compatible_brands.markup">isommp42</property>
  <property name="meta.attr.creation_time.markup">2024-08-01T04:32:21.000000Z</property>
  <property name="meta.attr.com.android.version.markup">12</property>
  <property name="seekable">1</property>
  <property name="audio_index">0</property>
  <property name="video_index">-1</property>
  <property name="astream">0</property>
  <property name="kdenlive:folderid">-1</property>
  <property name="kdenlive:id">51</property>
  <property name="kdenlive:clip_type">1</property>
  <property name="kdenlive:file_size">104758</property>
  <property name="kdenlive:file_hash">ac828fee78aaeabe243c52573f32a283</property>
  <property name="kdenlive:audio_max0">125</property>
  <property name="kdenlive:monitorPosition">103</property>
 </chain>
 <chain id="chain80" out="00:00:03.280">
  <property name="length">83</property>
  <property name="eof">pause</property>
  <property name="resource">whatever.m4a</property>
  <property name="mlt_service">avformat</property>
  <property name="meta.media.nb_streams">1</property>
  <property name="meta.media.0.stream.type">audio</property>
  <property name="meta.media.0.codec.sample_fmt">fltp</property>
  <property name="meta.media.0.codec.sample_rate">48000</property>
  <property name="meta.media.0.codec.channels">2</property>
  <property name="meta.media.0.codec.layout">stereo</property>
  <property name="meta.media.0.codec.name">aac</property>
  <property name="meta.media.0.codec.long_name">AAC (Advanced Audio Coding)</property>
  <property name="meta.media.0.codec.bit_rate">148001</property>
  <property name="meta.attr.0.stream.creation_time.markup">2024-08-01T03:11:17.000000Z</property>
  <property name="meta.attr.0.stream.language.markup">eng</property>
  <property name="meta.attr.0.stream.handler_name.markup">SoundHandle</property>
  <property name="meta.attr.0.stream.vendor_id.markup">[0][0][0][0]</property>
  <property name="meta.attr.major_brand.markup">mp42</property>
  <property name="meta.attr.minor_version.markup">0</property>
  <property name="meta.attr.compatible_brands.markup">isommp42</property>
  <property name="meta.attr.creation_time.markup">2024-08-01T03:11:17.000000Z</property>
  <property name="meta.attr.com.android.version.markup">12</property>
  <property name="seekable">1</property>
  <property name="audio_index">0</property>
  <property name="video_index">-1</property>
  <property name="astream">0</property>
  <property name="kdenlive:folderid">-1</property>
  <property name="kdenlive:id">52</property>
  <property name="kdenlive:clip_type">1</property>
  <property name="kdenlive:file_size">64478</property>
  <property name="kdenlive:file_hash">7e42505ea03022e91b08d51e2fec28f7</property>
  <property name="kdenlive:audio_max0">136</property>
  <property name="kdenlive:monitorPosition">0</property>
 </chain>
 <chain id="chain81" out="00:00:05.040">
  <property name="length">127</property>
  <property name="eof">pause</property>
  <property name="resource">withare_.m4a</property>
  <property name="mlt_service">avformat</property>
  <property name="meta.media.nb_streams">1</property>
  <property name="meta.media.0.stream.type">audio</property>
  <property name="meta.media.0.codec.sample_fmt">fltp</property>
  <property name="meta.media.0.codec.sample_rate">48000</property>
  <property name="meta.media.0.codec.channels">2</property>
  <property name="meta.media.0.codec.layout">stereo</property>
  <property name="meta.media.0.codec.name">aac</property>
  <property name="meta.media.0.codec.long_name">AAC (Advanced Audio Coding)</property>
  <property name="meta.media.0.codec.bit_rate">148000</property>
  <property name="meta.attr.0.stream.creation_time.markup">2024-08-01T03:24:09.000000Z</property>
  <property name="meta.attr.0.stream.language.markup">eng</property>
  <property name="meta.attr.0.stream.handler_name.markup">SoundHandle</property>
  <property name="meta.attr.0.stream.vendor_id.markup">[0][0][0][0]</property>
  <property name="meta.attr.major_brand.markup">mp42</property>
  <property name="meta.attr.minor_version.markup">0</property>
  <property name="meta.attr.compatible_brands.markup">isommp42</property>
  <property name="meta.attr.creation_time.markup">2024-08-01T03:24:09.000000Z</property>
  <property name="meta.attr.com.android.version.markup">12</property>
  <property name="seekable">1</property>
  <property name="audio_index">0</property>
  <property name="video_index">-1</property>
  <property name="astream">0</property>
  <property name="kdenlive:folderid">-1</property>
  <property name="kdenlive:id">53</property>
  <property name="kdenlive:clip_type">1</property>
  <property name="kdenlive:file_size">97255</property>
  <property name="kdenlive:file_hash">0a81fd6d3967afd847c50973e70929fd</property>
  <property name="kdenlive:audio_max0">146</property>
  <property name="kdenlive:monitorPosition">39</property>
 </chain>
 <chain id="chain82" out="00:00:01.760">
  <property name="length">45</property>
  <property name="eof">pause</property>
  <property name="resource">withare.m4a</property>
  <property name="mlt_service">avformat</property>
  <property name="meta.media.nb_streams">1</property>
  <property name="meta.media.0.stream.type">audio</property>
  <property name="meta.media.0.codec.sample_fmt">fltp</property>
  <property name="meta.media.0.codec.sample_rate">48000</property>
  <property name="meta.media.0.codec.channels">2</property>
  <property name="meta.media.0.codec.layout">stereo</property>
  <property name="meta.media.0.codec.name">aac</property>
  <property name="meta.media.0.codec.long_name">AAC (Advanced Audio Coding)</property>
  <property name="meta.media.0.codec.bit_rate">148001</property>
  <property name="meta.attr.0.stream.creation_time.markup">2024-08-01T03:22:50.000000Z</property>
  <property name="meta.attr.0.stream.language.markup">eng</property>
  <property name="meta.attr.0.stream.handler_name.markup">SoundHandle</property>
  <property name="meta.attr.0.stream.vendor_id.markup">[0][0][0][0]</property>
  <property name="meta.attr.major_brand.markup">mp42</property>
  <property name="meta.attr.minor_version.markup">0</property>
  <property name="meta.attr.compatible_brands.markup">isommp42</property>
  <property name="meta.attr.creation_time.markup">2024-08-01T03:22:50.000000Z</property>
  <property name="meta.attr.com.android.version.markup">12</property>
  <property name="seekable">1</property>
  <property name="audio_index">0</property>
  <property name="video_index">-1</property>
  <property name="astream">0</property>
  <property name="kdenlive:folderid">-1</property>
  <property name="kdenlive:id">54</property>
  <property name="kdenlive:clip_type">1</property>
  <property name="kdenlive:file_size">36833</property>
  <property name="kdenlive:file_hash">e2dce0816ce243018b1850dfec5c65be</property>
  <property name="kdenlive:audio_max0">140</property>
  <property name="kdenlive:monitorPosition">0</property>
 </chain>
 <chain id="chain89" out="00:00:04.600">
  <property name="length">116</property>
  <property name="eof">pause</property>
  <property name="resource">justbyapply.m4a</property>
  <property name="mlt_service">avformat</property>
  <property name="meta.media.nb_streams">1</property>
  <property name="meta.media.0.stream.type">audio</property>
  <property name="meta.media.0.codec.sample_fmt">fltp</property>
  <property name="meta.media.0.codec.sample_rate">48000</property>
  <property name="meta.media.0.codec.channels">2</property>
  <property name="meta.media.0.codec.layout">stereo</property>
  <property name="meta.media.0.codec.name">aac</property>
  <property name="meta.media.0.codec.long_name">AAC (Advanced Audio Coding)</property>
  <property name="meta.media.0.codec.bit_rate">148000</property>
  <property name="meta.attr.0.stream.creation_time.markup">2024-08-01T05:45:41.000000Z</property>
  <property name="meta.attr.0.stream.language.markup">eng</property>
  <property name="meta.attr.0.stream.handler_name.markup">SoundHandle</property>
  <property name="meta.attr.0.stream.vendor_id.markup">[0][0][0][0]</property>
  <property name="meta.attr.major_brand.markup">mp42</property>
  <property name="meta.attr.minor_version.markup">0</property>
  <property name="meta.attr.compatible_brands.markup">isommp42</property>
  <property name="meta.attr.creation_time.markup">2024-08-01T05:45:41.000000Z</property>
  <property name="meta.attr.com.android.version.markup">12</property>
  <property name="seekable">1</property>
  <property name="audio_index">0</property>
  <property name="video_index">-1</property>
  <property name="astream">0</property>
  <property name="kdenlive:folderid">-1</property>
  <property name="kdenlive:id">55</property>
  <property name="kdenlive:clip_type">1</property>
  <property name="kdenlive:file_size">88961</property>
  <property name="kdenlive:file_hash">3ac1a707a7b6697e9025fd04b1fe59ee</property>
  <property name="kdenlive:audio_max0">131</property>
  <property name="kdenlive:monitorPosition">0</property>
 </chain>
 <chain id="chain90" out="00:00:07.640">
  <property name="length">192</property>
  <property name="eof">pause</property>
  <property name="resource">itshouldbe.m4a</property>
  <property name="mlt_service">avformat</property>
  <property name="meta.media.nb_streams">1</property>
  <property name="meta.media.0.stream.type">audio</property>
  <property name="meta.media.0.codec.sample_fmt">fltp</property>
  <property name="meta.media.0.codec.sample_rate">48000</property>
  <property name="meta.media.0.codec.channels">2</property>
  <property name="meta.media.0.codec.layout">stereo</property>
  <property name="meta.media.0.codec.name">aac</property>
  <property name="meta.media.0.codec.long_name">AAC (Advanced Audio Coding)</property>
  <property name="meta.media.0.codec.bit_rate">148000</property>
  <property name="meta.attr.0.stream.creation_time.markup">2024-08-01T05:53:31.000000Z</property>
  <property name="meta.attr.0.stream.language.markup">eng</property>
  <property name="meta.attr.0.stream.handler_name.markup">SoundHandle</property>
  <property name="meta.attr.0.stream.vendor_id.markup">[0][0][0][0]</property>
  <property name="meta.attr.major_brand.markup">mp42</property>
  <property name="meta.attr.minor_version.markup">0</property>
  <property name="meta.attr.compatible_brands.markup">isommp42</property>
  <property name="meta.attr.creation_time.markup">2024-08-01T05:53:31.000000Z</property>
  <property name="meta.attr.com.android.version.markup">12</property>
  <property name="seekable">1</property>
  <property name="audio_index">0</property>
  <property name="video_index">-1</property>
  <property name="astream">0</property>
  <property name="kdenlive:folderid">-1</property>
  <property name="kdenlive:id">56</property>
  <property name="kdenlive:clip_type">1</property>
  <property name="kdenlive:file_size">145434</property>
  <property name="kdenlive:file_hash">61484661e6c7161236458471f15432fd</property>
  <property name="kdenlive:audio_max0">119</property>
  <property name="kdenlive:monitorPosition">0</property>
  <property name="warp_pitch">1</property>
 </chain>
 <chain id="chain91" out="00:00:03.240">
  <property name="length">82</property>
  <property name="eof">pause</property>
  <property name="resource">butifyouare.m4a</property>
  <property name="mlt_service">avformat</property>
  <property name="meta.media.nb_streams">1</property>
  <property name="meta.media.0.stream.type">audio</property>
  <property name="meta.media.0.codec.sample_fmt">fltp</property>
  <property name="meta.media.0.codec.sample_rate">48000</property>
  <property name="meta.media.0.codec.channels">2</property>
  <property name="meta.media.0.codec.layout">stereo</property>
  <property name="meta.media.0.codec.name">aac</property>
  <property name="meta.media.0.codec.long_name">AAC (Advanced Audio Coding)</property>
  <property name="meta.media.0.codec.bit_rate">148002</property>
  <property name="meta.attr.0.stream.creation_time.markup">2024-08-01T05:54:03.000000Z</property>
  <property name="meta.attr.0.stream.language.markup">eng</property>
  <property name="meta.attr.0.stream.handler_name.markup">SoundHandle</property>
  <property name="meta.attr.0.stream.vendor_id.markup">[0][0][0][0]</property>
  <property name="meta.attr.major_brand.markup">mp42</property>
  <property name="meta.attr.minor_version.markup">0</property>
  <property name="meta.attr.compatible_brands.markup">isommp42</property>
  <property name="meta.attr.creation_time.markup">2024-08-01T05:54:03.000000Z</property>
  <property name="meta.attr.com.android.version.markup">12</property>
  <property name="seekable">1</property>
  <property name="audio_index">0</property>
  <property name="video_index">-1</property>
  <property name="astream">0</property>
  <property name="kdenlive:folderid">-1</property>
  <property name="kdenlive:id">57</property>
  <property name="kdenlive:clip_type">1</property>
  <property name="kdenlive:file_size">63689</property>
  <property name="kdenlive:file_hash">140272e35761ca0f9ccc85da8d1e6e6b</property>
  <property name="kdenlive:audio_max0">121</property>
  <property name="kdenlive:monitorPosition">0</property>
 </chain>
 <chain id="chain92" out="00:00:06.440">
  <property name="length">162</property>
  <property name="eof">pause</property>
  <property name="resource">anditstakenikni.m4a</property>
  <property name="mlt_service">avformat</property>
  <property name="meta.media.nb_streams">1</property>
  <property name="meta.media.0.stream.type">audio</property>
  <property name="meta.media.0.codec.sample_fmt">fltp</property>
  <property name="meta.media.0.codec.sample_rate">48000</property>
  <property name="meta.media.0.codec.channels">2</property>
  <property name="meta.media.0.codec.layout">stereo</property>
  <property name="meta.media.0.codec.name">aac</property>
  <property name="meta.media.0.codec.long_name">AAC (Advanced Audio Coding)</property>
  <property name="meta.media.0.codec.bit_rate">148001</property>
  <property name="meta.attr.0.stream.creation_time.markup">2024-08-01T05:59:01.000000Z</property>
  <property name="meta.attr.0.stream.language.markup">eng</property>
  <property name="meta.attr.0.stream.handler_name.markup">SoundHandle</property>
  <property name="meta.attr.0.stream.vendor_id.markup">[0][0][0][0]</property>
  <property name="meta.attr.major_brand.markup">mp42</property>
  <property name="meta.attr.minor_version.markup">0</property>
  <property name="meta.attr.compatible_brands.markup">isommp42</property>
  <property name="meta.attr.creation_time.markup">2024-08-01T05:59:01.000000Z</property>
  <property name="meta.attr.com.android.version.markup">12</property>
  <property name="seekable">1</property>
  <property name="audio_index">0</property>
  <property name="video_index">-1</property>
  <property name="astream">0</property>
  <property name="kdenlive:folderid">-1</property>
  <property name="kdenlive:id">58</property>
  <property name="kdenlive:clip_type">1</property>
  <property name="kdenlive:file_size">122925</property>
  <property name="kdenlive:file_hash">2b4155479b8c4f2035e83825c5669c98</property>
  <property name="kdenlive:audio_max0">133</property>
  <property name="kdenlive:monitorPosition">65</property>
 </chain>
 <chain id="chain93" out="00:00:06.800">
  <property name="length">171</property>
  <property name="eof">pause</property>
  <property name="resource">yourpast.m4a</property>
  <property name="mlt_service">avformat</property>
  <property name="meta.media.nb_streams">1</property>
  <property name="meta.media.0.stream.type">audio</property>
  <property name="meta.media.0.codec.sample_fmt">fltp</property>
  <property name="meta.media.0.codec.sample_rate">48000</property>
  <property name="meta.media.0.codec.channels">2</property>
  <property name="meta.media.0.codec.layout">stereo</property>
  <property name="meta.media.0.codec.name">aac</property>
  <property name="meta.media.0.codec.long_name">AAC (Advanced Audio Coding)</property>
  <property name="meta.media.0.codec.bit_rate">148001</property>
  <property name="meta.attr.0.stream.creation_time.markup">2024-08-01T06:11:58.000000Z</property>
  <property name="meta.attr.0.stream.language.markup">eng</property>
  <property name="meta.attr.0.stream.handler_name.markup">SoundHandle</property>
  <property name="meta.attr.0.stream.vendor_id.markup">[0][0][0][0]</property>
  <property name="meta.attr.major_brand.markup">mp42</property>
  <property name="meta.attr.minor_version.markup">0</property>
  <property name="meta.attr.compatible_brands.markup">isommp42</property>
  <property name="meta.attr.creation_time.markup">2024-08-01T06:11:58.000000Z</property>
  <property name="meta.attr.com.android.version.markup">12</property>
  <property name="seekable">1</property>
  <property name="audio_index">0</property>
  <property name="video_index">-1</property>
  <property name="astream">0</property>
  <property name="kdenlive:folderid">-1</property>
  <property name="kdenlive:id">59</property>
  <property name="kdenlive:clip_type">1</property>
  <property name="kdenlive:file_size">130033</property>
  <property name="kdenlive:file_hash">8c05e05bdc20d305e6e887606c59da0a</property>
  <property name="kdenlive:audio_max0">140</property>
  <property name="kdenlive:monitorPosition">0</property>
 </chain>
 <chain id="chain94" out="00:00:02.880">
  <property name="length">73</property>
  <property name="eof">pause</property>
  <property name="resource">thenyounever.m4a</property>
  <property name="mlt_service">avformat</property>
  <property name="meta.media.nb_streams">1</property>
  <property name="meta.media.0.stream.type">audio</property>
  <property name="meta.media.0.codec.sample_fmt">fltp</property>
  <property name="meta.media.0.codec.sample_rate">48000</property>
  <property name="meta.media.0.codec.channels">2</property>
  <property name="meta.media.0.codec.layout">stereo</property>
  <property name="meta.media.0.codec.name">aac</property>
  <property name="meta.media.0.codec.long_name">AAC (Advanced Audio Coding)</property>
  <property name="meta.media.0.codec.bit_rate">147998</property>
  <property name="meta.attr.0.stream.creation_time.markup">2024-08-01T05:59:45.000000Z</property>
  <property name="meta.attr.0.stream.language.markup">eng</property>
  <property name="meta.attr.0.stream.handler_name.markup">SoundHandle</property>
  <property name="meta.attr.0.stream.vendor_id.markup">[0][0][0][0]</property>
  <property name="meta.attr.major_brand.markup">mp42</property>
  <property name="meta.attr.minor_version.markup">0</property>
  <property name="meta.attr.compatible_brands.markup">isommp42</property>
  <property name="meta.attr.creation_time.markup">2024-08-01T05:59:45.000000Z</property>
  <property name="meta.attr.com.android.version.markup">12</property>
  <property name="seekable">1</property>
  <property name="audio_index">0</property>
  <property name="video_index">-1</property>
  <property name="astream">0</property>
  <property name="kdenlive:folderid">-1</property>
  <property name="kdenlive:id">60</property>
  <property name="kdenlive:clip_type">1</property>
  <property name="kdenlive:file_size">56972</property>
  <property name="kdenlive:file_hash">83a29ac92e00b5ac386012c80be83e6d</property>
  <property name="kdenlive:audio_max0">120</property>
  <property name="kdenlive:monitorPosition">0</property>
 </chain>
 <chain id="chain95" out="00:00:04.440">
  <property name="length">112</property>
  <property name="eof">pause</property>
  <property name="resource">thatwouldmean.m4a</property>
  <property name="mlt_service">avformat</property>
  <property name="meta.media.nb_streams">1</property>
  <property name="meta.media.0.stream.type">audio</property>
  <property name="meta.media.0.codec.sample_fmt">fltp</property>
  <property name="meta.media.0.codec.sample_rate">48000</property>
  <property name="meta.media.0.codec.channels">2</property>
  <property name="meta.media.0.codec.layout">stereo</property>
  <property name="meta.media.0.codec.name">aac</property>
  <property name="meta.media.0.codec.long_name">AAC (Advanced Audio Coding)</property>
  <property name="meta.media.0.codec.bit_rate">148000</property>
  <property name="meta.attr.0.stream.creation_time.markup">2024-08-01T06:12:57.000000Z</property>
  <property name="meta.attr.0.stream.language.markup">eng</property>
  <property name="meta.attr.0.stream.handler_name.markup">SoundHandle</property>
  <property name="meta.attr.0.stream.vendor_id.markup">[0][0][0][0]</property>
  <property name="meta.attr.major_brand.markup">mp42</property>
  <property name="meta.attr.minor_version.markup">0</property>
  <property name="meta.attr.compatible_brands.markup">isommp42</property>
  <property name="meta.attr.creation_time.markup">2024-08-01T06:12:57.000000Z</property>
  <property name="meta.attr.com.android.version.markup">12</property>
  <property name="seekable">1</property>
  <property name="audio_index">0</property>
  <property name="video_index">-1</property>
  <property name="astream">0</property>
  <property name="kdenlive:folderid">-1</property>
  <property name="kdenlive:id">61</property>
  <property name="kdenlive:clip_type">1</property>
  <property name="kdenlive:file_size">86196</property>
  <property name="kdenlive:file_hash">0d79a59f51ecb0447dcddb1751f3a0e9</property>
  <property name="kdenlive:audio_max0">132</property>
  <property name="kdenlive:monitorPosition">0</property>
 </chain>
 <chain id="chain96" out="00:00:03.920">
  <property name="length">99</property>
  <property name="eof">pause</property>
  <property name="resource">andyouaernot.m4a</property>
  <property name="mlt_service">avformat</property>
  <property name="meta.media.nb_streams">1</property>
  <property name="meta.media.0.stream.type">audio</property>
  <property name="meta.media.0.codec.sample_fmt">fltp</property>
  <property name="meta.media.0.codec.sample_rate">48000</property>
  <property name="meta.media.0.codec.channels">2</property>
  <property name="meta.media.0.codec.layout">stereo</property>
  <property name="meta.media.0.codec.name">aac</property>
  <property name="meta.media.0.codec.long_name">AAC (Advanced Audio Coding)</property>
  <property name="meta.media.0.codec.bit_rate">148002</property>
  <property name="meta.attr.0.stream.creation_time.markup">2024-08-01T06:13:14.000000Z</property>
  <property name="meta.attr.0.stream.language.markup">eng</property>
  <property name="meta.attr.0.stream.handler_name.markup">SoundHandle</property>
  <property name="meta.attr.0.stream.vendor_id.markup">[0][0][0][0]</property>
  <property name="meta.attr.major_brand.markup">mp42</property>
  <property name="meta.attr.minor_version.markup">0</property>
  <property name="meta.attr.compatible_brands.markup">isommp42</property>
  <property name="meta.attr.creation_time.markup">2024-08-01T06:13:14.000000Z</property>
  <property name="meta.attr.com.android.version.markup">12</property>
  <property name="seekable">1</property>
  <property name="audio_index">0</property>
  <property name="video_index">-1</property>
  <property name="astream">0</property>
  <property name="kdenlive:folderid">-1</property>
  <property name="kdenlive:id">62</property>
  <property name="kdenlive:clip_type">1</property>
  <property name="kdenlive:file_size">76719</property>
  <property name="kdenlive:file_hash">06acbba8195686b98d76464fffa167e7</property>
  <property name="kdenlive:audio_max0">124</property>
  <property name="kdenlive:monitorPosition">0</property>
 </chain>
 <chain id="chain97" out="00:00:04.000">
  <property name="length">101</property>
  <property name="eof">pause</property>
  <property name="resource">youmayfeellike.m4a</property>
  <property name="mlt_service">avformat</property>
  <property name="meta.media.nb_streams">1</property>
  <property name="meta.media.0.stream.type">audio</property>
  <property name="meta.media.0.codec.sample_fmt">fltp</property>
  <property name="meta.media.0.codec.sample_rate">48000</property>
  <property name="meta.media.0.codec.channels">2</property>
  <property name="meta.media.0.codec.layout">stereo</property>
  <property name="meta.media.0.codec.name">aac</property>
  <property name="meta.media.0.codec.long_name">AAC (Advanced Audio Coding)</property>
  <property name="meta.media.0.codec.bit_rate">148000</property>
  <property name="meta.attr.0.stream.creation_time.markup">2024-08-01T06:13:39.000000Z</property>
  <property name="meta.attr.0.stream.language.markup">eng</property>
  <property name="meta.attr.0.stream.handler_name.markup">SoundHandle</property>
  <property name="meta.attr.0.stream.vendor_id.markup">[0][0][0][0]</property>
  <property name="meta.attr.major_brand.markup">mp42</property>
  <property name="meta.attr.minor_version.markup">0</property>
  <property name="meta.attr.compatible_brands.markup">isommp42</property>
  <property name="meta.attr.creation_time.markup">2024-08-01T06:13:39.000000Z</property>
  <property name="meta.attr.com.android.version.markup">12</property>
  <property name="seekable">1</property>
  <property name="audio_index">0</property>
  <property name="video_index">-1</property>
  <property name="astream">0</property>
  <property name="kdenlive:folderid">-1</property>
  <property name="kdenlive:id">63</property>
  <property name="kdenlive:clip_type">1</property>
  <property name="kdenlive:file_size">77904</property>
  <property name="kdenlive:file_hash">8500d0aa9068b34a23b729bd522907c9</property>
  <property name="kdenlive:audio_max0">120</property>
  <property name="kdenlive:monitorPosition">0</property>
 </chain>
 <chain id="chain98" out="00:00:03.920">
  <property name="length">99</property>
  <property name="eof">pause</property>
  <property name="resource">butyouareacy.m4a</property>
  <property name="mlt_service">avformat</property>
  <property name="meta.media.nb_streams">1</property>
  <property name="meta.media.0.stream.type">audio</property>
  <property name="meta.media.0.codec.sample_fmt">fltp</property>
  <property name="meta.media.0.codec.sample_rate">48000</property>
  <property name="meta.media.0.codec.channels">2</property>
  <property name="meta.media.0.codec.layout">stereo</property>
  <property name="meta.media.0.codec.name">aac</property>
  <property name="meta.media.0.codec.long_name">AAC (Advanced Audio Coding)</property>
  <property name="meta.media.0.codec.bit_rate">148002</property>
  <property name="meta.attr.0.stream.creation_time.markup">2024-08-01T06:14:02.000000Z</property>
  <property name="meta.attr.0.stream.language.markup">eng</property>
  <property name="meta.attr.0.stream.handler_name.markup">SoundHandle</property>
  <property name="meta.attr.0.stream.vendor_id.markup">[0][0][0][0]</property>
  <property name="meta.attr.major_brand.markup">mp42</property>
  <property name="meta.attr.minor_version.markup">0</property>
  <property name="meta.attr.compatible_brands.markup">isommp42</property>
  <property name="meta.attr.creation_time.markup">2024-08-01T06:14:02.000000Z</property>
  <property name="meta.attr.com.android.version.markup">12</property>
  <property name="seekable">1</property>
  <property name="audio_index">0</property>
  <property name="video_index">-1</property>
  <property name="astream">0</property>
  <property name="kdenlive:folderid">-1</property>
  <property name="kdenlive:id">64</property>
  <property name="kdenlive:clip_type">1</property>
  <property name="kdenlive:file_size">76721</property>
  <property name="kdenlive:file_hash">d576dcfa39446f170b1c9659a78b424d</property>
  <property name="kdenlive:audio_max0">107</property>
  <property name="kdenlive:monitorPosition">0</property>
 </chain>
 <chain id="chain99" out="00:00:04.320">
  <property name="length">109</property>
  <property name="eof">pause</property>
  <property name="resource">weredeside.m4a</property>
  <property name="mlt_service">avformat</property>
  <property name="meta.media.nb_streams">1</property>
  <property name="meta.media.0.stream.type">audio</property>
  <property name="meta.media.0.codec.sample_fmt">fltp</property>
  <property name="meta.media.0.codec.sample_rate">48000</property>
  <property name="meta.media.0.codec.channels">2</property>
  <property name="meta.media.0.codec.layout">stereo</property>
  <property name="meta.media.0.codec.name">aac</property>
  <property name="meta.media.0.codec.long_name">AAC (Advanced Audio Coding)</property>
  <property name="meta.media.0.codec.bit_rate">148000</property>
  <property name="meta.attr.0.stream.creation_time.markup">2024-08-01T06:15:42.000000Z</property>
  <property name="meta.attr.0.stream.language.markup">eng</property>
  <property name="meta.attr.0.stream.handler_name.markup">SoundHandle</property>
  <property name="meta.attr.0.stream.vendor_id.markup">[0][0][0][0]</property>
  <property name="meta.attr.major_brand.markup">mp42</property>
  <property name="meta.attr.minor_version.markup">0</property>
  <property name="meta.attr.compatible_brands.markup">isommp42</property>
  <property name="meta.attr.creation_time.markup">2024-08-01T06:15:42.000000Z</property>
  <property name="meta.attr.com.android.version.markup">12</property>
  <property name="seekable">1</property>
  <property name="audio_index">0</property>
  <property name="video_index">-1</property>
  <property name="astream">0</property>
  <property name="kdenlive:folderid">-1</property>
  <property name="kdenlive:id">65</property>
  <property name="kdenlive:clip_type">1</property>
  <property name="kdenlive:file_size">84223</property>
  <property name="kdenlive:file_hash">402c37b2e94997c11540603129b2955a</property>
  <property name="kdenlive:audio_max0">118</property>
  <property name="kdenlive:monitorPosition">0</property>
 </chain>
 <chain id="chain100" out="00:00:07.880">
  <property name="length">198</property>
  <property name="eof">pause</property>
  <property name="resource">themosansofpatc.m4a</property>
  <property name="mlt_service">avformat</property>
  <property name="meta.media.nb_streams">1</property>
  <property name="meta.media.0.stream.type">audio</property>
  <property name="meta.media.0.codec.sample_fmt">fltp</property>
  <property name="meta.media.0.codec.sample_rate">48000</property>
  <property name="meta.media.0.codec.channels">2</property>
  <property name="meta.media.0.codec.layout">stereo</property>
  <property name="meta.media.0.codec.name">aac</property>
  <property name="meta.media.0.codec.long_name">AAC (Advanced Audio Coding)</property>
  <property name="meta.media.0.codec.bit_rate">147999</property>
  <property name="meta.attr.0.stream.creation_time.markup">2024-08-01T06:15:07.000000Z</property>
  <property name="meta.attr.0.stream.language.markup">eng</property>
  <property name="meta.attr.0.stream.handler_name.markup">SoundHandle</property>
  <property name="meta.attr.0.stream.vendor_id.markup">[0][0][0][0]</property>
  <property name="meta.attr.major_brand.markup">mp42</property>
  <property name="meta.attr.minor_version.markup">0</property>
  <property name="meta.attr.compatible_brands.markup">isommp42</property>
  <property name="meta.attr.creation_time.markup">2024-08-01T06:15:07.000000Z</property>
  <property name="meta.attr.com.android.version.markup">12</property>
  <property name="seekable">1</property>
  <property name="audio_index">0</property>
  <property name="video_index">-1</property>
  <property name="astream">0</property>
  <property name="kdenlive:folderid">-1</property>
  <property name="kdenlive:id">66</property>
  <property name="kdenlive:clip_type">1</property>
  <property name="kdenlive:file_size">149777</property>
  <property name="kdenlive:file_hash">30417937562e0b66e2a6d893a0961d0f</property>
  <property name="kdenlive:audio_max0">113</property>
  <property name="kdenlive:monitorPosition">0</property>
 </chain>
 <chain id="chain101" out="00:00:05.560">
  <property name="length">140</property>
  <property name="eof">pause</property>
  <property name="resource">youareonly.m4a</property>
  <property name="mlt_service">avformat</property>
  <property name="meta.media.nb_streams">1</property>
  <property name="meta.media.0.stream.type">audio</property>
  <property name="meta.media.0.codec.sample_fmt">fltp</property>
  <property name="meta.media.0.codec.sample_rate">48000</property>
  <property name="meta.media.0.codec.channels">2</property>
  <property name="meta.media.0.codec.layout">stereo</property>
  <property name="meta.media.0.codec.name">aac</property>
  <property name="meta.media.0.codec.long_name">AAC (Advanced Audio Coding)</property>
  <property name="meta.media.0.codec.bit_rate">148000</property>
  <property name="meta.attr.0.stream.creation_time.markup">2024-08-01T06:19:08.000000Z</property>
  <property name="meta.attr.0.stream.language.markup">eng</property>
  <property name="meta.attr.0.stream.handler_name.markup">SoundHandle</property>
  <property name="meta.attr.0.stream.vendor_id.markup">[0][0][0][0]</property>
  <property name="meta.attr.major_brand.markup">mp42</property>
  <property name="meta.attr.minor_version.markup">0</property>
  <property name="meta.attr.compatible_brands.markup">isommp42</property>
  <property name="meta.attr.creation_time.markup">2024-08-01T06:19:08.000000Z</property>
  <property name="meta.attr.com.android.version.markup">12</property>
  <property name="seekable">1</property>
  <property name="audio_index">0</property>
  <property name="video_index">-1</property>
  <property name="astream">0</property>
  <property name="kdenlive:folderid">-1</property>
  <property name="kdenlive:id">67</property>
  <property name="kdenlive:clip_type">1</property>
  <property name="kdenlive:file_size">107128</property>
  <property name="kdenlive:file_hash">7d7c98dc70ebc9ced3e11cc90821bd23</property>
  <property name="kdenlive:audio_max0">115</property>
  <property name="kdenlive:monitorPosition">0</property>
 </chain>
 <chain id="chain102" out="00:00:03.480">
  <property name="length">88</property>
  <property name="eof">pause</property>
  <property name="resource">youarejustintheroom.m4a</property>
  <property name="mlt_service">avformat</property>
  <property name="meta.media.nb_streams">1</property>
  <property name="meta.media.0.stream.type">audio</property>
  <property name="meta.media.0.codec.sample_fmt">fltp</property>
  <property name="meta.media.0.codec.sample_rate">48000</property>
  <property name="meta.media.0.codec.channels">2</property>
  <property name="meta.media.0.codec.layout">stereo</property>
  <property name="meta.media.0.codec.name">aac</property>
  <property name="meta.media.0.codec.long_name">AAC (Advanced Audio Coding)</property>
  <property name="meta.media.0.codec.bit_rate">148000</property>
  <property name="meta.attr.0.stream.creation_time.markup">2024-08-01T06:16:55.000000Z</property>
  <property name="meta.attr.0.stream.language.markup">eng</property>
  <property name="meta.attr.0.stream.handler_name.markup">SoundHandle</property>
  <property name="meta.attr.0.stream.vendor_id.markup">[0][0][0][0]</property>
  <property name="meta.attr.major_brand.markup">mp42</property>
  <property name="meta.attr.minor_version.markup">0</property>
  <property name="meta.attr.compatible_brands.markup">isommp42</property>
  <property name="meta.attr.creation_time.markup">2024-08-01T06:16:55.000000Z</property>
  <property name="meta.attr.com.android.version.markup">12</property>
  <property name="seekable">1</property>
  <property name="audio_index">0</property>
  <property name="video_index">-1</property>
  <property name="astream">0</property>
  <property name="kdenlive:folderid">-1</property>
  <property name="kdenlive:id">68</property>
  <property name="kdenlive:clip_type">1</property>
  <property name="kdenlive:file_size">68426</property>
  <property name="kdenlive:file_hash">ad1ff802bbefd5ad25fcfb1de5f1bf0d</property>
  <property name="kdenlive:audio_max0">116</property>
  <property name="kdenlive:monitorPosition">0</property>
 </chain>
 <chain id="chain103" out="00:00:04.680">
  <property name="length">118</property>
  <property name="eof">pause</property>
  <property name="resource">butthiscantbeture.m4a</property>
  <property name="mlt_service">avformat</property>
  <property name="meta.media.nb_streams">1</property>
  <property name="meta.media.0.stream.type">audio</property>
  <property name="meta.media.0.codec.sample_fmt">fltp</property>
  <property name="meta.media.0.codec.sample_rate">48000</property>
  <property name="meta.media.0.codec.channels">2</property>
  <property name="meta.media.0.codec.layout">stereo</property>
  <property name="meta.media.0.codec.name">aac</property>
  <property name="meta.media.0.codec.long_name">AAC (Advanced Audio Coding)</property>
  <property name="meta.media.0.codec.bit_rate">147999</property>
  <property name="meta.attr.0.stream.creation_time.markup">2024-08-01T06:21:51.000000Z</property>
  <property name="meta.attr.0.stream.language.markup">eng</property>
  <property name="meta.attr.0.stream.handler_name.markup">SoundHandle</property>
  <property name="meta.attr.0.stream.vendor_id.markup">[0][0][0][0]</property>
  <property name="meta.attr.major_brand.markup">mp42</property>
  <property name="meta.attr.minor_version.markup">0</property>
  <property name="meta.attr.compatible_brands.markup">isommp42</property>
  <property name="meta.attr.creation_time.markup">2024-08-01T06:21:51.000000Z</property>
  <property name="meta.attr.com.android.version.markup">12</property>
  <property name="seekable">1</property>
  <property name="audio_index">0</property>
  <property name="video_index">-1</property>
  <property name="astream">0</property>
  <property name="kdenlive:folderid">-1</property>
  <property name="kdenlive:id">69</property>
  <property name="kdenlive:clip_type">1</property>
  <property name="kdenlive:file_size">90539</property>
  <property name="kdenlive:file_hash">1e8795dcb480c71103852ea5668babc3</property>
  <property name="kdenlive:audio_max0">124</property>
  <property name="kdenlive:monitorPosition">0</property>
 </chain>
 <chain id="chain104" out="00:00:03.520">
  <property name="length">89</property>
  <property name="eof">pause</property>
  <property name="resource">whatareyou.m4a</property>
  <property name="mlt_service">avformat</property>
  <property name="meta.media.nb_streams">1</property>
  <property name="meta.media.0.stream.type">audio</property>
  <property name="meta.media.0.codec.sample_fmt">fltp</property>
  <property name="meta.media.0.codec.sample_rate">48000</property>
  <property name="meta.media.0.codec.channels">2</property>
  <property name="meta.media.0.codec.layout">stereo</property>
  <property name="meta.media.0.codec.name">aac</property>
  <property name="meta.media.0.codec.long_name">AAC (Advanced Audio Coding)</property>
  <property name="meta.media.0.codec.bit_rate">147998</property>
  <property name="meta.attr.0.stream.creation_time.markup">2024-08-01T06:24:40.000000Z</property>
  <property name="meta.attr.0.stream.language.markup">eng</property>
  <property name="meta.attr.0.stream.handler_name.markup">SoundHandle</property>
  <property name="meta.attr.0.stream.vendor_id.markup">[0][0][0][0]</property>
  <property name="meta.attr.major_brand.markup">mp42</property>
  <property name="meta.attr.minor_version.markup">0</property>
  <property name="meta.attr.compatible_brands.markup">isommp42</property>
  <property name="meta.attr.creation_time.markup">2024-08-01T06:24:40.000000Z</property>
  <property name="meta.attr.com.android.version.markup">12</property>
  <property name="seekable">1</property>
  <property name="audio_index">0</property>
  <property name="video_index">-1</property>
  <property name="astream">0</property>
  <property name="kdenlive:folderid">-1</property>
  <property name="kdenlive:id">70</property>
  <property name="kdenlive:clip_type">1</property>
  <property name="kdenlive:file_size">68820</property>
  <property name="kdenlive:file_hash">d0ab8d1eb954fe386693e07ddcfa963a</property>
  <property name="kdenlive:audio_max0">128</property>
  <property name="kdenlive:monitorPosition">42</property>
 </chain>
 <chain id="chain105" out="00:00:02.840">
  <property name="length">72</property>
  <property name="eof">pause</property>
  <property name="resource">notdet.m4a</property>
  <property name="mlt_service">avformat</property>
  <property name="meta.media.nb_streams">1</property>
  <property name="meta.media.0.stream.type">audio</property>
  <property name="meta.media.0.codec.sample_fmt">fltp</property>
  <property name="meta.media.0.codec.sample_rate">48000</property>
  <property name="meta.media.0.codec.channels">2</property>
  <property name="meta.media.0.codec.layout">stereo</property>
  <property name="meta.media.0.codec.name">aac</property>
  <property name="meta.media.0.codec.long_name">AAC (Advanced Audio Coding)</property>
  <property name="meta.media.0.codec.bit_rate">148000</property>
  <property name="meta.attr.0.stream.creation_time.markup">2024-08-01T06:24:50.000000Z</property>
  <property name="meta.attr.0.stream.language.markup">eng</property>
  <property name="meta.attr.0.stream.handler_name.markup">SoundHandle</property>
  <property name="meta.attr.0.stream.vendor_id.markup">[0][0][0][0]</property>
  <property name="meta.attr.major_brand.markup">mp42</property>
  <property name="meta.attr.minor_version.markup">0</property>
  <property name="meta.attr.compatible_brands.markup">isommp42</property>
  <property name="meta.attr.creation_time.markup">2024-08-01T06:24:50.000000Z</property>
  <property name="meta.attr.com.android.version.markup">12</property>
  <property name="seekable">1</property>
  <property name="audio_index">0</property>
  <property name="video_index">-1</property>
  <property name="astream">0</property>
  <property name="kdenlive:folderid">-1</property>
  <property name="kdenlive:id">71</property>
  <property name="kdenlive:clip_type">1</property>
  <property name="kdenlive:file_size">56578</property>
  <property name="kdenlive:file_hash">3652a11d283fa0757132628d266adbdd</property>
  <property name="kdenlive:audio_max0">120</property>
  <property name="kdenlive:monitorPosition">0</property>
 </chain>
 <chain id="chain106" out="00:00:06.920">
  <property name="length">174</property>
  <property name="eof">pause</property>
  <property name="resource">andcantbe.m4a</property>
  <property name="mlt_service">avformat</property>
  <property name="meta.media.nb_streams">1</property>
  <property name="meta.media.0.stream.type">audio</property>
  <property name="meta.media.0.codec.sample_fmt">fltp</property>
  <property name="meta.media.0.codec.sample_rate">48000</property>
  <property name="meta.media.0.codec.channels">2</property>
  <property name="meta.media.0.codec.layout">stereo</property>
  <property name="meta.media.0.codec.name">aac</property>
  <property name="meta.media.0.codec.long_name">AAC (Advanced Audio Coding)</property>
  <property name="meta.media.0.codec.bit_rate">148001</property>
  <property name="meta.attr.0.stream.creation_time.markup">2024-08-01T06:26:52.000000Z</property>
  <property name="meta.attr.0.stream.language.markup">eng</property>
  <property name="meta.attr.0.stream.handler_name.markup">SoundHandle</property>
  <property name="meta.attr.0.stream.vendor_id.markup">[0][0][0][0]</property>
  <property name="meta.attr.major_brand.markup">mp42</property>
  <property name="meta.attr.minor_version.markup">0</property>
  <property name="meta.attr.compatible_brands.markup">isommp42</property>
  <property name="meta.attr.creation_time.markup">2024-08-01T06:26:52.000000Z</property>
  <property name="meta.attr.com.android.version.markup">12</property>
  <property name="seekable">1</property>
  <property name="audio_index">0</property>
  <property name="video_index">-1</property>
  <property name="astream">0</property>
  <property name="kdenlive:folderid">-1</property>
  <property name="kdenlive:id">72</property>
  <property name="kdenlive:clip_type">1</property>
  <property name="kdenlive:file_size">132403</property>
  <property name="kdenlive:file_hash">49428eb5894f6b5331247ebdc9c64d45</property>
  <property name="kdenlive:audio_max0">135</property>
  <property name="kdenlive:monitorPosition">0</property>
 </chain>
 <chain id="chain107" out="00:00:02.840">
  <property name="length">72</property>
  <property name="eof">pause</property>
  <property name="resource">onthepooltable.m4a</property>
  <property name="mlt_service">avformat</property>
  <property name="meta.media.nb_streams">1</property>
  <property name="meta.media.0.stream.type">audio</property>
  <property name="meta.media.0.codec.sample_fmt">fltp</property>
  <property name="meta.media.0.codec.sample_rate">48000</property>
  <property name="meta.media.0.codec.channels">2</property>
  <property name="meta.media.0.codec.layout">stereo</property>
  <property name="meta.media.0.codec.name">aac</property>
  <property name="meta.media.0.codec.long_name">AAC (Advanced Audio Coding)</property>
  <property name="meta.media.0.codec.bit_rate">148002</property>
  <property name="meta.attr.0.stream.creation_time.markup">2024-08-01T06:27:08.000000Z</property>
  <property name="meta.attr.0.stream.language.markup">eng</property>
  <property name="meta.attr.0.stream.handler_name.markup">SoundHandle</property>
  <property name="meta.attr.0.stream.vendor_id.markup">[0][0][0][0]</property>
  <property name="meta.attr.major_brand.markup">mp42</property>
  <property name="meta.attr.minor_version.markup">0</property>
  <property name="meta.attr.compatible_brands.markup">isommp42</property>
  <property name="meta.attr.creation_time.markup">2024-08-01T06:27:08.000000Z</property>
  <property name="meta.attr.com.android.version.markup">12</property>
  <property name="seekable">1</property>
  <property name="audio_index">0</property>
  <property name="video_index">-1</property>
  <property name="astream">0</property>
  <property name="kdenlive:folderid">-1</property>
  <property name="kdenlive:id">73</property>
  <property name="kdenlive:clip_type">1</property>
  <property name="kdenlive:file_size">56579</property>
  <property name="kdenlive:file_hash">317b4aa93cf3c3d8bdb489b16e81dcd6</property>
  <property name="kdenlive:audio_max0">114</property>
  <property name="kdenlive:monitorPosition">37</property>
 </chain>
 <chain id="chain108" out="00:00:04.280">
  <property name="length">108</property>
  <property name="eof">pause</property>
  <property name="resource">theyarebe.m4a</property>
  <property name="mlt_service">avformat</property>
  <property name="meta.media.nb_streams">1</property>
  <property name="meta.media.0.stream.type">audio</property>
  <property name="meta.media.0.codec.sample_fmt">fltp</property>
  <property name="meta.media.0.codec.sample_rate">48000</property>
  <property name="meta.media.0.codec.channels">2</property>
  <property name="meta.media.0.codec.layout">stereo</property>
  <property name="meta.media.0.codec.name">aac</property>
  <property name="meta.media.0.codec.long_name">AAC (Advanced Audio Coding)</property>
  <property name="meta.media.0.codec.bit_rate">148000</property>
  <property name="meta.attr.0.stream.creation_time.markup">2024-08-01T06:28:14.000000Z</property>
  <property name="meta.attr.0.stream.language.markup">eng</property>
  <property name="meta.attr.0.stream.handler_name.markup">SoundHandle</property>
  <property name="meta.attr.0.stream.vendor_id.markup">[0][0][0][0]</property>
  <property name="meta.attr.major_brand.markup">mp42</property>
  <property name="meta.attr.minor_version.markup">0</property>
  <property name="meta.attr.compatible_brands.markup">isommp42</property>
  <property name="meta.attr.creation_time.markup">2024-08-01T06:28:14.000000Z</property>
  <property name="meta.attr.com.android.version.markup">12</property>
  <property name="seekable">1</property>
  <property name="audio_index">0</property>
  <property name="video_index">-1</property>
  <property name="astream">0</property>
  <property name="kdenlive:folderid">-1</property>
  <property name="kdenlive:id">74</property>
  <property name="kdenlive:clip_type">1</property>
  <property name="kdenlive:file_size">83039</property>
  <property name="kdenlive:file_hash">7aedb2027d3702edd83e6abad3decdf4</property>
  <property name="kdenlive:audio_max0">123</property>
  <property name="kdenlive:monitorPosition">15</property>
 </chain>
 <chain id="chain109" out="00:00:04.880">
  <property name="length">123</property>
  <property name="eof">pause</property>
  <property name="resource">banana.m4a</property>
  <property name="mlt_service">avformat</property>
  <property name="meta.media.nb_streams">1</property>
  <property name="meta.media.0.stream.type">audio</property>
  <property name="meta.media.0.codec.sample_fmt">fltp</property>
  <property name="meta.media.0.codec.sample_rate">48000</property>
  <property name="meta.media.0.codec.channels">2</property>
  <property name="meta.media.0.codec.layout">stereo</property>
  <property name="meta.media.0.codec.name">aac</property>
  <property name="meta.media.0.codec.long_name">AAC (Advanced Audio Coding)</property>
  <property name="meta.media.0.codec.bit_rate">148000</property>
  <property name="meta.attr.0.stream.creation_time.markup">2024-08-01T06:27:49.000000Z</property>
  <property name="meta.attr.0.stream.language.markup">eng</property>
  <property name="meta.attr.0.stream.handler_name.markup">SoundHandle</property>
  <property name="meta.attr.0.stream.vendor_id.markup">[0][0][0][0]</property>
  <property name="meta.attr.major_brand.markup">mp42</property>
  <property name="meta.attr.minor_version.markup">0</property>
  <property name="meta.attr.compatible_brands.markup">isommp42</property>
  <property name="meta.attr.creation_time.markup">2024-08-01T06:27:49.000000Z</property>
  <property name="meta.attr.com.android.version.markup">12</property>
  <property name="seekable">1</property>
  <property name="audio_index">0</property>
  <property name="video_index">-1</property>
  <property name="astream">0</property>
  <property name="kdenlive:folderid">-1</property>
  <property name="kdenlive:id">75</property>
  <property name="kdenlive:clip_type">1</property>
  <property name="kdenlive:file_size">94490</property>
  <property name="kdenlive:file_hash">5d655cd930793e260fc0ce420bdd8cf5</property>
  <property name="kdenlive:audio_max0">104</property>
  <property name="kdenlive:monitorPosition">0</property>
 </chain>
 <chain id="chain110" out="00:00:03.120">
  <property name="length">79</property>
  <property name="eof">pause</property>
  <property name="resource">byrandomly.m4a</property>
  <property name="mlt_service">avformat</property>
  <property name="meta.media.nb_streams">1</property>
  <property name="meta.media.0.stream.type">audio</property>
  <property name="meta.media.0.codec.sample_fmt">fltp</property>
  <property name="meta.media.0.codec.sample_rate">48000</property>
  <property name="meta.media.0.codec.channels">2</property>
  <property name="meta.media.0.codec.layout">stereo</property>
  <property name="meta.media.0.codec.name">aac</property>
  <property name="meta.media.0.codec.long_name">AAC (Advanced Audio Coding)</property>
  <property name="meta.media.0.codec.bit_rate">147998</property>
  <property name="meta.attr.0.stream.creation_time.markup">2024-08-01T06:28:35.000000Z</property>
  <property name="meta.attr.0.stream.language.markup">eng</property>
  <property name="meta.attr.0.stream.handler_name.markup">SoundHandle</property>
  <property name="meta.attr.0.stream.vendor_id.markup">[0][0][0][0]</property>
  <property name="meta.attr.major_brand.markup">mp42</property>
  <property name="meta.attr.minor_version.markup">0</property>
  <property name="meta.attr.compatible_brands.markup">isommp42</property>
  <property name="meta.attr.creation_time.markup">2024-08-01T06:28:35.000000Z</property>
  <property name="meta.attr.com.android.version.markup">12</property>
  <property name="seekable">1</property>
  <property name="audio_index">0</property>
  <property name="video_index">-1</property>
  <property name="astream">0</property>
  <property name="kdenlive:folderid">-1</property>
  <property name="kdenlive:id">76</property>
  <property name="kdenlive:clip_type">1</property>
  <property name="kdenlive:file_size">61712</property>
  <property name="kdenlive:file_hash">725ea6fcd80b04973842fbc9bac8e622</property>
  <property name="kdenlive:audio_max0">110</property>
  <property name="kdenlive:monitorPosition">0</property>
 </chain>
 <producer id="producer0" in="00:00:00.000" out="00:17:04.840">
  <property name="length">2147483647</property>
  <property name="eof">continue</property>
  <property name="resource">black</property>
  <property name="aspect_ratio">1</property>
  <property name="mlt_service">color</property>
  <property name="kdenlive:playlistid">black_track</property>
  <property name="mlt_image_format">rgba</property>
  <property name="set.test_audio">0</property>
 </producer>
 <chain id="chain0" out="00:11:58.680">
  <property name="length">17968</property>
  <property name="eof">pause</property>
  <property name="resource">bgm.mp3</property>
  <property name="mlt_service">avformat-novalidate</property>
  <property name="seekable">1</property>
  <property name="audio_index">0</property>
  <property name="video_index">-1</property>
  <property name="astream">0</property>
  <property name="kdenlive:folderid">-1</property>
  <property name="kdenlive:id">32</property>
  <property name="kdenlive:clip_type">1</property>
  <property name="kdenlive:file_size">11499501</property>
  <property name="kdenlive:file_hash">330b856bfb169a2bac82a3c659e63e34</property>
  <property name="kdenlive:audio_max0">182</property>
  <property name="meta.media.nb_streams">1</property>
  <property name="meta.media.0.stream.type">audio</property>
  <property name="meta.media.0.codec.sample_fmt">fltp</property>
  <property name="meta.media.0.codec.sample_rate">48000</property>
  <property name="meta.media.0.codec.channels">2</property>
  <property name="meta.media.0.codec.layout">stereo</property>
  <property name="meta.media.0.codec.name">mp3float</property>
  <property name="meta.media.0.codec.long_name">MP3 (MPEG audio layer 3)</property>
  <property name="meta.media.0.codec.bit_rate">128000</property>
  <property name="meta.attr.0.stream.encoder.markup">Lavc58.54</property>
  <property name="meta.attr.encoder.markup">Lavf58.29.100</property>
  <property name="xml">was here</property>
  <property name="mute_on_pause">0</property>
  <property name="set.test_audio">0</property>
  <property name="set.test_image">1</property>
 </chain>
 <playlist id="playlist0">
  <property name="kdenlive:audio_track">1</property>
  <blank length="00:00:00.080"/>
  <entry in="00:00:00.000" out="00:11:58.680" producer="chain0">
   <property name="kdenlive:id">32</property>
   <filter id="filter0">
    <property name="window">75</property>
    <property name="max_gain">20dB</property>
    <property name="level">00:00:00.000=-5</property>
    <property name="mlt_service">volume</property>
    <property name="kdenlive_id">volume</property>
    <property name="kdenlive:collapsed">0</property>
   </filter>
  </entry>
 </playlist>
 <playlist id="playlist1">
  <property name="kdenlive:audio_track">1</property>
 </playlist>
 <tractor id="tractor0" in="00:00:00.000" out="00:11:58.760">
  <property name="kdenlive:audio_track">1</property>
  <property name="kdenlive:trackheight">67</property>
  <property name="kdenlive:timeline_active">0</property>
  <property name="kdenlive:collapsed">0</property>
  <property name="kdenlive:track_name">BGM</property>
  <property name="kdenlive:thumbs_format"/>
  <property name="kdenlive:audio_rec"/>
  <track hide="both" producer="playlist0"/>
  <track hide="both" producer="playlist1"/>
  <filter id="filter1">
   <property name="window">75</property>
   <property name="max_gain">20dB</property>
   <property name="mlt_service">volume</property>
   <property name="internal_added">237</property>
   <property name="disable">1</property>
  </filter>
  <filter id="filter2">
   <property name="channel">-1</property>
   <property name="mlt_service">panner</property>
   <property name="internal_added">237</property>
   <property name="start">0.5</property>
   <property name="disable">1</property>
  </filter>
  <filter id="filter3">
   <property name="iec_scale">0</property>
   <property name="mlt_service">audiolevel</property>
   <property name="dbpeak">1</property>
   <property name="disable">1</property>
  </filter>
 </tractor>
 <chain id="chain1" out="00:00:01.680">
  <property name="length">43</property>
  <property name="eof">pause</property>
  <property name="resource">areyoufree.m4a</property>
  <property name="mlt_service">avformat-novalidate</property>
  <property name="seekable">1</property>
  <property name="audio_index">0</property>
  <property name="video_index">-1</property>
  <property name="astream">0</property>
  <property name="kdenlive:folderid">-1</property>
  <property name="kdenlive:id">5</property>
  <property name="kdenlive:clip_type">1</property>
  <property name="kdenlive:file_size">34859</property>
  <property name="kdenlive:file_hash">43c6b52996840b580566d8c7dc32999c</property>
  <property name="kdenlive:audio_max0">130</property>
  <property name="meta.media.nb_streams">1</property>
  <property name="meta.media.0.stream.type">audio</property>
  <property name="meta.media.0.codec.sample_fmt">fltp</property>
  <property name="meta.media.0.codec.sample_rate">48000</property>
  <property name="meta.media.0.codec.channels">2</property>
  <property name="meta.media.0.codec.layout">stereo</property>
  <property name="meta.media.0.codec.name">aac</property>
  <property name="meta.media.0.codec.long_name">AAC (Advanced Audio Coding)</property>
  <property name="meta.media.0.codec.bit_rate">147998</property>
  <property name="meta.attr.0.stream.creation_time.markup">2024-07-31T08:26:18.000000Z</property>
  <property name="meta.attr.0.stream.language.markup">eng</property>
  <property name="meta.attr.0.stream.handler_name.markup">SoundHandle</property>
  <property name="meta.attr.0.stream.vendor_id.markup">[0][0][0][0]</property>
  <property name="meta.attr.major_brand.markup">mp42</property>
  <property name="meta.attr.minor_version.markup">0</property>
  <property name="meta.attr.compatible_brands.markup">isommp42</property>
  <property name="meta.attr.creation_time.markup">2024-07-31T08:26:18.000000Z</property>
  <property name="meta.attr.com.android.version.markup">12</property>
  <property name="xml">was here</property>
  <property name="mute_on_pause">0</property>
  <property name="set.test_audio">0</property>
  <property name="set.test_image">1</property>
 </chain>
 <chain id="chain2" out="00:00:03.920">
  <property name="length">99</property>
  <property name="eof">pause</property>
  <property name="resource">freetochoose.m4a</property>
  <property name="mlt_service">avformat-novalidate</property>
  <property name="seekable">1</property>
  <property name="audio_index">0</property>
  <property name="video_index">-1</property>
  <property name="astream">0</property>
  <property name="kdenlive:folderid">-1</property>
  <property name="kdenlive:id">6</property>
  <property name="kdenlive:clip_type">1</property>
  <property name="kdenlive:file_size">76720</property>
  <property name="kdenlive:file_hash">c7558049d8f526b03021ec0c22ec711b</property>
  <property name="kdenlive:audio_max0">122</property>
  <property name="meta.media.nb_streams">1</property>
  <property name="meta.media.0.stream.type">audio</property>
  <property name="meta.media.0.codec.sample_fmt">fltp</property>
  <property name="meta.media.0.codec.sample_rate">48000</property>
  <property name="meta.media.0.codec.channels">2</property>
  <property name="meta.media.0.codec.layout">stereo</property>
  <property name="meta.media.0.codec.name">aac</property>
  <property name="meta.media.0.codec.long_name">AAC (Advanced Audio Coding)</property>
  <property name="meta.media.0.codec.bit_rate">148000</property>
  <property name="meta.attr.0.stream.creation_time.markup">2024-07-31T08:26:34.000000Z</property>
  <property name="meta.attr.0.stream.language.markup">eng</property>
  <property name="meta.attr.0.stream.handler_name.markup">SoundHandle</property>
  <property name="meta.attr.0.stream.vendor_id.markup">[0][0][0][0]</property>
  <property name="meta.attr.major_brand.markup">mp42</property>
  <property name="meta.attr.minor_version.markup">0</property>
  <property name="meta.attr.compatible_brands.markup">isommp42</property>
  <property name="meta.attr.creation_time.markup">2024-07-31T08:26:34.000000Z</property>
  <property name="meta.attr.com.android.version.markup">12</property>
  <property name="xml">was here</property>
  <property name="mute_on_pause">0</property>
  <property name="set.test_audio">0</property>
  <property name="set.test_image">1</property>
 </chain>
 <chain id="chain3" out="00:00:05.640">
  <property name="length">142</property>
  <property name="eof">pause</property>
  <property name="resource">oraeryouannpc.m4a</property>
  <property name="mlt_service">avformat-novalidate</property>
  <property name="seekable">1</property>
  <property name="audio_index">0</property>
  <property name="video_index">-1</property>
  <property name="astream">0</property>
  <property name="kdenlive:folderid">-1</property>
  <property name="kdenlive:id">7</property>
  <property name="kdenlive:clip_type">1</property>
  <property name="kdenlive:file_size">108708</property>
  <property name="kdenlive:file_hash">d724933787362617799b458b156c994f</property>
  <property name="kdenlive:audio_max0">122</property>
  <property name="meta.media.nb_streams">1</property>
  <property name="meta.media.0.stream.type">audio</property>
  <property name="meta.media.0.codec.sample_fmt">fltp</property>
  <property name="meta.media.0.codec.sample_rate">48000</property>
  <property name="meta.media.0.codec.channels">2</property>
  <property name="meta.media.0.codec.layout">stereo</property>
  <property name="meta.media.0.codec.name">aac</property>
  <property name="meta.media.0.codec.long_name">AAC (Advanced Audio Coding)</property>
  <property name="meta.media.0.codec.bit_rate">148000</property>
  <property name="meta.attr.0.stream.creation_time.markup">2024-07-31T08:27:00.000000Z</property>
  <property name="meta.attr.0.stream.language.markup">eng</property>
  <property name="meta.attr.0.stream.handler_name.markup">SoundHandle</property>
  <property name="meta.attr.0.stream.vendor_id.markup">[0][0][0][0]</property>
  <property name="meta.attr.major_brand.markup">mp42</property>
  <property name="meta.attr.minor_version.markup">0</property>
  <property name="meta.attr.compatible_brands.markup">isommp42</property>
  <property name="meta.attr.creation_time.markup">2024-07-31T08:27:00.000000Z</property>
  <property name="meta.attr.com.android.version.markup">12</property>
  <property name="xml">was here</property>
  <property name="mute_on_pause">0</property>
  <property name="set.test_audio">0</property>
  <property name="set.test_image">1</property>
 </chain>
 <chain id="chain4" out="00:00:03.760">
  <property name="length">95</property>
  <property name="eof">pause</property>
  <property name="resource">youfeel.m4a</property>
  <property name="mlt_service">avformat-novalidate</property>
  <property name="seekable">1</property>
  <property name="audio_index">0</property>
  <property name="video_index">-1</property>
  <property name="astream">0</property>
  <property name="kdenlive:folderid">-1</property>
  <property name="kdenlive:id">8</property>
  <property name="kdenlive:clip_type">1</property>
  <property name="kdenlive:file_size">73560</property>
  <property name="kdenlive:file_hash">c3cccfef5c6cae8fc895ff77e8d47d87</property>
  <property name="kdenlive:audio_max0">134</property>
  <property name="meta.media.nb_streams">1</property>
  <property name="meta.media.0.stream.type">audio</property>
  <property name="meta.media.0.codec.sample_fmt">fltp</property>
  <property name="meta.media.0.codec.sample_rate">48000</property>
  <property name="meta.media.0.codec.channels">2</property>
  <property name="meta.media.0.codec.layout">stereo</property>
  <property name="meta.media.0.codec.name">aac</property>
  <property name="meta.media.0.codec.long_name">AAC (Advanced Audio Coding)</property>
  <property name="meta.media.0.codec.bit_rate">147998</property>
  <property name="meta.attr.0.stream.creation_time.markup">2024-07-31T08:28:01.000000Z</property>
  <property name="meta.attr.0.stream.language.markup">eng</property>
  <property name="meta.attr.0.stream.handler_name.markup">SoundHandle</property>
  <property name="meta.attr.0.stream.vendor_id.markup">[0][0][0][0]</property>
  <property name="meta.attr.major_brand.markup">mp42</property>
  <property name="meta.attr.minor_version.markup">0</property>
  <property name="meta.attr.compatible_brands.markup">isommp42</property>
  <property name="meta.attr.creation_time.markup">2024-07-31T08:28:01.000000Z</property>
  <property name="meta.attr.com.android.version.markup">12</property>
  <property name="xml">was here</property>
  <property name="mute_on_pause">0</property>
  <property name="set.test_audio">0</property>
  <property name="set.test_image">1</property>
 </chain>
 <chain id="chain5" out="00:00:03.440">
  <property name="length">87</property>
  <property name="eof">pause</property>
  <property name="resource">oratleast.m4a</property>
  <property name="mlt_service">avformat-novalidate</property>
  <property name="seekable">1</property>
  <property name="audio_index">0</property>
  <property name="video_index">-1</property>
  <property name="astream">0</property>
  <property name="kdenlive:folderid">-1</property>
  <property name="kdenlive:id">31</property>
  <property name="kdenlive:clip_type">1</property>
  <property name="kdenlive:file_size">67637</property>
  <property name="kdenlive:file_hash">511385f70438d775021a6db830a3abcc</property>
  <property name="kdenlive:audio_max0">125</property>
  <property name="meta.media.nb_streams">1</property>
  <property name="meta.media.0.stream.type">audio</property>
  <property name="meta.media.0.codec.sample_fmt">fltp</property>
  <property name="meta.media.0.codec.sample_rate">48000</property>
  <property name="meta.media.0.codec.channels">2</property>
  <property name="meta.media.0.codec.layout">stereo</property>
  <property name="meta.media.0.codec.name">aac</property>
  <property name="meta.media.0.codec.long_name">AAC (Advanced Audio Coding)</property>
  <property name="meta.media.0.codec.bit_rate">148000</property>
  <property name="meta.attr.0.stream.creation_time.markup">2024-07-31T10:18:22.000000Z</property>
  <property name="meta.attr.0.stream.language.markup">eng</property>
  <property name="meta.attr.0.stream.handler_name.markup">SoundHandle</property>
  <property name="meta.attr.0.stream.vendor_id.markup">[0][0][0][0]</property>
  <property name="meta.attr.major_brand.markup">mp42</property>
  <property name="meta.attr.minor_version.markup">0</property>
  <property name="meta.attr.compatible_brands.markup">isommp42</property>
  <property name="meta.attr.creation_time.markup">2024-07-31T10:18:22.000000Z</property>
  <property name="meta.attr.com.android.version.markup">12</property>
  <property name="xml">was here</property>
  <property name="mute_on_pause">0</property>
  <property name="set.test_audio">0</property>
  <property name="set.test_image">1</property>
 </chain>
 <chain id="chain6" out="00:00:02.560">
  <property name="length">65</property>
  <property name="eof">pause</property>
  <property name="resource">butthismaybe.m4a</property>
  <property name="mlt_service">avformat-novalidate</property>
  <property name="seekable">1</property>
  <property name="audio_index">0</property>
  <property name="video_index">-1</property>
  <property name="astream">0</property>
  <property name="kdenlive:folderid">-1</property>
  <property name="kdenlive:id">30</property>
  <property name="kdenlive:clip_type">1</property>
  <property name="kdenlive:file_size">51445</property>
  <property name="kdenlive:file_hash">a60524027e6ac994fe95e650394f1969</property>
  <property name="kdenlive:audio_max0">133</property>
  <property name="kdenlive:monitorPosition">0</property>
  <property name="meta.media.nb_streams">1</property>
  <property name="meta.media.0.stream.type">audio</property>
  <property name="meta.media.0.codec.sample_fmt">fltp</property>
  <property name="meta.media.0.codec.sample_rate">48000</property>
  <property name="meta.media.0.codec.channels">2</property>
  <property name="meta.media.0.codec.layout">stereo</property>
  <property name="meta.media.0.codec.name">aac</property>
  <property name="meta.media.0.codec.long_name">AAC (Advanced Audio Coding)</property>
  <property name="meta.media.0.codec.bit_rate">147998</property>
  <property name="meta.attr.0.stream.creation_time.markup">2024-07-31T10:18:45.000000Z</property>
  <property name="meta.attr.0.stream.language.markup">eng</property>
  <property name="meta.attr.0.stream.handler_name.markup">SoundHandle</property>
  <property name="meta.attr.0.stream.vendor_id.markup">[0][0][0][0]</property>
  <property name="meta.attr.major_brand.markup">mp42</property>
  <property name="meta.attr.minor_version.markup">0</property>
  <property name="meta.attr.compatible_brands.markup">isommp42</property>
  <property name="meta.attr.creation_time.markup">2024-07-31T10:18:45.000000Z</property>
  <property name="meta.attr.com.android.version.markup">12</property>
  <property name="xml">was here</property>
  <property name="mute_on_pause">0</property>
  <property name="set.test_audio">0</property>
  <property name="set.test_image">1</property>
 </chain>
 <chain id="chain7" out="00:00:05.600">
  <property name="length">141</property>
  <property name="eof">pause</property>
  <property name="resource">ph.m4a</property>
  <property name="mlt_service">avformat-novalidate</property>
  <property name="seekable">1</property>
  <property name="audio_index">0</property>
  <property name="video_index">-1</property>
  <property name="astream">0</property>
  <property name="kdenlive:folderid">-1</property>
  <property name="kdenlive:id">29</property>
  <property name="kdenlive:clip_type">1</property>
  <property name="kdenlive:file_size">107917</property>
  <property name="kdenlive:file_hash">53bd04208eaecb75d58e90b384a79b53</property>
  <property name="kdenlive:audio_max0">143</property>
  <property name="meta.media.nb_streams">1</property>
  <property name="meta.media.0.stream.type">audio</property>
  <property name="meta.media.0.codec.sample_fmt">fltp</property>
  <property name="meta.media.0.codec.sample_rate">48000</property>
  <property name="meta.media.0.codec.channels">2</property>
  <property name="meta.media.0.codec.layout">stereo</property>
  <property name="meta.media.0.codec.name">aac</property>
  <property name="meta.media.0.codec.long_name">AAC (Advanced Audio Coding)</property>
  <property name="meta.media.0.codec.bit_rate">148000</property>
  <property name="meta.attr.0.stream.creation_time.markup">2024-07-31T10:15:15.000000Z</property>
  <property name="meta.attr.0.stream.language.markup">eng</property>
  <property name="meta.attr.0.stream.handler_name.markup">SoundHandle</property>
  <property name="meta.attr.0.stream.vendor_id.markup">[0][0][0][0]</property>
  <property name="meta.attr.major_brand.markup">mp42</property>
  <property name="meta.attr.minor_version.markup">0</property>
  <property name="meta.attr.compatible_brands.markup">isommp42</property>
  <property name="meta.attr.creation_time.markup">2024-07-31T10:15:15.000000Z</property>
  <property name="meta.attr.com.android.version.markup">12</property>
  <property name="xml">was here</property>
  <property name="mute_on_pause">0</property>
  <property name="set.test_audio">0</property>
  <property name="set.test_image">1</property>
 </chain>
 <chain id="chain14" out="00:00:03.200">
  <property name="length">81</property>
  <property name="eof">pause</property>
  <property name="resource">withnofree.m4a</property>
  <property name="mlt_service">avformat-novalidate</property>
  <property name="seekable">1</property>
  <property name="audio_index">0</property>
  <property name="video_index">-1</property>
  <property name="astream">0</property>
  <property name="kdenlive:folderid">-1</property>
  <property name="kdenlive:id">26</property>
  <property name="kdenlive:clip_type">1</property>
  <property name="kdenlive:file_size">62896</property>
  <property name="kdenlive:file_hash">bfb99afe9c58f9c0f6dab25821ef34ba</property>
  <property name="kdenlive:audio_max0">133</property>
  <property name="meta.media.nb_streams">1</property>
  <property name="meta.media.0.stream.type">audio</property>
  <property name="meta.media.0.codec.sample_fmt">fltp</property>
  <property name="meta.media.0.codec.sample_rate">48000</property>
  <property name="meta.media.0.codec.channels">2</property>
  <property name="meta.media.0.codec.layout">stereo</property>
  <property name="meta.media.0.codec.name">aac</property>
  <property name="meta.media.0.codec.long_name">AAC (Advanced Audio Coding)</property>
  <property name="meta.media.0.codec.bit_rate">147998</property>
  <property name="meta.attr.0.stream.creation_time.markup">2024-07-31T08:58:59.000000Z</property>
  <property name="meta.attr.0.stream.language.markup">eng</property>
  <property name="meta.attr.0.stream.handler_name.markup">SoundHandle</property>
  <property name="meta.attr.0.stream.vendor_id.markup">[0][0][0][0]</property>
  <property name="meta.attr.major_brand.markup">mp42</property>
  <property name="meta.attr.minor_version.markup">0</property>
  <property name="meta.attr.compatible_brands.markup">isommp42</property>
  <property name="meta.attr.creation_time.markup">2024-07-31T08:58:59.000000Z</property>
  <property name="meta.attr.com.android.version.markup">12</property>
  <property name="xml">was here</property>
  <property name="mute_on_pause">0</property>
  <property name="set.test_audio">0</property>
  <property name="set.test_image">1</property>
 </chain>
 <chain id="chain15" out="00:00:04.360">
  <property name="length">110</property>
  <property name="eof">pause</property>
  <property name="resource">youexp.m4a</property>
  <property name="mlt_service">avformat-novalidate</property>
  <property name="seekable">1</property>
  <property name="audio_index">0</property>
  <property name="video_index">-1</property>
  <property name="astream">0</property>
  <property name="kdenlive:folderid">-1</property>
  <property name="kdenlive:id">28</property>
  <property name="kdenlive:clip_type">1</property>
  <property name="kdenlive:file_size">85012</property>
  <property name="kdenlive:file_hash">0c6629c242beb696e9a1982a38aea869</property>
  <property name="kdenlive:audio_max0">132</property>
  <property name="meta.media.nb_streams">1</property>
  <property name="meta.media.0.stream.type">audio</property>
  <property name="meta.media.0.codec.sample_fmt">fltp</property>
  <property name="meta.media.0.codec.sample_rate">48000</property>
  <property name="meta.media.0.codec.channels">2</property>
  <property name="meta.media.0.codec.layout">stereo</property>
  <property name="meta.media.0.codec.name">aac</property>
  <property name="meta.media.0.codec.long_name">AAC (Advanced Audio Coding)</property>
  <property name="meta.media.0.codec.bit_rate">148000</property>
  <property name="meta.attr.0.stream.creation_time.markup">2024-07-31T08:59:41.000000Z</property>
  <property name="meta.attr.0.stream.language.markup">eng</property>
  <property name="meta.attr.0.stream.handler_name.markup">SoundHandle</property>
  <property name="meta.attr.0.stream.vendor_id.markup">[0][0][0][0]</property>
  <property name="meta.attr.major_brand.markup">mp42</property>
  <property name="meta.attr.minor_version.markup">0</property>
  <property name="meta.attr.compatible_brands.markup">isommp42</property>
  <property name="meta.attr.creation_time.markup">2024-07-31T08:59:41.000000Z</property>
  <property name="meta.attr.com.android.version.markup">12</property>
  <property name="xml">was here</property>
  <property name="mute_on_pause">0</property>
  <property name="set.test_audio">0</property>
  <property name="set.test_image">1</property>
 </chain>
 <producer id="producer1" in="00:00:00.000" out="00:00:06.120">
  <property name="length">154</property>
  <property name="eof">pause</property>
  <property name="resource">1.020000:likewhenyoudes.m4a</property>
  <property name="aspect_ratio">1</property>
  <property name="meta.media.nb_streams">1</property>
  <property name="meta.media.0.stream.type">audio</property>
  <property name="meta.media.0.codec.sample_fmt">fltp</property>
  <property name="meta.media.0.codec.sample_rate">48000</property>
  <property name="meta.media.0.codec.channels">2</property>
  <property name="meta.media.0.codec.layout">stereo</property>
  <property name="meta.media.0.codec.name">aac</property>
  <property name="meta.media.0.codec.long_name">AAC (Advanced Audio Coding)</property>
  <property name="meta.media.0.codec.bit_rate">148000</property>
  <property name="meta.attr.0.stream.creation_time.markup">2024-07-31T09:00:26.000000Z</property>
  <property name="meta.attr.0.stream.language.markup">eng</property>
  <property name="meta.attr.0.stream.handler_name.markup">SoundHandle</property>
  <property name="meta.attr.0.stream.vendor_id.markup">[0][0][0][0]</property>
  <property name="meta.attr.major_brand.markup">mp42</property>
  <property name="meta.attr.minor_version.markup">0</property>
  <property name="meta.attr.compatible_brands.markup">isommp42</property>
  <property name="meta.attr.creation_time.markup">2024-07-31T09:00:26.000000Z</property>
  <property name="meta.attr.com.android.version.markup">12</property>
  <property name="seekable">1</property>
  <property name="audio_index">0</property>
  <property name="video_index">-1</property>
  <property name="warp_speed">1.02</property>
  <property name="warp_resource">likewhenyoudes.m4a</property>
  <property name="mlt_service">timewarp</property>
  <property name="astream">0</property>
  <property name="set.test_audio">0</property>
  <property name="set.test_image">1</property>
  <property name="kdenlive:id">15</property>
  <property name="warp_pitch">0</property>
 </producer>
 <producer id="producer2" in="00:00:00.000" out="00:00:05.400">
  <property name="length">136</property>
  <property name="eof">pause</property>
  <property name="resource">1.020000:freewillis.m4a</property>
  <property name="aspect_ratio">1</property>
  <property name="meta.media.nb_streams">1</property>
  <property name="meta.media.0.stream.type">audio</property>
  <property name="meta.media.0.codec.sample_fmt">fltp</property>
  <property name="meta.media.0.codec.sample_rate">48000</property>
  <property name="meta.media.0.codec.channels">2</property>
  <property name="meta.media.0.codec.layout">stereo</property>
  <property name="meta.media.0.codec.name">aac</property>
  <property name="meta.media.0.codec.long_name">AAC (Advanced Audio Coding)</property>
  <property name="meta.media.0.codec.bit_rate">148001</property>
  <property name="meta.attr.0.stream.creation_time.markup">2024-07-31T09:00:52.000000Z</property>
  <property name="meta.attr.0.stream.language.markup">eng</property>
  <property name="meta.attr.0.stream.handler_name.markup">SoundHandle</property>
  <property name="meta.attr.0.stream.vendor_id.markup">[0][0][0][0]</property>
  <property name="meta.attr.major_brand.markup">mp42</property>
  <property name="meta.attr.minor_version.markup">0</property>
  <property name="meta.attr.compatible_brands.markup">isommp42</property>
  <property name="meta.attr.creation_time.markup">2024-07-31T09:00:52.000000Z</property>
  <property name="meta.attr.com.android.version.markup">12</property>
  <property name="seekable">1</property>
  <property name="audio_index">0</property>
  <property name="video_index">-1</property>
  <property name="warp_speed">1.02</property>
  <property name="warp_resource">freewillis.m4a</property>
  <property name="mlt_service">timewarp</property>
  <property name="astream">0</property>
  <property name="set.test_audio">0</property>
  <property name="set.test_image">1</property>
  <property name="kdenlive:id">10</property>
  <property name="warp_pitch">0</property>
 </producer>
 <producer id="producer3" in="00:00:00.000" out="00:00:05.560">
  <property name="length">140</property>
  <property name="eof">pause</property>
  <property name="resource">1.020000:itm.m4a</property>
  <property name="aspect_ratio">1</property>
  <property name="meta.media.nb_streams">1</property>
  <property name="meta.media.0.stream.type">audio</property>
  <property name="meta.media.0.codec.sample_fmt">fltp</property>
  <property name="meta.media.0.codec.sample_rate">48000</property>
  <property name="meta.media.0.codec.channels">2</property>
  <property name="meta.media.0.codec.layout">stereo</property>
  <property name="meta.media.0.codec.name">aac</property>
  <property name="meta.media.0.codec.long_name">AAC (Advanced Audio Coding)</property>
  <property name="meta.media.0.codec.bit_rate">147999</property>
  <property name="meta.attr.0.stream.creation_time.markup">2024-07-31T09:03:14.000000Z</property>
  <property name="meta.attr.0.stream.language.markup">eng</property>
  <property name="meta.attr.0.stream.handler_name.markup">SoundHandle</property>
  <property name="meta.attr.0.stream.vendor_id.markup">[0][0][0][0]</property>
  <property name="meta.attr.major_brand.markup">mp42</property>
  <property name="meta.attr.minor_version.markup">0</property>
  <property name="meta.attr.compatible_brands.markup">isommp42</property>
  <property name="meta.attr.creation_time.markup">2024-07-31T09:03:14.000000Z</property>
  <property name="meta.attr.com.android.version.markup">12</property>
  <property name="seekable">1</property>
  <property name="audio_index">0</property>
  <property name="video_index">-1</property>
  <property name="warp_speed">1.02</property>
  <property name="warp_resource">itm.m4a</property>
  <property name="mlt_service">timewarp</property>
  <property name="astream">0</property>
  <property name="set.test_audio">0</property>
  <property name="set.test_image">1</property>
  <property name="kdenlive:id">12</property>
  <property name="warp_pitch">0</property>
 </producer>
 <producer id="producer4" in="00:00:00.000" out="00:00:03.640">
  <property name="length">92</property>
  <property name="eof">pause</property>
  <property name="resource">1.020000:itsatthe.m4a</property>
  <property name="aspect_ratio">1</property>
  <property name="meta.media.nb_streams">1</property>
  <property name="meta.media.0.stream.type">audio</property>
  <property name="meta.media.0.codec.sample_fmt">fltp</property>
  <property name="meta.media.0.codec.sample_rate">48000</property>
  <property name="meta.media.0.codec.channels">2</property>
  <property name="meta.media.0.codec.layout">stereo</property>
  <property name="meta.media.0.codec.name">aac</property>
  <property name="meta.media.0.codec.long_name">AAC (Advanced Audio Coding)</property>
  <property name="meta.media.0.codec.bit_rate">148001</property>
  <property name="meta.attr.0.stream.creation_time.markup">2024-07-31T09:04:30.000000Z</property>
  <property name="meta.attr.0.stream.language.markup">eng</property>
  <property name="meta.attr.0.stream.handler_name.markup">SoundHandle</property>
  <property name="meta.attr.0.stream.vendor_id.markup">[0][0][0][0]</property>
  <property name="meta.attr.major_brand.markup">mp42</property>
  <property name="meta.attr.minor_version.markup">0</property>
  <property name="meta.attr.compatible_brands.markup">isommp42</property>
  <property name="meta.attr.creation_time.markup">2024-07-31T09:04:30.000000Z</property>
  <property name="meta.attr.com.android.version.markup">12</property>
  <property name="seekable">1</property>
  <property name="audio_index">0</property>
  <property name="video_index">-1</property>
  <property name="warp_speed">1.02</property>
  <property name="warp_resource">itsatthe.m4a</property>
  <property name="mlt_service">timewarp</property>
  <property name="astream">0</property>
  <property name="set.test_audio">0</property>
  <property name="set.test_image">1</property>
  <property name="kdenlive:id">14</property>
  <property name="warp_pitch">0</property>
 </producer>
 <chain id="chain35" out="00:00:03.960">
  <property name="length">100</property>
  <property name="eof">pause</property>
  <property name="resource">itmeansyouare.m4a</property>
  <property name="mlt_service">avformat-novalidate</property>
  <property name="seekable">1</property>
  <property name="audio_index">0</property>
  <property name="video_index">-1</property>
  <property name="astream">0</property>
  <property name="kdenlive:folderid">-1</property>
  <property name="kdenlive:id">13</property>
  <property name="kdenlive:clip_type">1</property>
  <property name="kdenlive:file_size">77510</property>
  <property name="kdenlive:file_hash">ba9c4a02bf3a183627219b40bbd4a830</property>
  <property name="kdenlive:audio_max0">107</property>
  <property name="meta.media.nb_streams">1</property>
  <property name="meta.media.0.stream.type">audio</property>
  <property name="meta.media.0.codec.sample_fmt">fltp</property>
  <property name="meta.media.0.codec.sample_rate">48000</property>
  <property name="meta.media.0.codec.channels">2</property>
  <property name="meta.media.0.codec.layout">stereo</property>
  <property name="meta.media.0.codec.name">aac</property>
  <property name="meta.media.0.codec.long_name">AAC (Advanced Audio Coding)</property>
  <property name="meta.media.0.codec.bit_rate">148001</property>
  <property name="meta.attr.0.stream.creation_time.markup">2024-07-31T09:06:02.000000Z</property>
  <property name="meta.attr.0.stream.language.markup">eng</property>
  <property name="meta.attr.0.stream.handler_name.markup">SoundHandle</property>
  <property name="meta.attr.0.stream.vendor_id.markup">[0][0][0][0]</property>
  <property name="meta.attr.major_brand.markup">mp42</property>
  <property name="meta.attr.minor_version.markup">0</property>
  <property name="meta.attr.compatible_brands.markup">isommp42</property>
  <property name="meta.attr.creation_time.markup">2024-07-31T09:06:02.000000Z</property>
  <property name="meta.attr.com.android.version.markup">12</property>
  <property name="xml">was here</property>
  <property name="mute_on_pause">0</property>
  <property name="set.test_audio">0</property>
  <property name="set.test_image">1</property>
 </chain>
 <chain id="chain36" out="00:00:04.840">
  <property name="length">122</property>
  <property name="eof">pause</property>
  <property name="resource">thebisis.m4a</property>
  <property name="mlt_service">avformat-novalidate</property>
  <property name="seekable">1</property>
  <property name="audio_index">0</property>
  <property name="video_index">-1</property>
  <property name="astream">0</property>
  <property name="kdenlive:folderid">-1</property>
  <property name="kdenlive:id">21</property>
  <property name="kdenlive:clip_type">1</property>
  <property name="kdenlive:file_size">93700</property>
  <property name="kdenlive:file_hash">42aa60ad3aec5eaa79f92130137d50a1</property>
  <property name="kdenlive:audio_max0">128</property>
  <property name="meta.media.nb_streams">1</property>
  <property name="meta.media.0.stream.type">audio</property>
  <property name="meta.media.0.codec.sample_fmt">fltp</property>
  <property name="meta.media.0.codec.sample_rate">48000</property>
  <property name="meta.media.0.codec.channels">2</property>
  <property name="meta.media.0.codec.layout">stereo</property>
  <property name="meta.media.0.codec.name">aac</property>
  <property name="meta.media.0.codec.long_name">AAC (Advanced Audio Coding)</property>
  <property name="meta.media.0.codec.bit_rate">147998</property>
  <property name="meta.attr.0.stream.creation_time.markup">2024-07-31T09:07:10.000000Z</property>
  <property name="meta.attr.0.stream.language.markup">eng</property>
  <property name="meta.attr.0.stream.handler_name.markup">SoundHandle</property>
  <property name="meta.attr.0.stream.vendor_id.markup">[0][0][0][0]</property>
  <property name="meta.attr.major_brand.markup">mp42</property>
  <property name="meta.attr.minor_version.markup">0</property>
  <property name="meta.attr.compatible_brands.markup">isommp42</property>
  <property name="meta.attr.creation_time.markup">2024-07-31T09:07:10.000000Z</property>
  <property name="meta.attr.com.android.version.markup">12</property>
  <property name="xml">was here</property>
  <property name="mute_on_pause">0</property>
  <property name="set.test_audio">0</property>
  <property name="set.test_image">1</property>
 </chain>
 <producer id="producer5" in="00:00:00.000" out="00:00:04.600">
  <property name="length">116</property>
  <property name="eof">pause</property>
  <property name="resource">1.020000:thesearetoomany.m4a</property>
  <property name="aspect_ratio">1</property>
  <property name="meta.media.nb_streams">1</property>
  <property name="meta.media.0.stream.type">audio</property>
  <property name="meta.media.0.codec.sample_fmt">fltp</property>
  <property name="meta.media.0.codec.sample_rate">48000</property>
  <property name="meta.media.0.codec.channels">2</property>
  <property name="meta.media.0.codec.layout">stereo</property>
  <property name="meta.media.0.codec.name">aac</property>
  <property name="meta.media.0.codec.long_name">AAC (Advanced Audio Coding)</property>
  <property name="meta.media.0.codec.bit_rate">148001</property>
  <property name="meta.attr.0.stream.creation_time.markup">2024-07-31T09:11:44.000000Z</property>
  <property name="meta.attr.0.stream.language.markup">eng</property>
  <property name="meta.attr.0.stream.handler_name.markup">SoundHandle</property>
  <property name="meta.attr.0.stream.vendor_id.markup">[0][0][0][0]</property>
  <property name="meta.attr.major_brand.markup">mp42</property>
  <property name="meta.attr.minor_version.markup">0</property>
  <property name="meta.attr.compatible_brands.markup">isommp42</property>
  <property name="meta.attr.creation_time.markup">2024-07-31T09:11:44.000000Z</property>
  <property name="meta.attr.com.android.version.markup">12</property>
  <property name="seekable">1</property>
  <property name="audio_index">0</property>
  <property name="video_index">-1</property>
  <property name="warp_speed">1.02</property>
  <property name="warp_resource">thesearetoomany.m4a</property>
  <property name="mlt_service">timewarp</property>
  <property name="astream">0</property>
  <property name="set.test_audio">0</property>
  <property name="set.test_image">1</property>
  <property name="kdenlive:id">23</property>
  <property name="warp_pitch">0</property>
 </producer>
 <producer id="producer6" in="00:00:00.000" out="00:00:03.960">
  <property name="length">100</property>
  <property name="eof">pause</property>
  <property name="resource">1.050000:moreal.m4a</property>
  <property name="aspect_ratio">1</property>
  <property name="meta.media.nb_streams">1</property>
  <property name="meta.media.0.stream.type">audio</property>
  <property name="meta.media.0.codec.sample_fmt">fltp</property>
  <property name="meta.media.0.codec.sample_rate">48000</property>
  <property name="meta.media.0.codec.channels">2</property>
  <property name="meta.media.0.codec.layout">stereo</property>
  <property name="meta.media.0.codec.name">aac</property>
  <property name="meta.media.0.codec.long_name">AAC (Advanced Audio Coding)</property>
  <property name="meta.media.0.codec.bit_rate">148001</property>
  <property name="meta.attr.0.stream.creation_time.markup">2024-07-31T09:14:01.000000Z</property>
  <property name="meta.attr.0.stream.language.markup">eng</property>
  <property name="meta.attr.0.stream.handler_name.markup">SoundHandle</property>
  <property name="meta.attr.0.stream.vendor_id.markup">[0][0][0][0]</property>
  <property name="meta.attr.major_brand.markup">mp42</property>
  <property name="meta.attr.minor_version.markup">0</property>
  <property name="meta.attr.compatible_brands.markup">isommp42</property>
  <property name="meta.attr.creation_time.markup">2024-07-31T09:14:01.000000Z</property>
  <property name="meta.attr.com.android.version.markup">12</property>
  <property name="seekable">1</property>
  <property name="audio_index">0</property>
  <property name="video_index">-1</property>
  <property name="warp_speed">1.05</property>
  <property name="warp_resource">moreal.m4a</property>
  <property name="mlt_service">timewarp</property>
  <property name="astream">0</property>
  <property name="set.test_audio">0</property>
  <property name="set.test_image">1</property>
  <property name="kdenlive:id">16</property>
  <property name="warp_pitch">0</property>
 </producer>
 <producer id="producer7" in="00:00:00.000" out="00:00:03.960">
  <property name="length">100</property>
  <property name="eof">pause</property>
  <property name="resource">1.050000:moreal.m4a</property>
  <property name="aspect_ratio">1</property>
  <property name="meta.media.nb_streams">1</property>
  <property name="meta.media.0.stream.type">audio</property>
  <property name="meta.media.0.codec.sample_fmt">fltp</property>
  <property name="meta.media.0.codec.sample_rate">48000</property>
  <property name="meta.media.0.codec.channels">2</property>
  <property name="meta.media.0.codec.layout">stereo</property>
  <property name="meta.media.0.codec.name">aac</property>
  <property name="meta.media.0.codec.long_name">AAC (Advanced Audio Coding)</property>
  <property name="meta.media.0.codec.bit_rate">148001</property>
  <property name="meta.attr.0.stream.creation_time.markup">2024-07-31T09:14:01.000000Z</property>
  <property name="meta.attr.0.stream.language.markup">eng</property>
  <property name="meta.attr.0.stream.handler_name.markup">SoundHandle</property>
  <property name="meta.attr.0.stream.vendor_id.markup">[0][0][0][0]</property>
  <property name="meta.attr.major_brand.markup">mp42</property>
  <property name="meta.attr.minor_version.markup">0</property>
  <property name="meta.attr.compatible_brands.markup">isommp42</property>
  <property name="meta.attr.creation_time.markup">2024-07-31T09:14:01.000000Z</property>
  <property name="meta.attr.com.android.version.markup">12</property>
  <property name="seekable">1</property>
  <property name="audio_index">0</property>
  <property name="video_index">-1</property>
  <property name="warp_speed">1.05</property>
  <property name="warp_resource">moreal.m4a</property>
  <property name="mlt_service">timewarp</property>
  <property name="astream">0</property>
  <property name="set.test_audio">0</property>
  <property name="set.test_image">1</property>
  <property name="kdenlive:id">16</property>
  <property name="warp_pitch">0</property>
 </producer>
 <producer id="producer8" in="00:00:00.000" out="00:00:03.960">
  <property name="length">100</property>
  <property name="eof">pause</property>
  <property name="resource">1.050000:moreal.m4a</property>
  <property name="aspect_ratio">1</property>
  <property name="meta.media.nb_streams">1</property>
  <property name="meta.media.0.stream.type">audio</property>
  <property name="meta.media.0.codec.sample_fmt">fltp</property>
  <property name="meta.media.0.codec.sample_rate">48000</property>
  <property name="meta.media.0.codec.channels">2</property>
  <property name="meta.media.0.codec.layout">stereo</property>
  <property name="meta.media.0.codec.name">aac</property>
  <property name="meta.media.0.codec.long_name">AAC (Advanced Audio Coding)</property>
  <property name="meta.media.0.codec.bit_rate">148001</property>
  <property name="meta.attr.0.stream.creation_time.markup">2024-07-31T09:14:01.000000Z</property>
  <property name="meta.attr.0.stream.language.markup">eng</property>
  <property name="meta.attr.0.stream.handler_name.markup">SoundHandle</property>
  <property name="meta.attr.0.stream.vendor_id.markup">[0][0][0][0]</property>
  <property name="meta.attr.major_brand.markup">mp42</property>
  <property name="meta.attr.minor_version.markup">0</property>
  <property name="meta.attr.compatible_brands.markup">isommp42</property>
  <property name="meta.attr.creation_time.markup">2024-07-31T09:14:01.000000Z</property>
  <property name="meta.attr.com.android.version.markup">12</property>
  <property name="seekable">1</property>
  <property name="audio_index">0</property>
  <property name="video_index">-1</property>
  <property name="warp_speed">1.05</property>
  <property name="warp_resource">moreal.m4a</property>
  <property name="mlt_service">timewarp</property>
  <property name="astream">0</property>
  <property name="set.test_audio">0</property>
  <property name="set.test_image">1</property>
  <property name="kdenlive:id">16</property>
  <property name="warp_pitch">0</property>
 </producer>
 <producer id="producer9" in="00:00:00.000" out="00:00:04.040">
  <property name="length">102</property>
  <property name="eof">pause</property>
  <property name="resource">1.020000:sowellfcul.m4a</property>
  <property name="aspect_ratio">1</property>
  <property name="meta.media.nb_streams">1</property>
  <property name="meta.media.0.stream.type">audio</property>
  <property name="meta.media.0.codec.sample_fmt">fltp</property>
  <property name="meta.media.0.codec.sample_rate">48000</property>
  <property name="meta.media.0.codec.channels">2</property>
  <property name="meta.media.0.codec.layout">stereo</property>
  <property name="meta.media.0.codec.name">aac</property>
  <property name="meta.media.0.codec.long_name">AAC (Advanced Audio Coding)</property>
  <property name="meta.media.0.codec.bit_rate">148001</property>
  <property name="meta.attr.0.stream.creation_time.markup">2024-07-31T09:14:50.000000Z</property>
  <property name="meta.attr.0.stream.language.markup">eng</property>
  <property name="meta.attr.0.stream.handler_name.markup">SoundHandle</property>
  <property name="meta.attr.0.stream.vendor_id.markup">[0][0][0][0]</property>
  <property name="meta.attr.major_brand.markup">mp42</property>
  <property name="meta.attr.minor_version.markup">0</property>
  <property name="meta.attr.compatible_brands.markup">isommp42</property>
  <property name="meta.attr.creation_time.markup">2024-07-31T09:14:50.000000Z</property>
  <property name="meta.attr.com.android.version.markup">12</property>
  <property name="seekable">1</property>
  <property name="audio_index">0</property>
  <property name="video_index">-1</property>
  <property name="warp_speed">1.02</property>
  <property name="warp_resource">sowellfcul.m4a</property>
  <property name="mlt_service">timewarp</property>
  <property name="astream">0</property>
  <property name="set.test_audio">0</property>
  <property name="set.test_image">1</property>
  <property name="kdenlive:id">18</property>
  <property name="warp_pitch">0</property>
 </producer>
 <chain id="chain37" out="00:00:03.320">
  <property name="length">84</property>
  <property name="eof">pause</property>
  <property name="resource">isfreewilleven.m4a</property>
  <property name="mlt_service">avformat-novalidate</property>
  <property name="seekable">1</property>
  <property name="audio_index">0</property>
  <property name="video_index">-1</property>
  <property name="astream">0</property>
  <property name="kdenlive:folderid">-1</property>
  <property name="kdenlive:id">11</property>
  <property name="kdenlive:clip_type">1</property>
  <property name="kdenlive:file_size">65267</property>
  <property name="kdenlive:file_hash">50331fee643aae8e2b2c5bdf94f0984d</property>
  <property name="kdenlive:audio_max0">140</property>
  <property name="meta.media.nb_streams">1</property>
  <property name="meta.media.0.stream.type">audio</property>
  <property name="meta.media.0.codec.sample_fmt">fltp</property>
  <property name="meta.media.0.codec.sample_rate">48000</property>
  <property name="meta.media.0.codec.channels">2</property>
  <property name="meta.media.0.codec.layout">stereo</property>
  <property name="meta.media.0.codec.name">aac</property>
  <property name="meta.media.0.codec.long_name">AAC (Advanced Audio Coding)</property>
  <property name="meta.media.0.codec.bit_rate">148000</property>
  <property name="meta.attr.0.stream.creation_time.markup">2024-07-31T09:15:01.000000Z</property>
  <property name="meta.attr.0.stream.language.markup">eng</property>
  <property name="meta.attr.0.stream.handler_name.markup">SoundHandle</property>
  <property name="meta.attr.0.stream.vendor_id.markup">[0][0][0][0]</property>
  <property name="meta.attr.major_brand.markup">mp42</property>
  <property name="meta.attr.minor_version.markup">0</property>
  <property name="meta.attr.compatible_brands.markup">isommp42</property>
  <property name="meta.attr.creation_time.markup">2024-07-31T09:15:01.000000Z</property>
  <property name="meta.attr.com.android.version.markup">12</property>
  <property name="xml">was here</property>
  <property name="mute_on_pause">0</property>
  <property name="set.test_audio">0</property>
  <property name="set.test_image">1</property>
 </chain>
 <chain id="chain38" out="00:00:04.160">
  <property name="length">105</property>
  <property name="eof">pause</property>
  <property name="resource">twomain.m4a</property>
  <property name="mlt_service">avformat-novalidate</property>
  <property name="seekable">1</property>
  <property name="audio_index">0</property>
  <property name="video_index">-1</property>
  <property name="astream">0</property>
  <property name="kdenlive:folderid">-1</property>
  <property name="kdenlive:id">25</property>
  <property name="kdenlive:clip_type">1</property>
  <property name="kdenlive:file_size">81064</property>
  <property name="kdenlive:file_hash">febfae53a30aa815715766df0627e0ab</property>
  <property name="kdenlive:audio_max0">132</property>
  <property name="meta.media.nb_streams">1</property>
  <property name="meta.media.0.stream.type">audio</property>
  <property name="meta.media.0.codec.sample_fmt">fltp</property>
  <property name="meta.media.0.codec.sample_rate">48000</property>
  <property name="meta.media.0.codec.channels">2</property>
  <property name="meta.media.0.codec.layout">stereo</property>
  <property name="meta.media.0.codec.name">aac</property>
  <property name="meta.media.0.codec.long_name">AAC (Advanced Audio Coding)</property>
  <property name="meta.media.0.codec.bit_rate">148001</property>
  <property name="meta.attr.0.stream.creation_time.markup">2024-07-31T09:16:24.000000Z</property>
  <property name="meta.attr.0.stream.language.markup">eng</property>
  <property name="meta.attr.0.stream.handler_name.markup">SoundHandle</property>
  <property name="meta.attr.0.stream.vendor_id.markup">[0][0][0][0]</property>
  <property name="meta.attr.major_brand.markup">mp42</property>
  <property name="meta.attr.minor_version.markup">0</property>
  <property name="meta.attr.compatible_brands.markup">isommp42</property>
  <property name="meta.attr.creation_time.markup">2024-07-31T09:16:24.000000Z</property>
  <property name="meta.attr.com.android.version.markup">12</property>
  <property name="xml">was here</property>
  <property name="mute_on_pause">0</property>
  <property name="set.test_audio">0</property>
  <property name="set.test_image">1</property>
 </chain>
 <chain id="chain39" out="00:00:03.640">
  <property name="length">92</property>
  <property name="eof">pause</property>
  <property name="resource">nometter.m4a</property>
  <property name="mlt_service">avformat-novalidate</property>
  <property name="seekable">1</property>
  <property name="audio_index">0</property>
  <property name="video_index">-1</property>
  <property name="astream">0</property>
  <property name="kdenlive:folderid">-1</property>
  <property name="kdenlive:id">17</property>
  <property name="kdenlive:clip_type">1</property>
  <property name="kdenlive:file_size">71191</property>
  <property name="kdenlive:file_hash">d6e8358bcda8f5ce576d45d07a10e6e8</property>
  <property name="kdenlive:audio_max0">143</property>
  <property name="meta.media.nb_streams">1</property>
  <property name="meta.media.0.stream.type">audio</property>
  <property name="meta.media.0.codec.sample_fmt">fltp</property>
  <property name="meta.media.0.codec.sample_rate">48000</property>
  <property name="meta.media.0.codec.channels">2</property>
  <property name="meta.media.0.codec.layout">stereo</property>
  <property name="meta.media.0.codec.name">aac</property>
  <property name="meta.media.0.codec.long_name">AAC (Advanced Audio Coding)</property>
  <property name="meta.media.0.codec.bit_rate">148000</property>
  <property name="meta.attr.0.stream.creation_time.markup">2024-07-31T09:17:20.000000Z</property>
  <property name="meta.attr.0.stream.language.markup">eng</property>
  <property name="meta.attr.0.stream.handler_name.markup">SoundHandle</property>
  <property name="meta.attr.0.stream.vendor_id.markup">[0][0][0][0]</property>
  <property name="meta.attr.major_brand.markup">mp42</property>
  <property name="meta.attr.minor_version.markup">0</property>
  <property name="meta.attr.compatible_brands.markup">isommp42</property>
  <property name="meta.attr.creation_time.markup">2024-07-31T09:17:20.000000Z</property>
  <property name="meta.attr.com.android.version.markup">12</property>
  <property name="xml">was here</property>
  <property name="mute_on_pause">0</property>
  <property name="set.test_audio">0</property>
  <property name="set.test_image">1</property>
 </chain>
 <chain id="chain40" out="00:00:02.640">
  <property name="length">67</property>
  <property name="eof">pause</property>
  <property name="resource">thewillbeabout.m4a</property>
  <property name="mlt_service">avformat-novalidate</property>
  <property name="seekable">1</property>
  <property name="audio_index">0</property>
  <property name="video_index">-1</property>
  <property name="astream">0</property>
  <property name="kdenlive:folderid">-1</property>
  <property name="kdenlive:id">24</property>
  <property name="kdenlive:clip_type">1</property>
  <property name="kdenlive:file_size">53025</property>
  <property name="kdenlive:file_hash">b4e2fb38b1c4902e02a3f0f28ad1f1b1</property>
  <property name="kdenlive:audio_max0">136</property>
  <property name="meta.media.nb_streams">1</property>
  <property name="meta.media.0.stream.type">audio</property>
  <property name="meta.media.0.codec.sample_fmt">fltp</property>
  <property name="meta.media.0.codec.sample_rate">48000</property>
  <property name="meta.media.0.codec.channels">2</property>
  <property name="meta.media.0.codec.layout">stereo</property>
  <property name="meta.media.0.codec.name">aac</property>
  <property name="meta.media.0.codec.long_name">AAC (Advanced Audio Coding)</property>
  <property name="meta.media.0.codec.bit_rate">148002</property>
  <property name="meta.attr.0.stream.creation_time.markup">2024-07-31T09:17:48.000000Z</property>
  <property name="meta.attr.0.stream.language.markup">eng</property>
  <property name="meta.attr.0.stream.handler_name.markup">SoundHandle</property>
  <property name="meta.attr.0.stream.vendor_id.markup">[0][0][0][0]</property>
  <property name="meta.attr.major_brand.markup">mp42</property>
  <property name="meta.attr.minor_version.markup">0</property>
  <property name="meta.attr.compatible_brands.markup">isommp42</property>
  <property name="meta.attr.creation_time.markup">2024-07-31T09:17:48.000000Z</property>
  <property name="meta.attr.com.android.version.markup">12</property>
  <property name="xml">was here</property>
  <property name="mute_on_pause">0</property>
  <property name="set.test_audio">0</property>
  <property name="set.test_image">1</property>
 </chain>
 <chain id="chain41" out="00:00:03.080">
  <property name="length">78</property>
  <property name="eof">pause</property>
  <property name="resource">sowewikllues.m4a</property>
  <property name="mlt_service">avformat-novalidate</property>
  <property name="seekable">1</property>
  <property name="audio_index">0</property>
  <property name="video_index">-1</property>
  <property name="astream">0</property>
  <property name="kdenlive:folderid">-1</property>
  <property name="kdenlive:id">19</property>
  <property name="kdenlive:clip_type">1</property>
  <property name="kdenlive:file_size">61319</property>
  <property name="kdenlive:file_hash">cb55084e37b80ce1e32e18f3d112ce3f</property>
  <property name="kdenlive:audio_max0">142</property>
  <property name="meta.media.nb_streams">1</property>
  <property name="meta.media.0.stream.type">audio</property>
  <property name="meta.media.0.codec.sample_fmt">fltp</property>
  <property name="meta.media.0.codec.sample_rate">48000</property>
  <property name="meta.media.0.codec.channels">2</property>
  <property name="meta.media.0.codec.layout">stereo</property>
  <property name="meta.media.0.codec.name">aac</property>
  <property name="meta.media.0.codec.long_name">AAC (Advanced Audio Coding)</property>
  <property name="meta.media.0.codec.bit_rate">148002</property>
  <property name="meta.attr.0.stream.creation_time.markup">2024-07-31T09:18:11.000000Z</property>
  <property name="meta.attr.0.stream.language.markup">eng</property>
  <property name="meta.attr.0.stream.handler_name.markup">SoundHandle</property>
  <property name="meta.attr.0.stream.vendor_id.markup">[0][0][0][0]</property>
  <property name="meta.attr.major_brand.markup">mp42</property>
  <property name="meta.attr.minor_version.markup">0</property>
  <property name="meta.attr.compatible_brands.markup">isommp42</property>
  <property name="meta.attr.creation_time.markup">2024-07-31T09:18:11.000000Z</property>
  <property name="meta.attr.com.android.version.markup">12</property>
  <property name="xml">was here</property>
  <property name="mute_on_pause">0</property>
  <property name="set.test_audio">0</property>
  <property name="set.test_image">1</property>
 </chain>
 <chain id="chain42" out="00:00:01.920">
  <property name="length">49</property>
  <property name="eof">pause</property>
  <property name="resource">thefirstcamp.m4a</property>
  <property name="mlt_service">avformat-novalidate</property>
  <property name="seekable">1</property>
  <property name="audio_index">0</property>
  <property name="video_index">-1</property>
  <property name="astream">0</property>
  <property name="kdenlive:folderid">-1</property>
  <property name="kdenlive:id">22</property>
  <property name="kdenlive:clip_type">1</property>
  <property name="kdenlive:file_size">39598</property>
  <property name="kdenlive:file_hash">c43294639f259ee200c372c906911b1b</property>
  <property name="kdenlive:audio_max0">125</property>
  <property name="meta.media.nb_streams">1</property>
  <property name="meta.media.0.stream.type">audio</property>
  <property name="meta.media.0.codec.sample_fmt">fltp</property>
  <property name="meta.media.0.codec.sample_rate">48000</property>
  <property name="meta.media.0.codec.channels">2</property>
  <property name="meta.media.0.codec.layout">stereo</property>
  <property name="meta.media.0.codec.name">aac</property>
  <property name="meta.media.0.codec.long_name">AAC (Advanced Audio Coding)</property>
  <property name="meta.media.0.codec.bit_rate">148002</property>
  <property name="meta.attr.0.stream.creation_time.markup">2024-07-31T09:18:24.000000Z</property>
  <property name="meta.attr.0.stream.language.markup">eng</property>
  <property name="meta.attr.0.stream.handler_name.markup">SoundHandle</property>
  <property name="meta.attr.0.stream.vendor_id.markup">[0][0][0][0]</property>
  <property name="meta.attr.major_brand.markup">mp42</property>
  <property name="meta.attr.minor_version.markup">0</property>
  <property name="meta.attr.compatible_brands.markup">isommp42</property>
  <property name="meta.attr.creation_time.markup">2024-07-31T09:18:24.000000Z</property>
  <property name="meta.attr.com.android.version.markup">12</property>
  <property name="xml">was here</property>
  <property name="mute_on_pause">0</property>
  <property name="set.test_audio">0</property>
  <property name="set.test_image">1</property>
 </chain>
 <chain id="chain43" out="00:00:06.920">
  <property name="length">174</property>
  <property name="eof">pause</property>
  <property name="resource">thattheveryidea.m4a</property>
  <property name="mlt_service">avformat-novalidate</property>
  <property name="seekable">1</property>
  <property name="audio_index">0</property>
  <property name="video_index">-1</property>
  <property name="astream">0</property>
  <property name="kdenlive:folderid">-1</property>
  <property name="kdenlive:id">20</property>
  <property name="kdenlive:clip_type">1</property>
  <property name="kdenlive:file_size">132403</property>
  <property name="kdenlive:file_hash">f25f18dbaba44199342110a1b3c16de3</property>
  <property name="kdenlive:audio_max0">127</property>
  <property name="meta.media.nb_streams">1</property>
  <property name="meta.media.0.stream.type">audio</property>
  <property name="meta.media.0.codec.sample_fmt">fltp</property>
  <property name="meta.media.0.codec.sample_rate">48000</property>
  <property name="meta.media.0.codec.channels">2</property>
  <property name="meta.media.0.codec.layout">stereo</property>
  <property name="meta.media.0.codec.name">aac</property>
  <property name="meta.media.0.codec.long_name">AAC (Advanced Audio Coding)</property>
  <property name="meta.media.0.codec.bit_rate">148001</property>
  <property name="meta.attr.0.stream.creation_time.markup">2024-07-31T09:22:04.000000Z</property>
  <property name="meta.attr.0.stream.language.markup">eng</property>
  <property name="meta.attr.0.stream.handler_name.markup">SoundHandle</property>
  <property name="meta.attr.0.stream.vendor_id.markup">[0][0][0][0]</property>
  <property name="meta.attr.major_brand.markup">mp42</property>
  <property name="meta.attr.minor_version.markup">0</property>
  <property name="meta.attr.compatible_brands.markup">isommp42</property>
  <property name="meta.attr.creation_time.markup">2024-07-31T09:22:04.000000Z</property>
  <property name="meta.attr.com.android.version.markup">12</property>
  <property name="xml">was here</property>
  <property name="mute_on_pause">0</property>
  <property name="set.test_audio">0</property>
  <property name="set.test_image">1</property>
 </chain>
 <chain id="chain44" out="00:00:02.240">
  <property name="length">57</property>
  <property name="eof">pause</property>
  <property name="resource">youareannpc.m4a</property>
  <property name="mlt_service">avformat-novalidate</property>
  <property name="seekable">1</property>
  <property name="audio_index">0</property>
  <property name="video_index">-1</property>
  <property name="astream">0</property>
  <property name="kdenlive:folderid">-1</property>
  <property name="kdenlive:id">27</property>
  <property name="kdenlive:clip_type">1</property>
  <property name="kdenlive:file_size">45126</property>
  <property name="kdenlive:file_hash">9629b38095fe666e8cdf56e5f9f4ab4b</property>
  <property name="kdenlive:audio_max0">126</property>
  <property name="meta.media.nb_streams">1</property>
  <property name="meta.media.0.stream.type">audio</property>
  <property name="meta.media.0.codec.sample_fmt">fltp</property>
  <property name="meta.media.0.codec.sample_rate">48000</property>
  <property name="meta.media.0.codec.channels">2</property>
  <property name="meta.media.0.codec.layout">stereo</property>
  <property name="meta.media.0.codec.name">aac</property>
  <property name="meta.media.0.codec.long_name">AAC (Advanced Audio Coding)</property>
  <property name="meta.media.0.codec.bit_rate">147997</property>
  <property name="meta.attr.0.stream.creation_time.markup">2024-07-31T09:23:00.000000Z</property>
  <property name="meta.attr.0.stream.language.markup">eng</property>
  <property name="meta.attr.0.stream.handler_name.markup">SoundHandle</property>
  <property name="meta.attr.0.stream.vendor_id.markup">[0][0][0][0]</property>
  <property name="meta.attr.major_brand.markup">mp42</property>
  <property name="meta.attr.minor_version.markup">0</property>
  <property name="meta.attr.compatible_brands.markup">isommp42</property>
  <property name="meta.attr.creation_time.markup">2024-07-31T09:23:00.000000Z</property>
  <property name="meta.attr.com.android.version.markup">12</property>
  <property name="xml">was here</property>
  <property name="mute_on_pause">0</property>
  <property name="set.test_audio">0</property>
  <property name="set.test_image">1</property>
 </chain>
 <chain id="chain45" out="00:00:03.280">
  <property name="length">83</property>
  <property name="eof">pause</property>
  <property name="resource">whatever.m4a</property>
  <property name="mlt_service">avformat-novalidate</property>
  <property name="seekable">1</property>
  <property name="audio_index">0</property>
  <property name="video_index">-1</property>
  <property name="astream">0</property>
  <property name="kdenlive:folderid">-1</property>
  <property name="kdenlive:id">52</property>
  <property name="kdenlive:clip_type">1</property>
  <property name="kdenlive:file_size">64478</property>
  <property name="kdenlive:file_hash">7e42505ea03022e91b08d51e2fec28f7</property>
  <property name="kdenlive:audio_max0">136</property>
  <property name="meta.media.nb_streams">1</property>
  <property name="meta.media.0.stream.type">audio</property>
  <property name="meta.media.0.codec.sample_fmt">fltp</property>
  <property name="meta.media.0.codec.sample_rate">48000</property>
  <property name="meta.media.0.codec.channels">2</property>
  <property name="meta.media.0.codec.layout">stereo</property>
  <property name="meta.media.0.codec.name">aac</property>
  <property name="meta.media.0.codec.long_name">AAC (Advanced Audio Coding)</property>
  <property name="meta.media.0.codec.bit_rate">148001</property>
  <property name="meta.attr.0.stream.creation_time.markup">2024-08-01T03:11:17.000000Z</property>
  <property name="meta.attr.0.stream.language.markup">eng</property>
  <property name="meta.attr.0.stream.handler_name.markup">SoundHandle</property>
  <property name="meta.attr.0.stream.vendor_id.markup">[0][0][0][0]</property>
  <property name="meta.attr.major_brand.markup">mp42</property>
  <property name="meta.attr.minor_version.markup">0</property>
  <property name="meta.attr.compatible_brands.markup">isommp42</property>
  <property name="meta.attr.creation_time.markup">2024-08-01T03:11:17.000000Z</property>
  <property name="meta.attr.com.android.version.markup">12</property>
  <property name="xml">was here</property>
  <property name="mute_on_pause">0</property>
  <property name="set.test_audio">0</property>
  <property name="set.test_image">1</property>
 </chain>
 <chain id="chain49" out="00:00:03.440">
  <property name="length">87</property>
  <property name="eof">pause</property>
  <property name="resource">itssomehow.m4a</property>
  <property name="mlt_service">avformat-novalidate</property>
  <property name="seekable">1</property>
  <property name="audio_index">0</property>
  <property name="video_index">-1</property>
  <property name="astream">0</property>
  <property name="kdenlive:folderid">-1</property>
  <property name="kdenlive:id">41</property>
  <property name="kdenlive:clip_type">1</property>
  <property name="kdenlive:file_size">67637</property>
  <property name="kdenlive:file_hash">dbf585bed171f7985cb0446281067749</property>
  <property name="kdenlive:audio_max0">151</property>
  <property name="meta.media.nb_streams">1</property>
  <property name="meta.media.0.stream.type">audio</property>
  <property name="meta.media.0.codec.sample_fmt">fltp</property>
  <property name="meta.media.0.codec.sample_rate">48000</property>
  <property name="meta.media.0.codec.channels">2</property>
  <property name="meta.media.0.codec.layout">stereo</property>
  <property name="meta.media.0.codec.name">aac</property>
  <property name="meta.media.0.codec.long_name">AAC (Advanced Audio Coding)</property>
  <property name="meta.media.0.codec.bit_rate">148000</property>
  <property name="meta.attr.0.stream.creation_time.markup">2024-08-01T03:19:36.000000Z</property>
  <property name="meta.attr.0.stream.language.markup">eng</property>
  <property name="meta.attr.0.stream.handler_name.markup">SoundHandle</property>
  <property name="meta.attr.0.stream.vendor_id.markup">[0][0][0][0]</property>
  <property name="meta.attr.major_brand.markup">mp42</property>
  <property name="meta.attr.minor_version.markup">0</property>
  <property name="meta.attr.compatible_brands.markup">isommp42</property>
  <property name="meta.attr.creation_time.markup">2024-08-01T03:19:36.000000Z</property>
  <property name="meta.attr.com.android.version.markup">12</property>
  <property name="xml">was here</property>
  <property name="mute_on_pause">0</property>
  <property name="set.test_audio">0</property>
  <property name="set.test_image">1</property>
 </chain>
 <producer id="producer10" in="00:00:00.000" out="00:00:02.480">
  <property name="length">63</property>
  <property name="eof">pause</property>
  <property name="resource">1.020000:andtheseare.m4a</property>
  <property name="aspect_ratio">1</property>
  <property name="meta.media.nb_streams">1</property>
  <property name="meta.media.0.stream.type">audio</property>
  <property name="meta.media.0.codec.sample_fmt">fltp</property>
  <property name="meta.media.0.codec.sample_rate">48000</property>
  <property name="meta.media.0.codec.channels">2</property>
  <property name="meta.media.0.codec.layout">stereo</property>
  <property name="meta.media.0.codec.name">aac</property>
  <property name="meta.media.0.codec.long_name">AAC (Advanced Audio Coding)</property>
  <property name="meta.media.0.codec.bit_rate">148000</property>
  <property name="meta.attr.0.stream.creation_time.markup">2024-08-01T03:22:08.000000Z</property>
  <property name="meta.attr.0.stream.language.markup">eng</property>
  <property name="meta.attr.0.stream.handler_name.markup">SoundHandle</property>
  <property name="meta.attr.0.stream.vendor_id.markup">[0][0][0][0]</property>
  <property name="meta.attr.major_brand.markup">mp42</property>
  <property name="meta.attr.minor_version.markup">0</property>
  <property name="meta.attr.compatible_brands.markup">isommp42</property>
  <property name="meta.attr.creation_time.markup">2024-08-01T03:22:08.000000Z</property>
  <property name="meta.attr.com.android.version.markup">12</property>
  <property name="seekable">1</property>
  <property name="audio_index">0</property>
  <property name="video_index">-1</property>
  <property name="warp_speed">1.02</property>
  <property name="warp_resource">andtheseare.m4a</property>
  <property name="mlt_service">timewarp</property>
  <property name="astream">0</property>
  <property name="set.test_audio">0</property>
  <property name="set.test_image">1</property>
  <property name="kdenlive:id">35</property>
  <property name="warp_pitch">0</property>
 </producer>
 <producer id="producer11" in="00:00:00.000" out="00:00:01.720">
  <property name="length">44</property>
  <property name="eof">pause</property>
  <property name="resource">1.020000:withare.m4a</property>
  <property name="aspect_ratio">1</property>
  <property name="meta.media.nb_streams">1</property>
  <property name="meta.media.0.stream.type">audio</property>
  <property name="meta.media.0.codec.sample_fmt">fltp</property>
  <property name="meta.media.0.codec.sample_rate">48000</property>
  <property name="meta.media.0.codec.channels">2</property>
  <property name="meta.media.0.codec.layout">stereo</property>
  <property name="meta.media.0.codec.name">aac</property>
  <property name="meta.media.0.codec.long_name">AAC (Advanced Audio Coding)</property>
  <property name="meta.media.0.codec.bit_rate">148001</property>
  <property name="meta.attr.0.stream.creation_time.markup">2024-08-01T03:22:50.000000Z</property>
  <property name="meta.attr.0.stream.language.markup">eng</property>
  <property name="meta.attr.0.stream.handler_name.markup">SoundHandle</property>
  <property name="meta.attr.0.stream.vendor_id.markup">[0][0][0][0]</property>
  <property name="meta.attr.major_brand.markup">mp42</property>
  <property name="meta.attr.minor_version.markup">0</property>
  <property name="meta.attr.compatible_brands.markup">isommp42</property>
  <property name="meta.attr.creation_time.markup">2024-08-01T03:22:50.000000Z</property>
  <property name="meta.attr.com.android.version.markup">12</property>
  <property name="seekable">1</property>
  <property name="audio_index">0</property>
  <property name="video_index">-1</property>
  <property name="warp_speed">1.02</property>
  <property name="warp_resource">withare.m4a</property>
  <property name="mlt_service">timewarp</property>
  <property name="astream">0</property>
  <property name="set.test_audio">0</property>
  <property name="set.test_image">1</property>
  <property name="kdenlive:id">54</property>
  <property name="warp_pitch">0</property>
 </producer>
 <producer id="producer12" in="00:00:00.000" out="00:00:04.920">
  <property name="length">125</property>
  <property name="eof">pause</property>
  <property name="resource">1.020000:withare_.m4a</property>
  <property name="aspect_ratio">1</property>
  <property name="meta.media.nb_streams">1</property>
  <property name="meta.media.0.stream.type">audio</property>
  <property name="meta.media.0.codec.sample_fmt">fltp</property>
  <property name="meta.media.0.codec.sample_rate">48000</property>
  <property name="meta.media.0.codec.channels">2</property>
  <property name="meta.media.0.codec.layout">stereo</property>
  <property name="meta.media.0.codec.name">aac</property>
  <property name="meta.media.0.codec.long_name">AAC (Advanced Audio Coding)</property>
  <property name="meta.media.0.codec.bit_rate">148000</property>
  <property name="meta.attr.0.stream.creation_time.markup">2024-08-01T03:24:09.000000Z</property>
  <property name="meta.attr.0.stream.language.markup">eng</property>
  <property name="meta.attr.0.stream.handler_name.markup">SoundHandle</property>
  <property name="meta.attr.0.stream.vendor_id.markup">[0][0][0][0]</property>
  <property name="meta.attr.major_brand.markup">mp42</property>
  <property name="meta.attr.minor_version.markup">0</property>
  <property name="meta.attr.compatible_brands.markup">isommp42</property>
  <property name="meta.attr.creation_time.markup">2024-08-01T03:24:09.000000Z</property>
  <property name="meta.attr.com.android.version.markup">12</property>
  <property name="seekable">1</property>
  <property name="audio_index">0</property>
  <property name="video_index">-1</property>
  <property name="warp_speed">1.02</property>
  <property name="warp_resource">withare_.m4a</property>
  <property name="mlt_service">timewarp</property>
  <property name="astream">0</property>
  <property name="set.test_audio">0</property>
  <property name="set.test_image">1</property>
  <property name="kdenlive:id">53</property>
  <property name="warp_pitch">0</property>
 </producer>
 <producer id="producer13" in="00:00:00.000" out="00:00:06.480">
  <property name="length">163</property>
  <property name="eof">pause</property>
  <property name="resource">1.020000:sofunmently.m4a</property>
  <property name="aspect_ratio">1</property>
  <property name="meta.media.nb_streams">1</property>
  <property name="meta.media.0.stream.type">audio</property>
  <property name="meta.media.0.codec.sample_fmt">fltp</property>
  <property name="meta.media.0.codec.sample_rate">48000</property>
  <property name="meta.media.0.codec.channels">2</property>
  <property name="meta.media.0.codec.layout">stereo</property>
  <property name="meta.media.0.codec.name">aac</property>
  <property name="meta.media.0.codec.long_name">AAC (Advanced Audio Coding)</property>
  <property name="meta.media.0.codec.bit_rate">148000</property>
  <property name="meta.attr.0.stream.creation_time.markup">2024-08-01T03:29:21.000000Z</property>
  <property name="meta.attr.0.stream.language.markup">eng</property>
  <property name="meta.attr.0.stream.handler_name.markup">SoundHandle</property>
  <property name="meta.attr.0.stream.vendor_id.markup">[0][0][0][0]</property>
  <property name="meta.attr.major_brand.markup">mp42</property>
  <property name="meta.attr.minor_version.markup">0</property>
  <property name="meta.attr.compatible_brands.markup">isommp42</property>
  <property name="meta.attr.creation_time.markup">2024-08-01T03:29:21.000000Z</property>
  <property name="meta.attr.com.android.version.markup">12</property>
  <property name="seekable">1</property>
  <property name="audio_index">0</property>
  <property name="video_index">-1</property>
  <property name="warp_speed">1.02</property>
  <property name="warp_resource">sofunmently.m4a</property>
  <property name="mlt_service">timewarp</property>
  <property name="astream">0</property>
  <property name="set.test_audio">0</property>
  <property name="set.test_image">1</property>
  <property name="kdenlive:id">44</property>
  <property name="warp_pitch">0</property>
 </producer>
 <producer id="producer14" in="00:00:00.000" out="00:00:04.720">
  <property name="length">119</property>
  <property name="eof">pause</property>
  <property name="resource">1.020000:putcilsare.m4a</property>
  <property name="aspect_ratio">1</property>
  <property name="meta.media.nb_streams">1</property>
  <property name="meta.media.0.stream.type">audio</property>
  <property name="meta.media.0.codec.sample_fmt">fltp</property>
  <property name="meta.media.0.codec.sample_rate">48000</property>
  <property name="meta.media.0.codec.channels">2</property>
  <property name="meta.media.0.codec.layout">stereo</property>
  <property name="meta.media.0.codec.name">aac</property>
  <property name="meta.media.0.codec.long_name">AAC (Advanced Audio Coding)</property>
  <property name="meta.media.0.codec.bit_rate">148001</property>
  <property name="meta.attr.0.stream.creation_time.markup">2024-08-01T04:24:54.000000Z</property>
  <property name="meta.attr.0.stream.language.markup">eng</property>
  <property name="meta.attr.0.stream.handler_name.markup">SoundHandle</property>
  <property name="meta.attr.0.stream.vendor_id.markup">[0][0][0][0]</property>
  <property name="meta.attr.major_brand.markup">mp42</property>
  <property name="meta.attr.minor_version.markup">0</property>
  <property name="meta.attr.compatible_brands.markup">isommp42</property>
  <property name="meta.attr.creation_time.markup">2024-08-01T04:24:54.000000Z</property>
  <property name="meta.attr.com.android.version.markup">12</property>
  <property name="seekable">1</property>
  <property name="audio_index">0</property>
  <property name="video_index">-1</property>
  <property name="warp_speed">1.02</property>
  <property name="warp_resource">putcilsare.m4a</property>
  <property name="mlt_service">timewarp</property>
  <property name="astream">0</property>
  <property name="set.test_audio">0</property>
  <property name="set.test_image">1</property>
  <property name="kdenlive:id">43</property>
  <property name="warp_pitch">0</property>
 </producer>
 <producer id="producer15" in="00:00:00.000" out="00:00:03.640">
  <property name="length">92</property>
  <property name="eof">pause</property>
  <property name="resource">1.020000:theybly.m4a</property>
  <property name="aspect_ratio">1</property>
  <property name="meta.media.nb_streams">1</property>
  <property name="meta.media.0.stream.type">audio</property>
  <property name="meta.media.0.codec.sample_fmt">fltp</property>
  <property name="meta.media.0.codec.sample_rate">48000</property>
  <property name="meta.media.0.codec.channels">2</property>
  <property name="meta.media.0.codec.layout">stereo</property>
  <property name="meta.media.0.codec.name">aac</property>
  <property name="meta.media.0.codec.long_name">AAC (Advanced Audio Coding)</property>
  <property name="meta.media.0.codec.bit_rate">147999</property>
  <property name="meta.attr.0.stream.creation_time.markup">2024-08-01T04:26:22.000000Z</property>
  <property name="meta.attr.0.stream.language.markup">eng</property>
  <property name="meta.attr.0.stream.handler_name.markup">SoundHandle</property>
  <property name="meta.attr.0.stream.vendor_id.markup">[0][0][0][0]</property>
  <property name="meta.attr.major_brand.markup">mp42</property>
  <property name="meta.attr.minor_version.markup">0</property>
  <property name="meta.attr.compatible_brands.markup">isommp42</property>
  <property name="meta.attr.creation_time.markup">2024-08-01T04:26:22.000000Z</property>
  <property name="meta.attr.com.android.version.markup">12</property>
  <property name="seekable">1</property>
  <property name="audio_index">0</property>
  <property name="video_index">-1</property>
  <property name="warp_speed">1.02</property>
  <property name="warp_resource">theybly.m4a</property>
  <property name="mlt_service">timewarp</property>
  <property name="astream">0</property>
  <property name="set.test_audio">0</property>
  <property name="set.test_image">1</property>
  <property name="kdenlive:id">49</property>
  <property name="warp_pitch">0</property>
 </producer>
 <producer id="producer16" in="00:00:00.000" out="00:00:05.680">
  <property name="length">143</property>
  <property name="eof">pause</property>
  <property name="resource">1.020000:andwedontnowwhy.m4a</property>
  <property name="aspect_ratio">1</property>
  <property name="meta.media.nb_streams">1</property>
  <property name="meta.media.0.stream.type">audio</property>
  <property name="meta.media.0.codec.sample_fmt">fltp</property>
  <property name="meta.media.0.codec.sample_rate">48000</property>
  <property name="meta.media.0.codec.channels">2</property>
  <property name="meta.media.0.codec.layout">stereo</property>
  <property name="meta.media.0.codec.name">aac</property>
  <property name="meta.media.0.codec.long_name">AAC (Advanced Audio Coding)</property>
  <property name="meta.media.0.codec.bit_rate">147999</property>
  <property name="meta.attr.0.stream.creation_time.markup">2024-08-01T04:29:30.000000Z</property>
  <property name="meta.attr.0.stream.language.markup">eng</property>
  <property name="meta.attr.0.stream.handler_name.markup">SoundHandle</property>
  <property name="meta.attr.0.stream.vendor_id.markup">[0][0][0][0]</property>
  <property name="meta.attr.major_brand.markup">mp42</property>
  <property name="meta.attr.minor_version.markup">0</property>
  <property name="meta.attr.compatible_brands.markup">isommp42</property>
  <property name="meta.attr.creation_time.markup">2024-08-01T04:29:30.000000Z</property>
  <property name="meta.attr.com.android.version.markup">12</property>
  <property name="seekable">1</property>
  <property name="audio_index">0</property>
  <property name="video_index">-1</property>
  <property name="warp_speed">1.02</property>
  <property name="warp_resource">andwedontnowwhy.m4a</property>
  <property name="mlt_service">timewarp</property>
  <property name="astream">0</property>
  <property name="set.test_audio">0</property>
  <property name="set.test_image">1</property>
  <property name="kdenlive:id">36</property>
  <property name="warp_pitch">0</property>
 </producer>
 <producer id="producer17" in="00:00:00.000" out="00:00:05.320">
  <property name="length">134</property>
  <property name="eof">pause</property>
  <property name="resource">1.020000:wcithmensthat.m4a</property>
  <property name="aspect_ratio">1</property>
  <property name="meta.media.nb_streams">1</property>
  <property name="meta.media.0.stream.type">audio</property>
  <property name="meta.media.0.codec.sample_fmt">fltp</property>
  <property name="meta.media.0.codec.sample_rate">48000</property>
  <property name="meta.media.0.codec.channels">2</property>
  <property name="meta.media.0.codec.layout">stereo</property>
  <property name="meta.media.0.codec.name">aac</property>
  <property name="meta.media.0.codec.long_name">AAC (Advanced Audio Coding)</property>
  <property name="meta.media.0.codec.bit_rate">148000</property>
  <property name="meta.attr.0.stream.creation_time.markup">2024-08-01T04:32:21.000000Z</property>
  <property name="meta.attr.0.stream.language.markup">eng</property>
  <property name="meta.attr.0.stream.handler_name.markup">SoundHandle</property>
  <property name="meta.attr.0.stream.vendor_id.markup">[0][0][0][0]</property>
  <property name="meta.attr.major_brand.markup">mp42</property>
  <property name="meta.attr.minor_version.markup">0</property>
  <property name="meta.attr.compatible_brands.markup">isommp42</property>
  <property name="meta.attr.creation_time.markup">2024-08-01T04:32:21.000000Z</property>
  <property name="meta.attr.com.android.version.markup">12</property>
  <property name="seekable">1</property>
  <property name="audio_index">0</property>
  <property name="video_index">-1</property>
  <property name="warp_speed">1.02</property>
  <property name="warp_resource">wcithmensthat.m4a</property>
  <property name="mlt_service">timewarp</property>
  <property name="astream">0</property>
  <property name="set.test_audio">0</property>
  <property name="set.test_image">1</property>
  <property name="kdenlive:id">51</property>
  <property name="warp_pitch">0</property>
 </producer>
 <producer id="producer18" in="00:00:00.000" out="00:00:05.320">
  <property name="length">134</property>
  <property name="eof">pause</property>
  <property name="resource">1.020000:wcithmensthat.m4a</property>
  <property name="aspect_ratio">1</property>
  <property name="meta.media.nb_streams">1</property>
  <property name="meta.media.0.stream.type">audio</property>
  <property name="meta.media.0.codec.sample_fmt">fltp</property>
  <property name="meta.media.0.codec.sample_rate">48000</property>
  <property name="meta.media.0.codec.channels">2</property>
  <property name="meta.media.0.codec.layout">stereo</property>
  <property name="meta.media.0.codec.name">aac</property>
  <property name="meta.media.0.codec.long_name">AAC (Advanced Audio Coding)</property>
  <property name="meta.media.0.codec.bit_rate">148000</property>
  <property name="meta.attr.0.stream.creation_time.markup">2024-08-01T04:32:21.000000Z</property>
  <property name="meta.attr.0.stream.language.markup">eng</property>
  <property name="meta.attr.0.stream.handler_name.markup">SoundHandle</property>
  <property name="meta.attr.0.stream.vendor_id.markup">[0][0][0][0]</property>
  <property name="meta.attr.major_brand.markup">mp42</property>
  <property name="meta.attr.minor_version.markup">0</property>
  <property name="meta.attr.compatible_brands.markup">isommp42</property>
  <property name="meta.attr.creation_time.markup">2024-08-01T04:32:21.000000Z</property>
  <property name="meta.attr.com.android.version.markup">12</property>
  <property name="seekable">1</property>
  <property name="audio_index">0</property>
  <property name="video_index">-1</property>
  <property name="warp_speed">1.02</property>
  <property name="warp_resource">wcithmensthat.m4a</property>
  <property name="mlt_service">timewarp</property>
  <property name="astream">0</property>
  <property name="set.test_audio">0</property>
  <property name="set.test_image">1</property>
  <property name="kdenlive:id">51</property>
  <property name="warp_pitch">0</property>
 </producer>
 <producer id="producer19" in="00:00:00.000" out="00:00:04.400">
  <property name="length">111</property>
  <property name="eof">pause</property>
  <property name="resource">1.020000:ifyouplay.m4a</property>
  <property name="aspect_ratio">1</property>
  <property name="meta.media.nb_streams">1</property>
  <property name="meta.media.0.stream.type">audio</property>
  <property name="meta.media.0.codec.sample_fmt">fltp</property>
  <property name="meta.media.0.codec.sample_rate">48000</property>
  <property name="meta.media.0.codec.channels">2</property>
  <property name="meta.media.0.codec.layout">stereo</property>
  <property name="meta.media.0.codec.name">aac</property>
  <property name="meta.media.0.codec.long_name">AAC (Advanced Audio Coding)</property>
  <property name="meta.media.0.codec.bit_rate">147999</property>
  <property name="meta.attr.0.stream.creation_time.markup">2024-08-01T04:34:41.000000Z</property>
  <property name="meta.attr.0.stream.language.markup">eng</property>
  <property name="meta.attr.0.stream.handler_name.markup">SoundHandle</property>
  <property name="meta.attr.0.stream.vendor_id.markup">[0][0][0][0]</property>
  <property name="meta.attr.major_brand.markup">mp42</property>
  <property name="meta.attr.minor_version.markup">0</property>
  <property name="meta.attr.compatible_brands.markup">isommp42</property>
  <property name="meta.attr.creation_time.markup">2024-08-01T04:34:41.000000Z</property>
  <property name="meta.attr.com.android.version.markup">12</property>
  <property name="seekable">1</property>
  <property name="audio_index">0</property>
  <property name="video_index">-1</property>
  <property name="warp_speed">1.02</property>
  <property name="warp_resource">ifyouplay.m4a</property>
  <property name="mlt_service">timewarp</property>
  <property name="astream">0</property>
  <property name="set.test_audio">0</property>
  <property name="set.test_image">1</property>
  <property name="kdenlive:id">40</property>
  <property name="warp_pitch">0</property>
 </producer>
 <chain id="chain51" out="00:00:05.760">
  <property name="length">145</property>
  <property name="eof">pause</property>
  <property name="resource">thelawsofph.m4a</property>
  <property name="mlt_service">avformat-novalidate</property>
  <property name="seekable">1</property>
  <property name="audio_index">0</property>
  <property name="video_index">-1</property>
  <property name="astream">0</property>
  <property name="kdenlive:folderid">-1</property>
  <property name="kdenlive:id">47</property>
  <property name="kdenlive:clip_type">1</property>
  <property name="kdenlive:file_size">110286</property>
  <property name="kdenlive:file_hash">0932959cf4d2d4d90688a7e9ee5f5ee8</property>
  <property name="kdenlive:audio_max0">104</property>
  <property name="kdenlive:monitorPosition">0</property>
  <property name="meta.media.nb_streams">1</property>
  <property name="meta.media.0.stream.type">audio</property>
  <property name="meta.media.0.codec.sample_fmt">fltp</property>
  <property name="meta.media.0.codec.sample_rate">48000</property>
  <property name="meta.media.0.codec.channels">2</property>
  <property name="meta.media.0.codec.layout">stereo</property>
  <property name="meta.media.0.codec.name">aac</property>
  <property name="meta.media.0.codec.long_name">AAC (Advanced Audio Coding)</property>
  <property name="meta.media.0.codec.bit_rate">147999</property>
  <property name="meta.attr.0.stream.creation_time.markup">2024-08-01T04:37:59.000000Z</property>
  <property name="meta.attr.0.stream.language.markup">eng</property>
  <property name="meta.attr.0.stream.handler_name.markup">SoundHandle</property>
  <property name="meta.attr.0.stream.vendor_id.markup">[0][0][0][0]</property>
  <property name="meta.attr.major_brand.markup">mp42</property>
  <property name="meta.attr.minor_version.markup">0</property>
  <property name="meta.attr.compatible_brands.markup">isommp42</property>
  <property name="meta.attr.creation_time.markup">2024-08-01T04:37:59.000000Z</property>
  <property name="meta.attr.com.android.version.markup">12</property>
  <property name="xml">was here</property>
  <property name="mute_on_pause">0</property>
  <property name="set.test_audio">0</property>
  <property name="set.test_image">1</property>
 </chain>
 <chain id="chain52" out="00:00:04.200">
  <property name="length">106</property>
  <property name="eof">pause</property>
  <property name="resource">theirspeeds.m4a</property>
  <property name="mlt_service">avformat-novalidate</property>
  <property name="seekable">1</property>
  <property name="audio_index">0</property>
  <property name="video_index">-1</property>
  <property name="astream">0</property>
  <property name="kdenlive:folderid">-1</property>
  <property name="kdenlive:id">46</property>
  <property name="kdenlive:clip_type">1</property>
  <property name="kdenlive:file_size">81853</property>
  <property name="kdenlive:file_hash">2e4b31a8059626991bf892c4e9d8c89b</property>
  <property name="kdenlive:audio_max0">118</property>
  <property name="kdenlive:monitorPosition">0</property>
  <property name="meta.media.nb_streams">1</property>
  <property name="meta.media.0.stream.type">audio</property>
  <property name="meta.media.0.codec.sample_fmt">fltp</property>
  <property name="meta.media.0.codec.sample_rate">48000</property>
  <property name="meta.media.0.codec.channels">2</property>
  <property name="meta.media.0.codec.layout">stereo</property>
  <property name="meta.media.0.codec.name">aac</property>
  <property name="meta.media.0.codec.long_name">AAC (Advanced Audio Coding)</property>
  <property name="meta.media.0.codec.bit_rate">148000</property>
  <property name="meta.attr.0.stream.creation_time.markup">2024-08-01T04:39:37.000000Z</property>
  <property name="meta.attr.0.stream.language.markup">eng</property>
  <property name="meta.attr.0.stream.handler_name.markup">SoundHandle</property>
  <property name="meta.attr.0.stream.vendor_id.markup">[0][0][0][0]</property>
  <property name="meta.attr.major_brand.markup">mp42</property>
  <property name="meta.attr.minor_version.markup">0</property>
  <property name="meta.attr.compatible_brands.markup">isommp42</property>
  <property name="meta.attr.creation_time.markup">2024-08-01T04:39:37.000000Z</property>
  <property name="meta.attr.com.android.version.markup">12</property>
  <property name="xml">was here</property>
  <property name="mute_on_pause">0</property>
  <property name="set.test_audio">0</property>
  <property name="set.test_image">1</property>
 </chain>
 <chain id="chain53" out="00:00:05.880">
  <property name="length">148</property>
  <property name="eof">pause</property>
  <property name="resource">theselawscom.m4a</property>
  <property name="mlt_service">avformat-novalidate</property>
  <property name="seekable">1</property>
  <property name="audio_index">0</property>
  <property name="video_index">-1</property>
  <property name="astream">0</property>
  <property name="kdenlive:folderid">-1</property>
  <property name="kdenlive:id">48</property>
  <property name="kdenlive:clip_type">1</property>
  <property name="kdenlive:file_size">113052</property>
  <property name="kdenlive:file_hash">4462200b5e6dfd69576f29e05ba6bca0</property>
  <property name="kdenlive:audio_max0">122</property>
  <property name="meta.media.nb_streams">1</property>
  <property name="meta.media.0.stream.type">audio</property>
  <property name="meta.media.0.codec.sample_fmt">fltp</property>
  <property name="meta.media.0.codec.sample_rate">48000</property>
  <property name="meta.media.0.codec.channels">2</property>
  <property name="meta.media.0.codec.layout">stereo</property>
  <property name="meta.media.0.codec.name">aac</property>
  <property name="meta.media.0.codec.long_name">AAC (Advanced Audio Coding)</property>
  <property name="meta.media.0.codec.bit_rate">148000</property>
  <property name="meta.attr.0.stream.creation_time.markup">2024-08-01T04:41:38.000000Z</property>
  <property name="meta.attr.0.stream.language.markup">eng</property>
  <property name="meta.attr.0.stream.handler_name.markup">SoundHandle</property>
  <property name="meta.attr.0.stream.vendor_id.markup">[0][0][0][0]</property>
  <property name="meta.attr.major_brand.markup">mp42</property>
  <property name="meta.attr.minor_version.markup">0</property>
  <property name="meta.attr.compatible_brands.markup">isommp42</property>
  <property name="meta.attr.creation_time.markup">2024-08-01T04:41:38.000000Z</property>
  <property name="meta.attr.com.android.version.markup">12</property>
  <property name="xml">was here</property>
  <property name="mute_on_pause">0</property>
  <property name="set.test_audio">0</property>
  <property name="set.test_image">1</property>
 </chain>
 <chain id="chain54" out="00:00:06.560">
  <property name="length">165</property>
  <property name="eof">pause</property>
  <property name="resource">asthemicro.m4a</property>
  <property name="mlt_service">avformat-novalidate</property>
  <property name="seekable">1</property>
  <property name="audio_index">0</property>
  <property name="video_index">-1</property>
  <property name="astream">0</property>
  <property name="kdenlive:folderid">-1</property>
  <property name="kdenlive:id">37</property>
  <property name="kdenlive:clip_type">1</property>
  <property name="kdenlive:file_size">125294</property>
  <property name="kdenlive:file_hash">d1a91b45bb6b0df7d4f19251cd1cb5d1</property>
  <property name="kdenlive:audio_max0">140</property>
  <property name="meta.media.nb_streams">1</property>
  <property name="meta.media.0.stream.type">audio</property>
  <property name="meta.media.0.codec.sample_fmt">fltp</property>
  <property name="meta.media.0.codec.sample_rate">48000</property>
  <property name="meta.media.0.codec.channels">2</property>
  <property name="meta.media.0.codec.layout">stereo</property>
  <property name="meta.media.0.codec.name">aac</property>
  <property name="meta.media.0.codec.long_name">AAC (Advanced Audio Coding)</property>
  <property name="meta.media.0.codec.bit_rate">148000</property>
  <property name="meta.attr.0.stream.creation_time.markup">2024-08-01T04:43:22.000000Z</property>
  <property name="meta.attr.0.stream.language.markup">eng</property>
  <property name="meta.attr.0.stream.handler_name.markup">SoundHandle</property>
  <property name="meta.attr.0.stream.vendor_id.markup">[0][0][0][0]</property>
  <property name="meta.attr.major_brand.markup">mp42</property>
  <property name="meta.attr.minor_version.markup">0</property>
  <property name="meta.attr.compatible_brands.markup">isommp42</property>
  <property name="meta.attr.creation_time.markup">2024-08-01T04:43:22.000000Z</property>
  <property name="meta.attr.com.android.version.markup">12</property>
  <property name="xml">was here</property>
  <property name="mute_on_pause">0</property>
  <property name="set.test_audio">0</property>
  <property name="set.test_image">1</property>
 </chain>
 <chain id="chain55" out="00:00:05.680">
  <property name="length">143</property>
  <property name="eof">pause</property>
  <property name="resource">acthionsandre.m4a</property>
  <property name="mlt_service">avformat-novalidate</property>
  <property name="seekable">1</property>
  <property name="audio_index">0</property>
  <property name="video_index">-1</property>
  <property name="astream">0</property>
  <property name="kdenlive:folderid">-1</property>
  <property name="kdenlive:id">33</property>
  <property name="kdenlive:clip_type">1</property>
  <property name="kdenlive:file_size">109497</property>
  <property name="kdenlive:file_hash">d1113339d2634940ffd4e7b6d1304a13</property>
  <property name="kdenlive:audio_max0">114</property>
  <property name="kdenlive:monitorPosition">0</property>
  <property name="meta.media.nb_streams">1</property>
  <property name="meta.media.0.stream.type">audio</property>
  <property name="meta.media.0.codec.sample_fmt">fltp</property>
  <property name="meta.media.0.codec.sample_rate">48000</property>
  <property name="meta.media.0.codec.channels">2</property>
  <property name="meta.media.0.codec.layout">stereo</property>
  <property name="meta.media.0.codec.name">aac</property>
  <property name="meta.media.0.codec.long_name">AAC (Advanced Audio Coding)</property>
  <property name="meta.media.0.codec.bit_rate">147999</property>
  <property name="meta.attr.0.stream.creation_time.markup">2024-08-01T04:44:10.000000Z</property>
  <property name="meta.attr.0.stream.language.markup">eng</property>
  <property name="meta.attr.0.stream.handler_name.markup">SoundHandle</property>
  <property name="meta.attr.0.stream.vendor_id.markup">[0][0][0][0]</property>
  <property name="meta.attr.major_brand.markup">mp42</property>
  <property name="meta.attr.minor_version.markup">0</property>
  <property name="meta.attr.compatible_brands.markup">isommp42</property>
  <property name="meta.attr.creation_time.markup">2024-08-01T04:44:10.000000Z</property>
  <property name="meta.attr.com.android.version.markup">12</property>
  <property name="xml">was here</property>
  <property name="mute_on_pause">0</property>
  <property name="set.test_audio">0</property>
  <property name="set.test_image">1</property>
 </chain>
 <chain id="chain56" out="00:00:03.320">
  <property name="length">84</property>
  <property name="eof">pause</property>
  <property name="resource">creating.m4a</property>
  <property name="mlt_service">avformat-novalidate</property>
  <property name="seekable">1</property>
  <property name="audio_index">0</property>
  <property name="video_index">-1</property>
  <property name="astream">0</property>
  <property name="kdenlive:folderid">-1</property>
  <property name="kdenlive:id">39</property>
  <property name="kdenlive:clip_type">1</property>
  <property name="kdenlive:file_size">65661</property>
  <property name="kdenlive:file_hash">37071169cdabb039bbf5529af9756f37</property>
  <property name="kdenlive:audio_max0">127</property>
  <property name="meta.media.nb_streams">1</property>
  <property name="meta.media.0.stream.type">audio</property>
  <property name="meta.media.0.codec.sample_fmt">fltp</property>
  <property name="meta.media.0.codec.sample_rate">48000</property>
  <property name="meta.media.0.codec.channels">2</property>
  <property name="meta.media.0.codec.layout">stereo</property>
  <property name="meta.media.0.codec.name">aac</property>
  <property name="meta.media.0.codec.long_name">AAC (Advanced Audio Coding)</property>
  <property name="meta.media.0.codec.bit_rate">147999</property>
  <property name="meta.attr.0.stream.creation_time.markup">2024-08-01T04:45:30.000000Z</property>
  <property name="meta.attr.0.stream.language.markup">eng</property>
  <property name="meta.attr.0.stream.handler_name.markup">SoundHandle</property>
  <property name="meta.attr.0.stream.vendor_id.markup">[0][0][0][0]</property>
  <property name="meta.attr.major_brand.markup">mp42</property>
  <property name="meta.attr.minor_version.markup">0</property>
  <property name="meta.attr.compatible_brands.markup">isommp42</property>
  <property name="meta.attr.creation_time.markup">2024-08-01T04:45:30.000000Z</property>
  <property name="meta.attr.com.android.version.markup">12</property>
  <property name="xml">was here</property>
  <property name="mute_on_pause">0</property>
  <property name="set.test_audio">0</property>
  <property name="set.test_image">1</property>
 </chain>
 <chain id="chain57" out="00:00:04.760">
  <property name="length">120</property>
  <property name="eof">pause</property>
  <property name="resource">thatexcen.m4a</property>
  <property name="mlt_service">avformat-novalidate</property>
  <property name="seekable">1</property>
  <property name="audio_index">0</property>
  <property name="video_index">-1</property>
  <property name="astream">0</property>
  <property name="kdenlive:folderid">-1</property>
  <property name="kdenlive:id">45</property>
  <property name="kdenlive:clip_type">1</property>
  <property name="kdenlive:file_size">92121</property>
  <property name="kdenlive:file_hash">421ca079cabdad43cefc8431db078ccd</property>
  <property name="kdenlive:audio_max0">119</property>
  <property name="meta.media.nb_streams">1</property>
  <property name="meta.media.0.stream.type">audio</property>
  <property name="meta.media.0.codec.sample_fmt">fltp</property>
  <property name="meta.media.0.codec.sample_rate">48000</property>
  <property name="meta.media.0.codec.channels">2</property>
  <property name="meta.media.0.codec.layout">stereo</property>
  <property name="meta.media.0.codec.name">aac</property>
  <property name="meta.media.0.codec.long_name">AAC (Advanced Audio Coding)</property>
  <property name="meta.media.0.codec.bit_rate">148001</property>
  <property name="meta.attr.0.stream.creation_time.markup">2024-08-01T04:47:32.000000Z</property>
  <property name="meta.attr.0.stream.language.markup">eng</property>
  <property name="meta.attr.0.stream.handler_name.markup">SoundHandle</property>
  <property name="meta.attr.0.stream.vendor_id.markup">[0][0][0][0]</property>
  <property name="meta.attr.major_brand.markup">mp42</property>
  <property name="meta.attr.minor_version.markup">0</property>
  <property name="meta.attr.compatible_brands.markup">isommp42</property>
  <property name="meta.attr.creation_time.markup">2024-08-01T04:47:32.000000Z</property>
  <property name="meta.attr.com.android.version.markup">12</property>
  <property name="xml">was here</property>
  <property name="mute_on_pause">0</property>
  <property name="set.test_audio">0</property>
  <property name="set.test_image">1</property>
 </chain>
 <chain id="chain58" out="00:00:04.160">
  <property name="length">105</property>
  <property name="eof">pause</property>
  <property name="resource">thingshappen.m4a</property>
  <property name="mlt_service">avformat-novalidate</property>
  <property name="seekable">1</property>
  <property name="audio_index">0</property>
  <property name="video_index">-1</property>
  <property name="astream">0</property>
  <property name="kdenlive:folderid">-1</property>
  <property name="kdenlive:id">50</property>
  <property name="kdenlive:clip_type">1</property>
  <property name="kdenlive:file_size">80666</property>
  <property name="kdenlive:file_hash">7cc8500445fb8b910f0f69c69a9ffcf6</property>
  <property name="kdenlive:audio_max0">117</property>
  <property name="meta.media.nb_streams">1</property>
  <property name="meta.media.0.stream.type">audio</property>
  <property name="meta.media.0.codec.sample_fmt">fltp</property>
  <property name="meta.media.0.codec.sample_rate">48000</property>
  <property name="meta.media.0.codec.channels">2</property>
  <property name="meta.media.0.codec.layout">stereo</property>
  <property name="meta.media.0.codec.name">aac</property>
  <property name="meta.media.0.codec.long_name">AAC (Advanced Audio Coding)</property>
  <property name="meta.media.0.codec.bit_rate">147998</property>
  <property name="meta.attr.0.stream.creation_time.markup">2024-08-01T04:47:51.000000Z</property>
  <property name="meta.attr.0.stream.language.markup">eng</property>
  <property name="meta.attr.0.stream.handler_name.markup">SoundHandle</property>
  <property name="meta.attr.0.stream.vendor_id.markup">[0][0][0][0]</property>
  <property name="meta.attr.major_brand.markup">mp42</property>
  <property name="meta.attr.minor_version.markup">0</property>
  <property name="meta.attr.compatible_brands.markup">isommp42</property>
  <property name="meta.attr.creation_time.markup">2024-08-01T04:47:51.000000Z</property>
  <property name="meta.attr.com.android.version.markup">12</property>
  <property name="xml">was here</property>
  <property name="mute_on_pause">0</property>
  <property name="set.test_audio">0</property>
  <property name="set.test_image">1</property>
 </chain>
 <chain id="chain59" out="00:00:03.800">
  <property name="length">96</property>
  <property name="eof">pause</property>
  <property name="resource">mowimageian.m4a</property>
  <property name="mlt_service">avformat-novalidate</property>
  <property name="seekable">1</property>
  <property name="audio_index">0</property>
  <property name="video_index">-1</property>
  <property name="astream">0</property>
  <property name="kdenlive:folderid">-1</property>
  <property name="kdenlive:id">42</property>
  <property name="kdenlive:clip_type">1</property>
  <property name="kdenlive:file_size">74349</property>
  <property name="kdenlive:file_hash">a147c1079888f13e3d1e99476e8c3823</property>
  <property name="kdenlive:audio_max0">129</property>
  <property name="kdenlive:monitorPosition">0</property>
  <property name="meta.media.nb_streams">1</property>
  <property name="meta.media.0.stream.type">audio</property>
  <property name="meta.media.0.codec.sample_fmt">fltp</property>
  <property name="meta.media.0.codec.sample_rate">48000</property>
  <property name="meta.media.0.codec.channels">2</property>
  <property name="meta.media.0.codec.layout">stereo</property>
  <property name="meta.media.0.codec.name">aac</property>
  <property name="meta.media.0.codec.long_name">AAC (Advanced Audio Coding)</property>
  <property name="meta.media.0.codec.bit_rate">148002</property>
  <property name="meta.attr.0.stream.creation_time.markup">2024-08-01T04:48:39.000000Z</property>
  <property name="meta.attr.0.stream.language.markup">eng</property>
  <property name="meta.attr.0.stream.handler_name.markup">SoundHandle</property>
  <property name="meta.attr.0.stream.vendor_id.markup">[0][0][0][0]</property>
  <property name="meta.attr.major_brand.markup">mp42</property>
  <property name="meta.attr.minor_version.markup">0</property>
  <property name="meta.attr.compatible_brands.markup">isommp42</property>
  <property name="meta.attr.creation_time.markup">2024-08-01T04:48:39.000000Z</property>
  <property name="meta.attr.com.android.version.markup">12</property>
  <property name="xml">was here</property>
  <property name="mute_on_pause">0</property>
  <property name="set.test_audio">0</property>
  <property name="set.test_image">1</property>
 </chain>
 <chain id="chain60" out="00:00:06.680">
  <property name="length">168</property>
  <property name="eof">pause</property>
  <property name="resource">asupersmart.m4a</property>
  <property name="mlt_service">avformat-novalidate</property>
  <property name="seekable">1</property>
  <property name="audio_index">0</property>
  <property name="video_index">-1</property>
  <property name="astream">0</property>
  <property name="kdenlive:folderid">-1</property>
  <property name="kdenlive:id">38</property>
  <property name="kdenlive:clip_type">1</property>
  <property name="kdenlive:file_size">127665</property>
  <property name="kdenlive:file_hash">8bc1d622cffa6a76b3966b597e93c02a</property>
  <property name="kdenlive:audio_max0">114</property>
  <property name="kdenlive:monitorPosition">0</property>
  <property name="meta.media.nb_streams">1</property>
  <property name="meta.media.0.stream.type">audio</property>
  <property name="meta.media.0.codec.sample_fmt">fltp</property>
  <property name="meta.media.0.codec.sample_rate">48000</property>
  <property name="meta.media.0.codec.channels">2</property>
  <property name="meta.media.0.codec.layout">stereo</property>
  <property name="meta.media.0.codec.name">aac</property>
  <property name="meta.media.0.codec.long_name">AAC (Advanced Audio Coding)</property>
  <property name="meta.media.0.codec.bit_rate">148001</property>
  <property name="meta.attr.0.stream.creation_time.markup">2024-08-01T04:50:13.000000Z</property>
  <property name="meta.attr.0.stream.language.markup">eng</property>
  <property name="meta.attr.0.stream.handler_name.markup">SoundHandle</property>
  <property name="meta.attr.0.stream.vendor_id.markup">[0][0][0][0]</property>
  <property name="meta.attr.major_brand.markup">mp42</property>
  <property name="meta.attr.minor_version.markup">0</property>
  <property name="meta.attr.compatible_brands.markup">isommp42</property>
  <property name="meta.attr.creation_time.markup">2024-08-01T04:50:13.000000Z</property>
  <property name="meta.attr.com.android.version.markup">12</property>
  <property name="xml">was here</property>
  <property name="mute_on_pause">0</property>
  <property name="set.test_audio">0</property>
  <property name="set.test_image">1</property>
 </chain>
 <chain id="chain83" out="00:00:03.080">
  <property name="length">78</property>
  <property name="eof">pause</property>
  <property name="resource">andnoted.m4a</property>
  <property name="mlt_service">avformat-novalidate</property>
  <property name="seekable">1</property>
  <property name="audio_index">0</property>
  <property name="video_index">-1</property>
  <property name="astream">0</property>
  <property name="kdenlive:folderid">-1</property>
  <property name="kdenlive:id">34</property>
  <property name="kdenlive:clip_type">1</property>
  <property name="kdenlive:file_size">60923</property>
  <property name="kdenlive:file_hash">fcf02e4ca74ccca8b24714816ad20ff9</property>
  <property name="kdenlive:audio_max0">110</property>
  <property name="meta.media.nb_streams">1</property>
  <property name="meta.media.0.stream.type">audio</property>
  <property name="meta.media.0.codec.sample_fmt">fltp</property>
  <property name="meta.media.0.codec.sample_rate">48000</property>
  <property name="meta.media.0.codec.channels">2</property>
  <property name="meta.media.0.codec.layout">stereo</property>
  <property name="meta.media.0.codec.name">aac</property>
  <property name="meta.media.0.codec.long_name">AAC (Advanced Audio Coding)</property>
  <property name="meta.media.0.codec.bit_rate">147999</property>
  <property name="meta.attr.0.stream.creation_time.markup">2024-08-01T04:51:06.000000Z</property>
  <property name="meta.attr.0.stream.language.markup">eng</property>
  <property name="meta.attr.0.stream.handler_name.markup">SoundHandle</property>
  <property name="meta.attr.0.stream.vendor_id.markup">[0][0][0][0]</property>
  <property name="meta.attr.major_brand.markup">mp42</property>
  <property name="meta.attr.minor_version.markup">0</property>
  <property name="meta.attr.compatible_brands.markup">isommp42</property>
  <property name="meta.attr.creation_time.markup">2024-08-01T04:51:06.000000Z</property>
  <property name="meta.attr.com.android.version.markup">12</property>
  <property name="xml">was here</property>
  <property name="mute_on_pause">0</property>
  <property name="set.test_audio">0</property>
  <property name="set.test_image">1</property>
 </chain>
 <chain id="chain84" out="00:00:04.600">
  <property name="length">116</property>
  <property name="eof">pause</property>
  <property name="resource">justbyapply.m4a</property>
  <property name="mlt_service">avformat-novalidate</property>
  <property name="seekable">1</property>
  <property name="audio_index">0</property>
  <property name="video_index">-1</property>
  <property name="astream">0</property>
  <property name="kdenlive:folderid">-1</property>
  <property name="kdenlive:id">55</property>
  <property name="kdenlive:clip_type">1</property>
  <property name="kdenlive:file_size">88961</property>
  <property name="kdenlive:file_hash">3ac1a707a7b6697e9025fd04b1fe59ee</property>
  <property name="kdenlive:audio_max0">131</property>
  <property name="meta.media.nb_streams">1</property>
  <property name="meta.media.0.stream.type">audio</property>
  <property name="meta.media.0.codec.sample_fmt">fltp</property>
  <property name="meta.media.0.codec.sample_rate">48000</property>
  <property name="meta.media.0.codec.channels">2</property>
  <property name="meta.media.0.codec.layout">stereo</property>
  <property name="meta.media.0.codec.name">aac</property>
  <property name="meta.media.0.codec.long_name">AAC (Advanced Audio Coding)</property>
  <property name="meta.media.0.codec.bit_rate">148000</property>
  <property name="meta.attr.0.stream.creation_time.markup">2024-08-01T05:45:41.000000Z</property>
  <property name="meta.attr.0.stream.language.markup">eng</property>
  <property name="meta.attr.0.stream.handler_name.markup">SoundHandle</property>
  <property name="meta.attr.0.stream.vendor_id.markup">[0][0][0][0]</property>
  <property name="meta.attr.major_brand.markup">mp42</property>
  <property name="meta.attr.minor_version.markup">0</property>
  <property name="meta.attr.compatible_brands.markup">isommp42</property>
  <property name="meta.attr.creation_time.markup">2024-08-01T05:45:41.000000Z</property>
  <property name="meta.attr.com.android.version.markup">12</property>
  <property name="xml">was here</property>
  <property name="mute_on_pause">0</property>
  <property name="set.test_audio">0</property>
  <property name="set.test_image">1</property>
 </chain>
 <chain id="chain85" out="00:00:07.640">
  <property name="length">192</property>
  <property name="eof">pause</property>
  <property name="resource">itshouldbe.m4a</property>
  <property name="mlt_service">avformat-novalidate</property>
  <property name="seekable">1</property>
  <property name="audio_index">0</property>
  <property name="video_index">-1</property>
  <property name="astream">0</property>
  <property name="kdenlive:folderid">-1</property>
  <property name="kdenlive:id">56</property>
  <property name="kdenlive:clip_type">1</property>
  <property name="kdenlive:file_size">145434</property>
  <property name="kdenlive:file_hash">61484661e6c7161236458471f15432fd</property>
  <property name="kdenlive:audio_max0">119</property>
  <property name="meta.media.nb_streams">1</property>
  <property name="meta.media.0.stream.type">audio</property>
  <property name="meta.media.0.codec.sample_fmt">fltp</property>
  <property name="meta.media.0.codec.sample_rate">48000</property>
  <property name="meta.media.0.codec.channels">2</property>
  <property name="meta.media.0.codec.layout">stereo</property>
  <property name="meta.media.0.codec.name">aac</property>
  <property name="meta.media.0.codec.long_name">AAC (Advanced Audio Coding)</property>
  <property name="meta.media.0.codec.bit_rate">148000</property>
  <property name="meta.attr.0.stream.creation_time.markup">2024-08-01T05:53:31.000000Z</property>
  <property name="meta.attr.0.stream.language.markup">eng</property>
  <property name="meta.attr.0.stream.handler_name.markup">SoundHandle</property>
  <property name="meta.attr.0.stream.vendor_id.markup">[0][0][0][0]</property>
  <property name="meta.attr.major_brand.markup">mp42</property>
  <property name="meta.attr.minor_version.markup">0</property>
  <property name="meta.attr.compatible_brands.markup">isommp42</property>
  <property name="meta.attr.creation_time.markup">2024-08-01T05:53:31.000000Z</property>
  <property name="meta.attr.com.android.version.markup">12</property>
  <property name="xml">was here</property>
  <property name="mute_on_pause">0</property>
  <property name="set.test_audio">0</property>
  <property name="set.test_image">1</property>
 </chain>
 <chain id="chain86" out="00:00:03.240">
  <property name="length">82</property>
  <property name="eof">pause</property>
  <property name="resource">butifyouare.m4a</property>
  <property name="mlt_service">avformat-novalidate</property>
  <property name="seekable">1</property>
  <property name="audio_index">0</property>
  <property name="video_index">-1</property>
  <property name="astream">0</property>
  <property name="kdenlive:folderid">-1</property>
  <property name="kdenlive:id">57</property>
  <property name="kdenlive:clip_type">1</property>
  <property name="kdenlive:file_size">63689</property>
  <property name="kdenlive:file_hash">140272e35761ca0f9ccc85da8d1e6e6b</property>
  <property name="kdenlive:audio_max0">121</property>
  <property name="meta.media.nb_streams">1</property>
  <property name="meta.media.0.stream.type">audio</property>
  <property name="meta.media.0.codec.sample_fmt">fltp</property>
  <property name="meta.media.0.codec.sample_rate">48000</property>
  <property name="meta.media.0.codec.channels">2</property>
  <property name="meta.media.0.codec.layout">stereo</property>
  <property name="meta.media.0.codec.name">aac</property>
  <property name="meta.media.0.codec.long_name">AAC (Advanced Audio Coding)</property>
  <property name="meta.media.0.codec.bit_rate">148002</property>
  <property name="meta.attr.0.stream.creation_time.markup">2024-08-01T05:54:03.000000Z</property>
  <property name="meta.attr.0.stream.language.markup">eng</property>
  <property name="meta.attr.0.stream.handler_name.markup">SoundHandle</property>
  <property name="meta.attr.0.stream.vendor_id.markup">[0][0][0][0]</property>
  <property name="meta.attr.major_brand.markup">mp42</property>
  <property name="meta.attr.minor_version.markup">0</property>
  <property name="meta.attr.compatible_brands.markup">isommp42</property>
  <property name="meta.attr.creation_time.markup">2024-08-01T05:54:03.000000Z</property>
  <property name="meta.attr.com.android.version.markup">12</property>
  <property name="xml">was here</property>
  <property name="mute_on_pause">0</property>
  <property name="set.test_audio">0</property>
  <property name="set.test_image">1</property>
 </chain>
 <chain id="chain87" out="00:00:06.440">
  <property name="length">162</property>
  <property name="eof">pause</property>
  <property name="resource">anditstakenikni.m4a</property>
  <property name="mlt_service">avformat-novalidate</property>
  <property name="seekable">1</property>
  <property name="audio_index">0</property>
  <property name="video_index">-1</property>
  <property name="astream">0</property>
  <property name="kdenlive:folderid">-1</property>
  <property name="kdenlive:id">58</property>
  <property name="kdenlive:clip_type">1</property>
  <property name="kdenlive:file_size">122925</property>
  <property name="kdenlive:file_hash">2b4155479b8c4f2035e83825c5669c98</property>
  <property name="kdenlive:audio_max0">133</property>
  <property name="meta.media.nb_streams">1</property>
  <property name="meta.media.0.stream.type">audio</property>
  <property name="meta.media.0.codec.sample_fmt">fltp</property>
  <property name="meta.media.0.codec.sample_rate">48000</property>
  <property name="meta.media.0.codec.channels">2</property>
  <property name="meta.media.0.codec.layout">stereo</property>
  <property name="meta.media.0.codec.name">aac</property>
  <property name="meta.media.0.codec.long_name">AAC (Advanced Audio Coding)</property>
  <property name="meta.media.0.codec.bit_rate">148001</property>
  <property name="meta.attr.0.stream.creation_time.markup">2024-08-01T05:59:01.000000Z</property>
  <property name="meta.attr.0.stream.language.markup">eng</property>
  <property name="meta.attr.0.stream.handler_name.markup">SoundHandle</property>
  <property name="meta.attr.0.stream.vendor_id.markup">[0][0][0][0]</property>
  <property name="meta.attr.major_brand.markup">mp42</property>
  <property name="meta.attr.minor_version.markup">0</property>
  <property name="meta.attr.compatible_brands.markup">isommp42</property>
  <property name="meta.attr.creation_time.markup">2024-08-01T05:59:01.000000Z</property>
  <property name="meta.attr.com.android.version.markup">12</property>
  <property name="xml">was here</property>
  <property name="mute_on_pause">0</property>
  <property name="set.test_audio">0</property>
  <property name="set.test_image">1</property>
 </chain>
 <chain id="chain88" out="00:00:02.880">
  <property name="length">73</property>
  <property name="eof">pause</property>
  <property name="resource">thenyounever.m4a</property>
  <property name="mlt_service">avformat-novalidate</property>
  <property name="seekable">1</property>
  <property name="audio_index">0</property>
  <property name="video_index">-1</property>
  <property name="astream">0</property>
  <property name="kdenlive:folderid">-1</property>
  <property name="kdenlive:id">60</property>
  <property name="kdenlive:clip_type">1</property>
  <property name="kdenlive:file_size">56972</property>
  <property name="kdenlive:file_hash">83a29ac92e00b5ac386012c80be83e6d</property>
  <property name="kdenlive:audio_max0">120</property>
  <property name="meta.media.nb_streams">1</property>
  <property name="meta.media.0.stream.type">audio</property>
  <property name="meta.media.0.codec.sample_fmt">fltp</property>
  <property name="meta.media.0.codec.sample_rate">48000</property>
  <property name="meta.media.0.codec.channels">2</property>
  <property name="meta.media.0.codec.layout">stereo</property>
  <property name="meta.media.0.codec.name">aac</property>
  <property name="meta.media.0.codec.long_name">AAC (Advanced Audio Coding)</property>
  <property name="meta.media.0.codec.bit_rate">147998</property>
  <property name="meta.attr.0.stream.creation_time.markup">2024-08-01T05:59:45.000000Z</property>
  <property name="meta.attr.0.stream.language.markup">eng</property>
  <property name="meta.attr.0.stream.handler_name.markup">SoundHandle</property>
  <property name="meta.attr.0.stream.vendor_id.markup">[0][0][0][0]</property>
  <property name="meta.attr.major_brand.markup">mp42</property>
  <property name="meta.attr.minor_version.markup">0</property>
  <property name="meta.attr.compatible_brands.markup">isommp42</property>
  <property name="meta.attr.creation_time.markup">2024-08-01T05:59:45.000000Z</property>
  <property name="meta.attr.com.android.version.markup">12</property>
  <property name="xml">was here</property>
  <property name="mute_on_pause">0</property>
  <property name="set.test_audio">0</property>
  <property name="set.test_image">1</property>
 </chain>
 <chain id="chain111" out="00:00:06.800">
  <property name="length">171</property>
  <property name="eof">pause</property>
  <property name="resource">yourpast.m4a</property>
  <property name="mlt_service">avformat-novalidate</property>
  <property name="seekable">1</property>
  <property name="audio_index">0</property>
  <property name="video_index">-1</property>
  <property name="astream">0</property>
  <property name="kdenlive:folderid">-1</property>
  <property name="kdenlive:id">59</property>
  <property name="kdenlive:clip_type">1</property>
  <property name="kdenlive:file_size">130033</property>
  <property name="kdenlive:file_hash">8c05e05bdc20d305e6e887606c59da0a</property>
  <property name="kdenlive:audio_max0">140</property>
  <property name="meta.media.nb_streams">1</property>
  <property name="meta.media.0.stream.type">audio</property>
  <property name="meta.media.0.codec.sample_fmt">fltp</property>
  <property name="meta.media.0.codec.sample_rate">48000</property>
  <property name="meta.media.0.codec.channels">2</property>
  <property name="meta.media.0.codec.layout">stereo</property>
  <property name="meta.media.0.codec.name">aac</property>
  <property name="meta.media.0.codec.long_name">AAC (Advanced Audio Coding)</property>
  <property name="meta.media.0.codec.bit_rate">148001</property>
  <property name="meta.attr.0.stream.creation_time.markup">2024-08-01T06:11:58.000000Z</property>
  <property name="meta.attr.0.stream.language.markup">eng</property>
  <property name="meta.attr.0.stream.handler_name.markup">SoundHandle</property>
  <property name="meta.attr.0.stream.vendor_id.markup">[0][0][0][0]</property>
  <property name="meta.attr.major_brand.markup">mp42</property>
  <property name="meta.attr.minor_version.markup">0</property>
  <property name="meta.attr.compatible_brands.markup">isommp42</property>
  <property name="meta.attr.creation_time.markup">2024-08-01T06:11:58.000000Z</property>
  <property name="meta.attr.com.android.version.markup">12</property>
  <property name="xml">was here</property>
  <property name="mute_on_pause">0</property>
  <property name="set.test_audio">0</property>
  <property name="set.test_image">1</property>
 </chain>
 <chain id="chain112" out="00:00:04.440">
  <property name="length">112</property>
  <property name="eof">pause</property>
  <property name="resource">thatwouldmean.m4a</property>
  <property name="mlt_service">avformat-novalidate</property>
  <property name="seekable">1</property>
  <property name="audio_index">0</property>
  <property name="video_index">-1</property>
  <property name="astream">0</property>
  <property name="kdenlive:folderid">-1</property>
  <property name="kdenlive:id">61</property>
  <property name="kdenlive:clip_type">1</property>
  <property name="kdenlive:file_size">86196</property>
  <property name="kdenlive:file_hash">0d79a59f51ecb0447dcddb1751f3a0e9</property>
  <property name="kdenlive:audio_max0">132</property>
  <property name="meta.media.nb_streams">1</property>
  <property name="meta.media.0.stream.type">audio</property>
  <property name="meta.media.0.codec.sample_fmt">fltp</property>
  <property name="meta.media.0.codec.sample_rate">48000</property>
  <property name="meta.media.0.codec.channels">2</property>
  <property name="meta.media.0.codec.layout">stereo</property>
  <property name="meta.media.0.codec.name">aac</property>
  <property name="meta.media.0.codec.long_name">AAC (Advanced Audio Coding)</property>
  <property name="meta.media.0.codec.bit_rate">148000</property>
  <property name="meta.attr.0.stream.creation_time.markup">2024-08-01T06:12:57.000000Z</property>
  <property name="meta.attr.0.stream.language.markup">eng</property>
  <property name="meta.attr.0.stream.handler_name.markup">SoundHandle</property>
  <property name="meta.attr.0.stream.vendor_id.markup">[0][0][0][0]</property>
  <property name="meta.attr.major_brand.markup">mp42</property>
  <property name="meta.attr.minor_version.markup">0</property>
  <property name="meta.attr.compatible_brands.markup">isommp42</property>
  <property name="meta.attr.creation_time.markup">2024-08-01T06:12:57.000000Z</property>
  <property name="meta.attr.com.android.version.markup">12</property>
  <property name="xml">was here</property>
  <property name="mute_on_pause">0</property>
  <property name="set.test_audio">0</property>
  <property name="set.test_image">1</property>
 </chain>
 <chain id="chain113" out="00:00:03.920">
  <property name="length">99</property>
  <property name="eof">pause</property>
  <property name="resource">andyouaernot.m4a</property>
  <property name="mlt_service">avformat-novalidate</property>
  <property name="seekable">1</property>
  <property name="audio_index">0</property>
  <property name="video_index">-1</property>
  <property name="astream">0</property>
  <property name="kdenlive:folderid">-1</property>
  <property name="kdenlive:id">62</property>
  <property name="kdenlive:clip_type">1</property>
  <property name="kdenlive:file_size">76719</property>
  <property name="kdenlive:file_hash">06acbba8195686b98d76464fffa167e7</property>
  <property name="kdenlive:audio_max0">124</property>
  <property name="meta.media.nb_streams">1</property>
  <property name="meta.media.0.stream.type">audio</property>
  <property name="meta.media.0.codec.sample_fmt">fltp</property>
  <property name="meta.media.0.codec.sample_rate">48000</property>
  <property name="meta.media.0.codec.channels">2</property>
  <property name="meta.media.0.codec.layout">stereo</property>
  <property name="meta.media.0.codec.name">aac</property>
  <property name="meta.media.0.codec.long_name">AAC (Advanced Audio Coding)</property>
  <property name="meta.media.0.codec.bit_rate">148002</property>
  <property name="meta.attr.0.stream.creation_time.markup">2024-08-01T06:13:14.000000Z</property>
  <property name="meta.attr.0.stream.language.markup">eng</property>
  <property name="meta.attr.0.stream.handler_name.markup">SoundHandle</property>
  <property name="meta.attr.0.stream.vendor_id.markup">[0][0][0][0]</property>
  <property name="meta.attr.major_brand.markup">mp42</property>
  <property name="meta.attr.minor_version.markup">0</property>
  <property name="meta.attr.compatible_brands.markup">isommp42</property>
  <property name="meta.attr.creation_time.markup">2024-08-01T06:13:14.000000Z</property>
  <property name="meta.attr.com.android.version.markup">12</property>
  <property name="xml">was here</property>
  <property name="mute_on_pause">0</property>
  <property name="set.test_audio">0</property>
  <property name="set.test_image">1</property>
 </chain>
 <chain id="chain114" out="00:00:04.000">
  <property name="length">101</property>
  <property name="eof">pause</property>
  <property name="resource">youmayfeellike.m4a</property>
  <property name="mlt_service">avformat-novalidate</property>
  <property name="seekable">1</property>
  <property name="audio_index">0</property>
  <property name="video_index">-1</property>
  <property name="astream">0</property>
  <property name="kdenlive:folderid">-1</property>
  <property name="kdenlive:id">63</property>
  <property name="kdenlive:clip_type">1</property>
  <property name="kdenlive:file_size">77904</property>
  <property name="kdenlive:file_hash">8500d0aa9068b34a23b729bd522907c9</property>
  <property name="kdenlive:audio_max0">120</property>
  <property name="meta.media.nb_streams">1</property>
  <property name="meta.media.0.stream.type">audio</property>
  <property name="meta.media.0.codec.sample_fmt">fltp</property>
  <property name="meta.media.0.codec.sample_rate">48000</property>
  <property name="meta.media.0.codec.channels">2</property>
  <property name="meta.media.0.codec.layout">stereo</property>
  <property name="meta.media.0.codec.name">aac</property>
  <property name="meta.media.0.codec.long_name">AAC (Advanced Audio Coding)</property>
  <property name="meta.media.0.codec.bit_rate">148000</property>
  <property name="meta.attr.0.stream.creation_time.markup">2024-08-01T06:13:39.000000Z</property>
  <property name="meta.attr.0.stream.language.markup">eng</property>
  <property name="meta.attr.0.stream.handler_name.markup">SoundHandle</property>
  <property name="meta.attr.0.stream.vendor_id.markup">[0][0][0][0]</property>
  <property name="meta.attr.major_brand.markup">mp42</property>
  <property name="meta.attr.minor_version.markup">0</property>
  <property name="meta.attr.compatible_brands.markup">isommp42</property>
  <property name="meta.attr.creation_time.markup">2024-08-01T06:13:39.000000Z</property>
  <property name="meta.attr.com.android.version.markup">12</property>
  <property name="xml">was here</property>
  <property name="mute_on_pause">0</property>
  <property name="set.test_audio">0</property>
  <property name="set.test_image">1</property>
 </chain>
 <chain id="chain115" out="00:00:03.920">
  <property name="length">99</property>
  <property name="eof">pause</property>
  <property name="resource">butyouareacy.m4a</property>
  <property name="mlt_service">avformat-novalidate</property>
  <property name="seekable">1</property>
  <property name="audio_index">0</property>
  <property name="video_index">-1</property>
  <property name="astream">0</property>
  <property name="kdenlive:folderid">-1</property>
  <property name="kdenlive:id">64</property>
  <property name="kdenlive:clip_type">1</property>
  <property name="kdenlive:file_size">76721</property>
  <property name="kdenlive:file_hash">d576dcfa39446f170b1c9659a78b424d</property>
  <property name="kdenlive:audio_max0">107</property>
  <property name="meta.media.nb_streams">1</property>
  <property name="meta.media.0.stream.type">audio</property>
  <property name="meta.media.0.codec.sample_fmt">fltp</property>
  <property name="meta.media.0.codec.sample_rate">48000</property>
  <property name="meta.media.0.codec.channels">2</property>
  <property name="meta.media.0.codec.layout">stereo</property>
  <property name="meta.media.0.codec.name">aac</property>
  <property name="meta.media.0.codec.long_name">AAC (Advanced Audio Coding)</property>
  <property name="meta.media.0.codec.bit_rate">148002</property>
  <property name="meta.attr.0.stream.creation_time.markup">2024-08-01T06:14:02.000000Z</property>
  <property name="meta.attr.0.stream.language.markup">eng</property>
  <property name="meta.attr.0.stream.handler_name.markup">SoundHandle</property>
  <property name="meta.attr.0.stream.vendor_id.markup">[0][0][0][0]</property>
  <property name="meta.attr.major_brand.markup">mp42</property>
  <property name="meta.attr.minor_version.markup">0</property>
  <property name="meta.attr.compatible_brands.markup">isommp42</property>
  <property name="meta.attr.creation_time.markup">2024-08-01T06:14:02.000000Z</property>
  <property name="meta.attr.com.android.version.markup">12</property>
  <property name="xml">was here</property>
  <property name="mute_on_pause">0</property>
  <property name="set.test_audio">0</property>
  <property name="set.test_image">1</property>
 </chain>
 <chain id="chain116" out="00:00:07.880">
  <property name="length">198</property>
  <property name="eof">pause</property>
  <property name="resource">themosansofpatc.m4a</property>
  <property name="mlt_service">avformat-novalidate</property>
  <property name="seekable">1</property>
  <property name="audio_index">0</property>
  <property name="video_index">-1</property>
  <property name="astream">0</property>
  <property name="kdenlive:folderid">-1</property>
  <property name="kdenlive:id">66</property>
  <property name="kdenlive:clip_type">1</property>
  <property name="kdenlive:file_size">149777</property>
  <property name="kdenlive:file_hash">30417937562e0b66e2a6d893a0961d0f</property>
  <property name="kdenlive:audio_max0">113</property>
  <property name="meta.media.nb_streams">1</property>
  <property name="meta.media.0.stream.type">audio</property>
  <property name="meta.media.0.codec.sample_fmt">fltp</property>
  <property name="meta.media.0.codec.sample_rate">48000</property>
  <property name="meta.media.0.codec.channels">2</property>
  <property name="meta.media.0.codec.layout">stereo</property>
  <property name="meta.media.0.codec.name">aac</property>
  <property name="meta.media.0.codec.long_name">AAC (Advanced Audio Coding)</property>
  <property name="meta.media.0.codec.bit_rate">147999</property>
  <property name="meta.attr.0.stream.creation_time.markup">2024-08-01T06:15:07.000000Z</property>
  <property name="meta.attr.0.stream.language.markup">eng</property>
  <property name="meta.attr.0.stream.handler_name.markup">SoundHandle</property>
  <property name="meta.attr.0.stream.vendor_id.markup">[0][0][0][0]</property>
  <property name="meta.attr.major_brand.markup">mp42</property>
  <property name="meta.attr.minor_version.markup">0</property>
  <property name="meta.attr.compatible_brands.markup">isommp42</property>
  <property name="meta.attr.creation_time.markup">2024-08-01T06:15:07.000000Z</property>
  <property name="meta.attr.com.android.version.markup">12</property>
  <property name="xml">was here</property>
  <property name="mute_on_pause">0</property>
  <property name="set.test_audio">0</property>
  <property name="set.test_image">1</property>
 </chain>
 <chain id="chain117" out="00:00:04.320">
  <property name="length">109</property>
  <property name="eof">pause</property>
  <property name="resource">weredeside.m4a</property>
  <property name="mlt_service">avformat-novalidate</property>
  <property name="seekable">1</property>
  <property name="audio_index">0</property>
  <property name="video_index">-1</property>
  <property name="astream">0</property>
  <property name="kdenlive:folderid">-1</property>
  <property name="kdenlive:id">65</property>
  <property name="kdenlive:clip_type">1</property>
  <property name="kdenlive:file_size">84223</property>
  <property name="kdenlive:file_hash">402c37b2e94997c11540603129b2955a</property>
  <property name="kdenlive:audio_max0">118</property>
  <property name="meta.media.nb_streams">1</property>
  <property name="meta.media.0.stream.type">audio</property>
  <property name="meta.media.0.codec.sample_fmt">fltp</property>
  <property name="meta.media.0.codec.sample_rate">48000</property>
  <property name="meta.media.0.codec.channels">2</property>
  <property name="meta.media.0.codec.layout">stereo</property>
  <property name="meta.media.0.codec.name">aac</property>
  <property name="meta.media.0.codec.long_name">AAC (Advanced Audio Coding)</property>
  <property name="meta.media.0.codec.bit_rate">148000</property>
  <property name="meta.attr.0.stream.creation_time.markup">2024-08-01T06:15:42.000000Z</property>
  <property name="meta.attr.0.stream.language.markup">eng</property>
  <property name="meta.attr.0.stream.handler_name.markup">SoundHandle</property>
  <property name="meta.attr.0.stream.vendor_id.markup">[0][0][0][0]</property>
  <property name="meta.attr.major_brand.markup">mp42</property>
  <property name="meta.attr.minor_version.markup">0</property>
  <property name="meta.attr.compatible_brands.markup">isommp42</property>
  <property name="meta.attr.creation_time.markup">2024-08-01T06:15:42.000000Z</property>
  <property name="meta.attr.com.android.version.markup">12</property>
  <property name="xml">was here</property>
  <property name="mute_on_pause">0</property>
  <property name="set.test_audio">0</property>
  <property name="set.test_image">1</property>
 </chain>
 <chain id="chain118" out="00:00:03.480">
  <property name="length">88</property>
  <property name="eof">pause</property>
  <property name="resource">youarejustintheroom.m4a</property>
  <property name="mlt_service">avformat-novalidate</property>
  <property name="seekable">1</property>
  <property name="audio_index">0</property>
  <property name="video_index">-1</property>
  <property name="astream">0</property>
  <property name="kdenlive:folderid">-1</property>
  <property name="kdenlive:id">68</property>
  <property name="kdenlive:clip_type">1</property>
  <property name="kdenlive:file_size">68426</property>
  <property name="kdenlive:file_hash">ad1ff802bbefd5ad25fcfb1de5f1bf0d</property>
  <property name="kdenlive:audio_max0">116</property>
  <property name="meta.media.nb_streams">1</property>
  <property name="meta.media.0.stream.type">audio</property>
  <property name="meta.media.0.codec.sample_fmt">fltp</property>
  <property name="meta.media.0.codec.sample_rate">48000</property>
  <property name="meta.media.0.codec.channels">2</property>
  <property name="meta.media.0.codec.layout">stereo</property>
  <property name="meta.media.0.codec.name">aac</property>
  <property name="meta.media.0.codec.long_name">AAC (Advanced Audio Coding)</property>
  <property name="meta.media.0.codec.bit_rate">148000</property>
  <property name="meta.attr.0.stream.creation_time.markup">2024-08-01T06:16:55.000000Z</property>
  <property name="meta.attr.0.stream.language.markup">eng</property>
  <property name="meta.attr.0.stream.handler_name.markup">SoundHandle</property>
  <property name="meta.attr.0.stream.vendor_id.markup">[0][0][0][0]</property>
  <property name="meta.attr.major_brand.markup">mp42</property>
  <property name="meta.attr.minor_version.markup">0</property>
  <property name="meta.attr.compatible_brands.markup">isommp42</property>
  <property name="meta.attr.creation_time.markup">2024-08-01T06:16:55.000000Z</property>
  <property name="meta.attr.com.android.version.markup">12</property>
  <property name="xml">was here</property>
  <property name="mute_on_pause">0</property>
  <property name="set.test_audio">0</property>
  <property name="set.test_image">1</property>
 </chain>
 <chain id="chain119" out="00:00:05.560">
  <property name="length">140</property>
  <property name="eof">pause</property>
  <property name="resource">youareonly.m4a</property>
  <property name="mlt_service">avformat-novalidate</property>
  <property name="seekable">1</property>
  <property name="audio_index">0</property>
  <property name="video_index">-1</property>
  <property name="astream">0</property>
  <property name="kdenlive:folderid">-1</property>
  <property name="kdenlive:id">67</property>
  <property name="kdenlive:clip_type">1</property>
  <property name="kdenlive:file_size">107128</property>
  <property name="kdenlive:file_hash">7d7c98dc70ebc9ced3e11cc90821bd23</property>
  <property name="kdenlive:audio_max0">115</property>
  <property name="meta.media.nb_streams">1</property>
  <property name="meta.media.0.stream.type">audio</property>
  <property name="meta.media.0.codec.sample_fmt">fltp</property>
  <property name="meta.media.0.codec.sample_rate">48000</property>
  <property name="meta.media.0.codec.channels">2</property>
  <property name="meta.media.0.codec.layout">stereo</property>
  <property name="meta.media.0.codec.name">aac</property>
  <property name="meta.media.0.codec.long_name">AAC (Advanced Audio Coding)</property>
  <property name="meta.media.0.codec.bit_rate">148000</property>
  <property name="meta.attr.0.stream.creation_time.markup">2024-08-01T06:19:08.000000Z</property>
  <property name="meta.attr.0.stream.language.markup">eng</property>
  <property name="meta.attr.0.stream.handler_name.markup">SoundHandle</property>
  <property name="meta.attr.0.stream.vendor_id.markup">[0][0][0][0]</property>
  <property name="meta.attr.major_brand.markup">mp42</property>
  <property name="meta.attr.minor_version.markup">0</property>
  <property name="meta.attr.compatible_brands.markup">isommp42</property>
  <property name="meta.attr.creation_time.markup">2024-08-01T06:19:08.000000Z</property>
  <property name="meta.attr.com.android.version.markup">12</property>
  <property name="xml">was here</property>
  <property name="mute_on_pause">0</property>
  <property name="set.test_audio">0</property>
  <property name="set.test_image">1</property>
 </chain>
 <chain id="chain120" out="00:00:04.680">
  <property name="length">118</property>
  <property name="eof">pause</property>
  <property name="resource">butthiscantbeture.m4a</property>
  <property name="mlt_service">avformat-novalidate</property>
  <property name="seekable">1</property>
  <property name="audio_index">0</property>
  <property name="video_index">-1</property>
  <property name="astream">0</property>
  <property name="kdenlive:folderid">-1</property>
  <property name="kdenlive:id">69</property>
  <property name="kdenlive:clip_type">1</property>
  <property name="kdenlive:file_size">90539</property>
  <property name="kdenlive:file_hash">1e8795dcb480c71103852ea5668babc3</property>
  <property name="kdenlive:audio_max0">124</property>
  <property name="meta.media.nb_streams">1</property>
  <property name="meta.media.0.stream.type">audio</property>
  <property name="meta.media.0.codec.sample_fmt">fltp</property>
  <property name="meta.media.0.codec.sample_rate">48000</property>
  <property name="meta.media.0.codec.channels">2</property>
  <property name="meta.media.0.codec.layout">stereo</property>
  <property name="meta.media.0.codec.name">aac</property>
  <property name="meta.media.0.codec.long_name">AAC (Advanced Audio Coding)</property>
  <property name="meta.media.0.codec.bit_rate">147999</property>
  <property name="meta.attr.0.stream.creation_time.markup">2024-08-01T06:21:51.000000Z</property>
  <property name="meta.attr.0.stream.language.markup">eng</property>
  <property name="meta.attr.0.stream.handler_name.markup">SoundHandle</property>
  <property name="meta.attr.0.stream.vendor_id.markup">[0][0][0][0]</property>
  <property name="meta.attr.major_brand.markup">mp42</property>
  <property name="meta.attr.minor_version.markup">0</property>
  <property name="meta.attr.compatible_brands.markup">isommp42</property>
  <property name="meta.attr.creation_time.markup">2024-08-01T06:21:51.000000Z</property>
  <property name="meta.attr.com.android.version.markup">12</property>
  <property name="xml">was here</property>
  <property name="mute_on_pause">0</property>
  <property name="set.test_audio">0</property>
  <property name="set.test_image">1</property>
 </chain>
 <chain id="chain121" out="00:00:03.520">
  <property name="length">89</property>
  <property name="eof">pause</property>
  <property name="resource">whatareyou.m4a</property>
  <property name="mlt_service">avformat-novalidate</property>
  <property name="seekable">1</property>
  <property name="audio_index">0</property>
  <property name="video_index">-1</property>
  <property name="astream">0</property>
  <property name="kdenlive:folderid">-1</property>
  <property name="kdenlive:id">70</property>
  <property name="kdenlive:clip_type">1</property>
  <property name="kdenlive:file_size">68820</property>
  <property name="kdenlive:file_hash">d0ab8d1eb954fe386693e07ddcfa963a</property>
  <property name="kdenlive:audio_max0">128</property>
  <property name="meta.media.nb_streams">1</property>
  <property name="meta.media.0.stream.type">audio</property>
  <property name="meta.media.0.codec.sample_fmt">fltp</property>
  <property name="meta.media.0.codec.sample_rate">48000</property>
  <property name="meta.media.0.codec.channels">2</property>
  <property name="meta.media.0.codec.layout">stereo</property>
  <property name="meta.media.0.codec.name">aac</property>
  <property name="meta.media.0.codec.long_name">AAC (Advanced Audio Coding)</property>
  <property name="meta.media.0.codec.bit_rate">147998</property>
  <property name="meta.attr.0.stream.creation_time.markup">2024-08-01T06:24:40.000000Z</property>
  <property name="meta.attr.0.stream.language.markup">eng</property>
  <property name="meta.attr.0.stream.handler_name.markup">SoundHandle</property>
  <property name="meta.attr.0.stream.vendor_id.markup">[0][0][0][0]</property>
  <property name="meta.attr.major_brand.markup">mp42</property>
  <property name="meta.attr.minor_version.markup">0</property>
  <property name="meta.attr.compatible_brands.markup">isommp42</property>
  <property name="meta.attr.creation_time.markup">2024-08-01T06:24:40.000000Z</property>
  <property name="meta.attr.com.android.version.markup">12</property>
  <property name="xml">was here</property>
  <property name="mute_on_pause">0</property>
  <property name="set.test_audio">0</property>
  <property name="set.test_image">1</property>
 </chain>
 <chain id="chain122" out="00:00:02.840">
  <property name="length">72</property>
  <property name="eof">pause</property>
  <property name="resource">notdet.m4a</property>
  <property name="mlt_service">avformat-novalidate</property>
  <property name="seekable">1</property>
  <property name="audio_index">0</property>
  <property name="video_index">-1</property>
  <property name="astream">0</property>
  <property name="kdenlive:folderid">-1</property>
  <property name="kdenlive:id">71</property>
  <property name="kdenlive:clip_type">1</property>
  <property name="kdenlive:file_size">56578</property>
  <property name="kdenlive:file_hash">3652a11d283fa0757132628d266adbdd</property>
  <property name="kdenlive:audio_max0">120</property>
  <property name="meta.media.nb_streams">1</property>
  <property name="meta.media.0.stream.type">audio</property>
  <property name="meta.media.0.codec.sample_fmt">fltp</property>
  <property name="meta.media.0.codec.sample_rate">48000</property>
  <property name="meta.media.0.codec.channels">2</property>
  <property name="meta.media.0.codec.layout">stereo</property>
  <property name="meta.media.0.codec.name">aac</property>
  <property name="meta.media.0.codec.long_name">AAC (Advanced Audio Coding)</property>
  <property name="meta.media.0.codec.bit_rate">148000</property>
  <property name="meta.attr.0.stream.creation_time.markup">2024-08-01T06:24:50.000000Z</property>
  <property name="meta.attr.0.stream.language.markup">eng</property>
  <property name="meta.attr.0.stream.handler_name.markup">SoundHandle</property>
  <property name="meta.attr.0.stream.vendor_id.markup">[0][0][0][0]</property>
  <property name="meta.attr.major_brand.markup">mp42</property>
  <property name="meta.attr.minor_version.markup">0</property>
  <property name="meta.attr.compatible_brands.markup">isommp42</property>
  <property name="meta.attr.creation_time.markup">2024-08-01T06:24:50.000000Z</property>
  <property name="meta.attr.com.android.version.markup">12</property>
  <property name="xml">was here</property>
  <property name="mute_on_pause">0</property>
  <property name="set.test_audio">0</property>
  <property name="set.test_image">1</property>
 </chain>
 <chain id="chain123" out="00:00:06.920">
  <property name="length">174</property>
  <property name="eof">pause</property>
  <property name="resource">andcantbe.m4a</property>
  <property name="mlt_service">avformat-novalidate</property>
  <property name="seekable">1</property>
  <property name="audio_index">0</property>
  <property name="video_index">-1</property>
  <property name="astream">0</property>
  <property name="kdenlive:folderid">-1</property>
  <property name="kdenlive:id">72</property>
  <property name="kdenlive:clip_type">1</property>
  <property name="kdenlive:file_size">132403</property>
  <property name="kdenlive:file_hash">49428eb5894f6b5331247ebdc9c64d45</property>
  <property name="kdenlive:audio_max0">135</property>
  <property name="meta.media.nb_streams">1</property>
  <property name="meta.media.0.stream.type">audio</property>
  <property name="meta.media.0.codec.sample_fmt">fltp</property>
  <property name="meta.media.0.codec.sample_rate">48000</property>
  <property name="meta.media.0.codec.channels">2</property>
  <property name="meta.media.0.codec.layout">stereo</property>
  <property name="meta.media.0.codec.name">aac</property>
  <property name="meta.media.0.codec.long_name">AAC (Advanced Audio Coding)</property>
  <property name="meta.media.0.codec.bit_rate">148001</property>
  <property name="meta.attr.0.stream.creation_time.markup">2024-08-01T06:26:52.000000Z</property>
  <property name="meta.attr.0.stream.language.markup">eng</property>
  <property name="meta.attr.0.stream.handler_name.markup">SoundHandle</property>
  <property name="meta.attr.0.stream.vendor_id.markup">[0][0][0][0]</property>
  <property name="meta.attr.major_brand.markup">mp42</property>
  <property name="meta.attr.minor_version.markup">0</property>
  <property name="meta.attr.compatible_brands.markup">isommp42</property>
  <property name="meta.attr.creation_time.markup">2024-08-01T06:26:52.000000Z</property>
  <property name="meta.attr.com.android.version.markup">12</property>
  <property name="xml">was here</property>
  <property name="mute_on_pause">0</property>
  <property name="set.test_audio">0</property>
  <property name="set.test_image">1</property>
 </chain>
 <chain id="chain124" out="00:00:02.840">
  <property name="length">72</property>
  <property name="eof">pause</property>
  <property name="resource">onthepooltable.m4a</property>
  <property name="mlt_service">avformat-novalidate</property>
  <property name="seekable">1</property>
  <property name="audio_index">0</property>
  <property name="video_index">-1</property>
  <property name="astream">0</property>
  <property name="kdenlive:folderid">-1</property>
  <property name="kdenlive:id">73</property>
  <property name="kdenlive:clip_type">1</property>
  <property name="kdenlive:file_size">56579</property>
  <property name="kdenlive:file_hash">317b4aa93cf3c3d8bdb489b16e81dcd6</property>
  <property name="kdenlive:audio_max0">114</property>
  <property name="kdenlive:monitorPosition">37</property>
  <property name="meta.media.nb_streams">1</property>
  <property name="meta.media.0.stream.type">audio</property>
  <property name="meta.media.0.codec.sample_fmt">fltp</property>
  <property name="meta.media.0.codec.sample_rate">48000</property>
  <property name="meta.media.0.codec.channels">2</property>
  <property name="meta.media.0.codec.layout">stereo</property>
  <property name="meta.media.0.codec.name">aac</property>
  <property name="meta.media.0.codec.long_name">AAC (Advanced Audio Coding)</property>
  <property name="meta.media.0.codec.bit_rate">148002</property>
  <property name="meta.attr.0.stream.creation_time.markup">2024-08-01T06:27:08.000000Z</property>
  <property name="meta.attr.0.stream.language.markup">eng</property>
  <property name="meta.attr.0.stream.handler_name.markup">SoundHandle</property>
  <property name="meta.attr.0.stream.vendor_id.markup">[0][0][0][0]</property>
  <property name="meta.attr.major_brand.markup">mp42</property>
  <property name="meta.attr.minor_version.markup">0</property>
  <property name="meta.attr.compatible_brands.markup">isommp42</property>
  <property name="meta.attr.creation_time.markup">2024-08-01T06:27:08.000000Z</property>
  <property name="meta.attr.com.android.version.markup">12</property>
  <property name="xml">was here</property>
  <property name="mute_on_pause">0</property>
  <property name="set.test_audio">0</property>
  <property name="set.test_image">1</property>
 </chain>
 <chain id="chain125" out="00:00:04.880">
  <property name="length">123</property>
  <property name="eof">pause</property>
  <property name="resource">banana.m4a</property>
  <property name="mlt_service">avformat-novalidate</property>
  <property name="seekable">1</property>
  <property name="audio_index">0</property>
  <property name="video_index">-1</property>
  <property name="astream">0</property>
  <property name="kdenlive:folderid">-1</property>
  <property name="kdenlive:id">75</property>
  <property name="kdenlive:clip_type">1</property>
  <property name="kdenlive:file_size">94490</property>
  <property name="kdenlive:file_hash">5d655cd930793e260fc0ce420bdd8cf5</property>
  <property name="kdenlive:audio_max0">104</property>
  <property name="meta.media.nb_streams">1</property>
  <property name="meta.media.0.stream.type">audio</property>
  <property name="meta.media.0.codec.sample_fmt">fltp</property>
  <property name="meta.media.0.codec.sample_rate">48000</property>
  <property name="meta.media.0.codec.channels">2</property>
  <property name="meta.media.0.codec.layout">stereo</property>
  <property name="meta.media.0.codec.name">aac</property>
  <property name="meta.media.0.codec.long_name">AAC (Advanced Audio Coding)</property>
  <property name="meta.media.0.codec.bit_rate">148000</property>
  <property name="meta.attr.0.stream.creation_time.markup">2024-08-01T06:27:49.000000Z</property>
  <property name="meta.attr.0.stream.language.markup">eng</property>
  <property name="meta.attr.0.stream.handler_name.markup">SoundHandle</property>
  <property name="meta.attr.0.stream.vendor_id.markup">[0][0][0][0]</property>
  <property name="meta.attr.major_brand.markup">mp42</property>
  <property name="meta.attr.minor_version.markup">0</property>
  <property name="meta.attr.compatible_brands.markup">isommp42</property>
  <property name="meta.attr.creation_time.markup">2024-08-01T06:27:49.000000Z</property>
  <property name="meta.attr.com.android.version.markup">12</property>
  <property name="xml">was here</property>
  <property name="mute_on_pause">0</property>
  <property name="set.test_audio">0</property>
  <property name="set.test_image">1</property>
 </chain>
 <chain id="chain126" out="00:00:04.280">
  <property name="length">108</property>
  <property name="eof">pause</property>
  <property name="resource">theyarebe.m4a</property>
  <property name="mlt_service">avformat-novalidate</property>
  <property name="seekable">1</property>
  <property name="audio_index">0</property>
  <property name="video_index">-1</property>
  <property name="astream">0</property>
  <property name="kdenlive:folderid">-1</property>
  <property name="kdenlive:id">74</property>
  <property name="kdenlive:clip_type">1</property>
  <property name="kdenlive:file_size">83039</property>
  <property name="kdenlive:file_hash">7aedb2027d3702edd83e6abad3decdf4</property>
  <property name="kdenlive:audio_max0">123</property>
  <property name="meta.media.nb_streams">1</property>
  <property name="meta.media.0.stream.type">audio</property>
  <property name="meta.media.0.codec.sample_fmt">fltp</property>
  <property name="meta.media.0.codec.sample_rate">48000</property>
  <property name="meta.media.0.codec.channels">2</property>
  <property name="meta.media.0.codec.layout">stereo</property>
  <property name="meta.media.0.codec.name">aac</property>
  <property name="meta.media.0.codec.long_name">AAC (Advanced Audio Coding)</property>
  <property name="meta.media.0.codec.bit_rate">148000</property>
  <property name="meta.attr.0.stream.creation_time.markup">2024-08-01T06:28:14.000000Z</property>
  <property name="meta.attr.0.stream.language.markup">eng</property>
  <property name="meta.attr.0.stream.handler_name.markup">SoundHandle</property>
  <property name="meta.attr.0.stream.vendor_id.markup">[0][0][0][0]</property>
  <property name="meta.attr.major_brand.markup">mp42</property>
  <property name="meta.attr.minor_version.markup">0</property>
  <property name="meta.attr.compatible_brands.markup">isommp42</property>
  <property name="meta.attr.creation_time.markup">2024-08-01T06:28:14.000000Z</property>
  <property name="meta.attr.com.android.version.markup">12</property>
  <property name="xml">was here</property>
  <property name="mute_on_pause">0</property>
  <property name="set.test_audio">0</property>
  <property name="set.test_image">1</property>
 </chain>
 <chain id="chain127" out="00:00:03.120">
  <property name="length">79</property>
  <property name="eof">pause</property>
  <property name="resource">byrandomly.m4a</property>
  <property name="mlt_service">avformat-novalidate</property>
  <property name="seekable">1</property>
  <property name="audio_index">0</property>
  <property name="video_index">-1</property>
  <property name="astream">0</property>
  <property name="kdenlive:folderid">-1</property>
  <property name="kdenlive:id">76</property>
  <property name="kdenlive:clip_type">1</property>
  <property name="kdenlive:file_size">61712</property>
  <property name="kdenlive:file_hash">725ea6fcd80b04973842fbc9bac8e622</property>
  <property name="kdenlive:audio_max0">110</property>
  <property name="meta.media.nb_streams">1</property>
  <property name="meta.media.0.stream.type">audio</property>
  <property name="meta.media.0.codec.sample_fmt">fltp</property>
  <property name="meta.media.0.codec.sample_rate">48000</property>
  <property name="meta.media.0.codec.channels">2</property>
  <property name="meta.media.0.codec.layout">stereo</property>
  <property name="meta.media.0.codec.name">aac</property>
  <property name="meta.media.0.codec.long_name">AAC (Advanced Audio Coding)</property>
  <property name="meta.media.0.codec.bit_rate">147998</property>
  <property name="meta.attr.0.stream.creation_time.markup">2024-08-01T06:28:35.000000Z</property>
  <property name="meta.attr.0.stream.language.markup">eng</property>
  <property name="meta.attr.0.stream.handler_name.markup">SoundHandle</property>
  <property name="meta.attr.0.stream.vendor_id.markup">[0][0][0][0]</property>
  <property name="meta.attr.major_brand.markup">mp42</property>
  <property name="meta.attr.minor_version.markup">0</property>
  <property name="meta.attr.compatible_brands.markup">isommp42</property>
  <property name="meta.attr.creation_time.markup">2024-08-01T06:28:35.000000Z</property>
  <property name="meta.attr.com.android.version.markup">12</property>
  <property name="xml">was here</property>
  <property name="mute_on_pause">0</property>
  <property name="set.test_audio">0</property>
  <property name="set.test_image">1</property>
 </chain>
 <chain id="chain128" out="00:00:03.120">
  <property name="length">79</property>
  <property name="eof">pause</property>
  <property name="resource">butforthenofreewill.m4a</property>
  <property name="mlt_service">avformat-novalidate</property>
  <property name="seekable">1</property>
  <property name="audio_index">0</property>
  <property name="video_index">-1</property>
  <property name="astream">0</property>
  <property name="kdenlive:folderid">-1</property>
  <property name="kdenlive:id">140</property>
  <property name="kdenlive:clip_type">1</property>
  <property name="kdenlive:file_size">62108</property>
  <property name="kdenlive:file_hash">396d1339b92b9f3fa5aca7176b383bb6</property>
  <property name="kdenlive:audio_max0">146</property>
  <property name="meta.media.nb_streams">1</property>
  <property name="meta.media.0.stream.type">audio</property>
  <property name="meta.media.0.codec.sample_fmt">fltp</property>
  <property name="meta.media.0.codec.sample_rate">48000</property>
  <property name="meta.media.0.codec.channels">2</property>
  <property name="meta.media.0.codec.layout">stereo</property>
  <property name="meta.media.0.codec.name">aac</property>
  <property name="meta.media.0.codec.long_name">AAC (Advanced Audio Coding)</property>
  <property name="meta.media.0.codec.bit_rate">148001</property>
  <property name="meta.attr.0.stream.creation_time.markup">2024-08-05T00:47:13.000000Z</property>
  <property name="meta.attr.0.stream.language.markup">eng</property>
  <property name="meta.attr.0.stream.handler_name.markup">SoundHandle</property>
  <property name="meta.attr.0.stream.vendor_id.markup">[0][0][0][0]</property>
  <property name="meta.attr.major_brand.markup">mp42</property>
  <property name="meta.attr.minor_version.markup">0</property>
  <property name="meta.attr.compatible_brands.markup">isommp42</property>
  <property name="meta.attr.creation_time.markup">2024-08-05T00:47:13.000000Z</property>
  <property name="meta.attr.com.android.version.markup">12</property>
  <property name="xml">was here</property>
  <property name="mute_on_pause">0</property>
  <property name="set.test_audio">0</property>
  <property name="set.test_image">1</property>
 </chain>
 <chain id="chain129" out="00:00:03.760">
  <property name="length">95</property>
  <property name="eof">pause</property>
  <property name="resource">thisdoesnt.m4a</property>
  <property name="mlt_service">avformat-novalidate</property>
  <property name="seekable">1</property>
  <property name="audio_index">0</property>
  <property name="video_index">-1</property>
  <property name="astream">0</property>
  <property name="kdenlive:folderid">-1</property>
  <property name="kdenlive:id">139</property>
  <property name="kdenlive:clip_type">1</property>
  <property name="kdenlive:file_size">73561</property>
  <property name="kdenlive:file_hash">53b26c17ece0414d94f7bc6d425cdd99</property>
  <property name="kdenlive:audio_max0">139</property>
  <property name="meta.media.nb_streams">1</property>
  <property name="meta.media.0.stream.type">audio</property>
  <property name="meta.media.0.codec.sample_fmt">fltp</property>
  <property name="meta.media.0.codec.sample_rate">48000</property>
  <property name="meta.media.0.codec.channels">2</property>
  <property name="meta.media.0.codec.layout">stereo</property>
  <property name="meta.media.0.codec.name">aac</property>
  <property name="meta.media.0.codec.long_name">AAC (Advanced Audio Coding)</property>
  <property name="meta.media.0.codec.bit_rate">148000</property>
  <property name="meta.attr.0.stream.creation_time.markup">2024-08-05T00:48:36.000000Z</property>
  <property name="meta.attr.0.stream.language.markup">eng</property>
  <property name="meta.attr.0.stream.handler_name.markup">SoundHandle</property>
  <property name="meta.attr.0.stream.vendor_id.markup">[0][0][0][0]</property>
  <property name="meta.attr.major_brand.markup">mp42</property>
  <property name="meta.attr.minor_version.markup">0</property>
  <property name="meta.attr.compatible_brands.markup">isommp42</property>
  <property name="meta.attr.creation_time.markup">2024-08-05T00:48:36.000000Z</property>
  <property name="meta.attr.com.android.version.markup">12</property>
  <property name="xml">was here</property>
  <property name="mute_on_pause">0</property>
  <property name="set.test_audio">0</property>
  <property name="set.test_image">1</property>
 </chain>
 <producer id="producer20" in="00:00:00.000" out="00:00:04.920">
  <property name="length">124</property>
  <property name="eof">pause</property>
  <property name="resource">1.030000:theythinkthat.m4a</property>
  <property name="aspect_ratio">1</property>
  <property name="meta.media.nb_streams">1</property>
  <property name="meta.media.0.stream.type">audio</property>
  <property name="meta.media.0.codec.sample_fmt">fltp</property>
  <property name="meta.media.0.codec.sample_rate">48000</property>
  <property name="meta.media.0.codec.channels">2</property>
  <property name="meta.media.0.codec.layout">stereo</property>
  <property name="meta.media.0.codec.name">aac</property>
  <property name="meta.media.0.codec.long_name">AAC (Advanced Audio Coding)</property>
  <property name="meta.media.0.codec.bit_rate">148001</property>
  <property name="meta.attr.0.stream.creation_time.markup">2024-08-05T00:51:19.000000Z</property>
  <property name="meta.attr.0.stream.language.markup">eng</property>
  <property name="meta.attr.0.stream.handler_name.markup">SoundHandle</property>
  <property name="meta.attr.0.stream.vendor_id.markup">[0][0][0][0]</property>
  <property name="meta.attr.major_brand.markup">mp42</property>
  <property name="meta.attr.minor_version.markup">0</property>
  <property name="meta.attr.compatible_brands.markup">isommp42</property>
  <property name="meta.attr.creation_time.markup">2024-08-05T00:51:19.000000Z</property>
  <property name="meta.attr.com.android.version.markup">12</property>
  <property name="seekable">1</property>
  <property name="audio_index">0</property>
  <property name="video_index">-1</property>
  <property name="warp_speed">1.03</property>
  <property name="warp_resource">theythinkthat.m4a</property>
  <property name="mlt_service">timewarp</property>
  <property name="astream">0</property>
  <property name="set.test_audio">0</property>
  <property name="set.test_image">1</property>
  <property name="kdenlive:id">138</property>
  <property name="warp_pitch">0</property>
 </producer>
 <chain id="chain130" out="00:00:03.960">
  <property name="length">100</property>
  <property name="eof">pause</property>
  <property name="resource">theydontallow.m4a</property>
  <property name="mlt_service">avformat-novalidate</property>
  <property name="seekable">1</property>
  <property name="audio_index">0</property>
  <property name="video_index">-1</property>
  <property name="astream">0</property>
  <property name="kdenlive:folderid">-1</property>
  <property name="kdenlive:id">136</property>
  <property name="kdenlive:clip_type">1</property>
  <property name="kdenlive:file_size">77509</property>
  <property name="kdenlive:file_hash">3c440cab79be4cc7a1f9bd3094efd037</property>
  <property name="kdenlive:audio_max0">148</property>
  <property name="meta.media.nb_streams">1</property>
  <property name="meta.media.0.stream.type">audio</property>
  <property name="meta.media.0.codec.sample_fmt">fltp</property>
  <property name="meta.media.0.codec.sample_rate">48000</property>
  <property name="meta.media.0.codec.channels">2</property>
  <property name="meta.media.0.codec.layout">stereo</property>
  <property name="meta.media.0.codec.name">aac</property>
  <property name="meta.media.0.codec.long_name">AAC (Advanced Audio Coding)</property>
  <property name="meta.media.0.codec.bit_rate">147999</property>
  <property name="meta.attr.0.stream.creation_time.markup">2024-08-05T00:51:45.000000Z</property>
  <property name="meta.attr.0.stream.language.markup">eng</property>
  <property name="meta.attr.0.stream.handler_name.markup">SoundHandle</property>
  <property name="meta.attr.0.stream.vendor_id.markup">[0][0][0][0]</property>
  <property name="meta.attr.major_brand.markup">mp42</property>
  <property name="meta.attr.minor_version.markup">0</property>
  <property name="meta.attr.compatible_brands.markup">isommp42</property>
  <property name="meta.attr.creation_time.markup">2024-08-05T00:51:45.000000Z</property>
  <property name="meta.attr.com.android.version.markup">12</property>
  <property name="xml">was here</property>
  <property name="mute_on_pause">0</property>
  <property name="set.test_audio">0</property>
  <property name="set.test_image">1</property>
 </chain>
 <chain id="chain131" out="00:00:06.840">
  <property name="length">172</property>
  <property name="eof">pause</property>
  <property name="resource">becauseif.m4a</property>
  <property name="mlt_service">avformat-novalidate</property>
  <property name="seekable">1</property>
  <property name="audio_index">0</property>
  <property name="video_index">-1</property>
  <property name="astream">0</property>
  <property name="kdenlive:folderid">-1</property>
  <property name="kdenlive:id">137</property>
  <property name="kdenlive:clip_type">1</property>
  <property name="kdenlive:file_size">130427</property>
  <property name="kdenlive:file_hash">80d90bb3f075ab8b95359ce4a9bdc66b</property>
  <property name="kdenlive:audio_max0">141</property>
  <property name="meta.media.nb_streams">1</property>
  <property name="meta.media.0.stream.type">audio</property>
  <property name="meta.media.0.codec.sample_fmt">fltp</property>
  <property name="meta.media.0.codec.sample_rate">48000</property>
  <property name="meta.media.0.codec.channels">2</property>
  <property name="meta.media.0.codec.layout">stereo</property>
  <property name="meta.media.0.codec.name">aac</property>
  <property name="meta.media.0.codec.long_name">AAC (Advanced Audio Coding)</property>
  <property name="meta.media.0.codec.bit_rate">148000</property>
  <property name="meta.attr.0.stream.creation_time.markup">2024-08-05T00:53:38.000000Z</property>
  <property name="meta.attr.0.stream.language.markup">eng</property>
  <property name="meta.attr.0.stream.handler_name.markup">SoundHandle</property>
  <property name="meta.attr.0.stream.vendor_id.markup">[0][0][0][0]</property>
  <property name="meta.attr.major_brand.markup">mp42</property>
  <property name="meta.attr.minor_version.markup">0</property>
  <property name="meta.attr.compatible_brands.markup">isommp42</property>
  <property name="meta.attr.creation_time.markup">2024-08-05T00:53:38.000000Z</property>
  <property name="meta.attr.com.android.version.markup">12</property>
  <property name="xml">was here</property>
  <property name="mute_on_pause">0</property>
  <property name="set.test_audio">0</property>
  <property name="set.test_image">1</property>
 </chain>
 <chain id="chain132" out="00:00:04.040">
  <property name="length">102</property>
  <property name="eof">pause</property>
  <property name="resource">theserandom.m4a</property>
  <property name="mlt_service">avformat-novalidate</property>
  <property name="seekable">1</property>
  <property name="audio_index">0</property>
  <property name="video_index">-1</property>
  <property name="astream">0</property>
  <property name="kdenlive:folderid">-1</property>
  <property name="kdenlive:id">134</property>
  <property name="kdenlive:clip_type">1</property>
  <property name="kdenlive:file_size">78694</property>
  <property name="kdenlive:file_hash">d6851b6a4d222134cc31eaa138c84309</property>
  <property name="kdenlive:audio_max0">146</property>
  <property name="meta.media.nb_streams">1</property>
  <property name="meta.media.0.stream.type">audio</property>
  <property name="meta.media.0.codec.sample_fmt">fltp</property>
  <property name="meta.media.0.codec.sample_rate">48000</property>
  <property name="meta.media.0.codec.channels">2</property>
  <property name="meta.media.0.codec.layout">stereo</property>
  <property name="meta.media.0.codec.name">aac</property>
  <property name="meta.media.0.codec.long_name">AAC (Advanced Audio Coding)</property>
  <property name="meta.media.0.codec.bit_rate">148001</property>
  <property name="meta.attr.0.stream.creation_time.markup">2024-08-05T00:55:16.000000Z</property>
  <property name="meta.attr.0.stream.language.markup">eng</property>
  <property name="meta.attr.0.stream.handler_name.markup">SoundHandle</property>
  <property name="meta.attr.0.stream.vendor_id.markup">[0][0][0][0]</property>
  <property name="meta.attr.major_brand.markup">mp42</property>
  <property name="meta.attr.minor_version.markup">0</property>
  <property name="meta.attr.compatible_brands.markup">isommp42</property>
  <property name="meta.attr.creation_time.markup">2024-08-05T00:55:16.000000Z</property>
  <property name="meta.attr.com.android.version.markup">12</property>
  <property name="xml">was here</property>
  <property name="mute_on_pause">0</property>
  <property name="set.test_audio">0</property>
  <property name="set.test_image">1</property>
 </chain>
 <chain id="chain133" out="00:00:02.160">
  <property name="length">55</property>
  <property name="eof">pause</property>
  <property name="resource">how.m4a</property>
  <property name="mlt_service">avformat-novalidate</property>
  <property name="seekable">1</property>
  <property name="audio_index">0</property>
  <property name="video_index">-1</property>
  <property name="astream">0</property>
  <property name="kdenlive:folderid">-1</property>
  <property name="kdenlive:id">135</property>
  <property name="kdenlive:clip_type">1</property>
  <property name="kdenlive:file_size">43940</property>
  <property name="kdenlive:file_hash">bcbb332496c202d730a3942778529080</property>
  <property name="kdenlive:audio_max0">128</property>
  <property name="meta.media.nb_streams">1</property>
  <property name="meta.media.0.stream.type">audio</property>
  <property name="meta.media.0.codec.sample_fmt">fltp</property>
  <property name="meta.media.0.codec.sample_rate">48000</property>
  <property name="meta.media.0.codec.channels">2</property>
  <property name="meta.media.0.codec.layout">stereo</property>
  <property name="meta.media.0.codec.name">aac</property>
  <property name="meta.media.0.codec.long_name">AAC (Advanced Audio Coding)</property>
  <property name="meta.media.0.codec.bit_rate">147997</property>
  <property name="meta.attr.0.stream.creation_time.markup">2024-08-05T00:55:30.000000Z</property>
  <property name="meta.attr.0.stream.language.markup">eng</property>
  <property name="meta.attr.0.stream.handler_name.markup">SoundHandle</property>
  <property name="meta.attr.0.stream.vendor_id.markup">[0][0][0][0]</property>
  <property name="meta.attr.major_brand.markup">mp42</property>
  <property name="meta.attr.minor_version.markup">0</property>
  <property name="meta.attr.compatible_brands.markup">isommp42</property>
  <property name="meta.attr.creation_time.markup">2024-08-05T00:55:30.000000Z</property>
  <property name="meta.attr.com.android.version.markup">12</property>
  <property name="xml">was here</property>
  <property name="mute_on_pause">0</property>
  <property name="set.test_audio">0</property>
  <property name="set.test_image">1</property>
 </chain>
 <chain id="chain134" out="00:00:04.000">
  <property name="length">101</property>
  <property name="eof">pause</property>
  <property name="resource">sayan.m4a</property>
  <property name="mlt_service">avformat-novalidate</property>
  <property name="seekable">1</property>
  <property name="audio_index">0</property>
  <property name="video_index">-1</property>
  <property name="astream">0</property>
  <property name="kdenlive:folderid">-1</property>
  <property name="kdenlive:id">132</property>
  <property name="kdenlive:clip_type">1</property>
  <property name="kdenlive:file_size">78299</property>
  <property name="kdenlive:file_hash">f572c7bca48bf3370d901047e01b7b90</property>
  <property name="kdenlive:audio_max0">151</property>
  <property name="meta.media.nb_streams">1</property>
  <property name="meta.media.0.stream.type">audio</property>
  <property name="meta.media.0.codec.sample_fmt">fltp</property>
  <property name="meta.media.0.codec.sample_rate">48000</property>
  <property name="meta.media.0.codec.channels">2</property>
  <property name="meta.media.0.codec.layout">stereo</property>
  <property name="meta.media.0.codec.name">aac</property>
  <property name="meta.media.0.codec.long_name">AAC (Advanced Audio Coding)</property>
  <property name="meta.media.0.codec.bit_rate">148000</property>
  <property name="meta.attr.0.stream.creation_time.markup">2024-08-05T00:56:12.000000Z</property>
  <property name="meta.attr.0.stream.language.markup">eng</property>
  <property name="meta.attr.0.stream.handler_name.markup">SoundHandle</property>
  <property name="meta.attr.0.stream.vendor_id.markup">[0][0][0][0]</property>
  <property name="meta.attr.major_brand.markup">mp42</property>
  <property name="meta.attr.minor_version.markup">0</property>
  <property name="meta.attr.compatible_brands.markup">isommp42</property>
  <property name="meta.attr.creation_time.markup">2024-08-05T00:56:12.000000Z</property>
  <property name="meta.attr.com.android.version.markup">12</property>
  <property name="xml">was here</property>
  <property name="mute_on_pause">0</property>
  <property name="set.test_audio">0</property>
  <property name="set.test_image">1</property>
 </chain>
 <chain id="chain135" out="00:00:06.200">
  <property name="length">156</property>
  <property name="eof">pause</property>
  <property name="resource">ifitgoseleft.m4a</property>
  <property name="mlt_service">avformat-novalidate</property>
  <property name="seekable">1</property>
  <property name="audio_index">0</property>
  <property name="video_index">-1</property>
  <property name="astream">0</property>
  <property name="kdenlive:folderid">-1</property>
  <property name="kdenlive:id">133</property>
  <property name="kdenlive:clip_type">1</property>
  <property name="kdenlive:file_size">118581</property>
  <property name="kdenlive:file_hash">da157e2a5304db5f05ea9f0f5a1c2434</property>
  <property name="kdenlive:audio_max0">143</property>
  <property name="meta.media.nb_streams">1</property>
  <property name="meta.media.0.stream.type">audio</property>
  <property name="meta.media.0.codec.sample_fmt">fltp</property>
  <property name="meta.media.0.codec.sample_rate">48000</property>
  <property name="meta.media.0.codec.channels">2</property>
  <property name="meta.media.0.codec.layout">stereo</property>
  <property name="meta.media.0.codec.name">aac</property>
  <property name="meta.media.0.codec.long_name">AAC (Advanced Audio Coding)</property>
  <property name="meta.media.0.codec.bit_rate">148000</property>
  <property name="meta.attr.0.stream.creation_time.markup">2024-08-05T00:59:44.000000Z</property>
  <property name="meta.attr.0.stream.language.markup">eng</property>
  <property name="meta.attr.0.stream.handler_name.markup">SoundHandle</property>
  <property name="meta.attr.0.stream.vendor_id.markup">[0][0][0][0]</property>
  <property name="meta.attr.major_brand.markup">mp42</property>
  <property name="meta.attr.minor_version.markup">0</property>
  <property name="meta.attr.compatible_brands.markup">isommp42</property>
  <property name="meta.attr.creation_time.markup">2024-08-05T00:59:44.000000Z</property>
  <property name="meta.attr.com.android.version.markup">12</property>
  <property name="xml">was here</property>
  <property name="mute_on_pause">0</property>
  <property name="set.test_audio">0</property>
  <property name="set.test_image">1</property>
 </chain>
 <chain id="chain136" out="00:00:03.360">
  <property name="length">85</property>
  <property name="eof">pause</property>
  <property name="resource">thatcreat.m4a</property>
  <property name="mlt_service">avformat-novalidate</property>
  <property name="seekable">1</property>
  <property name="audio_index">0</property>
  <property name="video_index">-1</property>
  <property name="astream">0</property>
  <property name="kdenlive:folderid">-1</property>
  <property name="kdenlive:id">131</property>
  <property name="kdenlive:clip_type">1</property>
  <property name="kdenlive:file_size">66450</property>
  <property name="kdenlive:file_hash">7d2b52138623bf4eafe464e9786e028b</property>
  <property name="kdenlive:audio_max0">162</property>
  <property name="meta.media.nb_streams">1</property>
  <property name="meta.media.0.stream.type">audio</property>
  <property name="meta.media.0.codec.sample_fmt">fltp</property>
  <property name="meta.media.0.codec.sample_rate">48000</property>
  <property name="meta.media.0.codec.channels">2</property>
  <property name="meta.media.0.codec.layout">stereo</property>
  <property name="meta.media.0.codec.name">aac</property>
  <property name="meta.media.0.codec.long_name">AAC (Advanced Audio Coding)</property>
  <property name="meta.media.0.codec.bit_rate">147998</property>
  <property name="meta.attr.0.stream.creation_time.markup">2024-08-05T01:01:13.000000Z</property>
  <property name="meta.attr.0.stream.language.markup">eng</property>
  <property name="meta.attr.0.stream.handler_name.markup">SoundHandle</property>
  <property name="meta.attr.0.stream.vendor_id.markup">[0][0][0][0]</property>
  <property name="meta.attr.major_brand.markup">mp42</property>
  <property name="meta.attr.minor_version.markup">0</property>
  <property name="meta.attr.compatible_brands.markup">isommp42</property>
  <property name="meta.attr.creation_time.markup">2024-08-05T01:01:13.000000Z</property>
  <property name="meta.attr.com.android.version.markup">12</property>
  <property name="xml">was here</property>
  <property name="mute_on_pause">0</property>
  <property name="set.test_audio">0</property>
  <property name="set.test_image">1</property>
 </chain>
 <chain id="chain137" out="00:00:05.560">
  <property name="length">140</property>
  <property name="eof">pause</property>
  <property name="resource">witchyoutube.m4a</property>
  <property name="mlt_service">avformat-novalidate</property>
  <property name="seekable">1</property>
  <property name="audio_index">0</property>
  <property name="video_index">-1</property>
  <property name="astream">0</property>
  <property name="kdenlive:folderid">-1</property>
  <property name="kdenlive:id">129</property>
  <property name="kdenlive:clip_type">1</property>
  <property name="kdenlive:file_size">107128</property>
  <property name="kdenlive:file_hash">e18909e75badfc14b0fb13dd87bea684</property>
  <property name="kdenlive:audio_max0">148</property>
  <property name="meta.media.nb_streams">1</property>
  <property name="meta.media.0.stream.type">audio</property>
  <property name="meta.media.0.codec.sample_fmt">fltp</property>
  <property name="meta.media.0.codec.sample_rate">48000</property>
  <property name="meta.media.0.codec.channels">2</property>
  <property name="meta.media.0.codec.layout">stereo</property>
  <property name="meta.media.0.codec.name">aac</property>
  <property name="meta.media.0.codec.long_name">AAC (Advanced Audio Coding)</property>
  <property name="meta.media.0.codec.bit_rate">148000</property>
  <property name="meta.attr.0.stream.creation_time.markup">2024-08-05T01:08:14.000000Z</property>
  <property name="meta.attr.0.stream.language.markup">eng</property>
  <property name="meta.attr.0.stream.handler_name.markup">SoundHandle</property>
  <property name="meta.attr.0.stream.vendor_id.markup">[0][0][0][0]</property>
  <property name="meta.attr.major_brand.markup">mp42</property>
  <property name="meta.attr.minor_version.markup">0</property>
  <property name="meta.attr.compatible_brands.markup">isommp42</property>
  <property name="meta.attr.creation_time.markup">2024-08-05T01:08:14.000000Z</property>
  <property name="meta.attr.com.android.version.markup">12</property>
  <property name="xml">was here</property>
  <property name="mute_on_pause">0</property>
  <property name="set.test_audio">0</property>
  <property name="set.test_image">1</property>
 </chain>
 <chain id="chain138" out="00:00:03.840">
  <property name="length">97</property>
  <property name="eof">pause</property>
  <property name="resource">oritgoesright.m4a</property>
  <property name="mlt_service">avformat-novalidate</property>
  <property name="seekable">1</property>
  <property name="audio_index">0</property>
  <property name="video_index">-1</property>
  <property name="astream">0</property>
  <property name="kdenlive:folderid">-1</property>
  <property name="kdenlive:id">130</property>
  <property name="kdenlive:clip_type">1</property>
  <property name="kdenlive:file_size">75140</property>
  <property name="kdenlive:file_hash">f59a230c799e58c1acbd52b797216bc6</property>
  <property name="kdenlive:audio_max0">119</property>
  <property name="meta.media.nb_streams">1</property>
  <property name="meta.media.0.stream.type">audio</property>
  <property name="meta.media.0.codec.sample_fmt">fltp</property>
  <property name="meta.media.0.codec.sample_rate">48000</property>
  <property name="meta.media.0.codec.channels">2</property>
  <property name="meta.media.0.codec.layout">stereo</property>
  <property name="meta.media.0.codec.name">aac</property>
  <property name="meta.media.0.codec.long_name">AAC (Advanced Audio Coding)</property>
  <property name="meta.media.0.codec.bit_rate">148001</property>
  <property name="meta.attr.0.stream.creation_time.markup">2024-08-05T01:08:36.000000Z</property>
  <property name="meta.attr.0.stream.language.markup">eng</property>
  <property name="meta.attr.0.stream.handler_name.markup">SoundHandle</property>
  <property name="meta.attr.0.stream.vendor_id.markup">[0][0][0][0]</property>
  <property name="meta.attr.major_brand.markup">mp42</property>
  <property name="meta.attr.minor_version.markup">0</property>
  <property name="meta.attr.compatible_brands.markup">isommp42</property>
  <property name="meta.attr.creation_time.markup">2024-08-05T01:08:36.000000Z</property>
  <property name="meta.attr.com.android.version.markup">12</property>
  <property name="xml">was here</property>
  <property name="mute_on_pause">0</property>
  <property name="set.test_audio">0</property>
  <property name="set.test_image">1</property>
 </chain>
 <chain id="chain139" out="00:00:04.560">
  <property name="length">115</property>
  <property name="eof">pause</property>
  <property name="resource">justbecause.m4a</property>
  <property name="mlt_service">avformat-novalidate</property>
  <property name="seekable">1</property>
  <property name="audio_index">0</property>
  <property name="video_index">-1</property>
  <property name="astream">0</property>
  <property name="kdenlive:folderid">-1</property>
  <property name="kdenlive:id">127</property>
  <property name="kdenlive:clip_type">1</property>
  <property name="kdenlive:file_size">88567</property>
  <property name="kdenlive:file_hash">a17abdd4002c4915604f8e0ee59d2363</property>
  <property name="kdenlive:audio_max0">133</property>
  <property name="meta.media.nb_streams">1</property>
  <property name="meta.media.0.stream.type">audio</property>
  <property name="meta.media.0.codec.sample_fmt">fltp</property>
  <property name="meta.media.0.codec.sample_rate">48000</property>
  <property name="meta.media.0.codec.channels">2</property>
  <property name="meta.media.0.codec.layout">stereo</property>
  <property name="meta.media.0.codec.name">aac</property>
  <property name="meta.media.0.codec.long_name">AAC (Advanced Audio Coding)</property>
  <property name="meta.media.0.codec.bit_rate">148001</property>
  <property name="meta.attr.0.stream.creation_time.markup">2024-08-05T01:10:13.000000Z</property>
  <property name="meta.attr.0.stream.language.markup">eng</property>
  <property name="meta.attr.0.stream.handler_name.markup">SoundHandle</property>
  <property name="meta.attr.0.stream.vendor_id.markup">[0][0][0][0]</property>
  <property name="meta.attr.major_brand.markup">mp42</property>
  <property name="meta.attr.minor_version.markup">0</property>
  <property name="meta.attr.compatible_brands.markup">isommp42</property>
  <property name="meta.attr.creation_time.markup">2024-08-05T01:10:13.000000Z</property>
  <property name="meta.attr.com.android.version.markup">12</property>
  <property name="xml">was here</property>
  <property name="mute_on_pause">0</property>
  <property name="set.test_audio">0</property>
  <property name="set.test_image">1</property>
 </chain>
 <chain id="chain140" out="00:00:04.000">
  <property name="length">101</property>
  <property name="eof">pause</property>
  <property name="resource">doesntmeanyouhaveany.m4a</property>
  <property name="mlt_service">avformat-novalidate</property>
  <property name="seekable">1</property>
  <property name="audio_index">0</property>
  <property name="video_index">-1</property>
  <property name="astream">0</property>
  <property name="kdenlive:folderid">-1</property>
  <property name="kdenlive:id">128</property>
  <property name="kdenlive:clip_type">1</property>
  <property name="kdenlive:file_size">77905</property>
  <property name="kdenlive:file_hash">f4d8d495893d40694df5034d424a72ac</property>
  <property name="kdenlive:audio_max0">133</property>
  <property name="meta.media.nb_streams">1</property>
  <property name="meta.media.0.stream.type">audio</property>
  <property name="meta.media.0.codec.sample_fmt">fltp</property>
  <property name="meta.media.0.codec.sample_rate">48000</property>
  <property name="meta.media.0.codec.channels">2</property>
  <property name="meta.media.0.codec.layout">stereo</property>
  <property name="meta.media.0.codec.name">aac</property>
  <property name="meta.media.0.codec.long_name">AAC (Advanced Audio Coding)</property>
  <property name="meta.media.0.codec.bit_rate">148001</property>
  <property name="meta.attr.0.stream.creation_time.markup">2024-08-05T01:10:31.000000Z</property>
  <property name="meta.attr.0.stream.language.markup">eng</property>
  <property name="meta.attr.0.stream.handler_name.markup">SoundHandle</property>
  <property name="meta.attr.0.stream.vendor_id.markup">[0][0][0][0]</property>
  <property name="meta.attr.major_brand.markup">mp42</property>
  <property name="meta.attr.minor_version.markup">0</property>
  <property name="meta.attr.compatible_brands.markup">isommp42</property>
  <property name="meta.attr.creation_time.markup">2024-08-05T01:10:31.000000Z</property>
  <property name="meta.attr.com.android.version.markup">12</property>
  <property name="xml">was here</property>
  <property name="mute_on_pause">0</property>
  <property name="set.test_audio">0</property>
  <property name="set.test_image">1</property>
 </chain>
 <chain id="chain141" out="00:00:03.960">
  <property name="length">100</property>
  <property name="eof">pause</property>
  <property name="resource">somaybeyourfeat.m4a</property>
  <property name="mlt_service">avformat-novalidate</property>
  <property name="seekable">1</property>
  <property name="audio_index">0</property>
  <property name="video_index">-1</property>
  <property name="astream">0</property>
  <property name="kdenlive:folderid">-1</property>
  <property name="kdenlive:id">125</property>
  <property name="kdenlive:clip_type">1</property>
  <property name="kdenlive:file_size">77510</property>
  <property name="kdenlive:file_hash">3330feec323a3bd41fbdfda324dcf9e1</property>
  <property name="kdenlive:audio_max0">141</property>
  <property name="meta.media.nb_streams">1</property>
  <property name="meta.media.0.stream.type">audio</property>
  <property name="meta.media.0.codec.sample_fmt">fltp</property>
  <property name="meta.media.0.codec.sample_rate">48000</property>
  <property name="meta.media.0.codec.channels">2</property>
  <property name="meta.media.0.codec.layout">stereo</property>
  <property name="meta.media.0.codec.name">aac</property>
  <property name="meta.media.0.codec.long_name">AAC (Advanced Audio Coding)</property>
  <property name="meta.media.0.codec.bit_rate">148001</property>
  <property name="meta.attr.0.stream.creation_time.markup">2024-08-05T01:11:24.000000Z</property>
  <property name="meta.attr.0.stream.language.markup">eng</property>
  <property name="meta.attr.0.stream.handler_name.markup">SoundHandle</property>
  <property name="meta.attr.0.stream.vendor_id.markup">[0][0][0][0]</property>
  <property name="meta.attr.major_brand.markup">mp42</property>
  <property name="meta.attr.minor_version.markup">0</property>
  <property name="meta.attr.compatible_brands.markup">isommp42</property>
  <property name="meta.attr.creation_time.markup">2024-08-05T01:11:24.000000Z</property>
  <property name="meta.attr.com.android.version.markup">12</property>
  <property name="xml">was here</property>
  <property name="mute_on_pause">0</property>
  <property name="set.test_audio">0</property>
  <property name="set.test_image">1</property>
 </chain>
 <chain id="chain142" out="00:00:04.040">
  <property name="length">102</property>
  <property name="eof">pause</property>
  <property name="resource">butitsdesidedatthismoment.m4a</property>
  <property name="mlt_service">avformat-novalidate</property>
  <property name="seekable">1</property>
  <property name="audio_index">0</property>
  <property name="video_index">-1</property>
  <property name="astream">0</property>
  <property name="kdenlive:folderid">-1</property>
  <property name="kdenlive:id">126</property>
  <property name="kdenlive:clip_type">1</property>
  <property name="kdenlive:file_size">79088</property>
  <property name="kdenlive:file_hash">82ad89503df7ac1bd6f48d92f387f5a9</property>
  <property name="kdenlive:audio_max0">154</property>
  <property name="meta.media.nb_streams">1</property>
  <property name="meta.media.0.stream.type">audio</property>
  <property name="meta.media.0.codec.sample_fmt">fltp</property>
  <property name="meta.media.0.codec.sample_rate">48000</property>
  <property name="meta.media.0.codec.channels">2</property>
  <property name="meta.media.0.codec.layout">stereo</property>
  <property name="meta.media.0.codec.name">aac</property>
  <property name="meta.media.0.codec.long_name">AAC (Advanced Audio Coding)</property>
  <property name="meta.media.0.codec.bit_rate">148000</property>
  <property name="meta.attr.0.stream.creation_time.markup">2024-08-05T01:11:42.000000Z</property>
  <property name="meta.attr.0.stream.language.markup">eng</property>
  <property name="meta.attr.0.stream.handler_name.markup">SoundHandle</property>
  <property name="meta.attr.0.stream.vendor_id.markup">[0][0][0][0]</property>
  <property name="meta.attr.major_brand.markup">mp42</property>
  <property name="meta.attr.minor_version.markup">0</property>
  <property name="meta.attr.compatible_brands.markup">isommp42</property>
  <property name="meta.attr.creation_time.markup">2024-08-05T01:11:42.000000Z</property>
  <property name="meta.attr.com.android.version.markup">12</property>
  <property name="xml">was here</property>
  <property name="mute_on_pause">0</property>
  <property name="set.test_audio">0</property>
  <property name="set.test_image">1</property>
 </chain>
 <chain id="chain143" out="00:00:04.360">
  <property name="length">110</property>
  <property name="eof">pause</property>
  <property name="resource">theimportant.m4a</property>
  <property name="mlt_service">avformat-novalidate</property>
  <property name="seekable">1</property>
  <property name="audio_index">0</property>
  <property name="video_index">-1</property>
  <property name="astream">0</property>
  <property name="kdenlive:folderid">-1</property>
  <property name="kdenlive:id">124</property>
  <property name="kdenlive:clip_type">1</property>
  <property name="kdenlive:file_size">84618</property>
  <property name="kdenlive:file_hash">c33c46df74e6708fb16f376f84d6ce7e</property>
  <property name="kdenlive:audio_max0">149</property>
  <property name="meta.media.nb_streams">1</property>
  <property name="meta.media.0.stream.type">audio</property>
  <property name="meta.media.0.codec.sample_fmt">fltp</property>
  <property name="meta.media.0.codec.sample_rate">48000</property>
  <property name="meta.media.0.codec.channels">2</property>
  <property name="meta.media.0.codec.layout">stereo</property>
  <property name="meta.media.0.codec.name">aac</property>
  <property name="meta.media.0.codec.long_name">AAC (Advanced Audio Coding)</property>
  <property name="meta.media.0.codec.bit_rate">148001</property>
  <property name="meta.attr.0.stream.creation_time.markup">2024-08-05T01:12:20.000000Z</property>
  <property name="meta.attr.0.stream.language.markup">eng</property>
  <property name="meta.attr.0.stream.handler_name.markup">SoundHandle</property>
  <property name="meta.attr.0.stream.vendor_id.markup">[0][0][0][0]</property>
  <property name="meta.attr.major_brand.markup">mp42</property>
  <property name="meta.attr.minor_version.markup">0</property>
  <property name="meta.attr.compatible_brands.markup">isommp42</property>
  <property name="meta.attr.creation_time.markup">2024-08-05T01:12:20.000000Z</property>
  <property name="meta.attr.com.android.version.markup">12</property>
  <property name="xml">was here</property>
  <property name="mute_on_pause">0</property>
  <property name="set.test_audio">0</property>
  <property name="set.test_image">1</property>
 </chain>
 <chain id="chain144" out="00:00:05.680">
  <property name="length">143</property>
  <property name="eof">pause</property>
  <property name="resource">yougetnosayinthis.m4a</property>
  <property name="mlt_service">avformat-novalidate</property>
  <property name="seekable">1</property>
  <property name="audio_index">0</property>
  <property name="video_index">-1</property>
  <property name="astream">0</property>
  <property name="kdenlive:folderid">-1</property>
  <property name="kdenlive:id">122</property>
  <property name="kdenlive:clip_type">1</property>
  <property name="kdenlive:file_size">109496</property>
  <property name="kdenlive:file_hash">ab5075b60433eec1a3bfacb7e43f011e</property>
  <property name="kdenlive:audio_max0">131</property>
  <property name="meta.media.nb_streams">1</property>
  <property name="meta.media.0.stream.type">audio</property>
  <property name="meta.media.0.codec.sample_fmt">fltp</property>
  <property name="meta.media.0.codec.sample_rate">48000</property>
  <property name="meta.media.0.codec.channels">2</property>
  <property name="meta.media.0.codec.layout">stereo</property>
  <property name="meta.media.0.codec.name">aac</property>
  <property name="meta.media.0.codec.long_name">AAC (Advanced Audio Coding)</property>
  <property name="meta.media.0.codec.bit_rate">148000</property>
  <property name="meta.attr.0.stream.creation_time.markup">2024-08-05T01:12:44.000000Z</property>
  <property name="meta.attr.0.stream.language.markup">eng</property>
  <property name="meta.attr.0.stream.handler_name.markup">SoundHandle</property>
  <property name="meta.attr.0.stream.vendor_id.markup">[0][0][0][0]</property>
  <property name="meta.attr.major_brand.markup">mp42</property>
  <property name="meta.attr.minor_version.markup">0</property>
  <property name="meta.attr.compatible_brands.markup">isommp42</property>
  <property name="meta.attr.creation_time.markup">2024-08-05T01:12:44.000000Z</property>
  <property name="meta.attr.com.android.version.markup">12</property>
  <property name="xml">was here</property>
  <property name="mute_on_pause">0</property>
  <property name="set.test_audio">0</property>
  <property name="set.test_image">1</property>
 </chain>
 <chain id="chain145" out="00:00:01.920">
  <property name="length">49</property>
  <property name="eof">pause</property>
  <property name="resource">wow.m4a</property>
  <property name="mlt_service">avformat-novalidate</property>
  <property name="seekable">1</property>
  <property name="audio_index">0</property>
  <property name="video_index">-1</property>
  <property name="astream">0</property>
  <property name="kdenlive:folderid">-1</property>
  <property name="kdenlive:id">123</property>
  <property name="kdenlive:clip_type">1</property>
  <property name="kdenlive:file_size">39202</property>
  <property name="kdenlive:file_hash">1275112b5b5c85b9b8135597ba276bf8</property>
  <property name="kdenlive:audio_max0">127</property>
  <property name="meta.media.nb_streams">1</property>
  <property name="meta.media.0.stream.type">audio</property>
  <property name="meta.media.0.codec.sample_fmt">fltp</property>
  <property name="meta.media.0.codec.sample_rate">48000</property>
  <property name="meta.media.0.codec.channels">2</property>
  <property name="meta.media.0.codec.layout">stereo</property>
  <property name="meta.media.0.codec.name">aac</property>
  <property name="meta.media.0.codec.long_name">AAC (Advanced Audio Coding)</property>
  <property name="meta.media.0.codec.bit_rate">147997</property>
  <property name="meta.attr.0.stream.creation_time.markup">2024-08-05T01:13:09.000000Z</property>
  <property name="meta.attr.0.stream.language.markup">eng</property>
  <property name="meta.attr.0.stream.handler_name.markup">SoundHandle</property>
  <property name="meta.attr.0.stream.vendor_id.markup">[0][0][0][0]</property>
  <property name="meta.attr.major_brand.markup">mp42</property>
  <property name="meta.attr.minor_version.markup">0</property>
  <property name="meta.attr.compatible_brands.markup">isommp42</property>
  <property name="meta.attr.creation_time.markup">2024-08-05T01:13:09.000000Z</property>
  <property name="meta.attr.com.android.version.markup">12</property>
  <property name="xml">was here</property>
  <property name="mute_on_pause">0</property>
  <property name="set.test_audio">0</property>
  <property name="set.test_image">1</property>
 </chain>
 <chain id="chain146" out="00:00:02.560">
  <property name="length">65</property>
  <property name="eof">pause</property>
  <property name="resource">thisiskindof.m4a</property>
  <property name="mlt_service">avformat-novalidate</property>
  <property name="seekable">1</property>
  <property name="audio_index">0</property>
  <property name="video_index">-1</property>
  <property name="astream">0</property>
  <property name="kdenlive:folderid">-1</property>
  <property name="kdenlive:id">120</property>
  <property name="kdenlive:clip_type">1</property>
  <property name="kdenlive:file_size">51051</property>
  <property name="kdenlive:file_hash">a2cf03a3b9cc6bd7e5ded9f32c142d19</property>
  <property name="kdenlive:audio_max0">143</property>
  <property name="meta.media.nb_streams">1</property>
  <property name="meta.media.0.stream.type">audio</property>
  <property name="meta.media.0.codec.sample_fmt">fltp</property>
  <property name="meta.media.0.codec.sample_rate">48000</property>
  <property name="meta.media.0.codec.channels">2</property>
  <property name="meta.media.0.codec.layout">stereo</property>
  <property name="meta.media.0.codec.name">aac</property>
  <property name="meta.media.0.codec.long_name">AAC (Advanced Audio Coding)</property>
  <property name="meta.media.0.codec.bit_rate">148001</property>
  <property name="meta.attr.0.stream.creation_time.markup">2024-08-05T01:13:22.000000Z</property>
  <property name="meta.attr.0.stream.language.markup">eng</property>
  <property name="meta.attr.0.stream.handler_name.markup">SoundHandle</property>
  <property name="meta.attr.0.stream.vendor_id.markup">[0][0][0][0]</property>
  <property name="meta.attr.major_brand.markup">mp42</property>
  <property name="meta.attr.minor_version.markup">0</property>
  <property name="meta.attr.compatible_brands.markup">isommp42</property>
  <property name="meta.attr.creation_time.markup">2024-08-05T01:13:22.000000Z</property>
  <property name="meta.attr.com.android.version.markup">12</property>
  <property name="xml">was here</property>
  <property name="mute_on_pause">0</property>
  <property name="set.test_audio">0</property>
  <property name="set.test_image">1</property>
 </chain>
 <chain id="chain147" out="00:00:04.800">
  <property name="length">121</property>
  <property name="eof">pause</property>
  <property name="resource">becausethe.m4a</property>
  <property name="mlt_service">avformat-novalidate</property>
  <property name="seekable">1</property>
  <property name="audio_index">0</property>
  <property name="video_index">-1</property>
  <property name="astream">0</property>
  <property name="kdenlive:folderid">-1</property>
  <property name="kdenlive:id">121</property>
  <property name="kdenlive:clip_type">1</property>
  <property name="kdenlive:file_size">92515</property>
  <property name="kdenlive:file_hash">5b3f1447edf760ae6635568d04178ca2</property>
  <property name="kdenlive:audio_max0">148</property>
  <property name="meta.media.nb_streams">1</property>
  <property name="meta.media.0.stream.type">audio</property>
  <property name="meta.media.0.codec.sample_fmt">fltp</property>
  <property name="meta.media.0.codec.sample_rate">48000</property>
  <property name="meta.media.0.codec.channels">2</property>
  <property name="meta.media.0.codec.layout">stereo</property>
  <property name="meta.media.0.codec.name">aac</property>
  <property name="meta.media.0.codec.long_name">AAC (Advanced Audio Coding)</property>
  <property name="meta.media.0.codec.bit_rate">148000</property>
  <property name="meta.attr.0.stream.creation_time.markup">2024-08-05T01:14:03.000000Z</property>
  <property name="meta.attr.0.stream.language.markup">eng</property>
  <property name="meta.attr.0.stream.handler_name.markup">SoundHandle</property>
  <property name="meta.attr.0.stream.vendor_id.markup">[0][0][0][0]</property>
  <property name="meta.attr.major_brand.markup">mp42</property>
  <property name="meta.attr.minor_version.markup">0</property>
  <property name="meta.attr.compatible_brands.markup">isommp42</property>
  <property name="meta.attr.creation_time.markup">2024-08-05T01:14:03.000000Z</property>
  <property name="meta.attr.com.android.version.markup">12</property>
  <property name="xml">was here</property>
  <property name="mute_on_pause">0</property>
  <property name="set.test_audio">0</property>
  <property name="set.test_image">1</property>
 </chain>
 <chain id="chain148" out="00:00:05.320">
  <property name="length">134</property>
  <property name="eof">pause</property>
  <property name="resource">excptnooooooo.m4a</property>
  <property name="mlt_service">avformat-novalidate</property>
  <property name="seekable">1</property>
  <property name="audio_index">0</property>
  <property name="video_index">-1</property>
  <property name="astream">0</property>
  <property name="kdenlive:folderid">-1</property>
  <property name="kdenlive:id">119</property>
  <property name="kdenlive:clip_type">1</property>
  <property name="kdenlive:file_size">102785</property>
  <property name="kdenlive:file_hash">b9fe159deefa5c82a8e3cf7529a58e63</property>
  <property name="kdenlive:audio_max0">144</property>
  <property name="meta.media.nb_streams">1</property>
  <property name="meta.media.0.stream.type">audio</property>
  <property name="meta.media.0.codec.sample_fmt">fltp</property>
  <property name="meta.media.0.codec.sample_rate">48000</property>
  <property name="meta.media.0.codec.channels">2</property>
  <property name="meta.media.0.codec.layout">stereo</property>
  <property name="meta.media.0.codec.name">aac</property>
  <property name="meta.media.0.codec.long_name">AAC (Advanced Audio Coding)</property>
  <property name="meta.media.0.codec.bit_rate">148001</property>
  <property name="meta.attr.0.stream.creation_time.markup">2024-08-05T01:15:08.000000Z</property>
  <property name="meta.attr.0.stream.language.markup">eng</property>
  <property name="meta.attr.0.stream.handler_name.markup">SoundHandle</property>
  <property name="meta.attr.0.stream.vendor_id.markup">[0][0][0][0]</property>
  <property name="meta.attr.major_brand.markup">mp42</property>
  <property name="meta.attr.minor_version.markup">0</property>
  <property name="meta.attr.compatible_brands.markup">isommp42</property>
  <property name="meta.attr.creation_time.markup">2024-08-05T01:15:08.000000Z</property>
  <property name="meta.attr.com.android.version.markup">12</property>
  <property name="xml">was here</property>
  <property name="mute_on_pause">0</property>
  <property name="set.test_audio">0</property>
  <property name="set.test_image">1</property>
 </chain>
 <chain id="chain149" out="00:00:04.040">
  <property name="length">102</property>
  <property name="eof">pause</property>
  <property name="resource">thisisabadway.m4a</property>
  <property name="mlt_service">avformat-novalidate</property>
  <property name="seekable">1</property>
  <property name="audio_index">0</property>
  <property name="video_index">-1</property>
  <property name="astream">0</property>
  <property name="kdenlive:folderid">-1</property>
  <property name="kdenlive:id">118</property>
  <property name="kdenlive:clip_type">1</property>
  <property name="kdenlive:file_size">78694</property>
  <property name="kdenlive:file_hash">f0bd24a4d740ac23c3a068c4bf97c57d</property>
  <property name="kdenlive:audio_max0">135</property>
  <property name="meta.media.nb_streams">1</property>
  <property name="meta.media.0.stream.type">audio</property>
  <property name="meta.media.0.codec.sample_fmt">fltp</property>
  <property name="meta.media.0.codec.sample_rate">48000</property>
  <property name="meta.media.0.codec.channels">2</property>
  <property name="meta.media.0.codec.layout">stereo</property>
  <property name="meta.media.0.codec.name">aac</property>
  <property name="meta.media.0.codec.long_name">AAC (Advanced Audio Coding)</property>
  <property name="meta.media.0.codec.bit_rate">148001</property>
  <property name="meta.attr.0.stream.creation_time.markup">2024-08-05T01:15:59.000000Z</property>
  <property name="meta.attr.0.stream.language.markup">eng</property>
  <property name="meta.attr.0.stream.handler_name.markup">SoundHandle</property>
  <property name="meta.attr.0.stream.vendor_id.markup">[0][0][0][0]</property>
  <property name="meta.attr.major_brand.markup">mp42</property>
  <property name="meta.attr.minor_version.markup">0</property>
  <property name="meta.attr.compatible_brands.markup">isommp42</property>
  <property name="meta.attr.creation_time.markup">2024-08-05T01:15:59.000000Z</property>
  <property name="meta.attr.com.android.version.markup">12</property>
  <property name="xml">was here</property>
  <property name="mute_on_pause">0</property>
  <property name="set.test_audio">0</property>
  <property name="set.test_image">1</property>
 </chain>
 <chain id="chain150" out="00:00:03.200">
  <property name="length">81</property>
  <property name="eof">pause</property>
  <property name="resource">youarethemain.m4a</property>
  <property name="mlt_service">avformat-novalidate</property>
  <property name="seekable">1</property>
  <property name="audio_index">0</property>
  <property name="video_index">-1</property>
  <property name="astream">0</property>
  <property name="kdenlive:folderid">-1</property>
  <property name="kdenlive:id">117</property>
  <property name="kdenlive:clip_type">1</property>
  <property name="kdenlive:file_size">62897</property>
  <property name="kdenlive:file_hash">9350ba9222e8d2783977320ef39d5fef</property>
  <property name="kdenlive:audio_max0">144</property>
  <property name="meta.media.nb_streams">1</property>
  <property name="meta.media.0.stream.type">audio</property>
  <property name="meta.media.0.codec.sample_fmt">fltp</property>
  <property name="meta.media.0.codec.sample_rate">48000</property>
  <property name="meta.media.0.codec.channels">2</property>
  <property name="meta.media.0.codec.layout">stereo</property>
  <property name="meta.media.0.codec.name">aac</property>
  <property name="meta.media.0.codec.long_name">AAC (Advanced Audio Coding)</property>
  <property name="meta.media.0.codec.bit_rate">148000</property>
  <property name="meta.attr.0.stream.creation_time.markup">2024-08-05T01:16:42.000000Z</property>
  <property name="meta.attr.0.stream.language.markup">eng</property>
  <property name="meta.attr.0.stream.handler_name.markup">SoundHandle</property>
  <property name="meta.attr.0.stream.vendor_id.markup">[0][0][0][0]</property>
  <property name="meta.attr.major_brand.markup">mp42</property>
  <property name="meta.attr.minor_version.markup">0</property>
  <property name="meta.attr.compatible_brands.markup">isommp42</property>
  <property name="meta.attr.creation_time.markup">2024-08-05T01:16:42.000000Z</property>
  <property name="meta.attr.com.android.version.markup">12</property>
  <property name="xml">was here</property>
  <property name="mute_on_pause">0</property>
  <property name="set.test_audio">0</property>
  <property name="set.test_image">1</property>
 </chain>
 <chain id="chain151" out="00:00:05.480">
  <property name="length">138</property>
  <property name="eof">pause</property>
  <property name="resource">weknowthatwecan.m4a</property>
  <property name="mlt_service">avformat-novalidate</property>
  <property name="seekable">1</property>
  <property name="audio_index">0</property>
  <property name="video_index">-1</property>
  <property name="astream">0</property>
  <property name="kdenlive:folderid">-1</property>
  <property name="kdenlive:id">115</property>
  <property name="kdenlive:clip_type">1</property>
  <property name="kdenlive:file_size">105548</property>
  <property name="kdenlive:file_hash">19d42394558990540e405aa3bba5624e</property>
  <property name="kdenlive:audio_max0">151</property>
  <property name="meta.media.nb_streams">1</property>
  <property name="meta.media.0.stream.type">audio</property>
  <property name="meta.media.0.codec.sample_fmt">fltp</property>
  <property name="meta.media.0.codec.sample_rate">48000</property>
  <property name="meta.media.0.codec.channels">2</property>
  <property name="meta.media.0.codec.layout">stereo</property>
  <property name="meta.media.0.codec.name">aac</property>
  <property name="meta.media.0.codec.long_name">AAC (Advanced Audio Coding)</property>
  <property name="meta.media.0.codec.bit_rate">147999</property>
  <property name="meta.attr.0.stream.creation_time.markup">2024-08-05T01:17:55.000000Z</property>
  <property name="meta.attr.0.stream.language.markup">eng</property>
  <property name="meta.attr.0.stream.handler_name.markup">SoundHandle</property>
  <property name="meta.attr.0.stream.vendor_id.markup">[0][0][0][0]</property>
  <property name="meta.attr.major_brand.markup">mp42</property>
  <property name="meta.attr.minor_version.markup">0</property>
  <property name="meta.attr.compatible_brands.markup">isommp42</property>
  <property name="meta.attr.creation_time.markup">2024-08-05T01:17:55.000000Z</property>
  <property name="meta.attr.com.android.version.markup">12</property>
  <property name="xml">was here</property>
  <property name="mute_on_pause">0</property>
  <property name="set.test_audio">0</property>
  <property name="set.test_image">1</property>
 </chain>
 <chain id="chain152" out="00:00:04.480">
  <property name="length">113</property>
  <property name="eof">pause</property>
  <property name="resource">guide.m4a</property>
  <property name="mlt_service">avformat-novalidate</property>
  <property name="seekable">1</property>
  <property name="audio_index">0</property>
  <property name="video_index">-1</property>
  <property name="astream">0</property>
  <property name="kdenlive:folderid">-1</property>
  <property name="kdenlive:id">116</property>
  <property name="kdenlive:clip_type">1</property>
  <property name="kdenlive:file_size">86593</property>
  <property name="kdenlive:file_hash">75d06a1ffb84ca18477173cd7b68275e</property>
  <property name="kdenlive:audio_max0">139</property>
  <property name="meta.media.nb_streams">1</property>
  <property name="meta.media.0.stream.type">audio</property>
  <property name="meta.media.0.codec.sample_fmt">fltp</property>
  <property name="meta.media.0.codec.sample_rate">48000</property>
  <property name="meta.media.0.codec.channels">2</property>
  <property name="meta.media.0.codec.layout">stereo</property>
  <property name="meta.media.0.codec.name">aac</property>
  <property name="meta.media.0.codec.long_name">AAC (Advanced Audio Coding)</property>
  <property name="meta.media.0.codec.bit_rate">148000</property>
  <property name="meta.attr.0.stream.creation_time.markup">2024-08-05T01:18:37.000000Z</property>
  <property name="meta.attr.0.stream.language.markup">eng</property>
  <property name="meta.attr.0.stream.handler_name.markup">SoundHandle</property>
  <property name="meta.attr.0.stream.vendor_id.markup">[0][0][0][0]</property>
  <property name="meta.attr.major_brand.markup">mp42</property>
  <property name="meta.attr.minor_version.markup">0</property>
  <property name="meta.attr.compatible_brands.markup">isommp42</property>
  <property name="meta.attr.creation_time.markup">2024-08-05T01:18:37.000000Z</property>
  <property name="meta.attr.com.android.version.markup">12</property>
  <property name="xml">was here</property>
  <property name="mute_on_pause">0</property>
  <property name="set.test_audio">0</property>
  <property name="set.test_image">1</property>
 </chain>
 <chain id="chain153" out="00:00:06.120">
  <property name="length">154</property>
  <property name="eof">pause</property>
  <property name="resource">while.m4a</property>
  <property name="mlt_service">avformat-novalidate</property>
  <property name="seekable">1</property>
  <property name="audio_index">0</property>
  <property name="video_index">-1</property>
  <property name="astream">0</property>
  <property name="kdenlive:folderid">-1</property>
  <property name="kdenlive:id">113</property>
  <property name="kdenlive:clip_type">1</property>
  <property name="kdenlive:file_size">117394</property>
  <property name="kdenlive:file_hash">ff959fabc05979f67c9d4c7ec91e1d62</property>
  <property name="kdenlive:audio_max0">150</property>
  <property name="meta.media.nb_streams">1</property>
  <property name="meta.media.0.stream.type">audio</property>
  <property name="meta.media.0.codec.sample_fmt">fltp</property>
  <property name="meta.media.0.codec.sample_rate">48000</property>
  <property name="meta.media.0.codec.channels">2</property>
  <property name="meta.media.0.codec.layout">stereo</property>
  <property name="meta.media.0.codec.name">aac</property>
  <property name="meta.media.0.codec.long_name">AAC (Advanced Audio Coding)</property>
  <property name="meta.media.0.codec.bit_rate">147999</property>
  <property name="meta.attr.0.stream.creation_time.markup">2024-08-05T01:20:17.000000Z</property>
  <property name="meta.attr.0.stream.language.markup">eng</property>
  <property name="meta.attr.0.stream.handler_name.markup">SoundHandle</property>
  <property name="meta.attr.0.stream.vendor_id.markup">[0][0][0][0]</property>
  <property name="meta.attr.major_brand.markup">mp42</property>
  <property name="meta.attr.minor_version.markup">0</property>
  <property name="meta.attr.compatible_brands.markup">isommp42</property>
  <property name="meta.attr.creation_time.markup">2024-08-05T01:20:17.000000Z</property>
  <property name="meta.attr.com.android.version.markup">12</property>
  <property name="xml">was here</property>
  <property name="mute_on_pause">0</property>
  <property name="set.test_audio">0</property>
  <property name="set.test_image">1</property>
 </chain>
 <chain id="chain154" out="00:00:02.400">
  <property name="length">61</property>
  <property name="eof">pause</property>
  <property name="resource">thereisaproblem.m4a</property>
  <property name="mlt_service">avformat-novalidate</property>
  <property name="seekable">1</property>
  <property name="audio_index">0</property>
  <property name="video_index">-1</property>
  <property name="astream">0</property>
  <property name="kdenlive:folderid">-1</property>
  <property name="kdenlive:id">114</property>
  <property name="kdenlive:clip_type">1</property>
  <property name="kdenlive:file_size">48678</property>
  <property name="kdenlive:file_hash">bffd59203cf1395ba1961e3399ed3c24</property>
  <property name="kdenlive:audio_max0">133</property>
  <property name="meta.media.nb_streams">1</property>
  <property name="meta.media.0.stream.type">audio</property>
  <property name="meta.media.0.codec.sample_fmt">fltp</property>
  <property name="meta.media.0.codec.sample_rate">48000</property>
  <property name="meta.media.0.codec.channels">2</property>
  <property name="meta.media.0.codec.layout">stereo</property>
  <property name="meta.media.0.codec.name">aac</property>
  <property name="meta.media.0.codec.long_name">AAC (Advanced Audio Coding)</property>
  <property name="meta.media.0.codec.bit_rate">147997</property>
  <property name="meta.attr.0.stream.creation_time.markup">2024-08-05T01:20:43.000000Z</property>
  <property name="meta.attr.0.stream.language.markup">eng</property>
  <property name="meta.attr.0.stream.handler_name.markup">SoundHandle</property>
  <property name="meta.attr.0.stream.vendor_id.markup">[0][0][0][0]</property>
  <property name="meta.attr.major_brand.markup">mp42</property>
  <property name="meta.attr.minor_version.markup">0</property>
  <property name="meta.attr.compatible_brands.markup">isommp42</property>
  <property name="meta.attr.creation_time.markup">2024-08-05T01:20:43.000000Z</property>
  <property name="meta.attr.com.android.version.markup">12</property>
  <property name="xml">was here</property>
  <property name="mute_on_pause">0</property>
  <property name="set.test_audio">0</property>
  <property name="set.test_image">1</property>
 </chain>
 <chain id="chain155" out="00:00:05.680">
  <property name="length">143</property>
  <property name="eof">pause</property>
  <property name="resource">youcantexp.m4a</property>
  <property name="mlt_service">avformat-novalidate</property>
  <property name="seekable">1</property>
  <property name="audio_index">0</property>
  <property name="video_index">-1</property>
  <property name="astream">0</property>
  <property name="kdenlive:folderid">-1</property>
  <property name="kdenlive:id">112</property>
  <property name="kdenlive:clip_type">1</property>
  <property name="kdenlive:file_size">109496</property>
  <property name="kdenlive:file_hash">11b279bcb9bc9765453ec299929af9ad</property>
  <property name="kdenlive:audio_max0">133</property>
  <property name="meta.media.nb_streams">1</property>
  <property name="meta.media.0.stream.type">audio</property>
  <property name="meta.media.0.codec.sample_fmt">fltp</property>
  <property name="meta.media.0.codec.sample_rate">48000</property>
  <property name="meta.media.0.codec.channels">2</property>
  <property name="meta.media.0.codec.layout">stereo</property>
  <property name="meta.media.0.codec.name">aac</property>
  <property name="meta.media.0.codec.long_name">AAC (Advanced Audio Coding)</property>
  <property name="meta.media.0.codec.bit_rate">148000</property>
  <property name="meta.attr.0.stream.creation_time.markup">2024-08-05T01:22:02.000000Z</property>
  <property name="meta.attr.0.stream.language.markup">eng</property>
  <property name="meta.attr.0.stream.handler_name.markup">SoundHandle</property>
  <property name="meta.attr.0.stream.vendor_id.markup">[0][0][0][0]</property>
  <property name="meta.attr.major_brand.markup">mp42</property>
  <property name="meta.attr.minor_version.markup">0</property>
  <property name="meta.attr.compatible_brands.markup">isommp42</property>
  <property name="meta.attr.creation_time.markup">2024-08-05T01:22:02.000000Z</property>
  <property name="meta.attr.com.android.version.markup">12</property>
  <property name="xml">was here</property>
  <property name="mute_on_pause">0</property>
  <property name="set.test_audio">0</property>
  <property name="set.test_image">1</property>
 </chain>
 <chain id="chain156" out="00:00:07.080">
  <property name="length">178</property>
  <property name="eof">pause</property>
  <property name="resource">onekey.m4a</property>
  <property name="mlt_service">avformat-novalidate</property>
  <property name="seekable">1</property>
  <property name="audio_index">0</property>
  <property name="video_index">-1</property>
  <property name="astream">0</property>
  <property name="kdenlive:folderid">-1</property>
  <property name="kdenlive:id">110</property>
  <property name="kdenlive:clip_type">1</property>
  <property name="kdenlive:file_size">134773</property>
  <property name="kdenlive:file_hash">f863fea1722cfa0374e55d4d3f15f47e</property>
  <property name="kdenlive:audio_max0">160</property>
  <property name="meta.media.nb_streams">1</property>
  <property name="meta.media.0.stream.type">audio</property>
  <property name="meta.media.0.codec.sample_fmt">fltp</property>
  <property name="meta.media.0.codec.sample_rate">48000</property>
  <property name="meta.media.0.codec.channels">2</property>
  <property name="meta.media.0.codec.layout">stereo</property>
  <property name="meta.media.0.codec.name">aac</property>
  <property name="meta.media.0.codec.long_name">AAC (Advanced Audio Coding)</property>
  <property name="meta.media.0.codec.bit_rate">148001</property>
  <property name="meta.attr.0.stream.creation_time.markup">2024-08-05T01:31:57.000000Z</property>
  <property name="meta.attr.0.stream.language.markup">eng</property>
  <property name="meta.attr.0.stream.handler_name.markup">SoundHandle</property>
  <property name="meta.attr.0.stream.vendor_id.markup">[0][0][0][0]</property>
  <property name="meta.attr.major_brand.markup">mp42</property>
  <property name="meta.attr.minor_version.markup">0</property>
  <property name="meta.attr.compatible_brands.markup">isommp42</property>
  <property name="meta.attr.creation_time.markup">2024-08-05T01:31:57.000000Z</property>
  <property name="meta.attr.com.android.version.markup">12</property>
  <property name="xml">was here</property>
  <property name="mute_on_pause">0</property>
  <property name="set.test_audio">0</property>
  <property name="set.test_image">1</property>
 </chain>
 <chain id="chain157" out="00:00:02.160">
  <property name="length">55</property>
  <property name="eof">pause</property>
  <property name="resource">isemagens.m4a</property>
  <property name="mlt_service">avformat-novalidate</property>
  <property name="seekable">1</property>
  <property name="audio_index">0</property>
  <property name="video_index">-1</property>
  <property name="astream">0</property>
  <property name="kdenlive:folderid">-1</property>
  <property name="kdenlive:id">111</property>
  <property name="kdenlive:clip_type">1</property>
  <property name="kdenlive:file_size">43940</property>
  <property name="kdenlive:file_hash">1112bb09b999ccb186f1441bf2544d9d</property>
  <property name="kdenlive:audio_max0">151</property>
  <property name="meta.media.nb_streams">1</property>
  <property name="meta.media.0.stream.type">audio</property>
  <property name="meta.media.0.codec.sample_fmt">fltp</property>
  <property name="meta.media.0.codec.sample_rate">48000</property>
  <property name="meta.media.0.codec.channels">2</property>
  <property name="meta.media.0.codec.layout">stereo</property>
  <property name="meta.media.0.codec.name">aac</property>
  <property name="meta.media.0.codec.long_name">AAC (Advanced Audio Coding)</property>
  <property name="meta.media.0.codec.bit_rate">147997</property>
  <property name="meta.attr.0.stream.creation_time.markup">2024-08-05T01:33:13.000000Z</property>
  <property name="meta.attr.0.stream.language.markup">eng</property>
  <property name="meta.attr.0.stream.handler_name.markup">SoundHandle</property>
  <property name="meta.attr.0.stream.vendor_id.markup">[0][0][0][0]</property>
  <property name="meta.attr.major_brand.markup">mp42</property>
  <property name="meta.attr.minor_version.markup">0</property>
  <property name="meta.attr.compatible_brands.markup">isommp42</property>
  <property name="meta.attr.creation_time.markup">2024-08-05T01:33:13.000000Z</property>
  <property name="meta.attr.com.android.version.markup">12</property>
  <property name="xml">was here</property>
  <property name="mute_on_pause">0</property>
  <property name="set.test_audio">0</property>
  <property name="set.test_image">1</property>
 </chain>
 <chain id="chain158" out="00:00:03.880">
  <property name="length">98</property>
  <property name="eof">pause</property>
  <property name="resource">emageniswhenmany.m4a</property>
  <property name="mlt_service">avformat-novalidate</property>
  <property name="seekable">1</property>
  <property name="audio_index">0</property>
  <property name="video_index">-1</property>
  <property name="astream">0</property>
  <property name="kdenlive:folderid">-1</property>
  <property name="kdenlive:id">109</property>
  <property name="kdenlive:clip_type">1</property>
  <property name="kdenlive:file_size">75928</property>
  <property name="kdenlive:file_hash">ee326efe5927f1175f3330a4ff207e97</property>
  <property name="kdenlive:audio_max0">149</property>
  <property name="meta.media.nb_streams">1</property>
  <property name="meta.media.0.stream.type">audio</property>
  <property name="meta.media.0.codec.sample_fmt">fltp</property>
  <property name="meta.media.0.codec.sample_rate">48000</property>
  <property name="meta.media.0.codec.channels">2</property>
  <property name="meta.media.0.codec.layout">stereo</property>
  <property name="meta.media.0.codec.name">aac</property>
  <property name="meta.media.0.codec.long_name">AAC (Advanced Audio Coding)</property>
  <property name="meta.media.0.codec.bit_rate">147998</property>
  <property name="meta.attr.0.stream.creation_time.markup">2024-08-05T01:33:33.000000Z</property>
  <property name="meta.attr.0.stream.language.markup">eng</property>
  <property name="meta.attr.0.stream.handler_name.markup">SoundHandle</property>
  <property name="meta.attr.0.stream.vendor_id.markup">[0][0][0][0]</property>
  <property name="meta.attr.major_brand.markup">mp42</property>
  <property name="meta.attr.minor_version.markup">0</property>
  <property name="meta.attr.compatible_brands.markup">isommp42</property>
  <property name="meta.attr.creation_time.markup">2024-08-05T01:33:33.000000Z</property>
  <property name="meta.attr.com.android.version.markup">12</property>
  <property name="xml">was here</property>
  <property name="mute_on_pause">0</property>
  <property name="set.test_audio">0</property>
  <property name="set.test_image">1</property>
 </chain>
 <chain id="chain159" out="00:00:04.440">
  <property name="length">112</property>
  <property name="eof">pause</property>
  <property name="resource">creatnew.m4a</property>
  <property name="mlt_service">avformat-novalidate</property>
  <property name="seekable">1</property>
  <property name="audio_index">0</property>
  <property name="video_index">-1</property>
  <property name="astream">0</property>
  <property name="kdenlive:folderid">-1</property>
  <property name="kdenlive:id">107</property>
  <property name="kdenlive:clip_type">1</property>
  <property name="kdenlive:file_size">86197</property>
  <property name="kdenlive:file_hash">24ef05d95d1b308567b597cfd0a18126</property>
  <property name="kdenlive:audio_max0">153</property>
  <property name="meta.media.nb_streams">1</property>
  <property name="meta.media.0.stream.type">audio</property>
  <property name="meta.media.0.codec.sample_fmt">fltp</property>
  <property name="meta.media.0.codec.sample_rate">48000</property>
  <property name="meta.media.0.codec.channels">2</property>
  <property name="meta.media.0.codec.layout">stereo</property>
  <property name="meta.media.0.codec.name">aac</property>
  <property name="meta.media.0.codec.long_name">AAC (Advanced Audio Coding)</property>
  <property name="meta.media.0.codec.bit_rate">148001</property>
  <property name="meta.attr.0.stream.creation_time.markup">2024-08-05T01:35:09.000000Z</property>
  <property name="meta.attr.0.stream.language.markup">eng</property>
  <property name="meta.attr.0.stream.handler_name.markup">SoundHandle</property>
  <property name="meta.attr.0.stream.vendor_id.markup">[0][0][0][0]</property>
  <property name="meta.attr.major_brand.markup">mp42</property>
  <property name="meta.attr.minor_version.markup">0</property>
  <property name="meta.attr.compatible_brands.markup">isommp42</property>
  <property name="meta.attr.creation_time.markup">2024-08-05T01:35:09.000000Z</property>
  <property name="meta.attr.com.android.version.markup">12</property>
  <property name="xml">was here</property>
  <property name="mute_on_pause">0</property>
  <property name="set.test_audio">0</property>
  <property name="set.test_image">1</property>
 </chain>
 <chain id="chain160" out="00:00:06.160">
  <property name="length">155</property>
  <property name="eof">pause</property>
  <property name="resource">adropofwater.m4a</property>
  <property name="mlt_service">avformat-novalidate</property>
  <property name="seekable">1</property>
  <property name="audio_index">0</property>
  <property name="video_index">-1</property>
  <property name="astream">0</property>
  <property name="kdenlive:folderid">-1</property>
  <property name="kdenlive:id">108</property>
  <property name="kdenlive:clip_type">1</property>
  <property name="kdenlive:file_size">118185</property>
  <property name="kdenlive:file_hash">d4aa47f7286aa5f5522f4f8fa62bbe17</property>
  <property name="kdenlive:audio_max0">158</property>
  <property name="kdenlive:monitorPosition">1</property>
  <property name="meta.media.nb_streams">1</property>
  <property name="meta.media.0.stream.type">audio</property>
  <property name="meta.media.0.codec.sample_fmt">fltp</property>
  <property name="meta.media.0.codec.sample_rate">48000</property>
  <property name="meta.media.0.codec.channels">2</property>
  <property name="meta.media.0.codec.layout">stereo</property>
  <property name="meta.media.0.codec.name">aac</property>
  <property name="meta.media.0.codec.long_name">AAC (Advanced Audio Coding)</property>
  <property name="meta.media.0.codec.bit_rate">148001</property>
  <property name="meta.attr.0.stream.creation_time.markup">2024-08-05T01:36:34.000000Z</property>
  <property name="meta.attr.0.stream.language.markup">eng</property>
  <property name="meta.attr.0.stream.handler_name.markup">SoundHandle</property>
  <property name="meta.attr.0.stream.vendor_id.markup">[0][0][0][0]</property>
  <property name="meta.attr.major_brand.markup">mp42</property>
  <property name="meta.attr.minor_version.markup">0</property>
  <property name="meta.attr.compatible_brands.markup">isommp42</property>
  <property name="meta.attr.creation_time.markup">2024-08-05T01:36:34.000000Z</property>
  <property name="meta.attr.com.android.version.markup">12</property>
  <property name="xml">was here</property>
  <property name="mute_on_pause">0</property>
  <property name="set.test_audio">0</property>
  <property name="set.test_image">1</property>
 </chain>
 <chain id="chain161" out="00:00:05.280">
  <property name="length">133</property>
  <property name="eof">pause</property>
  <property name="resource">ifyougetwateronyoupants.m4a</property>
  <property name="mlt_service">avformat-novalidate</property>
  <property name="seekable">1</property>
  <property name="audio_index">0</property>
  <property name="video_index">-1</property>
  <property name="astream">0</property>
  <property name="kdenlive:folderid">-1</property>
  <property name="kdenlive:id">106</property>
  <property name="kdenlive:clip_type">1</property>
  <property name="kdenlive:file_size">101993</property>
  <property name="kdenlive:file_hash">0189b032c112692849b26832a14a0cfa</property>
  <property name="kdenlive:audio_max0">149</property>
  <property name="meta.media.nb_streams">1</property>
  <property name="meta.media.0.stream.type">audio</property>
  <property name="meta.media.0.codec.sample_fmt">fltp</property>
  <property name="meta.media.0.codec.sample_rate">48000</property>
  <property name="meta.media.0.codec.channels">2</property>
  <property name="meta.media.0.codec.layout">stereo</property>
  <property name="meta.media.0.codec.name">aac</property>
  <property name="meta.media.0.codec.long_name">AAC (Advanced Audio Coding)</property>
  <property name="meta.media.0.codec.bit_rate">148000</property>
  <property name="meta.attr.0.stream.creation_time.markup">2024-08-05T01:37:12.000000Z</property>
  <property name="meta.attr.0.stream.language.markup">eng</property>
  <property name="meta.attr.0.stream.handler_name.markup">SoundHandle</property>
  <property name="meta.attr.0.stream.vendor_id.markup">[0][0][0][0]</property>
  <property name="meta.attr.major_brand.markup">mp42</property>
  <property name="meta.attr.minor_version.markup">0</property>
  <property name="meta.attr.compatible_brands.markup">isommp42</property>
  <property name="meta.attr.creation_time.markup">2024-08-05T01:37:12.000000Z</property>
  <property name="meta.attr.com.android.version.markup">12</property>
  <property name="xml">was here</property>
  <property name="mute_on_pause">0</property>
  <property name="set.test_audio">0</property>
  <property name="set.test_image">1</property>
 </chain>
 <chain id="chain162" out="00:00:02.800">
  <property name="length">71</property>
  <property name="eof">pause</property>
  <property name="resource">butwhatiswteness.m4a</property>
  <property name="mlt_service">avformat-novalidate</property>
  <property name="seekable">1</property>
  <property name="audio_index">0</property>
  <property name="video_index">-1</property>
  <property name="astream">0</property>
  <property name="kdenlive:folderid">-1</property>
  <property name="kdenlive:id">105</property>
  <property name="kdenlive:clip_type">1</property>
  <property name="kdenlive:file_size">55788</property>
  <property name="kdenlive:file_hash">3813897ea04f97cec38e995151cdf33f</property>
  <property name="kdenlive:audio_max0">154</property>
  <property name="meta.media.nb_streams">1</property>
  <property name="meta.media.0.stream.type">audio</property>
  <property name="meta.media.0.codec.sample_fmt">fltp</property>
  <property name="meta.media.0.codec.sample_rate">48000</property>
  <property name="meta.media.0.codec.channels">2</property>
  <property name="meta.media.0.codec.layout">stereo</property>
  <property name="meta.media.0.codec.name">aac</property>
  <property name="meta.media.0.codec.long_name">AAC (Advanced Audio Coding)</property>
  <property name="meta.media.0.codec.bit_rate">147998</property>
  <property name="meta.attr.0.stream.creation_time.markup">2024-08-05T01:37:43.000000Z</property>
  <property name="meta.attr.0.stream.language.markup">eng</property>
  <property name="meta.attr.0.stream.handler_name.markup">SoundHandle</property>
  <property name="meta.attr.0.stream.vendor_id.markup">[0][0][0][0]</property>
  <property name="meta.attr.major_brand.markup">mp42</property>
  <property name="meta.attr.minor_version.markup">0</property>
  <property name="meta.attr.compatible_brands.markup">isommp42</property>
  <property name="meta.attr.creation_time.markup">2024-08-05T01:37:43.000000Z</property>
  <property name="meta.attr.com.android.version.markup">12</property>
  <property name="xml">was here</property>
  <property name="mute_on_pause">0</property>
  <property name="set.test_audio">0</property>
  <property name="set.test_image">1</property>
 </chain>
 <chain id="chain163" out="00:00:03.360">
  <property name="length">85</property>
  <property name="eof">pause</property>
  <property name="resource">H2Oarenot.m4a</property>
  <property name="mlt_service">avformat-novalidate</property>
  <property name="seekable">1</property>
  <property name="audio_index">0</property>
  <property name="video_index">-1</property>
  <property name="astream">0</property>
  <property name="kdenlive:folderid">-1</property>
  <property name="kdenlive:id">104</property>
  <property name="kdenlive:clip_type">1</property>
  <property name="kdenlive:file_size">66450</property>
  <property name="kdenlive:file_hash">42d952c0754c7b403b8bfec6dd350603</property>
  <property name="kdenlive:audio_max0">148</property>
  <property name="meta.media.nb_streams">1</property>
  <property name="meta.media.0.stream.type">audio</property>
  <property name="meta.media.0.codec.sample_fmt">fltp</property>
  <property name="meta.media.0.codec.sample_rate">48000</property>
  <property name="meta.media.0.codec.channels">2</property>
  <property name="meta.media.0.codec.layout">stereo</property>
  <property name="meta.media.0.codec.name">aac</property>
  <property name="meta.media.0.codec.long_name">AAC (Advanced Audio Coding)</property>
  <property name="meta.media.0.codec.bit_rate">147998</property>
  <property name="meta.attr.0.stream.creation_time.markup">2024-08-05T01:37:56.000000Z</property>
  <property name="meta.attr.0.stream.language.markup">eng</property>
  <property name="meta.attr.0.stream.handler_name.markup">SoundHandle</property>
  <property name="meta.attr.0.stream.vendor_id.markup">[0][0][0][0]</property>
  <property name="meta.attr.major_brand.markup">mp42</property>
  <property name="meta.attr.minor_version.markup">0</property>
  <property name="meta.attr.compatible_brands.markup">isommp42</property>
  <property name="meta.attr.creation_time.markup">2024-08-05T01:37:56.000000Z</property>
  <property name="meta.attr.com.android.version.markup">12</property>
  <property name="xml">was here</property>
  <property name="mute_on_pause">0</property>
  <property name="set.test_audio">0</property>
  <property name="set.test_image">1</property>
 </chain>
 <chain id="chain164" out="00:00:02.920">
  <property name="length">74</property>
  <property name="eof">pause</property>
  <property name="resource">butyourpants.m4a</property>
  <property name="mlt_service">avformat-novalidate</property>
  <property name="seekable">1</property>
  <property name="audio_index">0</property>
  <property name="video_index">-1</property>
  <property name="astream">0</property>
  <property name="kdenlive:folderid">-1</property>
  <property name="kdenlive:id">103</property>
  <property name="kdenlive:clip_type">1</property>
  <property name="kdenlive:file_size">57762</property>
  <property name="kdenlive:file_hash">dcf5d8b14d78396db0bcccb14842f854</property>
  <property name="kdenlive:audio_max0">149</property>
  <property name="meta.media.nb_streams">1</property>
  <property name="meta.media.0.stream.type">audio</property>
  <property name="meta.media.0.codec.sample_fmt">fltp</property>
  <property name="meta.media.0.codec.sample_rate">48000</property>
  <property name="meta.media.0.codec.channels">2</property>
  <property name="meta.media.0.codec.layout">stereo</property>
  <property name="meta.media.0.codec.name">aac</property>
  <property name="meta.media.0.codec.long_name">AAC (Advanced Audio Coding)</property>
  <property name="meta.media.0.codec.bit_rate">148000</property>
  <property name="meta.attr.0.stream.creation_time.markup">2024-08-05T01:39:16.000000Z</property>
  <property name="meta.attr.0.stream.language.markup">eng</property>
  <property name="meta.attr.0.stream.handler_name.markup">SoundHandle</property>
  <property name="meta.attr.0.stream.vendor_id.markup">[0][0][0][0]</property>
  <property name="meta.attr.major_brand.markup">mp42</property>
  <property name="meta.attr.minor_version.markup">0</property>
  <property name="meta.attr.compatible_brands.markup">isommp42</property>
  <property name="meta.attr.creation_time.markup">2024-08-05T01:39:16.000000Z</property>
  <property name="meta.attr.com.android.version.markup">12</property>
  <property name="xml">was here</property>
  <property name="mute_on_pause">0</property>
  <property name="set.test_audio">0</property>
  <property name="set.test_image">1</property>
 </chain>
 <chain id="chain165" out="00:00:03.840">
  <property name="length">97</property>
  <property name="eof">pause</property>
  <property name="resource">manysmallthings.m4a</property>
  <property name="mlt_service">avformat-novalidate</property>
  <property name="seekable">1</property>
  <property name="audio_index">0</property>
  <property name="video_index">-1</property>
  <property name="astream">0</property>
  <property name="kdenlive:folderid">-1</property>
  <property name="kdenlive:id">102</property>
  <property name="kdenlive:clip_type">1</property>
  <property name="kdenlive:file_size">75139</property>
  <property name="kdenlive:file_hash">5877e9f51805fc3a4335bf782ed3c674</property>
  <property name="kdenlive:audio_max0">147</property>
  <property name="meta.media.nb_streams">1</property>
  <property name="meta.media.0.stream.type">audio</property>
  <property name="meta.media.0.codec.sample_fmt">fltp</property>
  <property name="meta.media.0.codec.sample_rate">48000</property>
  <property name="meta.media.0.codec.channels">2</property>
  <property name="meta.media.0.codec.layout">stereo</property>
  <property name="meta.media.0.codec.name">aac</property>
  <property name="meta.media.0.codec.long_name">AAC (Advanced Audio Coding)</property>
  <property name="meta.media.0.codec.bit_rate">147999</property>
  <property name="meta.attr.0.stream.creation_time.markup">2024-08-05T01:40:11.000000Z</property>
  <property name="meta.attr.0.stream.language.markup">eng</property>
  <property name="meta.attr.0.stream.handler_name.markup">SoundHandle</property>
  <property name="meta.attr.0.stream.vendor_id.markup">[0][0][0][0]</property>
  <property name="meta.attr.major_brand.markup">mp42</property>
  <property name="meta.attr.minor_version.markup">0</property>
  <property name="meta.attr.compatible_brands.markup">isommp42</property>
  <property name="meta.attr.creation_time.markup">2024-08-05T01:40:11.000000Z</property>
  <property name="meta.attr.com.android.version.markup">12</property>
  <property name="xml">was here</property>
  <property name="mute_on_pause">0</property>
  <property name="set.test_audio">0</property>
  <property name="set.test_image">1</property>
 </chain>
 <chain id="chain166" out="00:00:04.440">
  <property name="length">112</property>
  <property name="eof">pause</property>
  <property name="resource">thelevel.m4a</property>
  <property name="mlt_service">avformat-novalidate</property>
  <property name="seekable">1</property>
  <property name="audio_index">0</property>
  <property name="video_index">-1</property>
  <property name="astream">0</property>
  <property name="kdenlive:folderid">-1</property>
  <property name="kdenlive:id">100</property>
  <property name="kdenlive:clip_type">1</property>
  <property name="kdenlive:file_size">86197</property>
  <property name="kdenlive:file_hash">c77560b647bea99571100acaebe0053b</property>
  <property name="kdenlive:audio_max0">153</property>
  <property name="meta.media.nb_streams">1</property>
  <property name="meta.media.0.stream.type">audio</property>
  <property name="meta.media.0.codec.sample_fmt">fltp</property>
  <property name="meta.media.0.codec.sample_rate">48000</property>
  <property name="meta.media.0.codec.channels">2</property>
  <property name="meta.media.0.codec.layout">stereo</property>
  <property name="meta.media.0.codec.name">aac</property>
  <property name="meta.media.0.codec.long_name">AAC (Advanced Audio Coding)</property>
  <property name="meta.media.0.codec.bit_rate">148001</property>
  <property name="meta.attr.0.stream.creation_time.markup">2024-08-05T01:43:38.000000Z</property>
  <property name="meta.attr.0.stream.language.markup">eng</property>
  <property name="meta.attr.0.stream.handler_name.markup">SoundHandle</property>
  <property name="meta.attr.0.stream.vendor_id.markup">[0][0][0][0]</property>
  <property name="meta.attr.major_brand.markup">mp42</property>
  <property name="meta.attr.minor_version.markup">0</property>
  <property name="meta.attr.compatible_brands.markup">isommp42</property>
  <property name="meta.attr.creation_time.markup">2024-08-05T01:43:38.000000Z</property>
  <property name="meta.attr.com.android.version.markup">12</property>
  <property name="xml">was here</property>
  <property name="mute_on_pause">0</property>
  <property name="set.test_audio">0</property>
  <property name="set.test_image">1</property>
 </chain>
 <chain id="chain167" out="00:00:04.000">
  <property name="length">101</property>
  <property name="eof">pause</property>
  <property name="resource">emagens.m4a</property>
  <property name="mlt_service">avformat-novalidate</property>
  <property name="seekable">1</property>
  <property name="audio_index">0</property>
  <property name="video_index">-1</property>
  <property name="astream">0</property>
  <property name="kdenlive:folderid">-1</property>
  <property name="kdenlive:id">101</property>
  <property name="kdenlive:clip_type">1</property>
  <property name="kdenlive:file_size">78298</property>
  <property name="kdenlive:file_hash">7d303d62a566697c6cc36dbf013fa763</property>
  <property name="kdenlive:audio_max0">155</property>
  <property name="meta.media.nb_streams">1</property>
  <property name="meta.media.0.stream.type">audio</property>
  <property name="meta.media.0.codec.sample_fmt">fltp</property>
  <property name="meta.media.0.codec.sample_rate">48000</property>
  <property name="meta.media.0.codec.channels">2</property>
  <property name="meta.media.0.codec.layout">stereo</property>
  <property name="meta.media.0.codec.name">aac</property>
  <property name="meta.media.0.codec.long_name">AAC (Advanced Audio Coding)</property>
  <property name="meta.media.0.codec.bit_rate">147998</property>
  <property name="meta.attr.0.stream.creation_time.markup">2024-08-05T01:45:49.000000Z</property>
  <property name="meta.attr.0.stream.language.markup">eng</property>
  <property name="meta.attr.0.stream.handler_name.markup">SoundHandle</property>
  <property name="meta.attr.0.stream.vendor_id.markup">[0][0][0][0]</property>
  <property name="meta.attr.major_brand.markup">mp42</property>
  <property name="meta.attr.minor_version.markup">0</property>
  <property name="meta.attr.compatible_brands.markup">isommp42</property>
  <property name="meta.attr.creation_time.markup">2024-08-05T01:45:49.000000Z</property>
  <property name="meta.attr.com.android.version.markup">12</property>
  <property name="xml">was here</property>
  <property name="mute_on_pause">0</property>
  <property name="set.test_audio">0</property>
  <property name="set.test_image">1</property>
 </chain>
 <chain id="chain168" out="00:00:03.880">
  <property name="length">98</property>
  <property name="eof">pause</property>
  <property name="resource">andseems.m4a</property>
  <property name="mlt_service">avformat-novalidate</property>
  <property name="seekable">1</property>
  <property name="audio_index">0</property>
  <property name="video_index">-1</property>
  <property name="astream">0</property>
  <property name="kdenlive:folderid">-1</property>
  <property name="kdenlive:id">99</property>
  <property name="kdenlive:clip_type">1</property>
  <property name="kdenlive:file_size">75929</property>
  <property name="kdenlive:file_hash">45fa469a8abda2580cf7ea02adc267dc</property>
  <property name="kdenlive:audio_max0">143</property>
  <property name="meta.media.nb_streams">1</property>
  <property name="meta.media.0.stream.type">audio</property>
  <property name="meta.media.0.codec.sample_fmt">fltp</property>
  <property name="meta.media.0.codec.sample_rate">48000</property>
  <property name="meta.media.0.codec.channels">2</property>
  <property name="meta.media.0.codec.layout">stereo</property>
  <property name="meta.media.0.codec.name">aac</property>
  <property name="meta.media.0.codec.long_name">AAC (Advanced Audio Coding)</property>
  <property name="meta.media.0.codec.bit_rate">148000</property>
  <property name="meta.attr.0.stream.creation_time.markup">2024-08-05T01:48:32.000000Z</property>
  <property name="meta.attr.0.stream.language.markup">eng</property>
  <property name="meta.attr.0.stream.handler_name.markup">SoundHandle</property>
  <property name="meta.attr.0.stream.vendor_id.markup">[0][0][0][0]</property>
  <property name="meta.attr.major_brand.markup">mp42</property>
  <property name="meta.attr.minor_version.markup">0</property>
  <property name="meta.attr.compatible_brands.markup">isommp42</property>
  <property name="meta.attr.creation_time.markup">2024-08-05T01:48:32.000000Z</property>
  <property name="meta.attr.com.android.version.markup">12</property>
  <property name="xml">was here</property>
  <property name="mute_on_pause">0</property>
  <property name="set.test_audio">0</property>
  <property name="set.test_image">1</property>
 </chain>
 <chain id="chain169" out="00:00:07.720">
  <property name="length">194</property>
  <property name="eof">pause</property>
  <property name="resource">atoms___.m4a</property>
  <property name="mlt_service">avformat-novalidate</property>
  <property name="seekable">1</property>
  <property name="audio_index">0</property>
  <property name="video_index">-1</property>
  <property name="astream">0</property>
  <property name="kdenlive:folderid">-1</property>
  <property name="kdenlive:id">98</property>
  <property name="kdenlive:clip_type">1</property>
  <property name="kdenlive:file_size">147013</property>
  <property name="kdenlive:file_hash">9ebddd61180f30e9168c151aa418034c</property>
  <property name="kdenlive:audio_max0">160</property>
  <property name="meta.media.nb_streams">1</property>
  <property name="meta.media.0.stream.type">audio</property>
  <property name="meta.media.0.codec.sample_fmt">fltp</property>
  <property name="meta.media.0.codec.sample_rate">48000</property>
  <property name="meta.media.0.codec.channels">2</property>
  <property name="meta.media.0.codec.layout">stereo</property>
  <property name="meta.media.0.codec.name">aac</property>
  <property name="meta.media.0.codec.long_name">AAC (Advanced Audio Coding)</property>
  <property name="meta.media.0.codec.bit_rate">148000</property>
  <property name="meta.attr.0.stream.creation_time.markup">2024-08-05T01:49:58.000000Z</property>
  <property name="meta.attr.0.stream.language.markup">eng</property>
  <property name="meta.attr.0.stream.handler_name.markup">SoundHandle</property>
  <property name="meta.attr.0.stream.vendor_id.markup">[0][0][0][0]</property>
  <property name="meta.attr.major_brand.markup">mp42</property>
  <property name="meta.attr.minor_version.markup">0</property>
  <property name="meta.attr.compatible_brands.markup">isommp42</property>
  <property name="meta.attr.creation_time.markup">2024-08-05T01:49:58.000000Z</property>
  <property name="meta.attr.com.android.version.markup">12</property>
  <property name="xml">was here</property>
  <property name="mute_on_pause">0</property>
  <property name="set.test_audio">0</property>
  <property name="set.test_image">1</property>
 </chain>
 <chain id="chain170" out="00:00:03.360">
  <property name="length">85</property>
  <property name="eof">pause</property>
  <property name="resource">putmanythings.m4a</property>
  <property name="mlt_service">avformat-novalidate</property>
  <property name="seekable">1</property>
  <property name="audio_index">0</property>
  <property name="video_index">-1</property>
  <property name="astream">0</property>
  <property name="kdenlive:folderid">-1</property>
  <property name="kdenlive:id">96</property>
  <property name="kdenlive:clip_type">1</property>
  <property name="kdenlive:file_size">66057</property>
  <property name="kdenlive:file_hash">2a23095c5b49169b2452cb7583dcd2a3</property>
  <property name="kdenlive:audio_max0">141</property>
  <property name="meta.media.nb_streams">1</property>
  <property name="meta.media.0.stream.type">audio</property>
  <property name="meta.media.0.codec.sample_fmt">fltp</property>
  <property name="meta.media.0.codec.sample_rate">48000</property>
  <property name="meta.media.0.codec.channels">2</property>
  <property name="meta.media.0.codec.layout">stereo</property>
  <property name="meta.media.0.codec.name">aac</property>
  <property name="meta.media.0.codec.long_name">AAC (Advanced Audio Coding)</property>
  <property name="meta.media.0.codec.bit_rate">148002</property>
  <property name="meta.attr.0.stream.creation_time.markup">2024-08-05T01:50:35.000000Z</property>
  <property name="meta.attr.0.stream.language.markup">eng</property>
  <property name="meta.attr.0.stream.handler_name.markup">SoundHandle</property>
  <property name="meta.attr.0.stream.vendor_id.markup">[0][0][0][0]</property>
  <property name="meta.attr.major_brand.markup">mp42</property>
  <property name="meta.attr.minor_version.markup">0</property>
  <property name="meta.attr.compatible_brands.markup">isommp42</property>
  <property name="meta.attr.creation_time.markup">2024-08-05T01:50:35.000000Z</property>
  <property name="meta.attr.com.android.version.markup">12</property>
  <property name="xml">was here</property>
  <property name="mute_on_pause">0</property>
  <property name="set.test_audio">0</property>
  <property name="set.test_image">1</property>
 </chain>
 <chain id="chain171" out="00:00:03.760">
  <property name="length">95</property>
  <property name="eof">pause</property>
  <property name="resource">andtheyll.m4a</property>
  <property name="mlt_service">avformat-novalidate</property>
  <property name="seekable">1</property>
  <property name="audio_index">0</property>
  <property name="video_index">-1</property>
  <property name="astream">0</property>
  <property name="kdenlive:folderid">-1</property>
  <property name="kdenlive:id">97</property>
  <property name="kdenlive:clip_type">1</property>
  <property name="kdenlive:file_size">73953</property>
  <property name="kdenlive:file_hash">f2dfce8663a946e1b99a8b14a1cd62d8</property>
  <property name="kdenlive:audio_max0">135</property>
  <property name="meta.media.nb_streams">1</property>
  <property name="meta.media.0.stream.type">audio</property>
  <property name="meta.media.0.codec.sample_fmt">fltp</property>
  <property name="meta.media.0.codec.sample_rate">48000</property>
  <property name="meta.media.0.codec.channels">2</property>
  <property name="meta.media.0.codec.layout">stereo</property>
  <property name="meta.media.0.codec.name">aac</property>
  <property name="meta.media.0.codec.long_name">AAC (Advanced Audio Coding)</property>
  <property name="meta.media.0.codec.bit_rate">147999</property>
  <property name="meta.attr.0.stream.creation_time.markup">2024-08-05T01:51:00.000000Z</property>
  <property name="meta.attr.0.stream.language.markup">eng</property>
  <property name="meta.attr.0.stream.handler_name.markup">SoundHandle</property>
  <property name="meta.attr.0.stream.vendor_id.markup">[0][0][0][0]</property>
  <property name="meta.attr.major_brand.markup">mp42</property>
  <property name="meta.attr.minor_version.markup">0</property>
  <property name="meta.attr.compatible_brands.markup">isommp42</property>
  <property name="meta.attr.creation_time.markup">2024-08-05T01:51:00.000000Z</property>
  <property name="meta.attr.com.android.version.markup">12</property>
  <property name="xml">was here</property>
  <property name="mute_on_pause">0</property>
  <property name="set.test_audio">0</property>
  <property name="set.test_image">1</property>
 </chain>
 <chain id="chain172" out="00:00:04.200">
  <property name="length">106</property>
  <property name="eof">pause</property>
  <property name="resource">everytimetheydo.m4a</property>
  <property name="mlt_service">avformat-novalidate</property>
  <property name="seekable">1</property>
  <property name="audio_index">0</property>
  <property name="video_index">-1</property>
  <property name="astream">0</property>
  <property name="kdenlive:folderid">-1</property>
  <property name="kdenlive:id">94</property>
  <property name="kdenlive:clip_type">1</property>
  <property name="kdenlive:file_size">81853</property>
  <property name="kdenlive:file_hash">944f9171b57413e0e3aa69a8bd6ea4b8</property>
  <property name="kdenlive:audio_max0">136</property>
  <property name="meta.media.nb_streams">1</property>
  <property name="meta.media.0.stream.type">audio</property>
  <property name="meta.media.0.codec.sample_fmt">fltp</property>
  <property name="meta.media.0.codec.sample_rate">48000</property>
  <property name="meta.media.0.codec.channels">2</property>
  <property name="meta.media.0.codec.layout">stereo</property>
  <property name="meta.media.0.codec.name">aac</property>
  <property name="meta.media.0.codec.long_name">AAC (Advanced Audio Coding)</property>
  <property name="meta.media.0.codec.bit_rate">148000</property>
  <property name="meta.attr.0.stream.creation_time.markup">2024-08-05T01:52:13.000000Z</property>
  <property name="meta.attr.0.stream.language.markup">eng</property>
  <property name="meta.attr.0.stream.handler_name.markup">SoundHandle</property>
  <property name="meta.attr.0.stream.vendor_id.markup">[0][0][0][0]</property>
  <property name="meta.attr.major_brand.markup">mp42</property>
  <property name="meta.attr.minor_version.markup">0</property>
  <property name="meta.attr.compatible_brands.markup">isommp42</property>
  <property name="meta.attr.creation_time.markup">2024-08-05T01:52:13.000000Z</property>
  <property name="meta.attr.com.android.version.markup">12</property>
  <property name="xml">was here</property>
  <property name="mute_on_pause">0</property>
  <property name="set.test_audio">0</property>
  <property name="set.test_image">1</property>
 </chain>
 <chain id="chain173" out="00:00:02.680">
  <property name="length">68</property>
  <property name="eof">pause</property>
  <property name="resource">butatomcanthandle.m4a</property>
  <property name="mlt_service">avformat-novalidate</property>
  <property name="seekable">1</property>
  <property name="audio_index">0</property>
  <property name="video_index">-1</property>
  <property name="astream">0</property>
  <property name="kdenlive:folderid">-1</property>
  <property name="kdenlive:id">95</property>
  <property name="kdenlive:clip_type">1</property>
  <property name="kdenlive:file_size">53815</property>
  <property name="kdenlive:file_hash">4c14a42edf14a3a52694cb683ac62d95</property>
  <property name="kdenlive:audio_max0">163</property>
  <property name="meta.media.nb_streams">1</property>
  <property name="meta.media.0.stream.type">audio</property>
  <property name="meta.media.0.codec.sample_fmt">fltp</property>
  <property name="meta.media.0.codec.sample_rate">48000</property>
  <property name="meta.media.0.codec.channels">2</property>
  <property name="meta.media.0.codec.layout">stereo</property>
  <property name="meta.media.0.codec.name">aac</property>
  <property name="meta.media.0.codec.long_name">AAC (Advanced Audio Coding)</property>
  <property name="meta.media.0.codec.bit_rate">147999</property>
  <property name="meta.attr.0.stream.creation_time.markup">2024-08-05T01:52:54.000000Z</property>
  <property name="meta.attr.0.stream.language.markup">eng</property>
  <property name="meta.attr.0.stream.handler_name.markup">SoundHandle</property>
  <property name="meta.attr.0.stream.vendor_id.markup">[0][0][0][0]</property>
  <property name="meta.attr.major_brand.markup">mp42</property>
  <property name="meta.attr.minor_version.markup">0</property>
  <property name="meta.attr.compatible_brands.markup">isommp42</property>
  <property name="meta.attr.creation_time.markup">2024-08-05T01:52:54.000000Z</property>
  <property name="meta.attr.com.android.version.markup">12</property>
  <property name="xml">was here</property>
  <property name="mute_on_pause">0</property>
  <property name="set.test_audio">0</property>
  <property name="set.test_image">1</property>
 </chain>
 <chain id="chain174" out="00:00:03.520">
  <property name="length">89</property>
  <property name="eof">pause</property>
  <property name="resource">butmanyofthemtogDNA.m4a</property>
  <property name="mlt_service">avformat-novalidate</property>
  <property name="seekable">1</property>
  <property name="audio_index">0</property>
  <property name="video_index">-1</property>
  <property name="astream">0</property>
  <property name="kdenlive:folderid">-1</property>
  <property name="kdenlive:id">93</property>
  <property name="kdenlive:clip_type">1</property>
  <property name="kdenlive:file_size">69216</property>
  <property name="kdenlive:file_hash">6d3b4d35230ed9d0a01281039efbfbf7</property>
  <property name="kdenlive:audio_max0">143</property>
  <property name="meta.media.nb_streams">1</property>
  <property name="meta.media.0.stream.type">audio</property>
  <property name="meta.media.0.codec.sample_fmt">fltp</property>
  <property name="meta.media.0.codec.sample_rate">48000</property>
  <property name="meta.media.0.codec.channels">2</property>
  <property name="meta.media.0.codec.layout">stereo</property>
  <property name="meta.media.0.codec.name">aac</property>
  <property name="meta.media.0.codec.long_name">AAC (Advanced Audio Coding)</property>
  <property name="meta.media.0.codec.bit_rate">148001</property>
  <property name="meta.attr.0.stream.creation_time.markup">2024-08-05T01:53:48.000000Z</property>
  <property name="meta.attr.0.stream.language.markup">eng</property>
  <property name="meta.attr.0.stream.handler_name.markup">SoundHandle</property>
  <property name="meta.attr.0.stream.vendor_id.markup">[0][0][0][0]</property>
  <property name="meta.attr.major_brand.markup">mp42</property>
  <property name="meta.attr.minor_version.markup">0</property>
  <property name="meta.attr.compatible_brands.markup">isommp42</property>
  <property name="meta.attr.creation_time.markup">2024-08-05T01:53:48.000000Z</property>
  <property name="meta.attr.com.android.version.markup">12</property>
  <property name="xml">was here</property>
  <property name="mute_on_pause">0</property>
  <property name="set.test_audio">0</property>
  <property name="set.test_image">1</property>
 </chain>
 <chain id="chain175" out="00:00:02.720">
  <property name="length">69</property>
  <property name="eof">pause</property>
  <property name="resource">momqsarenotalive.m4a</property>
  <property name="mlt_service">avformat-novalidate</property>
  <property name="seekable">1</property>
  <property name="audio_index">0</property>
  <property name="video_index">-1</property>
  <property name="astream">0</property>
  <property name="kdenlive:folderid">-1</property>
  <property name="kdenlive:id">92</property>
  <property name="kdenlive:clip_type">1</property>
  <property name="kdenlive:file_size">54604</property>
  <property name="kdenlive:file_hash">13a1bd7c6e9211106103215bcb69198c</property>
  <property name="kdenlive:audio_max0">141</property>
  <property name="meta.media.nb_streams">1</property>
  <property name="meta.media.0.stream.type">audio</property>
  <property name="meta.media.0.codec.sample_fmt">fltp</property>
  <property name="meta.media.0.codec.sample_rate">48000</property>
  <property name="meta.media.0.codec.channels">2</property>
  <property name="meta.media.0.codec.layout">stereo</property>
  <property name="meta.media.0.codec.name">aac</property>
  <property name="meta.media.0.codec.long_name">AAC (Advanced Audio Coding)</property>
  <property name="meta.media.0.codec.bit_rate">147998</property>
  <property name="meta.attr.0.stream.creation_time.markup">2024-08-05T01:54:24.000000Z</property>
  <property name="meta.attr.0.stream.language.markup">eng</property>
  <property name="meta.attr.0.stream.handler_name.markup">SoundHandle</property>
  <property name="meta.attr.0.stream.vendor_id.markup">[0][0][0][0]</property>
  <property name="meta.attr.major_brand.markup">mp42</property>
  <property name="meta.attr.minor_version.markup">0</property>
  <property name="meta.attr.compatible_brands.markup">isommp42</property>
  <property name="meta.attr.creation_time.markup">2024-08-05T01:54:24.000000Z</property>
  <property name="meta.attr.com.android.version.markup">12</property>
  <property name="xml">was here</property>
  <property name="mute_on_pause">0</property>
  <property name="set.test_audio">0</property>
  <property name="set.test_image">1</property>
 </chain>
 <chain id="chain176" out="00:00:04.520">
  <property name="length">114</property>
  <property name="eof">pause</property>
  <property name="resource">butmanyofthem.m4a</property>
  <property name="mlt_service">avformat-novalidate</property>
  <property name="seekable">1</property>
  <property name="audio_index">0</property>
  <property name="video_index">-1</property>
  <property name="astream">0</property>
  <property name="kdenlive:folderid">-1</property>
  <property name="kdenlive:id">91</property>
  <property name="kdenlive:clip_type">1</property>
  <property name="kdenlive:file_size">87380</property>
  <property name="kdenlive:file_hash">722e8df193b7f633fa3fcff9d7a35093</property>
  <property name="kdenlive:audio_max0">150</property>
  <property name="meta.media.nb_streams">1</property>
  <property name="meta.media.0.stream.type">audio</property>
  <property name="meta.media.0.codec.sample_fmt">fltp</property>
  <property name="meta.media.0.codec.sample_rate">48000</property>
  <property name="meta.media.0.codec.channels">2</property>
  <property name="meta.media.0.codec.layout">stereo</property>
  <property name="meta.media.0.codec.name">aac</property>
  <property name="meta.media.0.codec.long_name">AAC (Advanced Audio Coding)</property>
  <property name="meta.media.0.codec.bit_rate">148000</property>
  <property name="meta.attr.0.stream.creation_time.markup">2024-08-05T01:54:46.000000Z</property>
  <property name="meta.attr.0.stream.language.markup">eng</property>
  <property name="meta.attr.0.stream.handler_name.markup">SoundHandle</property>
  <property name="meta.attr.0.stream.vendor_id.markup">[0][0][0][0]</property>
  <property name="meta.attr.major_brand.markup">mp42</property>
  <property name="meta.attr.minor_version.markup">0</property>
  <property name="meta.attr.compatible_brands.markup">isommp42</property>
  <property name="meta.attr.creation_time.markup">2024-08-05T01:54:46.000000Z</property>
  <property name="meta.attr.com.android.version.markup">12</property>
  <property name="xml">was here</property>
  <property name="mute_on_pause">0</property>
  <property name="set.test_audio">0</property>
  <property name="set.test_image">1</property>
 </chain>
 <chain id="chain177" out="00:00:05.440">
  <property name="length">137</property>
  <property name="eof">pause</property>
  <property name="resource">withjumpup.m4a</property>
  <property name="mlt_service">avformat-novalidate</property>
  <property name="seekable">1</property>
  <property name="audio_index">0</property>
  <property name="video_index">-1</property>
  <property name="astream">0</property>
  <property name="kdenlive:folderid">-1</property>
  <property name="kdenlive:id">90</property>
  <property name="kdenlive:clip_type">1</property>
  <property name="kdenlive:file_size">104760</property>
  <property name="kdenlive:file_hash">7717f45dc232387e4c144daf1c7a1ada</property>
  <property name="kdenlive:audio_max0">156</property>
  <property name="meta.media.nb_streams">1</property>
  <property name="meta.media.0.stream.type">audio</property>
  <property name="meta.media.0.codec.sample_fmt">fltp</property>
  <property name="meta.media.0.codec.sample_rate">48000</property>
  <property name="meta.media.0.codec.channels">2</property>
  <property name="meta.media.0.codec.layout">stereo</property>
  <property name="meta.media.0.codec.name">aac</property>
  <property name="meta.media.0.codec.long_name">AAC (Advanced Audio Coding)</property>
  <property name="meta.media.0.codec.bit_rate">148000</property>
  <property name="meta.attr.0.stream.creation_time.markup">2024-08-05T01:56:20.000000Z</property>
  <property name="meta.attr.0.stream.language.markup">eng</property>
  <property name="meta.attr.0.stream.handler_name.markup">SoundHandle</property>
  <property name="meta.attr.0.stream.vendor_id.markup">[0][0][0][0]</property>
  <property name="meta.attr.major_brand.markup">mp42</property>
  <property name="meta.attr.minor_version.markup">0</property>
  <property name="meta.attr.compatible_brands.markup">isommp42</property>
  <property name="meta.attr.creation_time.markup">2024-08-05T01:56:20.000000Z</property>
  <property name="meta.attr.com.android.version.markup">12</property>
  <property name="xml">was here</property>
  <property name="mute_on_pause">0</property>
  <property name="set.test_audio">0</property>
  <property name="set.test_image">1</property>
 </chain>
 <chain id="chain178" out="00:00:05.440">
  <property name="length">137</property>
  <property name="eof">pause</property>
  <property name="resource">sum.m4a</property>
  <property name="mlt_service">avformat-novalidate</property>
  <property name="seekable">1</property>
  <property name="audio_index">0</property>
  <property name="video_index">-1</property>
  <property name="astream">0</property>
  <property name="kdenlive:folderid">-1</property>
  <property name="kdenlive:id">88</property>
  <property name="kdenlive:clip_type">1</property>
  <property name="kdenlive:file_size">104363</property>
  <property name="kdenlive:file_hash">0d90f24900876bd5b96c86b0f17eedbf</property>
  <property name="kdenlive:audio_max0">164</property>
  <property name="meta.media.nb_streams">1</property>
  <property name="meta.media.0.stream.type">audio</property>
  <property name="meta.media.0.codec.sample_fmt">fltp</property>
  <property name="meta.media.0.codec.sample_rate">48000</property>
  <property name="meta.media.0.codec.channels">2</property>
  <property name="meta.media.0.codec.layout">stereo</property>
  <property name="meta.media.0.codec.name">aac</property>
  <property name="meta.media.0.codec.long_name">AAC (Advanced Audio Coding)</property>
  <property name="meta.media.0.codec.bit_rate">148000</property>
  <property name="meta.attr.0.stream.creation_time.markup">2024-08-05T01:57:44.000000Z</property>
  <property name="meta.attr.0.stream.language.markup">eng</property>
  <property name="meta.attr.0.stream.handler_name.markup">SoundHandle</property>
  <property name="meta.attr.0.stream.vendor_id.markup">[0][0][0][0]</property>
  <property name="meta.attr.major_brand.markup">mp42</property>
  <property name="meta.attr.minor_version.markup">0</property>
  <property name="meta.attr.compatible_brands.markup">isommp42</property>
  <property name="meta.attr.creation_time.markup">2024-08-05T01:57:44.000000Z</property>
  <property name="meta.attr.com.android.version.markup">12</property>
  <property name="xml">was here</property>
  <property name="mute_on_pause">0</property>
  <property name="set.test_audio">0</property>
  <property name="set.test_image">1</property>
 </chain>
 <chain id="chain179" out="00:00:04.760">
  <property name="length">120</property>
  <property name="eof">pause</property>
  <property name="resource">andhere.m4a</property>
  <property name="mlt_service">avformat-novalidate</property>
  <property name="seekable">1</property>
  <property name="audio_index">0</property>
  <property name="video_index">-1</property>
  <property name="astream">0</property>
  <property name="kdenlive:folderid">-1</property>
  <property name="kdenlive:id">89</property>
  <property name="kdenlive:clip_type">1</property>
  <property name="kdenlive:file_size">92121</property>
  <property name="kdenlive:file_hash">36228eeb7c2f0539ad5250cdb948a0e3</property>
  <property name="kdenlive:audio_max0">145</property>
  <property name="kdenlive:monitorPosition">112</property>
  <property name="meta.media.nb_streams">1</property>
  <property name="meta.media.0.stream.type">audio</property>
  <property name="meta.media.0.codec.sample_fmt">fltp</property>
  <property name="meta.media.0.codec.sample_rate">48000</property>
  <property name="meta.media.0.codec.channels">2</property>
  <property name="meta.media.0.codec.layout">stereo</property>
  <property name="meta.media.0.codec.name">aac</property>
  <property name="meta.media.0.codec.long_name">AAC (Advanced Audio Coding)</property>
  <property name="meta.media.0.codec.bit_rate">148001</property>
  <property name="meta.attr.0.stream.creation_time.markup">2024-08-05T01:59:12.000000Z</property>
  <property name="meta.attr.0.stream.language.markup">eng</property>
  <property name="meta.attr.0.stream.handler_name.markup">SoundHandle</property>
  <property name="meta.attr.0.stream.vendor_id.markup">[0][0][0][0]</property>
  <property name="meta.attr.major_brand.markup">mp42</property>
  <property name="meta.attr.minor_version.markup">0</property>
  <property name="meta.attr.compatible_brands.markup">isommp42</property>
  <property name="meta.attr.creation_time.markup">2024-08-05T01:59:12.000000Z</property>
  <property name="meta.attr.com.android.version.markup">12</property>
  <property name="xml">was here</property>
  <property name="mute_on_pause">0</property>
  <property name="set.test_audio">0</property>
  <property name="set.test_image">1</property>
 </chain>
 <chain id="chain180" out="00:00:04.160">
  <property name="length">105</property>
  <property name="eof">pause</property>
  <property name="resource">theleayers.m4a</property>
  <property name="mlt_service">avformat-novalidate</property>
  <property name="seekable">1</property>
  <property name="audio_index">0</property>
  <property name="video_index">-1</property>
  <property name="astream">0</property>
  <property name="kdenlive:folderid">-1</property>
  <property name="kdenlive:id">87</property>
  <property name="kdenlive:clip_type">1</property>
  <property name="kdenlive:file_size">80668</property>
  <property name="kdenlive:file_hash">7b33eed90a0a6d30335bc3002d1a3853</property>
  <property name="kdenlive:audio_max0">141</property>
  <property name="kdenlive:monitorPosition">42</property>
  <property name="meta.media.nb_streams">1</property>
  <property name="meta.media.0.stream.type">audio</property>
  <property name="meta.media.0.codec.sample_fmt">fltp</property>
  <property name="meta.media.0.codec.sample_rate">48000</property>
  <property name="meta.media.0.codec.channels">2</property>
  <property name="meta.media.0.codec.layout">stereo</property>
  <property name="meta.media.0.codec.name">aac</property>
  <property name="meta.media.0.codec.long_name">AAC (Advanced Audio Coding)</property>
  <property name="meta.media.0.codec.bit_rate">147998</property>
  <property name="meta.attr.0.stream.creation_time.markup">2024-08-05T02:00:32.000000Z</property>
  <property name="meta.attr.0.stream.language.markup">eng</property>
  <property name="meta.attr.0.stream.handler_name.markup">SoundHandle</property>
  <property name="meta.attr.0.stream.vendor_id.markup">[0][0][0][0]</property>
  <property name="meta.attr.major_brand.markup">mp42</property>
  <property name="meta.attr.minor_version.markup">0</property>
  <property name="meta.attr.compatible_brands.markup">isommp42</property>
  <property name="meta.attr.creation_time.markup">2024-08-05T02:00:32.000000Z</property>
  <property name="meta.attr.com.android.version.markup">12</property>
  <property name="xml">was here</property>
  <property name="mute_on_pause">0</property>
  <property name="set.test_audio">0</property>
  <property name="set.test_image">1</property>
 </chain>
 <chain id="chain181" out="00:00:03.200">
  <property name="length">81</property>
  <property name="eof">pause</property>
  <property name="resource">youcanexplanelivingthings.m4a</property>
  <property name="mlt_service">avformat-novalidate</property>
  <property name="seekable">1</property>
  <property name="audio_index">0</property>
  <property name="video_index">-1</property>
  <property name="astream">0</property>
  <property name="kdenlive:folderid">-1</property>
  <property name="kdenlive:id">86</property>
  <property name="kdenlive:clip_type">1</property>
  <property name="kdenlive:file_size">63293</property>
  <property name="kdenlive:file_hash">65b951a3a4e32c92398e96ce2d98b18b</property>
  <property name="kdenlive:audio_max0">151</property>
  <property name="meta.media.nb_streams">1</property>
  <property name="meta.media.0.stream.type">audio</property>
  <property name="meta.media.0.codec.sample_fmt">fltp</property>
  <property name="meta.media.0.codec.sample_rate">48000</property>
  <property name="meta.media.0.codec.channels">2</property>
  <property name="meta.media.0.codec.layout">stereo</property>
  <property name="meta.media.0.codec.name">aac</property>
  <property name="meta.media.0.codec.long_name">AAC (Advanced Audio Coding)</property>
  <property name="meta.media.0.codec.bit_rate">147999</property>
  <property name="meta.attr.0.stream.creation_time.markup">2024-08-05T02:00:50.000000Z</property>
  <property name="meta.attr.0.stream.language.markup">eng</property>
  <property name="meta.attr.0.stream.handler_name.markup">SoundHandle</property>
  <property name="meta.attr.0.stream.vendor_id.markup">[0][0][0][0]</property>
  <property name="meta.attr.major_brand.markup">mp42</property>
  <property name="meta.attr.minor_version.markup">0</property>
  <property name="meta.attr.compatible_brands.markup">isommp42</property>
  <property name="meta.attr.creation_time.markup">2024-08-05T02:00:50.000000Z</property>
  <property name="meta.attr.com.android.version.markup">12</property>
  <property name="xml">was here</property>
  <property name="mute_on_pause">0</property>
  <property name="set.test_audio">0</property>
  <property name="set.test_image">1</property>
 </chain>
 <chain id="chain182" out="00:00:02.400">
  <property name="length">61</property>
  <property name="eof">pause</property>
  <property name="resource">cellswith.m4a</property>
  <property name="mlt_service">avformat-novalidate</property>
  <property name="seekable">1</property>
  <property name="audio_index">0</property>
  <property name="video_index">-1</property>
  <property name="astream">0</property>
  <property name="kdenlive:folderid">-1</property>
  <property name="kdenlive:id">85</property>
  <property name="kdenlive:clip_type">1</property>
  <property name="kdenlive:file_size">48679</property>
  <property name="kdenlive:file_hash">1631ffd8742b0562fa4e7ee3414675c4</property>
  <property name="kdenlive:audio_max0">144</property>
  <property name="meta.media.nb_streams">1</property>
  <property name="meta.media.0.stream.type">audio</property>
  <property name="meta.media.0.codec.sample_fmt">fltp</property>
  <property name="meta.media.0.codec.sample_rate">48000</property>
  <property name="meta.media.0.codec.channels">2</property>
  <property name="meta.media.0.codec.layout">stereo</property>
  <property name="meta.media.0.codec.name">aac</property>
  <property name="meta.media.0.codec.long_name">AAC (Advanced Audio Coding)</property>
  <property name="meta.media.0.codec.bit_rate">148001</property>
  <property name="meta.attr.0.stream.creation_time.markup">2024-08-05T02:01:01.000000Z</property>
  <property name="meta.attr.0.stream.language.markup">eng</property>
  <property name="meta.attr.0.stream.handler_name.markup">SoundHandle</property>
  <property name="meta.attr.0.stream.vendor_id.markup">[0][0][0][0]</property>
  <property name="meta.attr.major_brand.markup">mp42</property>
  <property name="meta.attr.minor_version.markup">0</property>
  <property name="meta.attr.compatible_brands.markup">isommp42</property>
  <property name="meta.attr.creation_time.markup">2024-08-05T02:01:01.000000Z</property>
  <property name="meta.attr.com.android.version.markup">12</property>
  <property name="xml">was here</property>
  <property name="mute_on_pause">0</property>
  <property name="set.test_audio">0</property>
  <property name="set.test_image">1</property>
 </chain>
 <chain id="chain183" out="00:00:02.560">
  <property name="length">65</property>
  <property name="eof">pause</property>
  <property name="resource">andmonuqswithatoms.m4a</property>
  <property name="mlt_service">avformat-novalidate</property>
  <property name="seekable">1</property>
  <property name="audio_index">0</property>
  <property name="video_index">-1</property>
  <property name="astream">0</property>
  <property name="kdenlive:folderid">-1</property>
  <property name="kdenlive:id">84</property>
  <property name="kdenlive:clip_type">1</property>
  <property name="kdenlive:file_size">51444</property>
  <property name="kdenlive:file_hash">c61c3df88a64bf5dff90ee58f5f50e9c</property>
  <property name="kdenlive:audio_max0">145</property>
  <property name="kdenlive:monitorPosition">35</property>
  <property name="meta.media.nb_streams">1</property>
  <property name="meta.media.0.stream.type">audio</property>
  <property name="meta.media.0.codec.sample_fmt">fltp</property>
  <property name="meta.media.0.codec.sample_rate">48000</property>
  <property name="meta.media.0.codec.channels">2</property>
  <property name="meta.media.0.codec.layout">stereo</property>
  <property name="meta.media.0.codec.name">aac</property>
  <property name="meta.media.0.codec.long_name">AAC (Advanced Audio Coding)</property>
  <property name="meta.media.0.codec.bit_rate">148002</property>
  <property name="meta.attr.0.stream.creation_time.markup">2024-08-05T02:01:08.000000Z</property>
  <property name="meta.attr.0.stream.language.markup">eng</property>
  <property name="meta.attr.0.stream.handler_name.markup">SoundHandle</property>
  <property name="meta.attr.0.stream.vendor_id.markup">[0][0][0][0]</property>
  <property name="meta.attr.major_brand.markup">mp42</property>
  <property name="meta.attr.minor_version.markup">0</property>
  <property name="meta.attr.compatible_brands.markup">isommp42</property>
  <property name="meta.attr.creation_time.markup">2024-08-05T02:01:08.000000Z</property>
  <property name="meta.attr.com.android.version.markup">12</property>
  <property name="xml">was here</property>
  <property name="mute_on_pause">0</property>
  <property name="set.test_audio">0</property>
  <property name="set.test_image">1</property>
 </chain>
 <chain id="chain184" out="00:00:02.800">
  <property name="length">71</property>
  <property name="eof">pause</property>
  <property name="resource">butbecauseofemagens.m4a</property>
  <property name="mlt_service">avformat-novalidate</property>
  <property name="seekable">1</property>
  <property name="audio_index">0</property>
  <property name="video_index">-1</property>
  <property name="astream">0</property>
  <property name="kdenlive:folderid">-1</property>
  <property name="kdenlive:id">83</property>
  <property name="kdenlive:clip_type">1</property>
  <property name="kdenlive:file_size">56184</property>
  <property name="kdenlive:file_hash">fe593b73c62a45bb28514cb7e633a71c</property>
  <property name="kdenlive:audio_max0">145</property>
  <property name="meta.media.nb_streams">1</property>
  <property name="meta.media.0.stream.type">audio</property>
  <property name="meta.media.0.codec.sample_fmt">fltp</property>
  <property name="meta.media.0.codec.sample_rate">48000</property>
  <property name="meta.media.0.codec.channels">2</property>
  <property name="meta.media.0.codec.layout">stereo</property>
  <property name="meta.media.0.codec.name">aac</property>
  <property name="meta.media.0.codec.long_name">AAC (Advanced Audio Coding)</property>
  <property name="meta.media.0.codec.bit_rate">148001</property>
  <property name="meta.attr.0.stream.creation_time.markup">2024-08-05T02:01:29.000000Z</property>
  <property name="meta.attr.0.stream.language.markup">eng</property>
  <property name="meta.attr.0.stream.handler_name.markup">SoundHandle</property>
  <property name="meta.attr.0.stream.vendor_id.markup">[0][0][0][0]</property>
  <property name="meta.attr.major_brand.markup">mp42</property>
  <property name="meta.attr.minor_version.markup">0</property>
  <property name="meta.attr.compatible_brands.markup">isommp42</property>
  <property name="meta.attr.creation_time.markup">2024-08-05T02:01:29.000000Z</property>
  <property name="meta.attr.com.android.version.markup">12</property>
  <property name="xml">was here</property>
  <property name="mute_on_pause">0</property>
  <property name="set.test_audio">0</property>
  <property name="set.test_image">1</property>
 </chain>
 <chain id="chain185" out="00:00:05.080">
  <property name="length">128</property>
  <property name="eof">pause</property>
  <property name="resource">youcantstartwith.m4a</property>
  <property name="mlt_service">avformat-novalidate</property>
  <property name="seekable">1</property>
  <property name="audio_index">0</property>
  <property name="video_index">-1</property>
  <property name="astream">0</property>
  <property name="kdenlive:folderid">-1</property>
  <property name="kdenlive:id">81</property>
  <property name="kdenlive:clip_type">1</property>
  <property name="kdenlive:file_size">98045</property>
  <property name="kdenlive:file_hash">f80bd625370695547e28cbdcbc5b15f6</property>
  <property name="kdenlive:audio_max0">159</property>
  <property name="meta.media.nb_streams">1</property>
  <property name="meta.media.0.stream.type">audio</property>
  <property name="meta.media.0.codec.sample_fmt">fltp</property>
  <property name="meta.media.0.codec.sample_rate">48000</property>
  <property name="meta.media.0.codec.channels">2</property>
  <property name="meta.media.0.codec.layout">stereo</property>
  <property name="meta.media.0.codec.name">aac</property>
  <property name="meta.media.0.codec.long_name">AAC (Advanced Audio Coding)</property>
  <property name="meta.media.0.codec.bit_rate">148001</property>
  <property name="meta.attr.0.stream.creation_time.markup">2024-08-05T02:02:56.000000Z</property>
  <property name="meta.attr.0.stream.language.markup">eng</property>
  <property name="meta.attr.0.stream.handler_name.markup">SoundHandle</property>
  <property name="meta.attr.0.stream.vendor_id.markup">[0][0][0][0]</property>
  <property name="meta.attr.major_brand.markup">mp42</property>
  <property name="meta.attr.minor_version.markup">0</property>
  <property name="meta.attr.compatible_brands.markup">isommp42</property>
  <property name="meta.attr.creation_time.markup">2024-08-05T02:02:56.000000Z</property>
  <property name="meta.attr.com.android.version.markup">12</property>
  <property name="xml">was here</property>
  <property name="mute_on_pause">0</property>
  <property name="set.test_audio">0</property>
  <property name="set.test_image">1</property>
 </chain>
 <chain id="chain186" out="00:00:04.360">
  <property name="length">110</property>
  <property name="eof">pause</property>
  <property name="resource">youcantexplane.m4a</property>
  <property name="mlt_service">avformat-novalidate</property>
  <property name="seekable">1</property>
  <property name="audio_index">0</property>
  <property name="video_index">-1</property>
  <property name="astream">0</property>
  <property name="kdenlive:folderid">-1</property>
  <property name="kdenlive:id">82</property>
  <property name="kdenlive:clip_type">1</property>
  <property name="kdenlive:file_size">84618</property>
  <property name="kdenlive:file_hash">3963d8f464ca7d89f181226f78f31f8a</property>
  <property name="kdenlive:audio_max0">143</property>
  <property name="kdenlive:monitorPosition">48</property>
  <property name="meta.media.nb_streams">1</property>
  <property name="meta.media.0.stream.type">audio</property>
  <property name="meta.media.0.codec.sample_fmt">fltp</property>
  <property name="meta.media.0.codec.sample_rate">48000</property>
  <property name="meta.media.0.codec.channels">2</property>
  <property name="meta.media.0.codec.layout">stereo</property>
  <property name="meta.media.0.codec.name">aac</property>
  <property name="meta.media.0.codec.long_name">AAC (Advanced Audio Coding)</property>
  <property name="meta.media.0.codec.bit_rate">148001</property>
  <property name="meta.attr.0.stream.creation_time.markup">2024-08-05T02:05:31.000000Z</property>
  <property name="meta.attr.0.stream.language.markup">eng</property>
  <property name="meta.attr.0.stream.handler_name.markup">SoundHandle</property>
  <property name="meta.attr.0.stream.vendor_id.markup">[0][0][0][0]</property>
  <property name="meta.attr.major_brand.markup">mp42</property>
  <property name="meta.attr.minor_version.markup">0</property>
  <property name="meta.attr.compatible_brands.markup">isommp42</property>
  <property name="meta.attr.creation_time.markup">2024-08-05T02:05:31.000000Z</property>
  <property name="meta.attr.com.android.version.markup">12</property>
  <property name="xml">was here</property>
  <property name="mute_on_pause">0</property>
  <property name="set.test_audio">0</property>
  <property name="set.test_image">1</property>
 </chain>
 <chain id="chain187" out="00:00:03.680">
  <property name="length">93</property>
  <property name="eof">pause</property>
  <property name="resource">orhumenqurks.m4a</property>
  <property name="mlt_service">avformat-novalidate</property>
  <property name="seekable">1</property>
  <property name="audio_index">0</property>
  <property name="video_index">-1</property>
  <property name="astream">0</property>
  <property name="kdenlive:folderid">-1</property>
  <property name="kdenlive:id">80</property>
  <property name="kdenlive:clip_type">1</property>
  <property name="kdenlive:file_size">72375</property>
  <property name="kdenlive:file_hash">a21f06ca7e762014e953a08240078edf</property>
  <property name="kdenlive:audio_max0">140</property>
  <property name="meta.media.nb_streams">1</property>
  <property name="meta.media.0.stream.type">audio</property>
  <property name="meta.media.0.codec.sample_fmt">fltp</property>
  <property name="meta.media.0.codec.sample_rate">48000</property>
  <property name="meta.media.0.codec.channels">2</property>
  <property name="meta.media.0.codec.layout">stereo</property>
  <property name="meta.media.0.codec.name">aac</property>
  <property name="meta.media.0.codec.long_name">AAC (Advanced Audio Coding)</property>
  <property name="meta.media.0.codec.bit_rate">148000</property>
  <property name="meta.attr.0.stream.creation_time.markup">2024-08-05T02:06:20.000000Z</property>
  <property name="meta.attr.0.stream.language.markup">eng</property>
  <property name="meta.attr.0.stream.handler_name.markup">SoundHandle</property>
  <property name="meta.attr.0.stream.vendor_id.markup">[0][0][0][0]</property>
  <property name="meta.attr.major_brand.markup">mp42</property>
  <property name="meta.attr.minor_version.markup">0</property>
  <property name="meta.attr.compatible_brands.markup">isommp42</property>
  <property name="meta.attr.creation_time.markup">2024-08-05T02:06:20.000000Z</property>
  <property name="meta.attr.com.android.version.markup">12</property>
  <property name="xml">was here</property>
  <property name="mute_on_pause">0</property>
  <property name="set.test_audio">0</property>
  <property name="set.test_image">1</property>
 </chain>
 <chain id="chain188" out="00:00:02.520">
  <property name="length">64</property>
  <property name="eof">pause</property>
  <property name="resource">thisisnotthe.m4a</property>
  <property name="mlt_service">avformat-novalidate</property>
  <property name="seekable">1</property>
  <property name="audio_index">0</property>
  <property name="video_index">-1</property>
  <property name="astream">0</property>
  <property name="kdenlive:folderid">-1</property>
  <property name="kdenlive:id">79</property>
  <property name="kdenlive:clip_type">1</property>
  <property name="kdenlive:file_size">50656</property>
  <property name="kdenlive:file_hash">60cf7dfbdecca4e8a4a83050576dc592</property>
  <property name="kdenlive:audio_max0">129</property>
  <property name="meta.media.nb_streams">1</property>
  <property name="meta.media.0.stream.type">audio</property>
  <property name="meta.media.0.codec.sample_fmt">fltp</property>
  <property name="meta.media.0.codec.sample_rate">48000</property>
  <property name="meta.media.0.codec.channels">2</property>
  <property name="meta.media.0.codec.layout">stereo</property>
  <property name="meta.media.0.codec.name">aac</property>
  <property name="meta.media.0.codec.long_name">AAC (Advanced Audio Coding)</property>
  <property name="meta.media.0.codec.bit_rate">148000</property>
  <property name="meta.attr.0.stream.creation_time.markup">2024-08-05T02:06:49.000000Z</property>
  <property name="meta.attr.0.stream.language.markup">eng</property>
  <property name="meta.attr.0.stream.handler_name.markup">SoundHandle</property>
  <property name="meta.attr.0.stream.vendor_id.markup">[0][0][0][0]</property>
  <property name="meta.attr.major_brand.markup">mp42</property>
  <property name="meta.attr.minor_version.markup">0</property>
  <property name="meta.attr.compatible_brands.markup">isommp42</property>
  <property name="meta.attr.creation_time.markup">2024-08-05T02:06:49.000000Z</property>
  <property name="meta.attr.com.android.version.markup">12</property>
  <property name="xml">was here</property>
  <property name="mute_on_pause">0</property>
  <property name="set.test_audio">0</property>
  <property name="set.test_image">1</property>
 </chain>
 <chain id="chain189" out="00:00:04.040">
  <property name="length">102</property>
  <property name="eof">pause</property>
  <property name="resource">reac_learys.m4a</property>
  <property name="mlt_service">avformat-novalidate</property>
  <property name="seekable">1</property>
  <property name="audio_index">0</property>
  <property name="video_index">-1</property>
  <property name="astream">0</property>
  <property name="kdenlive:folderid">-1</property>
  <property name="kdenlive:id">78</property>
  <property name="kdenlive:clip_type">1</property>
  <property name="kdenlive:file_size">78694</property>
  <property name="kdenlive:file_hash">542d1cbba6f055567281446c908c7b33</property>
  <property name="kdenlive:audio_max0">151</property>
  <property name="kdenlive:monitorPosition">83</property>
  <property name="meta.media.nb_streams">1</property>
  <property name="meta.media.0.stream.type">audio</property>
  <property name="meta.media.0.codec.sample_fmt">fltp</property>
  <property name="meta.media.0.codec.sample_rate">48000</property>
  <property name="meta.media.0.codec.channels">2</property>
  <property name="meta.media.0.codec.layout">stereo</property>
  <property name="meta.media.0.codec.name">aac</property>
  <property name="meta.media.0.codec.long_name">AAC (Advanced Audio Coding)</property>
  <property name="meta.media.0.codec.bit_rate">148001</property>
  <property name="meta.attr.0.stream.creation_time.markup">2024-08-05T02:09:34.000000Z</property>
  <property name="meta.attr.0.stream.language.markup">eng</property>
  <property name="meta.attr.0.stream.handler_name.markup">SoundHandle</property>
  <property name="meta.attr.0.stream.vendor_id.markup">[0][0][0][0]</property>
  <property name="meta.attr.major_brand.markup">mp42</property>
  <property name="meta.attr.minor_version.markup">0</property>
  <property name="meta.attr.compatible_brands.markup">isommp42</property>
  <property name="meta.attr.creation_time.markup">2024-08-05T02:09:34.000000Z</property>
  <property name="meta.attr.com.android.version.markup">12</property>
  <property name="xml">was here</property>
  <property name="mute_on_pause">0</property>
  <property name="set.test_audio">0</property>
  <property name="set.test_image">1</property>
 </chain>
 <chain id="chain190" out="00:00:06.360">
  <property name="length">160</property>
  <property name="eof">pause</property>
  <property name="resource">butforsomereson.m4a</property>
  <property name="mlt_service">avformat-novalidate</property>
  <property name="seekable">1</property>
  <property name="audio_index">0</property>
  <property name="video_index">-1</property>
  <property name="astream">0</property>
  <property name="kdenlive:folderid">-1</property>
  <property name="kdenlive:id">77</property>
  <property name="kdenlive:clip_type">1</property>
  <property name="kdenlive:file_size">121739</property>
  <property name="kdenlive:file_hash">3a8a04d7c22c44f263c9c9c6f0142c84</property>
  <property name="kdenlive:audio_max0">168</property>
  <property name="kdenlive:monitorPosition">0</property>
  <property name="meta.media.nb_streams">1</property>
  <property name="meta.media.0.stream.type">audio</property>
  <property name="meta.media.0.codec.sample_fmt">fltp</property>
  <property name="meta.media.0.codec.sample_rate">48000</property>
  <property name="meta.media.0.codec.channels">2</property>
  <property name="meta.media.0.codec.layout">stereo</property>
  <property name="meta.media.0.codec.name">aac</property>
  <property name="meta.media.0.codec.long_name">AAC (Advanced Audio Coding)</property>
  <property name="meta.media.0.codec.bit_rate">148001</property>
  <property name="meta.attr.0.stream.creation_time.markup">2024-08-05T02:10:50.000000Z</property>
  <property name="meta.attr.0.stream.language.markup">eng</property>
  <property name="meta.attr.0.stream.handler_name.markup">SoundHandle</property>
  <property name="meta.attr.0.stream.vendor_id.markup">[0][0][0][0]</property>
  <property name="meta.attr.major_brand.markup">mp42</property>
  <property name="meta.attr.minor_version.markup">0</property>
  <property name="meta.attr.compatible_brands.markup">isommp42</property>
  <property name="meta.attr.creation_time.markup">2024-08-05T02:10:50.000000Z</property>
  <property name="meta.attr.com.android.version.markup">12</property>
  <property name="xml">was here</property>
  <property name="mute_on_pause">0</property>
  <property name="set.test_audio">0</property>
  <property name="set.test_image">1</property>
 </chain>
 <chain id="chain191" out="00:11:58.640">
  <property name="length">17967</property>
  <property name="eof">pause</property>
  <property name="resource">AreYouAnNPCA.m4s</property>
  <property name="mlt_service">avformat-novalidate</property>
  <property name="seekable">1</property>
  <property name="audio_index">0</property>
  <property name="video_index">-1</property>
  <property name="astream">0</property>
  <property name="kdenlive:folderid">-1</property>
  <property name="kdenlive:id">4</property>
  <property name="kdenlive:clip_type">1</property>
  <property name="kdenlive:file_size">13402209</property>
  <property name="kdenlive:file_hash">ff19a0e6fbc9396668986d1385224d06</property>
  <property name="kdenlive:thumbZoomFactor">0.00729483</property>
  <property name="kdenlive:thumbZoomStart">0</property>
  <property name="kdenlive:monitorPosition">102</property>
  <property name="kdenlive:audio_max0">226</property>
  <property name="meta.media.nb_streams">1</property>
  <property name="meta.media.0.stream.type">audio</property>
  <property name="meta.media.0.codec.sample_fmt">fltp</property>
  <property name="meta.media.0.codec.sample_rate">48000</property>
  <property name="meta.media.0.codec.channels">2</property>
  <property name="meta.media.0.codec.layout">stereo</property>
  <property name="meta.media.0.codec.name">aac</property>
  <property name="meta.media.0.codec.long_name">AAC (Advanced Audio Coding)</property>
  <property name="meta.media.0.codec.bit_rate">903</property>
  <property name="meta.attr.0.stream.handler_name.markup">Bento4 Sound Handler</property>
  <property name="meta.attr.0.stream.vendor_id.markup">[0][0][0][0]</property>
  <property name="meta.attr.major_brand.markup">isom</property>
  <property name="meta.attr.minor_version.markup">512</property>
  <property name="meta.attr.compatible_brands.markup">isomiso2avc1mp41iso5</property>
  <property name="meta.attr.encoder.markup">Lavf58.29.100</property>
  <property name="meta.attr.description.markup">Packed by Bilibili XCoder v2.0.2</property>
  <property name="xml">was here</property>
  <property name="mute_on_pause">0</property>
  <property name="set.test_audio">0</property>
  <property name="set.test_image">1</property>
 </chain>
 <playlist id="playlist2">
  <property name="kdenlive:audio_track">1</property>
  <blank length="00:00:00.080"/>
  <entry in="00:00:00.000" out="00:00:01.680" producer="chain1">
   <property name="kdenlive:id">5</property>
  </entry>
  <entry in="00:00:00.480" out="00:00:03.920" producer="chain2">
   <property name="kdenlive:id">6</property>
  </entry>
  <entry in="00:00:00.600" out="00:00:05.640" producer="chain3">
   <property name="kdenlive:id">7</property>
  </entry>
  <entry in="00:00:01.280" out="00:00:03.440" producer="chain4">
   <property name="kdenlive:id">8</property>
  </entry>
  <entry in="00:00:00.840" out="00:00:03.440" producer="chain5">
   <property name="kdenlive:id">31</property>
  </entry>
  <entry in="00:00:00.440" out="00:00:02.560" producer="chain6">
   <property name="kdenlive:id">30</property>
  </entry>
  <entry in="00:00:01.080" out="00:00:05.480" producer="chain7">
   <property name="kdenlive:id">29</property>
  </entry>
  <entry in="00:00:01.160" out="00:00:02.760" producer="chain14">
   <property name="kdenlive:id">26</property>
  </entry>
  <entry in="00:00:01.200" out="00:00:03.800" producer="chain15">
   <property name="kdenlive:id">28</property>
  </entry>
  <entry in="00:00:01.160" out="00:00:05.600" producer="producer1">
   <property name="kdenlive:id">15</property>
  </entry>
  <entry in="00:00:00.600" out="00:00:04.840" producer="producer2">
   <property name="kdenlive:id">10</property>
  </entry>
  <entry in="00:00:00.760" out="00:00:05.400" producer="producer3">
   <property name="kdenlive:id">12</property>
  </entry>
  <entry in="00:00:00.760" out="00:00:03.240" producer="producer4">
   <property name="kdenlive:id">14</property>
  </entry>
  <entry in="00:00:01.000" out="00:00:03.680" producer="chain35">
   <property name="kdenlive:id">13</property>
  </entry>
  <entry in="00:00:01.000" out="00:00:04.440" producer="chain36">
   <property name="kdenlive:id">21</property>
  </entry>
  <entry in="00:00:01.240" out="00:00:04.040" producer="producer5">
   <property name="kdenlive:id">23</property>
  </entry>
  <entry in="00:00:00.520" out="00:00:01.280" producer="producer6">
   <property name="kdenlive:id">16</property>
  </entry>
  <entry in="00:00:01.440" out="00:00:02.440" producer="producer7">
   <property name="kdenlive:id">16</property>
  </entry>
  <entry in="00:00:02.640" out="00:00:03.400" producer="producer8">
   <property name="kdenlive:id">16</property>
  </entry>
  <entry in="00:00:01.160" out="00:00:03.800" producer="producer9">
   <property name="kdenlive:id">18</property>
  </entry>
  <entry in="00:00:00.880" out="00:00:02.760" producer="chain37">
   <property name="kdenlive:id">11</property>
  </entry>
  <blank length="00:00:01.120"/>
  <entry in="00:00:00.840" out="00:00:03.800" producer="chain38">
   <property name="kdenlive:id">25</property>
  </entry>
  <entry in="00:00:01.280" out="00:00:03.000" producer="chain39">
   <property name="kdenlive:id">17</property>
  </entry>
  <entry in="00:00:00.960" out="00:00:02.640" producer="chain40">
   <property name="kdenlive:id">24</property>
  </entry>
  <entry in="00:00:00.280" out="00:00:02.480" producer="chain41">
   <property name="kdenlive:id">19</property>
  </entry>
  <entry in="00:00:00.320" out="00:00:01.800" producer="chain42">
   <property name="kdenlive:id">22</property>
  </entry>
  <entry in="00:00:01.000" out="00:00:06.720" producer="chain43">
   <property name="kdenlive:id">20</property>
  </entry>
  <blank length="00:00:01.320"/>
  <entry in="00:00:00.320" out="00:00:02.240" producer="chain44">
   <property name="kdenlive:id">27</property>
  </entry>
  <blank length="00:00:00.560"/>
  <entry in="00:00:00.920" out="00:00:02.480" producer="chain45">
   <property name="kdenlive:id">52</property>
  </entry>
  <blank length="00:00:00.320"/>
  <entry in="00:00:00.480" out="00:00:03.080" producer="chain49">
   <property name="kdenlive:id">41</property>
  </entry>
  <blank length="00:00:00.800"/>
  <entry in="00:00:00.440" out="00:00:02.200" producer="producer10">
   <property name="kdenlive:id">35</property>
  </entry>
  <entry in="00:00:00.320" out="00:00:01.680" producer="producer11">
   <property name="kdenlive:id">54</property>
  </entry>
  <entry in="00:00:00.840" out="00:00:04.920" producer="producer12">
   <property name="kdenlive:id">53</property>
  </entry>
  <entry in="00:00:01.120" out="00:00:06.080" producer="producer13">
   <property name="kdenlive:id">44</property>
  </entry>
  <entry in="00:00:00.600" out="00:00:04.280" producer="producer14">
   <property name="kdenlive:id">43</property>
  </entry>
  <entry in="00:00:00.600" out="00:00:03.120" producer="producer15">
   <property name="kdenlive:id">49</property>
  </entry>
  <entry in="00:00:00.960" out="00:00:05.080" producer="producer16">
   <property name="kdenlive:id">36</property>
  </entry>
  <entry in="00:00:00.360" out="00:00:02.560" producer="producer17">
   <property name="kdenlive:id">51</property>
  </entry>
  <entry in="00:00:02.960" out="00:00:04.880" producer="producer18">
   <property name="kdenlive:id">51</property>
  </entry>
  <entry in="00:00:00.560" out="00:00:04.040" producer="producer19">
   <property name="kdenlive:id">40</property>
  </entry>
  <entry in="00:00:00.600" out="00:00:05.000" producer="chain51">
   <property name="kdenlive:id">47</property>
  </entry>
  <entry in="00:00:00.960" out="00:00:01.800" producer="chain52">
   <property name="kdenlive:id">46</property>
  </entry>
  <entry in="00:00:01.960" out="00:00:03.160" producer="chain52">
   <property name="kdenlive:id">46</property>
  </entry>
  <entry in="00:00:03.440" out="00:00:04.200" producer="chain52">
   <property name="kdenlive:id">46</property>
  </entry>
  <blank length="00:00:00.520"/>
  <entry in="00:00:01.360" out="00:00:05.400" producer="chain53">
   <property name="kdenlive:id">48</property>
  </entry>
  <blank length="00:00:00.600"/>
  <entry in="00:00:00.840" out="00:00:04.360" producer="chain54">
   <property name="kdenlive:id">37</property>
  </entry>
  <entry in="00:00:04.560" out="00:00:05.960" producer="chain54">
   <property name="kdenlive:id">37</property>
  </entry>
  <entry in="00:00:00.840" out="00:00:04.880" producer="chain55">
   <property name="kdenlive:id">33</property>
  </entry>
  <entry in="00:00:00.760" out="00:00:02.960" producer="chain56">
   <property name="kdenlive:id">39</property>
  </entry>
  <entry in="00:00:01.000" out="00:00:04.240" producer="chain57">
   <property name="kdenlive:id">45</property>
  </entry>
  <blank length="00:00:01.000"/>
  <entry in="00:00:00.720" out="00:00:03.280" producer="chain58">
   <property name="kdenlive:id">50</property>
  </entry>
  <blank length="00:00:00.480"/>
  <entry in="00:00:00.960" out="00:00:03.240" producer="chain59">
   <property name="kdenlive:id">42</property>
  </entry>
  <entry in="00:00:01.240" out="00:00:05.840" producer="chain60">
   <property name="kdenlive:id">38</property>
  </entry>
  <entry in="00:00:00.680" out="00:00:02.200" producer="chain83">
   <property name="kdenlive:id">34</property>
  </entry>
  <entry in="00:00:00.520" out="00:00:03.880" producer="chain84">
   <property name="kdenlive:id">55</property>
  </entry>
  <entry in="00:00:00.440" out="00:00:06.800" producer="chain85">
   <property name="kdenlive:id">56</property>
  </entry>
  <entry in="00:00:00.640" out="00:00:02.480" producer="chain86">
   <property name="kdenlive:id">57</property>
  </entry>
  <entry in="00:00:01.000" out="00:00:05.520" producer="chain87">
   <property name="kdenlive:id">58</property>
  </entry>
  <entry in="00:00:00.440" out="00:00:02.640" producer="chain88">
   <property name="kdenlive:id">60</property>
  </entry>
  <entry in="00:00:00.520" out="00:00:06.600" producer="chain111">
   <property name="kdenlive:id">59</property>
  </entry>
  <entry in="00:00:00.880" out="00:00:03.800" producer="chain112">
   <property name="kdenlive:id">61</property>
  </entry>
  <entry in="00:00:00.880" out="00:00:03.920" producer="chain113">
   <property name="kdenlive:id">62</property>
  </entry>
  <entry in="00:00:01.000" out="00:00:03.520" producer="chain114">
   <property name="kdenlive:id">63</property>
  </entry>
  <entry in="00:00:00.720" out="00:00:02.920" producer="chain115">
   <property name="kdenlive:id">64</property>
  </entry>
  <entry in="00:00:01.480" out="00:00:06.920" producer="chain116">
   <property name="kdenlive:id">66</property>
  </entry>
  <entry in="00:00:01.120" out="00:00:03.600" producer="chain117">
   <property name="kdenlive:id">65</property>
  </entry>
  <entry in="00:00:00.560" out="00:00:01.560" producer="chain118">
   <property name="kdenlive:id">68</property>
  </entry>
  <entry in="00:00:01.800" out="00:00:02.680" producer="chain118">
   <property name="kdenlive:id">68</property>
  </entry>
  <entry in="00:00:00.640" out="00:00:05.560" producer="chain119">
   <property name="kdenlive:id">67</property>
  </entry>
  <entry in="00:00:00.840" out="00:00:04.200" producer="chain120">
   <property name="kdenlive:id">69</property>
  </entry>
  <entry in="00:00:00.200" out="00:00:02.560" producer="chain121">
   <property name="kdenlive:id">70</property>
  </entry>
  <entry in="00:00:00.400" out="00:00:02.080" producer="chain122">
   <property name="kdenlive:id">71</property>
  </entry>
  <entry in="00:00:00.600" out="00:00:03.720" producer="chain123">
   <property name="kdenlive:id">72</property>
  </entry>
  <blank length="00:00:00.280"/>
  <entry in="00:00:00.720" out="00:00:02.520" producer="chain124">
   <property name="kdenlive:id">73</property>
  </entry>
  <entry in="00:00:00.840" out="00:00:04.120" producer="chain125">
   <property name="kdenlive:id">75</property>
  </entry>
  <entry in="00:00:00.760" out="00:00:03.480" producer="chain126">
   <property name="kdenlive:id">74</property>
  </entry>
  <entry in="00:00:00.680" out="00:00:03.120" producer="chain127">
   <property name="kdenlive:id">76</property>
  </entry>
  <blank length="00:00:00.600"/>
  <entry in="00:00:00.600" out="00:00:02.320" producer="chain128">
   <property name="kdenlive:id">140</property>
  </entry>
  <blank length="00:00:00.200"/>
  <entry in="00:00:00.840" out="00:00:02.920" producer="chain129">
   <property name="kdenlive:id">139</property>
  </entry>
  <blank length="00:00:00.160"/>
  <entry in="00:00:01.040" out="00:00:03.960" producer="producer20">
   <property name="kdenlive:id">138</property>
  </entry>
  <entry in="00:00:00.840" out="00:00:03.200" producer="chain130">
   <property name="kdenlive:id">136</property>
  </entry>
  <entry in="00:00:00.800" out="00:00:06.000" producer="chain131">
   <property name="kdenlive:id">137</property>
  </entry>
  <entry in="00:00:00.560" out="00:00:03.440" producer="chain132">
   <property name="kdenlive:id">134</property>
  </entry>
  <blank length="00:00:00.280"/>
  <entry in="00:00:00.600" out="00:00:01.280" producer="chain133">
   <property name="kdenlive:id">135</property>
  </entry>
  <blank length="00:00:00.880"/>
  <entry in="00:00:00.560" out="00:00:03.400" producer="chain134">
   <property name="kdenlive:id">132</property>
  </entry>
  <entry in="00:00:00.720" out="00:00:05.400" producer="chain135">
   <property name="kdenlive:id">133</property>
  </entry>
  <entry in="00:00:00.680" out="00:00:02.800" producer="chain136">
   <property name="kdenlive:id">131</property>
  </entry>
  <entry in="00:00:01.040" out="00:00:04.720" producer="chain137">
   <property name="kdenlive:id">129</property>
  </entry>
  <entry in="00:00:00.800" out="00:00:03.280" producer="chain138">
   <property name="kdenlive:id">130</property>
   <property name="kdenlive:activeeffect">0</property>
   <filter id="filter4">
    <property name="window">75</property>
    <property name="max_gain">20dB</property>
    <property name="level">00:00:00.800=-2</property>
    <property name="mlt_service">volume</property>
    <property name="kdenlive_id">volume</property>
    <property name="kdenlive:collapsed">0</property>
   </filter>
  </entry>
  <blank length="00:00:00.800"/>
  <entry in="00:00:01.320" out="00:00:04.080" producer="chain139">
   <property name="kdenlive:id">127</property>
  </entry>
  <entry in="00:00:00.840" out="00:00:03.120" producer="chain140">
   <property name="kdenlive:id">128</property>
  </entry>
  <blank length="00:00:00.200"/>
  <entry in="00:00:00.560" out="00:00:03.760" producer="chain141">
   <property name="kdenlive:id">125</property>
  </entry>
  <entry in="00:00:00.880" out="00:00:03.280" producer="chain142">
   <property name="kdenlive:id">126</property>
  </entry>
  <blank length="00:00:00.560"/>
  <entry in="00:00:00.720" out="00:00:04.120" producer="chain143">
   <property name="kdenlive:id">124</property>
  </entry>
  <blank length="00:00:00.640"/>
  <entry in="00:00:00.760" out="00:00:03.680" producer="chain144">
   <property name="kdenlive:id">122</property>
  </entry>
  <blank length="00:00:00.960"/>
  <entry in="00:00:00.480" out="00:00:01.360" producer="chain145">
   <property name="kdenlive:id">123</property>
  </entry>
  <blank length="00:00:00.200"/>
  <entry in="00:00:00.440" out="00:00:01.920" producer="chain146">
   <property name="kdenlive:id">120</property>
  </entry>
  <entry in="00:00:00.840" out="00:00:04.160" producer="chain147">
   <property name="kdenlive:id">121</property>
  </entry>
  <entry in="00:00:01.160" out="00:00:04.560" producer="chain148">
   <property name="kdenlive:id">119</property>
  </entry>
  <entry in="00:00:00.520" out="00:00:03.480" producer="chain149">
   <property name="kdenlive:id">118</property>
  </entry>
  <blank length="00:00:01.000"/>
  <entry in="00:00:00.560" out="00:00:02.480" producer="chain150">
   <property name="kdenlive:id">117</property>
  </entry>
  <blank length="00:00:00.800"/>
  <entry in="00:00:00.760" out="00:00:03.600" producer="chain151">
   <property name="kdenlive:id">115</property>
  </entry>
  <entry in="00:00:00.920" out="00:00:03.840" producer="chain152">
   <property name="kdenlive:id">116</property>
  </entry>
  <blank length="00:00:00.120"/>
  <entry in="00:00:00.560" out="00:00:05.320" producer="chain153">
   <property name="kdenlive:id">113</property>
  </entry>
  <blank length="00:00:00.240"/>
  <entry in="00:00:00.520" out="00:00:01.560" producer="chain154">
   <property name="kdenlive:id">114</property>
  </entry>
  <entry in="00:00:00.480" out="00:00:04.600" producer="chain155">
   <property name="kdenlive:id">112</property>
  </entry>
  <blank length="00:00:00.560"/>
  <entry in="00:00:00.800" out="00:00:06.440" producer="chain156">
   <property name="kdenlive:id">110</property>
  </entry>
  <entry in="00:00:00.440" out="00:00:01.800" producer="chain157">
   <property name="kdenlive:id">111</property>
  </entry>
  <entry in="00:00:00.680" out="00:00:03.120" producer="chain158">
   <property name="kdenlive:id">109</property>
  </entry>
  <entry in="00:00:00.520" out="00:00:04.200" producer="chain159">
   <property name="kdenlive:id">107</property>
  </entry>
  <entry in="00:00:00.600" out="00:00:04.480" producer="chain160">
   <property name="kdenlive:id">108</property>
  </entry>
  <entry in="00:00:00.680" out="00:00:03.880" producer="chain161">
   <property name="kdenlive:id">106</property>
  </entry>
  <entry in="00:00:00.760" out="00:00:02.520" producer="chain162">
   <property name="kdenlive:id">105</property>
  </entry>
  <blank length="00:00:00.440"/>
  <entry in="00:00:00.680" out="00:00:03.000" producer="chain163">
   <property name="kdenlive:id">104</property>
  </entry>
  <entry in="00:00:00.480" out="00:00:02.640" producer="chain164">
   <property name="kdenlive:id">103</property>
  </entry>
  <blank length="00:00:00.720"/>
  <entry in="00:00:00.400" out="00:00:03.280" producer="chain165">
   <property name="kdenlive:id">102</property>
  </entry>
  <blank length="00:00:00.440"/>
  <entry in="00:00:00.320" out="00:00:03.880" producer="chain166">
   <property name="kdenlive:id">100</property>
  </entry>
  <entry in="00:00:00.160" out="00:00:03.120" producer="chain167">
   <property name="kdenlive:id">101</property>
  </entry>
  <entry in="00:00:00.520" out="00:00:03.480" producer="chain168">
   <property name="kdenlive:id">99</property>
  </entry>
  <entry in="00:00:00.520" out="00:00:01.320" producer="chain169">
   <property name="kdenlive:id">98</property>
  </entry>
  <entry in="00:00:01.440" out="00:00:03.120" producer="chain169">
   <property name="kdenlive:id">98</property>
  </entry>
  <entry in="00:00:03.480" out="00:00:04.280" producer="chain169">
   <property name="kdenlive:id">98</property>
  </entry>
  <entry in="00:00:04.560" out="00:00:05.320" producer="chain169">
   <property name="kdenlive:id">98</property>
  </entry>
  <entry in="00:00:05.560" out="00:00:07.080" producer="chain169">
   <property name="kdenlive:id">98</property>
  </entry>
  <blank length="00:00:00.080"/>
  <entry in="00:00:00.520" out="00:00:02.920" producer="chain170">
   <property name="kdenlive:id">96</property>
  </entry>
  <entry in="00:00:00.480" out="00:00:02.920" producer="chain171">
   <property name="kdenlive:id">97</property>
  </entry>
  <entry in="00:00:00.600" out="00:00:04.000" producer="chain172">
   <property name="kdenlive:id">94</property>
  </entry>
  <blank length="00:00:00.560"/>
  <entry in="00:00:00.320" out="00:00:02.440" producer="chain173">
   <property name="kdenlive:id">95</property>
  </entry>
  <entry in="00:00:00.440" out="00:00:03.520" producer="chain174">
   <property name="kdenlive:id">93</property>
  </entry>
  <blank length="00:00:00.200"/>
  <entry in="00:00:00.720" out="00:00:02.080" producer="chain175">
   <property name="kdenlive:id">92</property>
  </entry>
  <blank length="00:00:00.200"/>
  <entry in="00:00:00.600" out="00:00:03.800" producer="chain176">
   <property name="kdenlive:id">91</property>
  </entry>
  <blank length="00:00:01.080"/>
  <entry in="00:00:00.560" out="00:00:04.920" producer="chain177">
   <property name="kdenlive:id">90</property>
  </entry>
  <blank length="00:00:00.160"/>
  <entry in="00:00:00.600" out="00:00:04.840" producer="chain178">
   <property name="kdenlive:id">88</property>
  </entry>
  <blank length="00:00:00.080"/>
  <entry in="00:00:00.520" out="00:00:04.160" producer="chain179">
   <property name="kdenlive:id">89</property>
  </entry>
  <entry in="00:00:00.440" out="00:00:03.640" producer="chain180">
   <property name="kdenlive:id">87</property>
  </entry>
  <blank length="00:00:00.120"/>
  <entry in="00:00:00.560" out="00:00:02.960" producer="chain181">
   <property name="kdenlive:id">86</property>
  </entry>
  <entry in="00:00:00.320" out="00:00:01.920" producer="chain182">
   <property name="kdenlive:id">85</property>
  </entry>
  <entry in="00:00:00.280" out="00:00:02.040" producer="chain183">
   <property name="kdenlive:id">84</property>
  </entry>
  <entry in="00:00:00.960" out="00:00:02.640" producer="chain184">
   <property name="kdenlive:id">83</property>
  </entry>
  <entry in="00:00:00.600" out="00:00:04.560" producer="chain185">
   <property name="kdenlive:id">81</property>
  </entry>
  <entry in="00:00:00.520" out="00:00:03.720" producer="chain186">
   <property name="kdenlive:id">82</property>
  </entry>
  <entry in="00:00:00.880" out="00:00:03.080" producer="chain187">
   <property name="kdenlive:id">80</property>
  </entry>
  <blank length="00:00:00.440"/>
  <entry in="00:00:00.280" out="00:00:02.000" producer="chain188">
   <property name="kdenlive:id">79</property>
  </entry>
  <entry in="00:00:00.480" out="00:00:03.360" producer="chain189">
   <property name="kdenlive:id">78</property>
  </entry>
  <entry in="00:00:00.400" out="00:00:04.760" producer="chain190">
   <property name="kdenlive:id">77</property>
  </entry>
  <blank length="00:03:15.840"/>
  <entry in="00:10:21.720" out="00:11:58.640" producer="chain191">
   <property name="kdenlive:id">4</property>
  </entry>
 </playlist>
 <playlist id="playlist3">
  <property name="kdenlive:audio_track">1</property>
 </playlist>
 <tractor id="tractor1" in="00:00:00.000" out="00:11:58.600">
  <property name="kdenlive:audio_track">1</property>
  <property name="kdenlive:trackheight">67</property>
  <property name="kdenlive:timeline_active">0</property>
  <property name="kdenlive:collapsed">0</property>
  <property name="kdenlive:track_name">配音</property>
  <property name="kdenlive:thumbs_format"/>
  <property name="kdenlive:audio_rec"/>
  <track hide="video" producer="playlist2"/>
  <track hide="video" producer="playlist3"/>
  <filter id="filter5">
   <property name="window">75</property>
   <property name="max_gain">20dB</property>
   <property name="mlt_service">volume</property>
   <property name="internal_added">237</property>
   <property name="disable">1</property>
  </filter>
  <filter id="filter6">
   <property name="channel">-1</property>
   <property name="mlt_service">panner</property>
   <property name="internal_added">237</property>
   <property name="start">0.5</property>
   <property name="disable">1</property>
  </filter>
  <filter id="filter7">
   <property name="iec_scale">0</property>
   <property name="mlt_service">audiolevel</property>
   <property name="dbpeak">1</property>
   <property name="disable">1</property>
  </filter>
 </tractor>
 <chain id="chain192" out="00:11:58.640">
  <property name="length">17967</property>
  <property name="eof">pause</property>
  <property name="resource">AreYouAnNPCA.m4s</property>
  <property name="mlt_service">avformat-novalidate</property>
  <property name="seekable">1</property>
  <property name="audio_index">0</property>
  <property name="video_index">-1</property>
  <property name="astream">0</property>
  <property name="kdenlive:folderid">-1</property>
  <property name="kdenlive:id">4</property>
  <property name="kdenlive:clip_type">1</property>
  <property name="kdenlive:file_size">13402209</property>
  <property name="kdenlive:file_hash">ff19a0e6fbc9396668986d1385224d06</property>
  <property name="kdenlive:monitorPosition">191</property>
  <property name="kdenlive:audio_max0">226</property>
  <property name="meta.media.nb_streams">1</property>
  <property name="meta.media.0.stream.type">audio</property>
  <property name="meta.media.0.codec.sample_fmt">fltp</property>
  <property name="meta.media.0.codec.sample_rate">48000</property>
  <property name="meta.media.0.codec.channels">2</property>
  <property name="meta.media.0.codec.layout">stereo</property>
  <property name="meta.media.0.codec.name">aac</property>
  <property name="meta.media.0.codec.long_name">AAC (Advanced Audio Coding)</property>
  <property name="meta.media.0.codec.bit_rate">903</property>
  <property name="meta.attr.0.stream.handler_name.markup">Bento4 Sound Handler</property>
  <property name="meta.attr.0.stream.vendor_id.markup">[0][0][0][0]</property>
  <property name="meta.attr.major_brand.markup">isom</property>
  <property name="meta.attr.minor_version.markup">512</property>
  <property name="meta.attr.compatible_brands.markup">isomiso2avc1mp41iso5</property>
  <property name="meta.attr.encoder.markup">Lavf58.29.100</property>
  <property name="meta.attr.description.markup">Packed by Bilibili XCoder v2.0.2</property>
  <property name="xml">was here</property>
  <property name="mute_on_pause">0</property>
  <property name="set.test_audio">0</property>
  <property name="set.test_image">1</property>
 </chain>
 <playlist id="playlist4">
  <property name="kdenlive:audio_track">1</property>
  <entry in="00:00:00.000" out="00:10:21.640" producer="chain192">
   <property name="kdenlive:id">4</property>
  </entry>
  <entry in="00:10:21.680" out="00:11:58.640" producer="chain192">
   <property name="kdenlive:id">4</property>
  </entry>
 </playlist>
 <playlist id="playlist5">
  <property name="kdenlive:audio_track">1</property>
 </playlist>
 <tractor id="tractor2" in="00:00:00.000" out="00:11:58.640">
  <property name="kdenlive:audio_track">1</property>
  <property name="kdenlive:trackheight">67</property>
  <property name="kdenlive:timeline_active">0</property>
  <property name="kdenlive:collapsed">0</property>
  <property name="kdenlive:track_name">原声</property>
  <property name="kdenlive:thumbs_format"/>
  <property name="kdenlive:audio_rec"/>
  <track hide="both" producer="playlist4"/>
  <track hide="both" producer="playlist5"/>
  <filter id="filter8">
   <property name="window">75</property>
   <property name="max_gain">20dB</property>
   <property name="mlt_service">volume</property>
   <property name="internal_added">237</property>
   <property name="disable">1</property>
  </filter>
  <filter id="filter9">
   <property name="channel">-1</property>
   <property name="mlt_service">panner</property>
   <property name="internal_added">237</property>
   <property name="start">0.5</property>
   <property name="disable">1</property>
  </filter>
  <filter id="filter10">
   <property name="iec_scale">0</property>
   <property name="mlt_service">audiolevel</property>
   <property name="dbpeak">1</property>
   <property name="disable">1</property>
  </filter>
 </tractor>
 <chain id="chain193" out="00:11:58.600">
  <property name="length">17966</property>
  <property name="eof">pause</property>
  <property name="resource">withzimu.m4s</property>
  <property name="mlt_service">avformat-novalidate</property>
  <property name="seekable">1</property>
  <property name="format">3</property>
  <property name="audio_index">-1</property>
  <property name="video_index">0</property>
  <property name="vstream">0</property>
  <property name="kdenlive:folderid">-1</property>
  <property name="kdenlive:id">9</property>
  <property name="mute_on_pause">0</property>
  <property name="kdenlive:clip_type">2</property>
  <property name="kdenlive:file_size">52949691</property>
  <property name="kdenlive:file_hash">04b64a898f62b2b689274525b610643c</property>
  <property name="kdenlive:monitorPosition">85</property>
  <property name="meta.media.nb_streams">1</property>
  <property name="meta.media.0.stream.type">video</property>
  <property name="meta.media.0.stream.frame_rate">30</property>
  <property name="meta.media.0.stream.sample_aspect_ratio">1</property>
  <property name="meta.media.0.codec.width">1920</property>
  <property name="meta.media.0.codec.height">1080</property>
  <property name="meta.media.0.codec.rotate">0</property>
  <property name="meta.media.0.codec.pix_fmt">yuv420p</property>
  <property name="meta.media.0.codec.sample_aspect_ratio">0</property>
  <property name="meta.media.0.codec.colorspace">709</property>
  <property name="meta.media.0.codec.color_trc">1</property>
  <property name="meta.media.0.codec.name">libdav1d</property>
  <property name="meta.media.0.codec.long_name">dav1d AV1 decoder by VideoLAN</property>
  <property name="meta.media.0.codec.bit_rate">5621</property>
  <property name="meta.attr.0.stream.handler_name.markup">Bento4 Video Handler</property>
  <property name="meta.attr.0.stream.vendor_id.markup">[0][0][0][0]</property>
  <property name="meta.attr.major_brand.markup">isom</property>
  <property name="meta.attr.minor_version.markup">512</property>
  <property name="meta.attr.compatible_brands.markup">isomiso2mp41iso5</property>
  <property name="meta.attr.encoder.markup">Lavf58.29.100</property>
  <property name="meta.attr.description.markup">Bilibili VXCode Swarm Transcoder v1.0.12</property>
  <property name="meta.media.sample_aspect_num">1</property>
  <property name="meta.media.sample_aspect_den">1</property>
  <property name="meta.media.frame_rate_num">30</property>
  <property name="meta.media.frame_rate_den">1</property>
  <property name="meta.media.colorspace">709</property>
  <property name="meta.media.color_trc">1</property>
  <property name="meta.media.has_b_frames">0</property>
  <property name="meta.media.width">1920</property>
  <property name="meta.media.height">1080</property>
  <property name="meta.media.aspect_ratio">1</property>
  <property name="meta.media.color_range">mpeg</property>
  <property name="xml">was here</property>
  <property name="meta.media.top_field_first">0</property>
  <property name="meta.media.progressive">1</property>
  <property name="set.test_audio">1</property>
  <property name="set.test_image">0</property>
 </chain>
 <producer id="producer24" in="00:00:00.000" out="00:13:36.560">
  <property name="length">20416</property>
  <property name="eof">pause</property>
  <property name="resource">0.880000:withzimu.m4s</property>
  <property name="aspect_ratio">1</property>
  <property name="meta.media.nb_streams">1</property>
  <property name="meta.media.0.stream.type">video</property>
  <property name="meta.media.0.stream.frame_rate">30</property>
  <property name="meta.media.0.stream.sample_aspect_ratio">1</property>
  <property name="meta.media.0.codec.width">1920</property>
  <property name="meta.media.0.codec.height">1080</property>
  <property name="meta.media.0.codec.rotate">0</property>
  <property name="meta.media.0.codec.pix_fmt">yuv420p</property>
  <property name="meta.media.0.codec.sample_aspect_ratio">0</property>
  <property name="meta.media.0.codec.colorspace">709</property>
  <property name="meta.media.0.codec.color_trc">1</property>
  <property name="meta.media.0.codec.name">libdav1d</property>
  <property name="meta.media.0.codec.long_name">dav1d AV1 decoder by VideoLAN</property>
  <property name="meta.media.0.codec.bit_rate">5621</property>
  <property name="meta.attr.0.stream.handler_name.markup">Bento4 Video Handler</property>
  <property name="meta.attr.0.stream.vendor_id.markup">[0][0][0][0]</property>
  <property name="meta.attr.major_brand.markup">isom</property>
  <property name="meta.attr.minor_version.markup">512</property>
  <property name="meta.attr.compatible_brands.markup">isomiso2mp41iso5</property>
  <property name="meta.attr.encoder.markup">Lavf58.29.100</property>
  <property name="meta.attr.description.markup">Bilibili VXCode Swarm Transcoder v1.0.12</property>
  <property name="seekable">1</property>
  <property name="meta.media.sample_aspect_num">1</property>
  <property name="meta.media.sample_aspect_den">1</property>
  <property name="format">3</property>
  <property name="audio_index">-1</property>
  <property name="video_index">0</property>
  <property name="warp_speed">0.88</property>
  <property name="warp_resource">withzimu.m4s</property>
  <property name="mlt_service">timewarp</property>
  <property name="vstream">0</property>
  <property name="astream">-1</property>
  <property name="set.test_audio">1</property>
  <property name="set.test_image">0</property>
  <property name="kdenlive:id">9</property>
  <property name="warp_pitch">0</property>
  <property name="meta.media.frame_rate_num">30</property>
  <property name="meta.media.frame_rate_den">1</property>
  <property name="meta.media.colorspace">709</property>
  <property name="meta.media.color_trc">1</property>
  <property name="meta.media.has_b_frames">0</property>
  <property name="meta.media.width">1920</property>
  <property name="meta.media.height">1080</property>
  <property name="meta.media.aspect_ratio">1</property>
  <property name="meta.media.color_range">mpeg</property>
  <property name="meta.media.top_field_first">0</property>
  <property name="meta.media.progressive">1</property>
 </producer>
 <producer id="producer25" in="00:00:00.000" out="00:08:38.160">
  <property name="length">12956</property>
  <property name="eof">pause</property>
  <property name="resource">1.386700:withzimu.m4s</property>
  <property name="aspect_ratio">1</property>
  <property name="meta.media.nb_streams">1</property>
  <property name="meta.media.0.stream.type">video</property>
  <property name="meta.media.0.stream.frame_rate">30</property>
  <property name="meta.media.0.stream.sample_aspect_ratio">1</property>
  <property name="meta.media.0.codec.width">1920</property>
  <property name="meta.media.0.codec.height">1080</property>
  <property name="meta.media.0.codec.rotate">0</property>
  <property name="meta.media.0.codec.pix_fmt">yuv420p</property>
  <property name="meta.media.0.codec.sample_aspect_ratio">0</property>
  <property name="meta.media.0.codec.colorspace">709</property>
  <property name="meta.media.0.codec.color_trc">1</property>
  <property name="meta.media.0.codec.name">libdav1d</property>
  <property name="meta.media.0.codec.long_name">dav1d AV1 decoder by VideoLAN</property>
  <property name="meta.media.0.codec.bit_rate">5621</property>
  <property name="meta.attr.0.stream.handler_name.markup">Bento4 Video Handler</property>
  <property name="meta.attr.0.stream.vendor_id.markup">[0][0][0][0]</property>
  <property name="meta.attr.major_brand.markup">isom</property>
  <property name="meta.attr.minor_version.markup">512</property>
  <property name="meta.attr.compatible_brands.markup">isomiso2mp41iso5</property>
  <property name="meta.attr.encoder.markup">Lavf58.29.100</property>
  <property name="meta.attr.description.markup">Bilibili VXCode Swarm Transcoder v1.0.12</property>
  <property name="seekable">1</property>
  <property name="meta.media.sample_aspect_num">1</property>
  <property name="meta.media.sample_aspect_den">1</property>
  <property name="format">3</property>
  <property name="audio_index">-1</property>
  <property name="video_index">0</property>
  <property name="warp_speed">1.3867</property>
  <property name="warp_resource">withzimu.m4s</property>
  <property name="mlt_service">timewarp</property>
  <property name="vstream">0</property>
  <property name="astream">-1</property>
  <property name="set.test_audio">1</property>
  <property name="set.test_image">0</property>
  <property name="kdenlive:id">9</property>
  <property name="warp_pitch">0</property>
  <property name="meta.media.frame_rate_num">30</property>
  <property name="meta.media.frame_rate_den">1</property>
  <property name="meta.media.colorspace">709</property>
  <property name="meta.media.color_trc">1</property>
  <property name="meta.media.has_b_frames">0</property>
  <property name="meta.media.width">1920</property>
  <property name="meta.media.height">1080</property>
  <property name="meta.media.aspect_ratio">1</property>
  <property name="meta.media.color_range">mpeg</property>
  <property name="meta.media.top_field_first">0</property>
  <property name="meta.media.progressive">1</property>
 </producer>
 <producer id="producer26" in="00:00:00.000" out="00:14:37.800">
  <property name="length">21947</property>
  <property name="eof">pause</property>
  <property name="resource">0.818600:withzimu.m4s</property>
  <property name="aspect_ratio">1</property>
  <property name="meta.media.nb_streams">1</property>
  <property name="meta.media.0.stream.type">video</property>
  <property name="meta.media.0.stream.frame_rate">30</property>
  <property name="meta.media.0.stream.sample_aspect_ratio">1</property>
  <property name="meta.media.0.codec.width">1920</property>
  <property name="meta.media.0.codec.height">1080</property>
  <property name="meta.media.0.codec.rotate">0</property>
  <property name="meta.media.0.codec.pix_fmt">yuv420p</property>
  <property name="meta.media.0.codec.sample_aspect_ratio">0</property>
  <property name="meta.media.0.codec.colorspace">709</property>
  <property name="meta.media.0.codec.color_trc">1</property>
  <property name="meta.media.0.codec.name">libdav1d</property>
  <property name="meta.media.0.codec.long_name">dav1d AV1 decoder by VideoLAN</property>
  <property name="meta.media.0.codec.bit_rate">5621</property>
  <property name="meta.attr.0.stream.handler_name.markup">Bento4 Video Handler</property>
  <property name="meta.attr.0.stream.vendor_id.markup">[0][0][0][0]</property>
  <property name="meta.attr.major_brand.markup">isom</property>
  <property name="meta.attr.minor_version.markup">512</property>
  <property name="meta.attr.compatible_brands.markup">isomiso2mp41iso5</property>
  <property name="meta.attr.encoder.markup">Lavf58.29.100</property>
  <property name="meta.attr.description.markup">Bilibili VXCode Swarm Transcoder v1.0.12</property>
  <property name="seekable">1</property>
  <property name="meta.media.sample_aspect_num">1</property>
  <property name="meta.media.sample_aspect_den">1</property>
  <property name="format">3</property>
  <property name="audio_index">-1</property>
  <property name="video_index">0</property>
  <property name="warp_speed">0.8186</property>
  <property name="warp_resource">withzimu.m4s</property>
  <property name="mlt_service">timewarp</property>
  <property name="vstream">0</property>
  <property name="astream">-1</property>
  <property name="set.test_audio">1</property>
  <property name="set.test_image">0</property>
  <property name="kdenlive:id">9</property>
  <property name="warp_pitch">0</property>
  <property name="meta.media.frame_rate_num">30</property>
  <property name="meta.media.frame_rate_den">1</property>
  <property name="meta.media.colorspace">709</property>
  <property name="meta.media.color_trc">1</property>
  <property name="meta.media.has_b_frames">0</property>
  <property name="meta.media.width">1920</property>
  <property name="meta.media.height">1080</property>
  <property name="meta.media.aspect_ratio">1</property>
  <property name="meta.media.color_range">mpeg</property>
  <property name="meta.media.top_field_first">0</property>
  <property name="meta.media.progressive">1</property>
 </producer>
 <producer id="producer27" in="00:00:00.000" out="00:14:37.600">
  <property name="length">21942</property>
  <property name="eof">pause</property>
  <property name="resource">0.818800:withzimu.m4s</property>
  <property name="aspect_ratio">1</property>
  <property name="meta.media.nb_streams">1</property>
  <property name="meta.media.0.stream.type">video</property>
  <property name="meta.media.0.stream.frame_rate">30</property>
  <property name="meta.media.0.stream.sample_aspect_ratio">1</property>
  <property name="meta.media.0.codec.width">1920</property>
  <property name="meta.media.0.codec.height">1080</property>
  <property name="meta.media.0.codec.rotate">0</property>
  <property name="meta.media.0.codec.pix_fmt">yuv420p</property>
  <property name="meta.media.0.codec.sample_aspect_ratio">0</property>
  <property name="meta.media.0.codec.colorspace">709</property>
  <property name="meta.media.0.codec.color_trc">1</property>
  <property name="meta.media.0.codec.name">libdav1d</property>
  <property name="meta.media.0.codec.long_name">dav1d AV1 decoder by VideoLAN</property>
  <property name="meta.media.0.codec.bit_rate">5621</property>
  <property name="meta.attr.0.stream.handler_name.markup">Bento4 Video Handler</property>
  <property name="meta.attr.0.stream.vendor_id.markup">[0][0][0][0]</property>
  <property name="meta.attr.major_brand.markup">isom</property>
  <property name="meta.attr.minor_version.markup">512</property>
  <property name="meta.attr.compatible_brands.markup">isomiso2mp41iso5</property>
  <property name="meta.attr.encoder.markup">Lavf58.29.100</property>
  <property name="meta.attr.description.markup">Bilibili VXCode Swarm Transcoder v1.0.12</property>
  <property name="seekable">1</property>
  <property name="meta.media.sample_aspect_num">1</property>
  <property name="meta.media.sample_aspect_den">1</property>
  <property name="format">3</property>
  <property name="audio_index">-1</property>
  <property name="video_index">0</property>
  <property name="warp_speed">0.8188</property>
  <property name="warp_resource">withzimu.m4s</property>
  <property name="mlt_service">timewarp</property>
  <property name="vstream">0</property>
  <property name="astream">-1</property>
  <property name="set.test_audio">1</property>
  <property name="set.test_image">0</property>
  <property name="kdenlive:id">9</property>
  <property name="warp_pitch">0</property>
  <property name="meta.media.frame_rate_num">30</property>
  <property name="meta.media.frame_rate_den">1</property>
  <property name="meta.media.colorspace">709</property>
  <property name="meta.media.color_trc">1</property>
  <property name="meta.media.has_b_frames">0</property>
  <property name="meta.media.width">1920</property>
  <property name="meta.media.height">1080</property>
  <property name="meta.media.aspect_ratio">1</property>
  <property name="meta.media.color_range">mpeg</property>
  <property name="meta.media.top_field_first">0</property>
  <property name="meta.media.progressive">1</property>
 </producer>
 <producer id="producer28" in="00:00:00.000" out="00:13:34.720">
  <property name="length">20370</property>
  <property name="eof">pause</property>
  <property name="resource">0.882000:withzimu.m4s</property>
  <property name="aspect_ratio">1</property>
  <property name="meta.media.nb_streams">1</property>
  <property name="meta.media.0.stream.type">video</property>
  <property name="meta.media.0.stream.frame_rate">30</property>
  <property name="meta.media.0.stream.sample_aspect_ratio">1</property>
  <property name="meta.media.0.codec.width">1920</property>
  <property name="meta.media.0.codec.height">1080</property>
  <property name="meta.media.0.codec.rotate">0</property>
  <property name="meta.media.0.codec.pix_fmt">yuv420p</property>
  <property name="meta.media.0.codec.sample_aspect_ratio">0</property>
  <property name="meta.media.0.codec.colorspace">709</property>
  <property name="meta.media.0.codec.color_trc">1</property>
  <property name="meta.media.0.codec.name">libdav1d</property>
  <property name="meta.media.0.codec.long_name">dav1d AV1 decoder by VideoLAN</property>
  <property name="meta.media.0.codec.bit_rate">5621</property>
  <property name="meta.attr.0.stream.handler_name.markup">Bento4 Video Handler</property>
  <property name="meta.attr.0.stream.vendor_id.markup">[0][0][0][0]</property>
  <property name="meta.attr.major_brand.markup">isom</property>
  <property name="meta.attr.minor_version.markup">512</property>
  <property name="meta.attr.compatible_brands.markup">isomiso2mp41iso5</property>
  <property name="meta.attr.encoder.markup">Lavf58.29.100</property>
  <property name="meta.attr.description.markup">Bilibili VXCode Swarm Transcoder v1.0.12</property>
  <property name="seekable">1</property>
  <property name="meta.media.sample_aspect_num">1</property>
  <property name="meta.media.sample_aspect_den">1</property>
  <property name="format">3</property>
  <property name="audio_index">-1</property>
  <property name="video_index">0</property>
  <property name="warp_speed">0.882</property>
  <property name="warp_resource">withzimu.m4s</property>
  <property name="mlt_service">timewarp</property>
  <property name="vstream">0</property>
  <property name="astream">-1</property>
  <property name="set.test_audio">1</property>
  <property name="set.test_image">0</property>
  <property name="kdenlive:id">9</property>
  <property name="warp_pitch">0</property>
  <property name="meta.media.frame_rate_num">30</property>
  <property name="meta.media.frame_rate_den">1</property>
  <property name="meta.media.colorspace">709</property>
  <property name="meta.media.color_trc">1</property>
  <property name="meta.media.has_b_frames">0</property>
  <property name="meta.media.width">1920</property>
  <property name="meta.media.height">1080</property>
  <property name="meta.media.aspect_ratio">1</property>
  <property name="meta.media.color_range">mpeg</property>
  <property name="meta.media.top_field_first">0</property>
  <property name="meta.media.progressive">1</property>
 </producer>
 <producer id="producer21" in="00:00:00.000" out="00:15:21.600">
  <property name="length">23042</property>
  <property name="eof">pause</property>
  <property name="resource">0.779700:withzimu.m4s</property>
  <property name="aspect_ratio">1</property>
  <property name="meta.media.nb_streams">1</property>
  <property name="meta.media.0.stream.type">video</property>
  <property name="meta.media.0.stream.frame_rate">30</property>
  <property name="meta.media.0.stream.sample_aspect_ratio">1</property>
  <property name="meta.media.0.codec.width">1920</property>
  <property name="meta.media.0.codec.height">1080</property>
  <property name="meta.media.0.codec.rotate">0</property>
  <property name="meta.media.0.codec.pix_fmt">yuv420p</property>
  <property name="meta.media.0.codec.sample_aspect_ratio">0</property>
  <property name="meta.media.0.codec.colorspace">709</property>
  <property name="meta.media.0.codec.color_trc">1</property>
  <property name="meta.media.0.codec.name">libdav1d</property>
  <property name="meta.media.0.codec.long_name">dav1d AV1 decoder by VideoLAN</property>
  <property name="meta.media.0.codec.bit_rate">5621</property>
  <property name="meta.attr.0.stream.handler_name.markup">Bento4 Video Handler</property>
  <property name="meta.attr.0.stream.vendor_id.markup">[0][0][0][0]</property>
  <property name="meta.attr.major_brand.markup">isom</property>
  <property name="meta.attr.minor_version.markup">512</property>
  <property name="meta.attr.compatible_brands.markup">isomiso2mp41iso5</property>
  <property name="meta.attr.encoder.markup">Lavf58.29.100</property>
  <property name="meta.attr.description.markup">Bilibili VXCode Swarm Transcoder v1.0.12</property>
  <property name="seekable">1</property>
  <property name="meta.media.sample_aspect_num">1</property>
  <property name="meta.media.sample_aspect_den">1</property>
  <property name="format">3</property>
  <property name="audio_index">-1</property>
  <property name="video_index">0</property>
  <property name="warp_speed">0.7797</property>
  <property name="warp_resource">withzimu.m4s</property>
  <property name="mlt_service">timewarp</property>
  <property name="vstream">0</property>
  <property name="astream">-1</property>
  <property name="set.test_audio">1</property>
  <property name="set.test_image">0</property>
  <property name="kdenlive:id">9</property>
  <property name="warp_pitch">0</property>
  <property name="meta.media.frame_rate_num">30</property>
  <property name="meta.media.frame_rate_den">1</property>
  <property name="meta.media.colorspace">709</property>
  <property name="meta.media.color_trc">1</property>
  <property name="meta.media.has_b_frames">0</property>
  <property name="meta.media.width">1920</property>
  <property name="meta.media.height">1080</property>
  <property name="meta.media.aspect_ratio">1</property>
  <property name="meta.media.color_range">mpeg</property>
  <property name="meta.media.top_field_first">0</property>
  <property name="meta.media.progressive">1</property>
 </producer>
 <producer id="producer22" in="00:00:00.000" out="00:15:02.400">
  <property name="length">22562</property>
  <property name="eof">pause</property>
  <property name="resource">0.796300:withzimu.m4s</property>
  <property name="aspect_ratio">1</property>
  <property name="meta.media.nb_streams">1</property>
  <property name="meta.media.0.stream.type">video</property>
  <property name="meta.media.0.stream.frame_rate">30</property>
  <property name="meta.media.0.stream.sample_aspect_ratio">1</property>
  <property name="meta.media.0.codec.width">1920</property>
  <property name="meta.media.0.codec.height">1080</property>
  <property name="meta.media.0.codec.rotate">0</property>
  <property name="meta.media.0.codec.pix_fmt">yuv420p</property>
  <property name="meta.media.0.codec.sample_aspect_ratio">0</property>
  <property name="meta.media.0.codec.colorspace">709</property>
  <property name="meta.media.0.codec.color_trc">1</property>
  <property name="meta.media.0.codec.name">libdav1d</property>
  <property name="meta.media.0.codec.long_name">dav1d AV1 decoder by VideoLAN</property>
  <property name="meta.media.0.codec.bit_rate">5621</property>
  <property name="meta.attr.0.stream.handler_name.markup">Bento4 Video Handler</property>
  <property name="meta.attr.0.stream.vendor_id.markup">[0][0][0][0]</property>
  <property name="meta.attr.major_brand.markup">isom</property>
  <property name="meta.attr.minor_version.markup">512</property>
  <property name="meta.attr.compatible_brands.markup">isomiso2mp41iso5</property>
  <property name="meta.attr.encoder.markup">Lavf58.29.100</property>
  <property name="meta.attr.description.markup">Bilibili VXCode Swarm Transcoder v1.0.12</property>
  <property name="seekable">1</property>
  <property name="meta.media.sample_aspect_num">1</property>
  <property name="meta.media.sample_aspect_den">1</property>
  <property name="format">3</property>
  <property name="audio_index">-1</property>
  <property name="video_index">0</property>
  <property name="warp_speed">0.7963</property>
  <property name="warp_resource">withzimu.m4s</property>
  <property name="mlt_service">timewarp</property>
  <property name="vstream">0</property>
  <property name="astream">-1</property>
  <property name="set.test_audio">1</property>
  <property name="set.test_image">0</property>
  <property name="kdenlive:id">9</property>
  <property name="warp_pitch">0</property>
  <property name="meta.media.frame_rate_num">30</property>
  <property name="meta.media.frame_rate_den">1</property>
  <property name="meta.media.colorspace">709</property>
  <property name="meta.media.color_trc">1</property>
  <property name="meta.media.has_b_frames">0</property>
  <property name="meta.media.width">1920</property>
  <property name="meta.media.height">1080</property>
  <property name="meta.media.aspect_ratio">1</property>
  <property name="meta.media.color_range">mpeg</property>
  <property name="meta.media.top_field_first">0</property>
  <property name="meta.media.progressive">1</property>
 </producer>
 <producer id="producer23" in="00:00:00.000" out="00:14:26.480">
  <property name="length">21664</property>
  <property name="eof">pause</property>
  <property name="resource">0.829300:withzimu.m4s</property>
  <property name="aspect_ratio">1</property>
  <property name="meta.media.nb_streams">1</property>
  <property name="meta.media.0.stream.type">video</property>
  <property name="meta.media.0.stream.frame_rate">30</property>
  <property name="meta.media.0.stream.sample_aspect_ratio">1</property>
  <property name="meta.media.0.codec.width">1920</property>
  <property name="meta.media.0.codec.height">1080</property>
  <property name="meta.media.0.codec.rotate">0</property>
  <property name="meta.media.0.codec.pix_fmt">yuv420p</property>
  <property name="meta.media.0.codec.sample_aspect_ratio">0</property>
  <property name="meta.media.0.codec.colorspace">709</property>
  <property name="meta.media.0.codec.color_trc">1</property>
  <property name="meta.media.0.codec.name">libdav1d</property>
  <property name="meta.media.0.codec.long_name">dav1d AV1 decoder by VideoLAN</property>
  <property name="meta.media.0.codec.bit_rate">5621</property>
  <property name="meta.attr.0.stream.handler_name.markup">Bento4 Video Handler</property>
  <property name="meta.attr.0.stream.vendor_id.markup">[0][0][0][0]</property>
  <property name="meta.attr.major_brand.markup">isom</property>
  <property name="meta.attr.minor_version.markup">512</property>
  <property name="meta.attr.compatible_brands.markup">isomiso2mp41iso5</property>
  <property name="meta.attr.encoder.markup">Lavf58.29.100</property>
  <property name="meta.attr.description.markup">Bilibili VXCode Swarm Transcoder v1.0.12</property>
  <property name="seekable">1</property>
  <property name="meta.media.sample_aspect_num">1</property>
  <property name="meta.media.sample_aspect_den">1</property>
  <property name="format">3</property>
  <property name="audio_index">-1</property>
  <property name="video_index">0</property>
  <property name="warp_speed">0.8293</property>
  <property name="warp_resource">withzimu.m4s</property>
  <property name="mlt_service">timewarp</property>
  <property name="vstream">0</property>
  <property name="astream">-1</property>
  <property name="set.test_audio">1</property>
  <property name="set.test_image">0</property>
  <property name="kdenlive:id">9</property>
  <property name="warp_pitch">0</property>
  <property name="meta.media.frame_rate_num">30</property>
  <property name="meta.media.frame_rate_den">1</property>
  <property name="meta.media.colorspace">709</property>
  <property name="meta.media.color_trc">1</property>
  <property name="meta.media.has_b_frames">0</property>
  <property name="meta.media.width">1920</property>
  <property name="meta.media.height">1080</property>
  <property name="meta.media.aspect_ratio">1</property>
  <property name="meta.media.color_range">mpeg</property>
  <property name="meta.media.top_field_first">0</property>
  <property name="meta.media.progressive">1</property>
 </producer>
 <producer id="producer29" in="00:00:00.000" out="00:13:32.240">
  <property name="length">20307</property>
  <property name="eof">pause</property>
  <property name="resource">0.884700:withzimu.m4s</property>
  <property name="aspect_ratio">1</property>
  <property name="meta.media.nb_streams">1</property>
  <property name="meta.media.0.stream.type">video</property>
  <property name="meta.media.0.stream.frame_rate">30</property>
  <property name="meta.media.0.stream.sample_aspect_ratio">1</property>
  <property name="meta.media.0.codec.width">1920</property>
  <property name="meta.media.0.codec.height">1080</property>
  <property name="meta.media.0.codec.rotate">0</property>
  <property name="meta.media.0.codec.pix_fmt">yuv420p</property>
  <property name="meta.media.0.codec.sample_aspect_ratio">0</property>
  <property name="meta.media.0.codec.colorspace">709</property>
  <property name="meta.media.0.codec.color_trc">1</property>
  <property name="meta.media.0.codec.name">libdav1d</property>
  <property name="meta.media.0.codec.long_name">dav1d AV1 decoder by VideoLAN</property>
  <property name="meta.media.0.codec.bit_rate">5621</property>
  <property name="meta.attr.0.stream.handler_name.markup">Bento4 Video Handler</property>
  <property name="meta.attr.0.stream.vendor_id.markup">[0][0][0][0]</property>
  <property name="meta.attr.major_brand.markup">isom</property>
  <property name="meta.attr.minor_version.markup">512</property>
  <property name="meta.attr.compatible_brands.markup">isomiso2mp41iso5</property>
  <property name="meta.attr.encoder.markup">Lavf58.29.100</property>
  <property name="meta.attr.description.markup">Bilibili VXCode Swarm Transcoder v1.0.12</property>
  <property name="seekable">1</property>
  <property name="meta.media.sample_aspect_num">1</property>
  <property name="meta.media.sample_aspect_den">1</property>
  <property name="format">3</property>
  <property name="audio_index">-1</property>
  <property name="video_index">0</property>
  <property name="warp_speed">0.8847</property>
  <property name="warp_resource">withzimu.m4s</property>
  <property name="mlt_service">timewarp</property>
  <property name="vstream">0</property>
  <property name="astream">-1</property>
  <property name="set.test_audio">1</property>
  <property name="set.test_image">0</property>
  <property name="kdenlive:id">9</property>
  <property name="warp_pitch">0</property>
  <property name="meta.media.frame_rate_num">30</property>
  <property name="meta.media.frame_rate_den">1</property>
  <property name="meta.media.colorspace">709</property>
  <property name="meta.media.color_trc">1</property>
  <property name="meta.media.has_b_frames">0</property>
  <property name="meta.media.width">1920</property>
  <property name="meta.media.height">1080</property>
  <property name="meta.media.aspect_ratio">1</property>
  <property name="meta.media.color_range">mpeg</property>
  <property name="meta.media.top_field_first">0</property>
  <property name="meta.media.progressive">1</property>
 </producer>
 <producer id="producer30" in="00:00:00.000" out="00:14:25.760">
  <property name="length">21646</property>
  <property name="eof">pause</property>
  <property name="resource">0.830000:withzimu.m4s</property>
  <property name="aspect_ratio">1</property>
  <property name="meta.media.nb_streams">1</property>
  <property name="meta.media.0.stream.type">video</property>
  <property name="meta.media.0.stream.frame_rate">30</property>
  <property name="meta.media.0.stream.sample_aspect_ratio">1</property>
  <property name="meta.media.0.codec.width">1920</property>
  <property name="meta.media.0.codec.height">1080</property>
  <property name="meta.media.0.codec.rotate">0</property>
  <property name="meta.media.0.codec.pix_fmt">yuv420p</property>
  <property name="meta.media.0.codec.sample_aspect_ratio">0</property>
  <property name="meta.media.0.codec.colorspace">709</property>
  <property name="meta.media.0.codec.color_trc">1</property>
  <property name="meta.media.0.codec.name">libdav1d</property>
  <property name="meta.media.0.codec.long_name">dav1d AV1 decoder by VideoLAN</property>
  <property name="meta.media.0.codec.bit_rate">5621</property>
  <property name="meta.attr.0.stream.handler_name.markup">Bento4 Video Handler</property>
  <property name="meta.attr.0.stream.vendor_id.markup">[0][0][0][0]</property>
  <property name="meta.attr.major_brand.markup">isom</property>
  <property name="meta.attr.minor_version.markup">512</property>
  <property name="meta.attr.compatible_brands.markup">isomiso2mp41iso5</property>
  <property name="meta.attr.encoder.markup">Lavf58.29.100</property>
  <property name="meta.attr.description.markup">Bilibili VXCode Swarm Transcoder v1.0.12</property>
  <property name="seekable">1</property>
  <property name="meta.media.sample_aspect_num">1</property>
  <property name="meta.media.sample_aspect_den">1</property>
  <property name="format">3</property>
  <property name="audio_index">-1</property>
  <property name="video_index">0</property>
  <property name="warp_speed">0.83</property>
  <property name="warp_resource">withzimu.m4s</property>
  <property name="mlt_service">timewarp</property>
  <property name="vstream">0</property>
  <property name="astream">-1</property>
  <property name="set.test_audio">1</property>
  <property name="set.test_image">0</property>
  <property name="kdenlive:id">9</property>
  <property name="warp_pitch">0</property>
  <property name="meta.media.frame_rate_num">30</property>
  <property name="meta.media.frame_rate_den">1</property>
  <property name="meta.media.colorspace">709</property>
  <property name="meta.media.color_trc">1</property>
  <property name="meta.media.has_b_frames">0</property>
  <property name="meta.media.width">1920</property>
  <property name="meta.media.height">1080</property>
  <property name="meta.media.aspect_ratio">1</property>
  <property name="meta.media.color_range">mpeg</property>
  <property name="meta.media.top_field_first">0</property>
  <property name="meta.media.progressive">1</property>
 </producer>
 <producer id="producer31" in="00:00:00.000" out="00:14:34.280">
  <property name="length">21859</property>
  <property name="eof">pause</property>
  <property name="resource">0.821900:withzimu.m4s</property>
  <property name="aspect_ratio">1</property>
  <property name="meta.media.nb_streams">1</property>
  <property name="meta.media.0.stream.type">video</property>
  <property name="meta.media.0.stream.frame_rate">30</property>
  <property name="meta.media.0.stream.sample_aspect_ratio">1</property>
  <property name="meta.media.0.codec.width">1920</property>
  <property name="meta.media.0.codec.height">1080</property>
  <property name="meta.media.0.codec.rotate">0</property>
  <property name="meta.media.0.codec.pix_fmt">yuv420p</property>
  <property name="meta.media.0.codec.sample_aspect_ratio">0</property>
  <property name="meta.media.0.codec.colorspace">709</property>
  <property name="meta.media.0.codec.color_trc">1</property>
  <property name="meta.media.0.codec.name">libdav1d</property>
  <property name="meta.media.0.codec.long_name">dav1d AV1 decoder by VideoLAN</property>
  <property name="meta.media.0.codec.bit_rate">5621</property>
  <property name="meta.attr.0.stream.handler_name.markup">Bento4 Video Handler</property>
  <property name="meta.attr.0.stream.vendor_id.markup">[0][0][0][0]</property>
  <property name="meta.attr.major_brand.markup">isom</property>
  <property name="meta.attr.minor_version.markup">512</property>
  <property name="meta.attr.compatible_brands.markup">isomiso2mp41iso5</property>
  <property name="meta.attr.encoder.markup">Lavf58.29.100</property>
  <property name="meta.attr.description.markup">Bilibili VXCode Swarm Transcoder v1.0.12</property>
  <property name="seekable">1</property>
  <property name="meta.media.sample_aspect_num">1</property>
  <property name="meta.media.sample_aspect_den">1</property>
  <property name="format">3</property>
  <property name="audio_index">-1</property>
  <property name="video_index">0</property>
  <property name="warp_speed">0.8219</property>
  <property name="warp_resource">withzimu.m4s</property>
  <property name="mlt_service">timewarp</property>
  <property name="vstream">0</property>
  <property name="astream">-1</property>
  <property name="set.test_audio">1</property>
  <property name="set.test_image">0</property>
  <property name="kdenlive:id">9</property>
  <property name="warp_pitch">0</property>
  <property name="meta.media.frame_rate_num">30</property>
  <property name="meta.media.frame_rate_den">1</property>
  <property name="meta.media.colorspace">709</property>
  <property name="meta.media.color_trc">1</property>
  <property name="meta.media.has_b_frames">0</property>
  <property name="meta.media.width">1920</property>
  <property name="meta.media.height">1080</property>
  <property name="meta.media.aspect_ratio">1</property>
  <property name="meta.media.color_range">mpeg</property>
  <property name="meta.media.top_field_first">0</property>
  <property name="meta.media.progressive">1</property>
 </producer>
 <producer id="producer32" in="00:00:00.000" out="00:12:54.880">
  <property name="length">19375</property>
  <property name="eof">pause</property>
  <property name="resource">0.927300:withzimu.m4s</property>
  <property name="aspect_ratio">1</property>
  <property name="meta.media.nb_streams">1</property>
  <property name="meta.media.0.stream.type">video</property>
  <property name="meta.media.0.stream.frame_rate">30</property>
  <property name="meta.media.0.stream.sample_aspect_ratio">1</property>
  <property name="meta.media.0.codec.width">1920</property>
  <property name="meta.media.0.codec.height">1080</property>
  <property name="meta.media.0.codec.rotate">0</property>
  <property name="meta.media.0.codec.pix_fmt">yuv420p</property>
  <property name="meta.media.0.codec.sample_aspect_ratio">0</property>
  <property name="meta.media.0.codec.colorspace">709</property>
  <property name="meta.media.0.codec.color_trc">1</property>
  <property name="meta.media.0.codec.name">libdav1d</property>
  <property name="meta.media.0.codec.long_name">dav1d AV1 decoder by VideoLAN</property>
  <property name="meta.media.0.codec.bit_rate">5621</property>
  <property name="meta.attr.0.stream.handler_name.markup">Bento4 Video Handler</property>
  <property name="meta.attr.0.stream.vendor_id.markup">[0][0][0][0]</property>
  <property name="meta.attr.major_brand.markup">isom</property>
  <property name="meta.attr.minor_version.markup">512</property>
  <property name="meta.attr.compatible_brands.markup">isomiso2mp41iso5</property>
  <property name="meta.attr.encoder.markup">Lavf58.29.100</property>
  <property name="meta.attr.description.markup">Bilibili VXCode Swarm Transcoder v1.0.12</property>
  <property name="seekable">1</property>
  <property name="meta.media.sample_aspect_num">1</property>
  <property name="meta.media.sample_aspect_den">1</property>
  <property name="format">3</property>
  <property name="audio_index">-1</property>
  <property name="video_index">0</property>
  <property name="warp_speed">0.9273</property>
  <property name="warp_resource">withzimu.m4s</property>
  <property name="mlt_service">timewarp</property>
  <property name="vstream">0</property>
  <property name="astream">-1</property>
  <property name="set.test_audio">1</property>
  <property name="set.test_image">0</property>
  <property name="kdenlive:id">9</property>
  <property name="warp_pitch">0</property>
  <property name="meta.media.frame_rate_num">30</property>
  <property name="meta.media.frame_rate_den">1</property>
  <property name="meta.media.colorspace">709</property>
  <property name="meta.media.color_trc">1</property>
  <property name="meta.media.has_b_frames">0</property>
  <property name="meta.media.width">1920</property>
  <property name="meta.media.height">1080</property>
  <property name="meta.media.aspect_ratio">1</property>
  <property name="meta.media.color_range">mpeg</property>
  <property name="meta.media.top_field_first">0</property>
  <property name="meta.media.progressive">1</property>
 </producer>
 <playlist id="playlist6">
  <entry in="00:00:00.000" out="00:02:28.640" producer="chain193">
   <property name="kdenlive:id">9</property>
  </entry>
  <entry in="00:02:48.840" out="00:02:53.440" producer="producer24">
   <property name="kdenlive:id">9</property>
  </entry>
  <entry in="00:01:50.040" out="00:01:51.560" producer="producer25">
   <property name="kdenlive:id">9</property>
  </entry>
  <entry in="00:03:09.200" out="00:03:12.560" producer="producer26">
   <property name="kdenlive:id">9</property>
  </entry>
  <entry in="00:03:12.560" out="00:03:18.920" producer="producer27">
   <property name="kdenlive:id">9</property>
  </entry>
  <entry in="00:03:04.680" out="00:03:11.080" producer="producer28">
   <property name="kdenlive:id">9</property>
  </entry>
  <entry in="00:02:48.600" out="00:04:07.160" producer="chain193">
   <property name="kdenlive:id">9</property>
  </entry>
  <entry in="00:05:17.040" out="00:05:21.720" producer="producer21">
   <property name="kdenlive:id">9</property>
  </entry>
  <entry in="00:05:15.040" out="00:05:17.160" producer="producer22">
   <property name="kdenlive:id">9</property>
  </entry>
  <entry in="00:04:12.600" out="00:06:37.640" producer="chain193">
   <property name="kdenlive:id">9</property>
  </entry>
  <entry in="00:07:59.520" out="00:08:01.120" producer="producer23">
   <property name="kdenlive:id">9</property>
  </entry>
  <entry in="00:07:30.920" out="00:07:34.400" producer="producer29">
   <property name="kdenlive:id">9</property>
  </entry>
  <entry in="00:08:04.520" out="00:08:08.480" producer="producer30">
   <property name="kdenlive:id">9</property>
  </entry>
  <entry in="00:06:45.480" out="00:06:53.120" producer="chain193">
   <property name="kdenlive:id">9</property>
  </entry>
  <entry in="00:08:22.680" out="00:08:25.560" producer="producer31">
   <property name="kdenlive:id">9</property>
  </entry>
  <entry in="00:07:28.120" out="00:07:32.480" producer="producer32">
   <property name="kdenlive:id">9</property>
  </entry>
  <entry in="00:06:59.640" out="00:11:58.600" producer="chain193">
   <property name="kdenlive:id">9</property>
  </entry>
 </playlist>
 <playlist id="playlist7"/>
 <tractor id="tractor3" in="00:00:00.000" out="00:12:04.800">
  <property name="kdenlive:trackheight">67</property>
  <property name="kdenlive:timeline_active">0</property>
  <property name="kdenlive:collapsed">0</property>
  <property name="kdenlive:track_name">视频</property>
  <property name="kdenlive:thumbs_format"/>
  <property name="kdenlive:audio_rec"/>
  <track hide="audio" producer="playlist6"/>
  <track hide="audio" producer="playlist7"/>
 </tractor>
 <producer id="producer33" in="00:00:00.000" out="00:00:00.960">
  <property name="length">25</property>
  <property name="eof">pause</property>
  <property name="resource">/home/xaxkrt/.cache/kdenlive/1722413296105/preview/0.mp4</property>
  <property name="audio_index">-1</property>
  <property name="video_index">0</property>
  <property name="mute_on_pause">0</property>
  <property name="mlt_service">avformat-novalidate</property>
  <property name="meta.media.nb_streams">1</property>
  <property name="meta.media.0.stream.type">video</property>
  <property name="meta.media.0.stream.frame_rate">25</property>
  <property name="meta.media.0.stream.sample_aspect_ratio">1</property>
  <property name="meta.media.0.codec.width">1920</property>
  <property name="meta.media.0.codec.height">1080</property>
  <property name="meta.media.0.codec.rotate">0</property>
  <property name="meta.media.0.codec.pix_fmt">yuv420p</property>
  <property name="meta.media.0.codec.sample_aspect_ratio">1</property>
  <property name="meta.media.0.codec.colorspace">709</property>
  <property name="meta.media.0.codec.color_trc">1</property>
  <property name="meta.media.0.codec.name">h264</property>
  <property name="meta.media.0.codec.long_name">H.264 / AVC / MPEG-4 AVC / MPEG-4 part 10</property>
  <property name="meta.media.0.codec.bit_rate">8180776</property>
  <property name="meta.attr.0.stream.handler_name.markup">VideoHandler</property>
  <property name="meta.attr.0.stream.vendor_id.markup">[0][0][0][0]</property>
  <property name="meta.attr.major_brand.markup">isom</property>
  <property name="meta.attr.minor_version.markup">512</property>
  <property name="meta.attr.compatible_brands.markup">isomiso2avc1mp41</property>
  <property name="meta.attr.encoder.markup">Lavf60.16.100</property>
  <property name="seekable">1</property>
  <property name="meta.media.sample_aspect_num">1</property>
  <property name="meta.media.sample_aspect_den">1</property>
  <property name="aspect_ratio">1</property>
  <property name="format">3</property>
  <property name="vstream">0</property>
  <property name="meta.media.frame_rate_num">25</property>
  <property name="meta.media.frame_rate_den">1</property>
  <property name="meta.media.colorspace">709</property>
  <property name="meta.media.color_trc">1</property>
  <property name="meta.media.has_b_frames">0</property>
  <property name="meta.media.width">1920</property>
  <property name="meta.media.height">1080</property>
  <property name="meta.media.aspect_ratio">1</property>
  <property name="meta.media.color_range">mpeg</property>
  <property name="meta.media.top_field_first">0</property>
  <property name="meta.media.progressive">1</property>
 </producer>
 <producer id="producer34" in="00:00:00.000" out="00:00:00.960">
  <property name="length">25</property>
  <property name="eof">pause</property>
  <property name="resource">/home/xaxkrt/.cache/kdenlive/1722413296105/preview/25.mp4</property>
  <property name="audio_index">-1</property>
  <property name="video_index">0</property>
  <property name="mute_on_pause">0</property>
  <property name="mlt_service">avformat-novalidate</property>
  <property name="meta.media.nb_streams">1</property>
  <property name="meta.media.0.stream.type">video</property>
  <property name="meta.media.0.stream.frame_rate">25</property>
  <property name="meta.media.0.stream.sample_aspect_ratio">1</property>
  <property name="meta.media.0.codec.width">1920</property>
  <property name="meta.media.0.codec.height">1080</property>
  <property name="meta.media.0.codec.rotate">0</property>
  <property name="meta.media.0.codec.pix_fmt">yuv420p</property>
  <property name="meta.media.0.codec.sample_aspect_ratio">1</property>
  <property name="meta.media.0.codec.colorspace">709</property>
  <property name="meta.media.0.codec.color_trc">1</property>
  <property name="meta.media.0.codec.name">h264</property>
  <property name="meta.media.0.codec.long_name">H.264 / AVC / MPEG-4 AVC / MPEG-4 part 10</property>
  <property name="meta.media.0.codec.bit_rate">10134248</property>
  <property name="meta.attr.0.stream.handler_name.markup">VideoHandler</property>
  <property name="meta.attr.0.stream.vendor_id.markup">[0][0][0][0]</property>
  <property name="meta.attr.major_brand.markup">isom</property>
  <property name="meta.attr.minor_version.markup">512</property>
  <property name="meta.attr.compatible_brands.markup">isomiso2avc1mp41</property>
  <property name="meta.attr.encoder.markup">Lavf60.16.100</property>
  <property name="seekable">1</property>
  <property name="meta.media.sample_aspect_num">1</property>
  <property name="meta.media.sample_aspect_den">1</property>
  <property name="aspect_ratio">1</property>
  <property name="format">3</property>
  <property name="vstream">0</property>
  <property name="meta.media.frame_rate_num">25</property>
  <property name="meta.media.frame_rate_den">1</property>
  <property name="meta.media.colorspace">709</property>
  <property name="meta.media.color_trc">1</property>
  <property name="meta.media.has_b_frames">0</property>
  <property name="meta.media.width">1920</property>
  <property name="meta.media.height">1080</property>
  <property name="meta.media.aspect_ratio">1</property>
  <property name="meta.media.color_range">mpeg</property>
  <property name="meta.media.top_field_first">0</property>
  <property name="meta.media.progressive">1</property>
 </producer>
 <producer id="producer35" in="00:00:00.000" out="00:00:00.960">
  <property name="length">25</property>
  <property name="eof">pause</property>
  <property name="resource">/home/xaxkrt/.cache/kdenlive/1722413296105/preview/50.mp4</property>
  <property name="audio_index">-1</property>
  <property name="video_index">0</property>
  <property name="mute_on_pause">0</property>
  <property name="mlt_service">avformat-novalidate</property>
  <property name="meta.media.nb_streams">1</property>
  <property name="meta.media.0.stream.type">video</property>
  <property name="meta.media.0.stream.frame_rate">25</property>
  <property name="meta.media.0.stream.sample_aspect_ratio">1</property>
  <property name="meta.media.0.codec.width">1920</property>
  <property name="meta.media.0.codec.height">1080</property>
  <property name="meta.media.0.codec.rotate">0</property>
  <property name="meta.media.0.codec.pix_fmt">yuv420p</property>
  <property name="meta.media.0.codec.sample_aspect_ratio">1</property>
  <property name="meta.media.0.codec.colorspace">709</property>
  <property name="meta.media.0.codec.color_trc">1</property>
  <property name="meta.media.0.codec.name">h264</property>
  <property name="meta.media.0.codec.long_name">H.264 / AVC / MPEG-4 AVC / MPEG-4 part 10</property>
  <property name="meta.media.0.codec.bit_rate">12919168</property>
  <property name="meta.attr.0.stream.handler_name.markup">VideoHandler</property>
  <property name="meta.attr.0.stream.vendor_id.markup">[0][0][0][0]</property>
  <property name="meta.attr.major_brand.markup">isom</property>
  <property name="meta.attr.minor_version.markup">512</property>
  <property name="meta.attr.compatible_brands.markup">isomiso2avc1mp41</property>
  <property name="meta.attr.encoder.markup">Lavf60.16.100</property>
  <property name="seekable">1</property>
  <property name="meta.media.sample_aspect_num">1</property>
  <property name="meta.media.sample_aspect_den">1</property>
  <property name="aspect_ratio">1</property>
  <property name="format">3</property>
  <property name="vstream">0</property>
  <property name="meta.media.frame_rate_num">25</property>
  <property name="meta.media.frame_rate_den">1</property>
  <property name="meta.media.colorspace">709</property>
  <property name="meta.media.color_trc">1</property>
  <property name="meta.media.has_b_frames">0</property>
  <property name="meta.media.width">1920</property>
  <property name="meta.media.height">1080</property>
  <property name="meta.media.aspect_ratio">1</property>
  <property name="meta.media.color_range">mpeg</property>
  <property name="meta.media.top_field_first">0</property>
  <property name="meta.media.progressive">1</property>
 </producer>
 <producer id="producer36" in="00:00:00.000" out="00:00:00.960">
  <property name="length">25</property>
  <property name="eof">pause</property>
  <property name="resource">/home/xaxkrt/.cache/kdenlive/1722413296105/preview/75.mp4</property>
  <property name="audio_index">-1</property>
  <property name="video_index">0</property>
  <property name="mute_on_pause">0</property>
  <property name="mlt_service">avformat-novalidate</property>
  <property name="meta.media.nb_streams">1</property>
  <property name="meta.media.0.stream.type">video</property>
  <property name="meta.media.0.stream.frame_rate">25</property>
  <property name="meta.media.0.stream.sample_aspect_ratio">1</property>
  <property name="meta.media.0.codec.width">1920</property>
  <property name="meta.media.0.codec.height">1080</property>
  <property name="meta.media.0.codec.rotate">0</property>
  <property name="meta.media.0.codec.pix_fmt">yuv420p</property>
  <property name="meta.media.0.codec.sample_aspect_ratio">1</property>
  <property name="meta.media.0.codec.colorspace">709</property>
  <property name="meta.media.0.codec.color_trc">1</property>
  <property name="meta.media.0.codec.name">h264</property>
  <property name="meta.media.0.codec.long_name">H.264 / AVC / MPEG-4 AVC / MPEG-4 part 10</property>
  <property name="meta.media.0.codec.bit_rate">11449744</property>
  <property name="meta.attr.0.stream.handler_name.markup">VideoHandler</property>
  <property name="meta.attr.0.stream.vendor_id.markup">[0][0][0][0]</property>
  <property name="meta.attr.major_brand.markup">isom</property>
  <property name="meta.attr.minor_version.markup">512</property>
  <property name="meta.attr.compatible_brands.markup">isomiso2avc1mp41</property>
  <property name="meta.attr.encoder.markup">Lavf60.16.100</property>
  <property name="seekable">1</property>
  <property name="meta.media.sample_aspect_num">1</property>
  <property name="meta.media.sample_aspect_den">1</property>
  <property name="aspect_ratio">1</property>
  <property name="format">3</property>
  <property name="vstream">0</property>
  <property name="meta.media.frame_rate_num">25</property>
  <property name="meta.media.frame_rate_den">1</property>
  <property name="meta.media.colorspace">709</property>
  <property name="meta.media.color_trc">1</property>
  <property name="meta.media.has_b_frames">0</property>
  <property name="meta.media.width">1920</property>
  <property name="meta.media.height">1080</property>
  <property name="meta.media.aspect_ratio">1</property>
  <property name="meta.media.color_range">mpeg</property>
  <property name="meta.media.top_field_first">0</property>
  <property name="meta.media.progressive">1</property>
 </producer>
 <playlist id="playlist8">
  <property name="kdenlive:playlistid">timeline_preview</property>
  <entry in="00:00:00.000" out="00:00:00.960" producer="producer33"/>
  <entry in="00:00:00.000" out="00:00:00.960" producer="producer34"/>
  <entry in="00:00:00.000" out="00:00:00.960" producer="producer35"/>
  <entry in="00:00:00.000" out="00:00:00.960" producer="producer36"/>
 </playlist>
 <tractor id="tractor4" in="00:00:00.000" out="00:12:04.800">
  <property name="kdenlive:duration">00:12:04.840</property>
  <property name="kdenlive:maxduration">18121</property>
  <property name="kdenlive:clipname">序列 1</property>
  <property name="kdenlive:description"/>
  <property name="kdenlive:uuid">{a0484364-b717-4fd3-93d0-39770914990b}</property>
  <property name="kdenlive:producer_type">17</property>
  <property name="kdenlive:id">3</property>
  <property name="kdenlive:clip_type">0</property>
  <property name="kdenlive:file_hash">089b78cf28b4176ef4c3784aba35e97e</property>
  <property name="kdenlive:folderid">2</property>
  <property name="kdenlive:sequenceproperties.activeTrack">3</property>
  <property name="kdenlive:sequenceproperties.audioTarget">1</property>
  <property name="kdenlive:sequenceproperties.disablepreview">0</property>
  <property name="kdenlive:sequenceproperties.documentuuid">{a0484364-b717-4fd3-93d0-39770914990b}</property>
  <property name="kdenlive:sequenceproperties.hasAudio">1</property>
  <property name="kdenlive:sequenceproperties.hasVideo">1</property>
  <property name="kdenlive:sequenceproperties.hidesubtitle">0</property>
  <property name="kdenlive:sequenceproperties.position">10835</property>
  <property name="kdenlive:sequenceproperties.previewchunks">0-75</property>
  <property name="kdenlive:sequenceproperties.scrollPos">82074</property>
  <property name="kdenlive:sequenceproperties.subtitlesList">[
    {
        "file": "/home/xaxkrt/ehw/ehw.kdenlive.srt",
        "id": 0,
        "name": "字幕"
    }
]
</property>
  <property name="kdenlive:sequenceproperties.tracks">4</property>
  <property name="kdenlive:sequenceproperties.tracksCount">3</property>
  <property name="kdenlive:sequenceproperties.verticalzoom">1</property>
  <property name="kdenlive:sequenceproperties.videoTarget">2</property>
  <property name="kdenlive:sequenceproperties.zonein">0</property>
  <property name="kdenlive:sequenceproperties.zoneout">75</property>
  <property name="kdenlive:sequenceproperties.zoom">3</property>
  <property name="kdenlive:sequenceproperties.groups">[
    {
        "children": [
            {
                "data": "2:0",
                "leaf": "clip",
                "type": "Leaf"
            },
            {
                "data": "2:15542",
                "leaf": "clip",
                "type": "Leaf"
            }
        ],
        "type": "Normal"
    }
]
</property>
  <property name="kdenlive:sequenceproperties.guides">[
]
</property>
  <property name="kdenlive:sequenceproperties.dirtypreviewchunks"/>
  <track producer="producer0"/>
  <track producer="tractor0"/>
  <track producer="tractor1"/>
  <track producer="tractor2"/>
  <track producer="tractor3"/>
  <track hide="both" producer="playlist8"/>
  <transition id="transition0">
   <property name="a_track">0</property>
   <property name="b_track">1</property>
   <property name="mlt_service">mix</property>
   <property name="kdenlive_id">mix</property>
   <property name="internal_added">237</property>
   <property name="always_active">1</property>
   <property name="accepts_blanks">1</property>
   <property name="sum">1</property>
  </transition>
  <transition id="transition1">
   <property name="a_track">0</property>
   <property name="b_track">2</property>
   <property name="mlt_service">mix</property>
   <property name="kdenlive_id">mix</property>
   <property name="internal_added">237</property>
   <property name="always_active">1</property>
   <property name="accepts_blanks">1</property>
   <property name="sum">1</property>
  </transition>
  <transition id="transition2">
   <property name="a_track">0</property>
   <property name="b_track">3</property>
   <property name="mlt_service">mix</property>
   <property name="kdenlive_id">mix</property>
   <property name="internal_added">237</property>
   <property name="always_active">1</property>
   <property name="accepts_blanks">1</property>
   <property name="sum">1</property>
  </transition>
  <transition id="transition3">
   <property name="a_track">0</property>
   <property name="b_track">4</property>
   <property name="version">0.1</property>
   <property name="mlt_service">frei0r.cairoblend</property>
   <property name="kdenlive_id">frei0r.cairoblend</property>
   <property name="internal_added">237</property>
   <property name="always_active">1</property>
  </transition>
  <filter id="filter11">
   <property name="window">75</property>
   <property name="max_gain">20dB</property>
   <property name="mlt_service">volume</property>
   <property name="internal_added">237</property>
   <property name="disable">1</property>
  </filter>
  <filter id="filter12">
   <property name="channel">-1</property>
   <property name="mlt_service">panner</property>
   <property name="internal_added">237</property>
   <property name="start">0.5</property>
   <property name="disable">1</property>
  </filter>
  <filter id="filter13">
   <property name="mlt_service">avfilter.subtitles</property>
   <property name="av.alpha">1</property>
   <property name="internal_added">237</property>
   <property name="av.filename">ehw.kdenlive.srt</property>
   <property name="av.force_style">Fontname=Iosevka Nerd Font Mono,Bold=-1,Alignment=6</property>
  </filter>
 </tractor>
 <chain id="chain194" out="00:00:06.360">
  <property name="length">160</property>
  <property name="eof">pause</property>
  <property name="resource">butforsomereson.m4a</property>
  <property name="mlt_service">avformat</property>
  <property name="meta.media.nb_streams">1</property>
  <property name="meta.media.0.stream.type">audio</property>
  <property name="meta.media.0.codec.sample_fmt">fltp</property>
  <property name="meta.media.0.codec.sample_rate">48000</property>
  <property name="meta.media.0.codec.channels">2</property>
  <property name="meta.media.0.codec.layout">stereo</property>
  <property name="meta.media.0.codec.name">aac</property>
  <property name="meta.media.0.codec.long_name">AAC (Advanced Audio Coding)</property>
  <property name="meta.media.0.codec.bit_rate">148001</property>
  <property name="meta.attr.0.stream.creation_time.markup">2024-08-05T02:10:50.000000Z</property>
  <property name="meta.attr.0.stream.language.markup">eng</property>
  <property name="meta.attr.0.stream.handler_name.markup">SoundHandle</property>
  <property name="meta.attr.0.stream.vendor_id.markup">[0][0][0][0]</property>
  <property name="meta.attr.major_brand.markup">mp42</property>
  <property name="meta.attr.minor_version.markup">0</property>
  <property name="meta.attr.compatible_brands.markup">isommp42</property>
  <property name="meta.attr.creation_time.markup">2024-08-05T02:10:50.000000Z</property>
  <property name="meta.attr.com.android.version.markup">12</property>
  <property name="seekable">1</property>
  <property name="audio_index">0</property>
  <property name="video_index">-1</property>
  <property name="astream">0</property>
  <property name="kdenlive:folderid">-1</property>
  <property name="kdenlive:id">77</property>
  <property name="kdenlive:clip_type">1</property>
  <property name="kdenlive:file_size">121739</property>
  <property name="kdenlive:file_hash">3a8a04d7c22c44f263c9c9c6f0142c84</property>
  <property name="kdenlive:audio_max0">168</property>
  <property name="kdenlive:monitorPosition">0</property>
 </chain>
 <chain id="chain195" out="00:00:04.040">
  <property name="length">102</property>
  <property name="eof">pause</property>
  <property name="resource">reac_learys.m4a</property>
  <property name="mlt_service">avformat</property>
  <property name="meta.media.nb_streams">1</property>
  <property name="meta.media.0.stream.type">audio</property>
  <property name="meta.media.0.codec.sample_fmt">fltp</property>
  <property name="meta.media.0.codec.sample_rate">48000</property>
  <property name="meta.media.0.codec.channels">2</property>
  <property name="meta.media.0.codec.layout">stereo</property>
  <property name="meta.media.0.codec.name">aac</property>
  <property name="meta.media.0.codec.long_name">AAC (Advanced Audio Coding)</property>
  <property name="meta.media.0.codec.bit_rate">148001</property>
  <property name="meta.attr.0.stream.creation_time.markup">2024-08-05T02:09:34.000000Z</property>
  <property name="meta.attr.0.stream.language.markup">eng</property>
  <property name="meta.attr.0.stream.handler_name.markup">SoundHandle</property>
  <property name="meta.attr.0.stream.vendor_id.markup">[0][0][0][0]</property>
  <property name="meta.attr.major_brand.markup">mp42</property>
  <property name="meta.attr.minor_version.markup">0</property>
  <property name="meta.attr.compatible_brands.markup">isommp42</property>
  <property name="meta.attr.creation_time.markup">2024-08-05T02:09:34.000000Z</property>
  <property name="meta.attr.com.android.version.markup">12</property>
  <property name="seekable">1</property>
  <property name="audio_index">0</property>
  <property name="video_index">-1</property>
  <property name="astream">0</property>
  <property name="kdenlive:folderid">-1</property>
  <property name="kdenlive:id">78</property>
  <property name="kdenlive:clip_type">1</property>
  <property name="kdenlive:file_size">78694</property>
  <property name="kdenlive:file_hash">542d1cbba6f055567281446c908c7b33</property>
  <property name="kdenlive:audio_max0">151</property>
  <property name="kdenlive:monitorPosition">69</property>
 </chain>
 <chain id="chain196" out="00:00:02.520">
  <property name="length">64</property>
  <property name="eof">pause</property>
  <property name="resource">thisisnotthe.m4a</property>
  <property name="mlt_service">avformat</property>
  <property name="meta.media.nb_streams">1</property>
  <property name="meta.media.0.stream.type">audio</property>
  <property name="meta.media.0.codec.sample_fmt">fltp</property>
  <property name="meta.media.0.codec.sample_rate">48000</property>
  <property name="meta.media.0.codec.channels">2</property>
  <property name="meta.media.0.codec.layout">stereo</property>
  <property name="meta.media.0.codec.name">aac</property>
  <property name="meta.media.0.codec.long_name">AAC (Advanced Audio Coding)</property>
  <property name="meta.media.0.codec.bit_rate">148000</property>
  <property name="meta.attr.0.stream.creation_time.markup">2024-08-05T02:06:49.000000Z</property>
  <property name="meta.attr.0.stream.language.markup">eng</property>
  <property name="meta.attr.0.stream.handler_name.markup">SoundHandle</property>
  <property name="meta.attr.0.stream.vendor_id.markup">[0][0][0][0]</property>
  <property name="meta.attr.major_brand.markup">mp42</property>
  <property name="meta.attr.minor_version.markup">0</property>
  <property name="meta.attr.compatible_brands.markup">isommp42</property>
  <property name="meta.attr.creation_time.markup">2024-08-05T02:06:49.000000Z</property>
  <property name="meta.attr.com.android.version.markup">12</property>
  <property name="seekable">1</property>
  <property name="audio_index">0</property>
  <property name="video_index">-1</property>
  <property name="astream">0</property>
  <property name="kdenlive:folderid">-1</property>
  <property name="kdenlive:id">79</property>
  <property name="kdenlive:clip_type">1</property>
  <property name="kdenlive:file_size">50656</property>
  <property name="kdenlive:file_hash">60cf7dfbdecca4e8a4a83050576dc592</property>
  <property name="kdenlive:audio_max0">129</property>
  <property name="kdenlive:monitorPosition">0</property>
 </chain>
 <chain id="chain197" out="00:00:03.680">
  <property name="length">93</property>
  <property name="eof">pause</property>
  <property name="resource">orhumenqurks.m4a</property>
  <property name="mlt_service">avformat</property>
  <property name="meta.media.nb_streams">1</property>
  <property name="meta.media.0.stream.type">audio</property>
  <property name="meta.media.0.codec.sample_fmt">fltp</property>
  <property name="meta.media.0.codec.sample_rate">48000</property>
  <property name="meta.media.0.codec.channels">2</property>
  <property name="meta.media.0.codec.layout">stereo</property>
  <property name="meta.media.0.codec.name">aac</property>
  <property name="meta.media.0.codec.long_name">AAC (Advanced Audio Coding)</property>
  <property name="meta.media.0.codec.bit_rate">148000</property>
  <property name="meta.attr.0.stream.creation_time.markup">2024-08-05T02:06:20.000000Z</property>
  <property name="meta.attr.0.stream.language.markup">eng</property>
  <property name="meta.attr.0.stream.handler_name.markup">SoundHandle</property>
  <property name="meta.attr.0.stream.vendor_id.markup">[0][0][0][0]</property>
  <property name="meta.attr.major_brand.markup">mp42</property>
  <property name="meta.attr.minor_version.markup">0</property>
  <property name="meta.attr.compatible_brands.markup">isommp42</property>
  <property name="meta.attr.creation_time.markup">2024-08-05T02:06:20.000000Z</property>
  <property name="meta.attr.com.android.version.markup">12</property>
  <property name="seekable">1</property>
  <property name="audio_index">0</property>
  <property name="video_index">-1</property>
  <property name="astream">0</property>
  <property name="kdenlive:folderid">-1</property>
  <property name="kdenlive:id">80</property>
  <property name="kdenlive:clip_type">1</property>
  <property name="kdenlive:file_size">72375</property>
  <property name="kdenlive:file_hash">a21f06ca7e762014e953a08240078edf</property>
  <property name="kdenlive:audio_max0">140</property>
  <property name="kdenlive:monitorPosition">0</property>
 </chain>
 <chain id="chain198" out="00:00:05.080">
  <property name="length">128</property>
  <property name="eof">pause</property>
  <property name="resource">youcantstartwith.m4a</property>
  <property name="mlt_service">avformat</property>
  <property name="meta.media.nb_streams">1</property>
  <property name="meta.media.0.stream.type">audio</property>
  <property name="meta.media.0.codec.sample_fmt">fltp</property>
  <property name="meta.media.0.codec.sample_rate">48000</property>
  <property name="meta.media.0.codec.channels">2</property>
  <property name="meta.media.0.codec.layout">stereo</property>
  <property name="meta.media.0.codec.name">aac</property>
  <property name="meta.media.0.codec.long_name">AAC (Advanced Audio Coding)</property>
  <property name="meta.media.0.codec.bit_rate">148001</property>
  <property name="meta.attr.0.stream.creation_time.markup">2024-08-05T02:02:56.000000Z</property>
  <property name="meta.attr.0.stream.language.markup">eng</property>
  <property name="meta.attr.0.stream.handler_name.markup">SoundHandle</property>
  <property name="meta.attr.0.stream.vendor_id.markup">[0][0][0][0]</property>
  <property name="meta.attr.major_brand.markup">mp42</property>
  <property name="meta.attr.minor_version.markup">0</property>
  <property name="meta.attr.compatible_brands.markup">isommp42</property>
  <property name="meta.attr.creation_time.markup">2024-08-05T02:02:56.000000Z</property>
  <property name="meta.attr.com.android.version.markup">12</property>
  <property name="seekable">1</property>
  <property name="audio_index">0</property>
  <property name="video_index">-1</property>
  <property name="astream">0</property>
  <property name="kdenlive:folderid">-1</property>
  <property name="kdenlive:id">81</property>
  <property name="kdenlive:clip_type">1</property>
  <property name="kdenlive:file_size">98045</property>
  <property name="kdenlive:file_hash">f80bd625370695547e28cbdcbc5b15f6</property>
  <property name="kdenlive:audio_max0">159</property>
  <property name="kdenlive:monitorPosition">0</property>
 </chain>
 <chain id="chain199" out="00:00:04.360">
  <property name="length">110</property>
  <property name="eof">pause</property>
  <property name="resource">youcantexplane.m4a</property>
  <property name="mlt_service">avformat</property>
  <property name="meta.media.nb_streams">1</property>
  <property name="meta.media.0.stream.type">audio</property>
  <property name="meta.media.0.codec.sample_fmt">fltp</property>
  <property name="meta.media.0.codec.sample_rate">48000</property>
  <property name="meta.media.0.codec.channels">2</property>
  <property name="meta.media.0.codec.layout">stereo</property>
  <property name="meta.media.0.codec.name">aac</property>
  <property name="meta.media.0.codec.long_name">AAC (Advanced Audio Coding)</property>
  <property name="meta.media.0.codec.bit_rate">148001</property>
  <property name="meta.attr.0.stream.creation_time.markup">2024-08-05T02:05:31.000000Z</property>
  <property name="meta.attr.0.stream.language.markup">eng</property>
  <property name="meta.attr.0.stream.handler_name.markup">SoundHandle</property>
  <property name="meta.attr.0.stream.vendor_id.markup">[0][0][0][0]</property>
  <property name="meta.attr.major_brand.markup">mp42</property>
  <property name="meta.attr.minor_version.markup">0</property>
  <property name="meta.attr.compatible_brands.markup">isommp42</property>
  <property name="meta.attr.creation_time.markup">2024-08-05T02:05:31.000000Z</property>
  <property name="meta.attr.com.android.version.markup">12</property>
  <property name="seekable">1</property>
  <property name="audio_index">0</property>
  <property name="video_index">-1</property>
  <property name="astream">0</property>
  <property name="kdenlive:folderid">-1</property>
  <property name="kdenlive:id">82</property>
  <property name="kdenlive:clip_type">1</property>
  <property name="kdenlive:file_size">84618</property>
  <property name="kdenlive:file_hash">3963d8f464ca7d89f181226f78f31f8a</property>
  <property name="kdenlive:audio_max0">143</property>
  <property name="kdenlive:monitorPosition">48</property>
 </chain>
 <chain id="chain200" out="00:00:02.800">
  <property name="length">71</property>
  <property name="eof">pause</property>
  <property name="resource">butbecauseofemagens.m4a</property>
  <property name="mlt_service">avformat</property>
  <property name="meta.media.nb_streams">1</property>
  <property name="meta.media.0.stream.type">audio</property>
  <property name="meta.media.0.codec.sample_fmt">fltp</property>
  <property name="meta.media.0.codec.sample_rate">48000</property>
  <property name="meta.media.0.codec.channels">2</property>
  <property name="meta.media.0.codec.layout">stereo</property>
  <property name="meta.media.0.codec.name">aac</property>
  <property name="meta.media.0.codec.long_name">AAC (Advanced Audio Coding)</property>
  <property name="meta.media.0.codec.bit_rate">148001</property>
  <property name="meta.attr.0.stream.creation_time.markup">2024-08-05T02:01:29.000000Z</property>
  <property name="meta.attr.0.stream.language.markup">eng</property>
  <property name="meta.attr.0.stream.handler_name.markup">SoundHandle</property>
  <property name="meta.attr.0.stream.vendor_id.markup">[0][0][0][0]</property>
  <property name="meta.attr.major_brand.markup">mp42</property>
  <property name="meta.attr.minor_version.markup">0</property>
  <property name="meta.attr.compatible_brands.markup">isommp42</property>
  <property name="meta.attr.creation_time.markup">2024-08-05T02:01:29.000000Z</property>
  <property name="meta.attr.com.android.version.markup">12</property>
  <property name="seekable">1</property>
  <property name="audio_index">0</property>
  <property name="video_index">-1</property>
  <property name="astream">0</property>
  <property name="kdenlive:folderid">-1</property>
  <property name="kdenlive:id">83</property>
  <property name="kdenlive:clip_type">1</property>
  <property name="kdenlive:file_size">56184</property>
  <property name="kdenlive:file_hash">fe593b73c62a45bb28514cb7e633a71c</property>
  <property name="kdenlive:audio_max0">145</property>
  <property name="kdenlive:monitorPosition">0</property>
 </chain>
 <chain id="chain201" out="00:00:02.560">
  <property name="length">65</property>
  <property name="eof">pause</property>
  <property name="resource">andmonuqswithatoms.m4a</property>
  <property name="mlt_service">avformat</property>
  <property name="meta.media.nb_streams">1</property>
  <property name="meta.media.0.stream.type">audio</property>
  <property name="meta.media.0.codec.sample_fmt">fltp</property>
  <property name="meta.media.0.codec.sample_rate">48000</property>
  <property name="meta.media.0.codec.channels">2</property>
  <property name="meta.media.0.codec.layout">stereo</property>
  <property name="meta.media.0.codec.name">aac</property>
  <property name="meta.media.0.codec.long_name">AAC (Advanced Audio Coding)</property>
  <property name="meta.media.0.codec.bit_rate">148002</property>
  <property name="meta.attr.0.stream.creation_time.markup">2024-08-05T02:01:08.000000Z</property>
  <property name="meta.attr.0.stream.language.markup">eng</property>
  <property name="meta.attr.0.stream.handler_name.markup">SoundHandle</property>
  <property name="meta.attr.0.stream.vendor_id.markup">[0][0][0][0]</property>
  <property name="meta.attr.major_brand.markup">mp42</property>
  <property name="meta.attr.minor_version.markup">0</property>
  <property name="meta.attr.compatible_brands.markup">isommp42</property>
  <property name="meta.attr.creation_time.markup">2024-08-05T02:01:08.000000Z</property>
  <property name="meta.attr.com.android.version.markup">12</property>
  <property name="seekable">1</property>
  <property name="audio_index">0</property>
  <property name="video_index">-1</property>
  <property name="astream">0</property>
  <property name="kdenlive:folderid">-1</property>
  <property name="kdenlive:id">84</property>
  <property name="kdenlive:clip_type">1</property>
  <property name="kdenlive:file_size">51444</property>
  <property name="kdenlive:file_hash">c61c3df88a64bf5dff90ee58f5f50e9c</property>
  <property name="kdenlive:audio_max0">145</property>
  <property name="kdenlive:monitorPosition">35</property>
 </chain>
 <chain id="chain202" out="00:00:02.400">
  <property name="length">61</property>
  <property name="eof">pause</property>
  <property name="resource">cellswith.m4a</property>
  <property name="mlt_service">avformat</property>
  <property name="meta.media.nb_streams">1</property>
  <property name="meta.media.0.stream.type">audio</property>
  <property name="meta.media.0.codec.sample_fmt">fltp</property>
  <property name="meta.media.0.codec.sample_rate">48000</property>
  <property name="meta.media.0.codec.channels">2</property>
  <property name="meta.media.0.codec.layout">stereo</property>
  <property name="meta.media.0.codec.name">aac</property>
  <property name="meta.media.0.codec.long_name">AAC (Advanced Audio Coding)</property>
  <property name="meta.media.0.codec.bit_rate">148001</property>
  <property name="meta.attr.0.stream.creation_time.markup">2024-08-05T02:01:01.000000Z</property>
  <property name="meta.attr.0.stream.language.markup">eng</property>
  <property name="meta.attr.0.stream.handler_name.markup">SoundHandle</property>
  <property name="meta.attr.0.stream.vendor_id.markup">[0][0][0][0]</property>
  <property name="meta.attr.major_brand.markup">mp42</property>
  <property name="meta.attr.minor_version.markup">0</property>
  <property name="meta.attr.compatible_brands.markup">isommp42</property>
  <property name="meta.attr.creation_time.markup">2024-08-05T02:01:01.000000Z</property>
  <property name="meta.attr.com.android.version.markup">12</property>
  <property name="seekable">1</property>
  <property name="audio_index">0</property>
  <property name="video_index">-1</property>
  <property name="astream">0</property>
  <property name="kdenlive:folderid">-1</property>
  <property name="kdenlive:id">85</property>
  <property name="kdenlive:clip_type">1</property>
  <property name="kdenlive:file_size">48679</property>
  <property name="kdenlive:file_hash">1631ffd8742b0562fa4e7ee3414675c4</property>
  <property name="kdenlive:audio_max0">144</property>
  <property name="kdenlive:monitorPosition">48</property>
 </chain>
 <chain id="chain203" out="00:00:03.200">
  <property name="length">81</property>
  <property name="eof">pause</property>
  <property name="resource">youcanexplanelivingthings.m4a</property>
  <property name="mlt_service">avformat</property>
  <property name="meta.media.nb_streams">1</property>
  <property name="meta.media.0.stream.type">audio</property>
  <property name="meta.media.0.codec.sample_fmt">fltp</property>
  <property name="meta.media.0.codec.sample_rate">48000</property>
  <property name="meta.media.0.codec.channels">2</property>
  <property name="meta.media.0.codec.layout">stereo</property>
  <property name="meta.media.0.codec.name">aac</property>
  <property name="meta.media.0.codec.long_name">AAC (Advanced Audio Coding)</property>
  <property name="meta.media.0.codec.bit_rate">147999</property>
  <property name="meta.attr.0.stream.creation_time.markup">2024-08-05T02:00:50.000000Z</property>
  <property name="meta.attr.0.stream.language.markup">eng</property>
  <property name="meta.attr.0.stream.handler_name.markup">SoundHandle</property>
  <property name="meta.attr.0.stream.vendor_id.markup">[0][0][0][0]</property>
  <property name="meta.attr.major_brand.markup">mp42</property>
  <property name="meta.attr.minor_version.markup">0</property>
  <property name="meta.attr.compatible_brands.markup">isommp42</property>
  <property name="meta.attr.creation_time.markup">2024-08-05T02:00:50.000000Z</property>
  <property name="meta.attr.com.android.version.markup">12</property>
  <property name="seekable">1</property>
  <property name="audio_index">0</property>
  <property name="video_index">-1</property>
  <property name="astream">0</property>
  <property name="kdenlive:folderid">-1</property>
  <property name="kdenlive:id">86</property>
  <property name="kdenlive:clip_type">1</property>
  <property name="kdenlive:file_size">63293</property>
  <property name="kdenlive:file_hash">65b951a3a4e32c92398e96ce2d98b18b</property>
  <property name="kdenlive:audio_max0">151</property>
  <property name="kdenlive:monitorPosition">33</property>
 </chain>
 <chain id="chain204" out="00:00:04.160">
  <property name="length">105</property>
  <property name="eof">pause</property>
  <property name="resource">theleayers.m4a</property>
  <property name="mlt_service">avformat</property>
  <property name="meta.media.nb_streams">1</property>
  <property name="meta.media.0.stream.type">audio</property>
  <property name="meta.media.0.codec.sample_fmt">fltp</property>
  <property name="meta.media.0.codec.sample_rate">48000</property>
  <property name="meta.media.0.codec.channels">2</property>
  <property name="meta.media.0.codec.layout">stereo</property>
  <property name="meta.media.0.codec.name">aac</property>
  <property name="meta.media.0.codec.long_name">AAC (Advanced Audio Coding)</property>
  <property name="meta.media.0.codec.bit_rate">147998</property>
  <property name="meta.attr.0.stream.creation_time.markup">2024-08-05T02:00:32.000000Z</property>
  <property name="meta.attr.0.stream.language.markup">eng</property>
  <property name="meta.attr.0.stream.handler_name.markup">SoundHandle</property>
  <property name="meta.attr.0.stream.vendor_id.markup">[0][0][0][0]</property>
  <property name="meta.attr.major_brand.markup">mp42</property>
  <property name="meta.attr.minor_version.markup">0</property>
  <property name="meta.attr.compatible_brands.markup">isommp42</property>
  <property name="meta.attr.creation_time.markup">2024-08-05T02:00:32.000000Z</property>
  <property name="meta.attr.com.android.version.markup">12</property>
  <property name="seekable">1</property>
  <property name="audio_index">0</property>
  <property name="video_index">-1</property>
  <property name="astream">0</property>
  <property name="kdenlive:folderid">-1</property>
  <property name="kdenlive:id">87</property>
  <property name="kdenlive:clip_type">1</property>
  <property name="kdenlive:file_size">80668</property>
  <property name="kdenlive:file_hash">7b33eed90a0a6d30335bc3002d1a3853</property>
  <property name="kdenlive:audio_max0">141</property>
  <property name="kdenlive:monitorPosition">43</property>
 </chain>
 <chain id="chain205" out="00:00:05.440">
  <property name="length">137</property>
  <property name="eof">pause</property>
  <property name="resource">sum.m4a</property>
  <property name="mlt_service">avformat</property>
  <property name="meta.media.nb_streams">1</property>
  <property name="meta.media.0.stream.type">audio</property>
  <property name="meta.media.0.codec.sample_fmt">fltp</property>
  <property name="meta.media.0.codec.sample_rate">48000</property>
  <property name="meta.media.0.codec.channels">2</property>
  <property name="meta.media.0.codec.layout">stereo</property>
  <property name="meta.media.0.codec.name">aac</property>
  <property name="meta.media.0.codec.long_name">AAC (Advanced Audio Coding)</property>
  <property name="meta.media.0.codec.bit_rate">148000</property>
  <property name="meta.attr.0.stream.creation_time.markup">2024-08-05T01:57:44.000000Z</property>
  <property name="meta.attr.0.stream.language.markup">eng</property>
  <property name="meta.attr.0.stream.handler_name.markup">SoundHandle</property>
  <property name="meta.attr.0.stream.vendor_id.markup">[0][0][0][0]</property>
  <property name="meta.attr.major_brand.markup">mp42</property>
  <property name="meta.attr.minor_version.markup">0</property>
  <property name="meta.attr.compatible_brands.markup">isommp42</property>
  <property name="meta.attr.creation_time.markup">2024-08-05T01:57:44.000000Z</property>
  <property name="meta.attr.com.android.version.markup">12</property>
  <property name="seekable">1</property>
  <property name="audio_index">0</property>
  <property name="video_index">-1</property>
  <property name="astream">0</property>
  <property name="kdenlive:folderid">-1</property>
  <property name="kdenlive:id">88</property>
  <property name="kdenlive:clip_type">1</property>
  <property name="kdenlive:file_size">104363</property>
  <property name="kdenlive:file_hash">0d90f24900876bd5b96c86b0f17eedbf</property>
  <property name="kdenlive:audio_max0">164</property>
  <property name="kdenlive:monitorPosition">0</property>
 </chain>
 <chain id="chain206" out="00:00:04.760">
  <property name="length">120</property>
  <property name="eof">pause</property>
  <property name="resource">andhere.m4a</property>
  <property name="mlt_service">avformat</property>
  <property name="meta.media.nb_streams">1</property>
  <property name="meta.media.0.stream.type">audio</property>
  <property name="meta.media.0.codec.sample_fmt">fltp</property>
  <property name="meta.media.0.codec.sample_rate">48000</property>
  <property name="meta.media.0.codec.channels">2</property>
  <property name="meta.media.0.codec.layout">stereo</property>
  <property name="meta.media.0.codec.name">aac</property>
  <property name="meta.media.0.codec.long_name">AAC (Advanced Audio Coding)</property>
  <property name="meta.media.0.codec.bit_rate">148001</property>
  <property name="meta.attr.0.stream.creation_time.markup">2024-08-05T01:59:12.000000Z</property>
  <property name="meta.attr.0.stream.language.markup">eng</property>
  <property name="meta.attr.0.stream.handler_name.markup">SoundHandle</property>
  <property name="meta.attr.0.stream.vendor_id.markup">[0][0][0][0]</property>
  <property name="meta.attr.major_brand.markup">mp42</property>
  <property name="meta.attr.minor_version.markup">0</property>
  <property name="meta.attr.compatible_brands.markup">isommp42</property>
  <property name="meta.attr.creation_time.markup">2024-08-05T01:59:12.000000Z</property>
  <property name="meta.attr.com.android.version.markup">12</property>
  <property name="seekable">1</property>
  <property name="audio_index">0</property>
  <property name="video_index">-1</property>
  <property name="astream">0</property>
  <property name="kdenlive:folderid">-1</property>
  <property name="kdenlive:id">89</property>
  <property name="kdenlive:clip_type">1</property>
  <property name="kdenlive:file_size">92121</property>
  <property name="kdenlive:file_hash">36228eeb7c2f0539ad5250cdb948a0e3</property>
  <property name="kdenlive:audio_max0">145</property>
  <property name="kdenlive:monitorPosition">112</property>
 </chain>
 <chain id="chain207" out="00:00:05.440">
  <property name="length">137</property>
  <property name="eof">pause</property>
  <property name="resource">withjumpup.m4a</property>
  <property name="mlt_service">avformat</property>
  <property name="meta.media.nb_streams">1</property>
  <property name="meta.media.0.stream.type">audio</property>
  <property name="meta.media.0.codec.sample_fmt">fltp</property>
  <property name="meta.media.0.codec.sample_rate">48000</property>
  <property name="meta.media.0.codec.channels">2</property>
  <property name="meta.media.0.codec.layout">stereo</property>
  <property name="meta.media.0.codec.name">aac</property>
  <property name="meta.media.0.codec.long_name">AAC (Advanced Audio Coding)</property>
  <property name="meta.media.0.codec.bit_rate">148000</property>
  <property name="meta.attr.0.stream.creation_time.markup">2024-08-05T01:56:20.000000Z</property>
  <property name="meta.attr.0.stream.language.markup">eng</property>
  <property name="meta.attr.0.stream.handler_name.markup">SoundHandle</property>
  <property name="meta.attr.0.stream.vendor_id.markup">[0][0][0][0]</property>
  <property name="meta.attr.major_brand.markup">mp42</property>
  <property name="meta.attr.minor_version.markup">0</property>
  <property name="meta.attr.compatible_brands.markup">isommp42</property>
  <property name="meta.attr.creation_time.markup">2024-08-05T01:56:20.000000Z</property>
  <property name="meta.attr.com.android.version.markup">12</property>
  <property name="seekable">1</property>
  <property name="audio_index">0</property>
  <property name="video_index">-1</property>
  <property name="astream">0</property>
  <property name="kdenlive:folderid">-1</property>
  <property name="kdenlive:id">90</property>
  <property name="kdenlive:clip_type">1</property>
  <property name="kdenlive:file_size">104760</property>
  <property name="kdenlive:file_hash">7717f45dc232387e4c144daf1c7a1ada</property>
  <property name="kdenlive:audio_max0">156</property>
  <property name="kdenlive:monitorPosition">0</property>
 </chain>
 <chain id="chain208" out="00:00:04.520">
  <property name="length">114</property>
  <property name="eof">pause</property>
  <property name="resource">butmanyofthem.m4a</property>
  <property name="mlt_service">avformat</property>
  <property name="meta.media.nb_streams">1</property>
  <property name="meta.media.0.stream.type">audio</property>
  <property name="meta.media.0.codec.sample_fmt">fltp</property>
  <property name="meta.media.0.codec.sample_rate">48000</property>
  <property name="meta.media.0.codec.channels">2</property>
  <property name="meta.media.0.codec.layout">stereo</property>
  <property name="meta.media.0.codec.name">aac</property>
  <property name="meta.media.0.codec.long_name">AAC (Advanced Audio Coding)</property>
  <property name="meta.media.0.codec.bit_rate">148000</property>
  <property name="meta.attr.0.stream.creation_time.markup">2024-08-05T01:54:46.000000Z</property>
  <property name="meta.attr.0.stream.language.markup">eng</property>
  <property name="meta.attr.0.stream.handler_name.markup">SoundHandle</property>
  <property name="meta.attr.0.stream.vendor_id.markup">[0][0][0][0]</property>
  <property name="meta.attr.major_brand.markup">mp42</property>
  <property name="meta.attr.minor_version.markup">0</property>
  <property name="meta.attr.compatible_brands.markup">isommp42</property>
  <property name="meta.attr.creation_time.markup">2024-08-05T01:54:46.000000Z</property>
  <property name="meta.attr.com.android.version.markup">12</property>
  <property name="seekable">1</property>
  <property name="audio_index">0</property>
  <property name="video_index">-1</property>
  <property name="astream">0</property>
  <property name="kdenlive:folderid">-1</property>
  <property name="kdenlive:id">91</property>
  <property name="kdenlive:clip_type">1</property>
  <property name="kdenlive:file_size">87380</property>
  <property name="kdenlive:file_hash">722e8df193b7f633fa3fcff9d7a35093</property>
  <property name="kdenlive:audio_max0">150</property>
  <property name="kdenlive:monitorPosition">28</property>
 </chain>
 <chain id="chain209" out="00:00:02.720">
  <property name="length">69</property>
  <property name="eof">pause</property>
  <property name="resource">momqsarenotalive.m4a</property>
  <property name="mlt_service">avformat</property>
  <property name="meta.media.nb_streams">1</property>
  <property name="meta.media.0.stream.type">audio</property>
  <property name="meta.media.0.codec.sample_fmt">fltp</property>
  <property name="meta.media.0.codec.sample_rate">48000</property>
  <property name="meta.media.0.codec.channels">2</property>
  <property name="meta.media.0.codec.layout">stereo</property>
  <property name="meta.media.0.codec.name">aac</property>
  <property name="meta.media.0.codec.long_name">AAC (Advanced Audio Coding)</property>
  <property name="meta.media.0.codec.bit_rate">147998</property>
  <property name="meta.attr.0.stream.creation_time.markup">2024-08-05T01:54:24.000000Z</property>
  <property name="meta.attr.0.stream.language.markup">eng</property>
  <property name="meta.attr.0.stream.handler_name.markup">SoundHandle</property>
  <property name="meta.attr.0.stream.vendor_id.markup">[0][0][0][0]</property>
  <property name="meta.attr.major_brand.markup">mp42</property>
  <property name="meta.attr.minor_version.markup">0</property>
  <property name="meta.attr.compatible_brands.markup">isommp42</property>
  <property name="meta.attr.creation_time.markup">2024-08-05T01:54:24.000000Z</property>
  <property name="meta.attr.com.android.version.markup">12</property>
  <property name="seekable">1</property>
  <property name="audio_index">0</property>
  <property name="video_index">-1</property>
  <property name="astream">0</property>
  <property name="kdenlive:folderid">-1</property>
  <property name="kdenlive:id">92</property>
  <property name="kdenlive:clip_type">1</property>
  <property name="kdenlive:file_size">54604</property>
  <property name="kdenlive:file_hash">13a1bd7c6e9211106103215bcb69198c</property>
  <property name="kdenlive:audio_max0">141</property>
  <property name="kdenlive:monitorPosition">0</property>
 </chain>
 <chain id="chain210" out="00:00:03.520">
  <property name="length">89</property>
  <property name="eof">pause</property>
  <property name="resource">butmanyofthemtogDNA.m4a</property>
  <property name="mlt_service">avformat</property>
  <property name="meta.media.nb_streams">1</property>
  <property name="meta.media.0.stream.type">audio</property>
  <property name="meta.media.0.codec.sample_fmt">fltp</property>
  <property name="meta.media.0.codec.sample_rate">48000</property>
  <property name="meta.media.0.codec.channels">2</property>
  <property name="meta.media.0.codec.layout">stereo</property>
  <property name="meta.media.0.codec.name">aac</property>
  <property name="meta.media.0.codec.long_name">AAC (Advanced Audio Coding)</property>
  <property name="meta.media.0.codec.bit_rate">148001</property>
  <property name="meta.attr.0.stream.creation_time.markup">2024-08-05T01:53:48.000000Z</property>
  <property name="meta.attr.0.stream.language.markup">eng</property>
  <property name="meta.attr.0.stream.handler_name.markup">SoundHandle</property>
  <property name="meta.attr.0.stream.vendor_id.markup">[0][0][0][0]</property>
  <property name="meta.attr.major_brand.markup">mp42</property>
  <property name="meta.attr.minor_version.markup">0</property>
  <property name="meta.attr.compatible_brands.markup">isommp42</property>
  <property name="meta.attr.creation_time.markup">2024-08-05T01:53:48.000000Z</property>
  <property name="meta.attr.com.android.version.markup">12</property>
  <property name="seekable">1</property>
  <property name="audio_index">0</property>
  <property name="video_index">-1</property>
  <property name="astream">0</property>
  <property name="kdenlive:folderid">-1</property>
  <property name="kdenlive:id">93</property>
  <property name="kdenlive:clip_type">1</property>
  <property name="kdenlive:file_size">69216</property>
  <property name="kdenlive:file_hash">6d3b4d35230ed9d0a01281039efbfbf7</property>
  <property name="kdenlive:audio_max0">143</property>
  <property name="kdenlive:monitorPosition">0</property>
 </chain>
 <chain id="chain211" out="00:00:04.200">
  <property name="length">106</property>
  <property name="eof">pause</property>
  <property name="resource">everytimetheydo.m4a</property>
  <property name="mlt_service">avformat</property>
  <property name="meta.media.nb_streams">1</property>
  <property name="meta.media.0.stream.type">audio</property>
  <property name="meta.media.0.codec.sample_fmt">fltp</property>
  <property name="meta.media.0.codec.sample_rate">48000</property>
  <property name="meta.media.0.codec.channels">2</property>
  <property name="meta.media.0.codec.layout">stereo</property>
  <property name="meta.media.0.codec.name">aac</property>
  <property name="meta.media.0.codec.long_name">AAC (Advanced Audio Coding)</property>
  <property name="meta.media.0.codec.bit_rate">148000</property>
  <property name="meta.attr.0.stream.creation_time.markup">2024-08-05T01:52:13.000000Z</property>
  <property name="meta.attr.0.stream.language.markup">eng</property>
  <property name="meta.attr.0.stream.handler_name.markup">SoundHandle</property>
  <property name="meta.attr.0.stream.vendor_id.markup">[0][0][0][0]</property>
  <property name="meta.attr.major_brand.markup">mp42</property>
  <property name="meta.attr.minor_version.markup">0</property>
  <property name="meta.attr.compatible_brands.markup">isommp42</property>
  <property name="meta.attr.creation_time.markup">2024-08-05T01:52:13.000000Z</property>
  <property name="meta.attr.com.android.version.markup">12</property>
  <property name="seekable">1</property>
  <property name="audio_index">0</property>
  <property name="video_index">-1</property>
  <property name="astream">0</property>
  <property name="kdenlive:folderid">-1</property>
  <property name="kdenlive:id">94</property>
  <property name="kdenlive:clip_type">1</property>
  <property name="kdenlive:file_size">81853</property>
  <property name="kdenlive:file_hash">944f9171b57413e0e3aa69a8bd6ea4b8</property>
  <property name="kdenlive:audio_max0">136</property>
  <property name="kdenlive:monitorPosition">0</property>
 </chain>
 <chain id="chain212" out="00:00:02.680">
  <property name="length">68</property>
  <property name="eof">pause</property>
  <property name="resource">butatomcanthandle.m4a</property>
  <property name="mlt_service">avformat</property>
  <property name="meta.media.nb_streams">1</property>
  <property name="meta.media.0.stream.type">audio</property>
  <property name="meta.media.0.codec.sample_fmt">fltp</property>
  <property name="meta.media.0.codec.sample_rate">48000</property>
  <property name="meta.media.0.codec.channels">2</property>
  <property name="meta.media.0.codec.layout">stereo</property>
  <property name="meta.media.0.codec.name">aac</property>
  <property name="meta.media.0.codec.long_name">AAC (Advanced Audio Coding)</property>
  <property name="meta.media.0.codec.bit_rate">147999</property>
  <property name="meta.attr.0.stream.creation_time.markup">2024-08-05T01:52:54.000000Z</property>
  <property name="meta.attr.0.stream.language.markup">eng</property>
  <property name="meta.attr.0.stream.handler_name.markup">SoundHandle</property>
  <property name="meta.attr.0.stream.vendor_id.markup">[0][0][0][0]</property>
  <property name="meta.attr.major_brand.markup">mp42</property>
  <property name="meta.attr.minor_version.markup">0</property>
  <property name="meta.attr.compatible_brands.markup">isommp42</property>
  <property name="meta.attr.creation_time.markup">2024-08-05T01:52:54.000000Z</property>
  <property name="meta.attr.com.android.version.markup">12</property>
  <property name="seekable">1</property>
  <property name="audio_index">0</property>
  <property name="video_index">-1</property>
  <property name="astream">0</property>
  <property name="kdenlive:folderid">-1</property>
  <property name="kdenlive:id">95</property>
  <property name="kdenlive:clip_type">1</property>
  <property name="kdenlive:file_size">53815</property>
  <property name="kdenlive:file_hash">4c14a42edf14a3a52694cb683ac62d95</property>
  <property name="kdenlive:audio_max0">163</property>
  <property name="kdenlive:monitorPosition">62</property>
 </chain>
 <chain id="chain213" out="00:00:03.360">
  <property name="length">85</property>
  <property name="eof">pause</property>
  <property name="resource">putmanythings.m4a</property>
  <property name="mlt_service">avformat</property>
  <property name="meta.media.nb_streams">1</property>
  <property name="meta.media.0.stream.type">audio</property>
  <property name="meta.media.0.codec.sample_fmt">fltp</property>
  <property name="meta.media.0.codec.sample_rate">48000</property>
  <property name="meta.media.0.codec.channels">2</property>
  <property name="meta.media.0.codec.layout">stereo</property>
  <property name="meta.media.0.codec.name">aac</property>
  <property name="meta.media.0.codec.long_name">AAC (Advanced Audio Coding)</property>
  <property name="meta.media.0.codec.bit_rate">148002</property>
  <property name="meta.attr.0.stream.creation_time.markup">2024-08-05T01:50:35.000000Z</property>
  <property name="meta.attr.0.stream.language.markup">eng</property>
  <property name="meta.attr.0.stream.handler_name.markup">SoundHandle</property>
  <property name="meta.attr.0.stream.vendor_id.markup">[0][0][0][0]</property>
  <property name="meta.attr.major_brand.markup">mp42</property>
  <property name="meta.attr.minor_version.markup">0</property>
  <property name="meta.attr.compatible_brands.markup">isommp42</property>
  <property name="meta.attr.creation_time.markup">2024-08-05T01:50:35.000000Z</property>
  <property name="meta.attr.com.android.version.markup">12</property>
  <property name="seekable">1</property>
  <property name="audio_index">0</property>
  <property name="video_index">-1</property>
  <property name="astream">0</property>
  <property name="kdenlive:folderid">-1</property>
  <property name="kdenlive:id">96</property>
  <property name="kdenlive:clip_type">1</property>
  <property name="kdenlive:file_size">66057</property>
  <property name="kdenlive:file_hash">2a23095c5b49169b2452cb7583dcd2a3</property>
  <property name="kdenlive:audio_max0">141</property>
  <property name="kdenlive:monitorPosition">0</property>
 </chain>
 <chain id="chain214" out="00:00:03.760">
  <property name="length">95</property>
  <property name="eof">pause</property>
  <property name="resource">andtheyll.m4a</property>
  <property name="mlt_service">avformat</property>
  <property name="meta.media.nb_streams">1</property>
  <property name="meta.media.0.stream.type">audio</property>
  <property name="meta.media.0.codec.sample_fmt">fltp</property>
  <property name="meta.media.0.codec.sample_rate">48000</property>
  <property name="meta.media.0.codec.channels">2</property>
  <property name="meta.media.0.codec.layout">stereo</property>
  <property name="meta.media.0.codec.name">aac</property>
  <property name="meta.media.0.codec.long_name">AAC (Advanced Audio Coding)</property>
  <property name="meta.media.0.codec.bit_rate">147999</property>
  <property name="meta.attr.0.stream.creation_time.markup">2024-08-05T01:51:00.000000Z</property>
  <property name="meta.attr.0.stream.language.markup">eng</property>
  <property name="meta.attr.0.stream.handler_name.markup">SoundHandle</property>
  <property name="meta.attr.0.stream.vendor_id.markup">[0][0][0][0]</property>
  <property name="meta.attr.major_brand.markup">mp42</property>
  <property name="meta.attr.minor_version.markup">0</property>
  <property name="meta.attr.compatible_brands.markup">isommp42</property>
  <property name="meta.attr.creation_time.markup">2024-08-05T01:51:00.000000Z</property>
  <property name="meta.attr.com.android.version.markup">12</property>
  <property name="seekable">1</property>
  <property name="audio_index">0</property>
  <property name="video_index">-1</property>
  <property name="astream">0</property>
  <property name="kdenlive:folderid">-1</property>
  <property name="kdenlive:id">97</property>
  <property name="kdenlive:clip_type">1</property>
  <property name="kdenlive:file_size">73953</property>
  <property name="kdenlive:file_hash">f2dfce8663a946e1b99a8b14a1cd62d8</property>
  <property name="kdenlive:audio_max0">135</property>
  <property name="kdenlive:monitorPosition">0</property>
 </chain>
 <chain id="chain215" out="00:00:07.720">
  <property name="length">194</property>
  <property name="eof">pause</property>
  <property name="resource">atoms___.m4a</property>
  <property name="mlt_service">avformat</property>
  <property name="meta.media.nb_streams">1</property>
  <property name="meta.media.0.stream.type">audio</property>
  <property name="meta.media.0.codec.sample_fmt">fltp</property>
  <property name="meta.media.0.codec.sample_rate">48000</property>
  <property name="meta.media.0.codec.channels">2</property>
  <property name="meta.media.0.codec.layout">stereo</property>
  <property name="meta.media.0.codec.name">aac</property>
  <property name="meta.media.0.codec.long_name">AAC (Advanced Audio Coding)</property>
  <property name="meta.media.0.codec.bit_rate">148000</property>
  <property name="meta.attr.0.stream.creation_time.markup">2024-08-05T01:49:58.000000Z</property>
  <property name="meta.attr.0.stream.language.markup">eng</property>
  <property name="meta.attr.0.stream.handler_name.markup">SoundHandle</property>
  <property name="meta.attr.0.stream.vendor_id.markup">[0][0][0][0]</property>
  <property name="meta.attr.major_brand.markup">mp42</property>
  <property name="meta.attr.minor_version.markup">0</property>
  <property name="meta.attr.compatible_brands.markup">isommp42</property>
  <property name="meta.attr.creation_time.markup">2024-08-05T01:49:58.000000Z</property>
  <property name="meta.attr.com.android.version.markup">12</property>
  <property name="seekable">1</property>
  <property name="audio_index">0</property>
  <property name="video_index">-1</property>
  <property name="astream">0</property>
  <property name="kdenlive:folderid">-1</property>
  <property name="kdenlive:id">98</property>
  <property name="kdenlive:clip_type">1</property>
  <property name="kdenlive:file_size">147013</property>
  <property name="kdenlive:file_hash">9ebddd61180f30e9168c151aa418034c</property>
  <property name="kdenlive:audio_max0">160</property>
  <property name="kdenlive:monitorPosition">37</property>
 </chain>
 <chain id="chain216" out="00:00:03.880">
  <property name="length">98</property>
  <property name="eof">pause</property>
  <property name="resource">andseems.m4a</property>
  <property name="mlt_service">avformat</property>
  <property name="meta.media.nb_streams">1</property>
  <property name="meta.media.0.stream.type">audio</property>
  <property name="meta.media.0.codec.sample_fmt">fltp</property>
  <property name="meta.media.0.codec.sample_rate">48000</property>
  <property name="meta.media.0.codec.channels">2</property>
  <property name="meta.media.0.codec.layout">stereo</property>
  <property name="meta.media.0.codec.name">aac</property>
  <property name="meta.media.0.codec.long_name">AAC (Advanced Audio Coding)</property>
  <property name="meta.media.0.codec.bit_rate">148000</property>
  <property name="meta.attr.0.stream.creation_time.markup">2024-08-05T01:48:32.000000Z</property>
  <property name="meta.attr.0.stream.language.markup">eng</property>
  <property name="meta.attr.0.stream.handler_name.markup">SoundHandle</property>
  <property name="meta.attr.0.stream.vendor_id.markup">[0][0][0][0]</property>
  <property name="meta.attr.major_brand.markup">mp42</property>
  <property name="meta.attr.minor_version.markup">0</property>
  <property name="meta.attr.compatible_brands.markup">isommp42</property>
  <property name="meta.attr.creation_time.markup">2024-08-05T01:48:32.000000Z</property>
  <property name="meta.attr.com.android.version.markup">12</property>
  <property name="seekable">1</property>
  <property name="audio_index">0</property>
  <property name="video_index">-1</property>
  <property name="astream">0</property>
  <property name="kdenlive:folderid">-1</property>
  <property name="kdenlive:id">99</property>
  <property name="kdenlive:clip_type">1</property>
  <property name="kdenlive:file_size">75929</property>
  <property name="kdenlive:file_hash">45fa469a8abda2580cf7ea02adc267dc</property>
  <property name="kdenlive:audio_max0">143</property>
  <property name="kdenlive:monitorPosition">0</property>
 </chain>
 <chain id="chain217" out="00:00:04.440">
  <property name="length">112</property>
  <property name="eof">pause</property>
  <property name="resource">thelevel.m4a</property>
  <property name="mlt_service">avformat</property>
  <property name="meta.media.nb_streams">1</property>
  <property name="meta.media.0.stream.type">audio</property>
  <property name="meta.media.0.codec.sample_fmt">fltp</property>
  <property name="meta.media.0.codec.sample_rate">48000</property>
  <property name="meta.media.0.codec.channels">2</property>
  <property name="meta.media.0.codec.layout">stereo</property>
  <property name="meta.media.0.codec.name">aac</property>
  <property name="meta.media.0.codec.long_name">AAC (Advanced Audio Coding)</property>
  <property name="meta.media.0.codec.bit_rate">148001</property>
  <property name="meta.attr.0.stream.creation_time.markup">2024-08-05T01:43:38.000000Z</property>
  <property name="meta.attr.0.stream.language.markup">eng</property>
  <property name="meta.attr.0.stream.handler_name.markup">SoundHandle</property>
  <property name="meta.attr.0.stream.vendor_id.markup">[0][0][0][0]</property>
  <property name="meta.attr.major_brand.markup">mp42</property>
  <property name="meta.attr.minor_version.markup">0</property>
  <property name="meta.attr.compatible_brands.markup">isommp42</property>
  <property name="meta.attr.creation_time.markup">2024-08-05T01:43:38.000000Z</property>
  <property name="meta.attr.com.android.version.markup">12</property>
  <property name="seekable">1</property>
  <property name="audio_index">0</property>
  <property name="video_index">-1</property>
  <property name="astream">0</property>
  <property name="kdenlive:folderid">-1</property>
  <property name="kdenlive:id">100</property>
  <property name="kdenlive:clip_type">1</property>
  <property name="kdenlive:file_size">86197</property>
  <property name="kdenlive:file_hash">c77560b647bea99571100acaebe0053b</property>
  <property name="kdenlive:audio_max0">153</property>
  <property name="kdenlive:monitorPosition">65</property>
 </chain>
 <chain id="chain218" out="00:00:04.000">
  <property name="length">101</property>
  <property name="eof">pause</property>
  <property name="resource">emagens.m4a</property>
  <property name="mlt_service">avformat</property>
  <property name="meta.media.nb_streams">1</property>
  <property name="meta.media.0.stream.type">audio</property>
  <property name="meta.media.0.codec.sample_fmt">fltp</property>
  <property name="meta.media.0.codec.sample_rate">48000</property>
  <property name="meta.media.0.codec.channels">2</property>
  <property name="meta.media.0.codec.layout">stereo</property>
  <property name="meta.media.0.codec.name">aac</property>
  <property name="meta.media.0.codec.long_name">AAC (Advanced Audio Coding)</property>
  <property name="meta.media.0.codec.bit_rate">147998</property>
  <property name="meta.attr.0.stream.creation_time.markup">2024-08-05T01:45:49.000000Z</property>
  <property name="meta.attr.0.stream.language.markup">eng</property>
  <property name="meta.attr.0.stream.handler_name.markup">SoundHandle</property>
  <property name="meta.attr.0.stream.vendor_id.markup">[0][0][0][0]</property>
  <property name="meta.attr.major_brand.markup">mp42</property>
  <property name="meta.attr.minor_version.markup">0</property>
  <property name="meta.attr.compatible_brands.markup">isommp42</property>
  <property name="meta.attr.creation_time.markup">2024-08-05T01:45:49.000000Z</property>
  <property name="meta.attr.com.android.version.markup">12</property>
  <property name="seekable">1</property>
  <property name="audio_index">0</property>
  <property name="video_index">-1</property>
  <property name="astream">0</property>
  <property name="kdenlive:folderid">-1</property>
  <property name="kdenlive:id">101</property>
  <property name="kdenlive:clip_type">1</property>
  <property name="kdenlive:file_size">78298</property>
  <property name="kdenlive:file_hash">7d303d62a566697c6cc36dbf013fa763</property>
  <property name="kdenlive:audio_max0">155</property>
  <property name="kdenlive:monitorPosition">0</property>
 </chain>
 <chain id="chain219" out="00:00:03.840">
  <property name="length">97</property>
  <property name="eof">pause</property>
  <property name="resource">manysmallthings.m4a</property>
  <property name="mlt_service">avformat</property>
  <property name="meta.media.nb_streams">1</property>
  <property name="meta.media.0.stream.type">audio</property>
  <property name="meta.media.0.codec.sample_fmt">fltp</property>
  <property name="meta.media.0.codec.sample_rate">48000</property>
  <property name="meta.media.0.codec.channels">2</property>
  <property name="meta.media.0.codec.layout">stereo</property>
  <property name="meta.media.0.codec.name">aac</property>
  <property name="meta.media.0.codec.long_name">AAC (Advanced Audio Coding)</property>
  <property name="meta.media.0.codec.bit_rate">147999</property>
  <property name="meta.attr.0.stream.creation_time.markup">2024-08-05T01:40:11.000000Z</property>
  <property name="meta.attr.0.stream.language.markup">eng</property>
  <property name="meta.attr.0.stream.handler_name.markup">SoundHandle</property>
  <property name="meta.attr.0.stream.vendor_id.markup">[0][0][0][0]</property>
  <property name="meta.attr.major_brand.markup">mp42</property>
  <property name="meta.attr.minor_version.markup">0</property>
  <property name="meta.attr.compatible_brands.markup">isommp42</property>
  <property name="meta.attr.creation_time.markup">2024-08-05T01:40:11.000000Z</property>
  <property name="meta.attr.com.android.version.markup">12</property>
  <property name="seekable">1</property>
  <property name="audio_index">0</property>
  <property name="video_index">-1</property>
  <property name="astream">0</property>
  <property name="kdenlive:folderid">-1</property>
  <property name="kdenlive:id">102</property>
  <property name="kdenlive:clip_type">1</property>
  <property name="kdenlive:file_size">75139</property>
  <property name="kdenlive:file_hash">5877e9f51805fc3a4335bf782ed3c674</property>
  <property name="kdenlive:audio_max0">147</property>
  <property name="kdenlive:monitorPosition">0</property>
 </chain>
 <chain id="chain220" out="00:00:02.920">
  <property name="length">74</property>
  <property name="eof">pause</property>
  <property name="resource">butyourpants.m4a</property>
  <property name="mlt_service">avformat</property>
  <property name="meta.media.nb_streams">1</property>
  <property name="meta.media.0.stream.type">audio</property>
  <property name="meta.media.0.codec.sample_fmt">fltp</property>
  <property name="meta.media.0.codec.sample_rate">48000</property>
  <property name="meta.media.0.codec.channels">2</property>
  <property name="meta.media.0.codec.layout">stereo</property>
  <property name="meta.media.0.codec.name">aac</property>
  <property name="meta.media.0.codec.long_name">AAC (Advanced Audio Coding)</property>
  <property name="meta.media.0.codec.bit_rate">148000</property>
  <property name="meta.attr.0.stream.creation_time.markup">2024-08-05T01:39:16.000000Z</property>
  <property name="meta.attr.0.stream.language.markup">eng</property>
  <property name="meta.attr.0.stream.handler_name.markup">SoundHandle</property>
  <property name="meta.attr.0.stream.vendor_id.markup">[0][0][0][0]</property>
  <property name="meta.attr.major_brand.markup">mp42</property>
  <property name="meta.attr.minor_version.markup">0</property>
  <property name="meta.attr.compatible_brands.markup">isommp42</property>
  <property name="meta.attr.creation_time.markup">2024-08-05T01:39:16.000000Z</property>
  <property name="meta.attr.com.android.version.markup">12</property>
  <property name="seekable">1</property>
  <property name="audio_index">0</property>
  <property name="video_index">-1</property>
  <property name="astream">0</property>
  <property name="kdenlive:folderid">-1</property>
  <property name="kdenlive:id">103</property>
  <property name="kdenlive:clip_type">1</property>
  <property name="kdenlive:file_size">57762</property>
  <property name="kdenlive:file_hash">dcf5d8b14d78396db0bcccb14842f854</property>
  <property name="kdenlive:audio_max0">149</property>
  <property name="kdenlive:monitorPosition">0</property>
 </chain>
 <chain id="chain221" out="00:00:03.360">
  <property name="length">85</property>
  <property name="eof">pause</property>
  <property name="resource">H2Oarenot.m4a</property>
  <property name="mlt_service">avformat</property>
  <property name="meta.media.nb_streams">1</property>
  <property name="meta.media.0.stream.type">audio</property>
  <property name="meta.media.0.codec.sample_fmt">fltp</property>
  <property name="meta.media.0.codec.sample_rate">48000</property>
  <property name="meta.media.0.codec.channels">2</property>
  <property name="meta.media.0.codec.layout">stereo</property>
  <property name="meta.media.0.codec.name">aac</property>
  <property name="meta.media.0.codec.long_name">AAC (Advanced Audio Coding)</property>
  <property name="meta.media.0.codec.bit_rate">147998</property>
  <property name="meta.attr.0.stream.creation_time.markup">2024-08-05T01:37:56.000000Z</property>
  <property name="meta.attr.0.stream.language.markup">eng</property>
  <property name="meta.attr.0.stream.handler_name.markup">SoundHandle</property>
  <property name="meta.attr.0.stream.vendor_id.markup">[0][0][0][0]</property>
  <property name="meta.attr.major_brand.markup">mp42</property>
  <property name="meta.attr.minor_version.markup">0</property>
  <property name="meta.attr.compatible_brands.markup">isommp42</property>
  <property name="meta.attr.creation_time.markup">2024-08-05T01:37:56.000000Z</property>
  <property name="meta.attr.com.android.version.markup">12</property>
  <property name="seekable">1</property>
  <property name="audio_index">0</property>
  <property name="video_index">-1</property>
  <property name="astream">0</property>
  <property name="kdenlive:folderid">-1</property>
  <property name="kdenlive:id">104</property>
  <property name="kdenlive:clip_type">1</property>
  <property name="kdenlive:file_size">66450</property>
  <property name="kdenlive:file_hash">42d952c0754c7b403b8bfec6dd350603</property>
  <property name="kdenlive:audio_max0">148</property>
  <property name="kdenlive:monitorPosition">0</property>
 </chain>
 <chain id="chain222" out="00:00:02.800">
  <property name="length">71</property>
  <property name="eof">pause</property>
  <property name="resource">butwhatiswteness.m4a</property>
  <property name="mlt_service">avformat</property>
  <property name="meta.media.nb_streams">1</property>
  <property name="meta.media.0.stream.type">audio</property>
  <property name="meta.media.0.codec.sample_fmt">fltp</property>
  <property name="meta.media.0.codec.sample_rate">48000</property>
  <property name="meta.media.0.codec.channels">2</property>
  <property name="meta.media.0.codec.layout">stereo</property>
  <property name="meta.media.0.codec.name">aac</property>
  <property name="meta.media.0.codec.long_name">AAC (Advanced Audio Coding)</property>
  <property name="meta.media.0.codec.bit_rate">147998</property>
  <property name="meta.attr.0.stream.creation_time.markup">2024-08-05T01:37:43.000000Z</property>
  <property name="meta.attr.0.stream.language.markup">eng</property>
  <property name="meta.attr.0.stream.handler_name.markup">SoundHandle</property>
  <property name="meta.attr.0.stream.vendor_id.markup">[0][0][0][0]</property>
  <property name="meta.attr.major_brand.markup">mp42</property>
  <property name="meta.attr.minor_version.markup">0</property>
  <property name="meta.attr.compatible_brands.markup">isommp42</property>
  <property name="meta.attr.creation_time.markup">2024-08-05T01:37:43.000000Z</property>
  <property name="meta.attr.com.android.version.markup">12</property>
  <property name="seekable">1</property>
  <property name="audio_index">0</property>
  <property name="video_index">-1</property>
  <property name="astream">0</property>
  <property name="kdenlive:folderid">-1</property>
  <property name="kdenlive:id">105</property>
  <property name="kdenlive:clip_type">1</property>
  <property name="kdenlive:file_size">55788</property>
  <property name="kdenlive:file_hash">3813897ea04f97cec38e995151cdf33f</property>
  <property name="kdenlive:audio_max0">154</property>
  <property name="kdenlive:monitorPosition">0</property>
 </chain>
 <chain id="chain223" out="00:00:05.280">
  <property name="length">133</property>
  <property name="eof">pause</property>
  <property name="resource">ifyougetwateronyoupants.m4a</property>
  <property name="mlt_service">avformat</property>
  <property name="meta.media.nb_streams">1</property>
  <property name="meta.media.0.stream.type">audio</property>
  <property name="meta.media.0.codec.sample_fmt">fltp</property>
  <property name="meta.media.0.codec.sample_rate">48000</property>
  <property name="meta.media.0.codec.channels">2</property>
  <property name="meta.media.0.codec.layout">stereo</property>
  <property name="meta.media.0.codec.name">aac</property>
  <property name="meta.media.0.codec.long_name">AAC (Advanced Audio Coding)</property>
  <property name="meta.media.0.codec.bit_rate">148000</property>
  <property name="meta.attr.0.stream.creation_time.markup">2024-08-05T01:37:12.000000Z</property>
  <property name="meta.attr.0.stream.language.markup">eng</property>
  <property name="meta.attr.0.stream.handler_name.markup">SoundHandle</property>
  <property name="meta.attr.0.stream.vendor_id.markup">[0][0][0][0]</property>
  <property name="meta.attr.major_brand.markup">mp42</property>
  <property name="meta.attr.minor_version.markup">0</property>
  <property name="meta.attr.compatible_brands.markup">isommp42</property>
  <property name="meta.attr.creation_time.markup">2024-08-05T01:37:12.000000Z</property>
  <property name="meta.attr.com.android.version.markup">12</property>
  <property name="seekable">1</property>
  <property name="audio_index">0</property>
  <property name="video_index">-1</property>
  <property name="astream">0</property>
  <property name="kdenlive:folderid">-1</property>
  <property name="kdenlive:id">106</property>
  <property name="kdenlive:clip_type">1</property>
  <property name="kdenlive:file_size">101993</property>
  <property name="kdenlive:file_hash">0189b032c112692849b26832a14a0cfa</property>
  <property name="kdenlive:audio_max0">149</property>
  <property name="kdenlive:monitorPosition">0</property>
 </chain>
 <chain id="chain224" out="00:00:04.440">
  <property name="length">112</property>
  <property name="eof">pause</property>
  <property name="resource">creatnew.m4a</property>
  <property name="mlt_service">avformat</property>
  <property name="meta.media.nb_streams">1</property>
  <property name="meta.media.0.stream.type">audio</property>
  <property name="meta.media.0.codec.sample_fmt">fltp</property>
  <property name="meta.media.0.codec.sample_rate">48000</property>
  <property name="meta.media.0.codec.channels">2</property>
  <property name="meta.media.0.codec.layout">stereo</property>
  <property name="meta.media.0.codec.name">aac</property>
  <property name="meta.media.0.codec.long_name">AAC (Advanced Audio Coding)</property>
  <property name="meta.media.0.codec.bit_rate">148001</property>
  <property name="meta.attr.0.stream.creation_time.markup">2024-08-05T01:35:09.000000Z</property>
  <property name="meta.attr.0.stream.language.markup">eng</property>
  <property name="meta.attr.0.stream.handler_name.markup">SoundHandle</property>
  <property name="meta.attr.0.stream.vendor_id.markup">[0][0][0][0]</property>
  <property name="meta.attr.major_brand.markup">mp42</property>
  <property name="meta.attr.minor_version.markup">0</property>
  <property name="meta.attr.compatible_brands.markup">isommp42</property>
  <property name="meta.attr.creation_time.markup">2024-08-05T01:35:09.000000Z</property>
  <property name="meta.attr.com.android.version.markup">12</property>
  <property name="seekable">1</property>
  <property name="audio_index">0</property>
  <property name="video_index">-1</property>
  <property name="astream">0</property>
  <property name="kdenlive:folderid">-1</property>
  <property name="kdenlive:id">107</property>
  <property name="kdenlive:clip_type">1</property>
  <property name="kdenlive:file_size">86197</property>
  <property name="kdenlive:file_hash">24ef05d95d1b308567b597cfd0a18126</property>
  <property name="kdenlive:audio_max0">153</property>
  <property name="kdenlive:monitorPosition">0</property>
 </chain>
 <chain id="chain225" out="00:00:06.160">
  <property name="length">155</property>
  <property name="eof">pause</property>
  <property name="resource">adropofwater.m4a</property>
  <property name="mlt_service">avformat</property>
  <property name="meta.media.nb_streams">1</property>
  <property name="meta.media.0.stream.type">audio</property>
  <property name="meta.media.0.codec.sample_fmt">fltp</property>
  <property name="meta.media.0.codec.sample_rate">48000</property>
  <property name="meta.media.0.codec.channels">2</property>
  <property name="meta.media.0.codec.layout">stereo</property>
  <property name="meta.media.0.codec.name">aac</property>
  <property name="meta.media.0.codec.long_name">AAC (Advanced Audio Coding)</property>
  <property name="meta.media.0.codec.bit_rate">148001</property>
  <property name="meta.attr.0.stream.creation_time.markup">2024-08-05T01:36:34.000000Z</property>
  <property name="meta.attr.0.stream.language.markup">eng</property>
  <property name="meta.attr.0.stream.handler_name.markup">SoundHandle</property>
  <property name="meta.attr.0.stream.vendor_id.markup">[0][0][0][0]</property>
  <property name="meta.attr.major_brand.markup">mp42</property>
  <property name="meta.attr.minor_version.markup">0</property>
  <property name="meta.attr.compatible_brands.markup">isommp42</property>
  <property name="meta.attr.creation_time.markup">2024-08-05T01:36:34.000000Z</property>
  <property name="meta.attr.com.android.version.markup">12</property>
  <property name="seekable">1</property>
  <property name="audio_index">0</property>
  <property name="video_index">-1</property>
  <property name="astream">0</property>
  <property name="kdenlive:folderid">-1</property>
  <property name="kdenlive:id">108</property>
  <property name="kdenlive:clip_type">1</property>
  <property name="kdenlive:file_size">118185</property>
  <property name="kdenlive:file_hash">d4aa47f7286aa5f5522f4f8fa62bbe17</property>
  <property name="kdenlive:audio_max0">158</property>
  <property name="kdenlive:monitorPosition">1</property>
 </chain>
 <chain id="chain226" out="00:00:03.880">
  <property name="length">98</property>
  <property name="eof">pause</property>
  <property name="resource">emageniswhenmany.m4a</property>
  <property name="mlt_service">avformat</property>
  <property name="meta.media.nb_streams">1</property>
  <property name="meta.media.0.stream.type">audio</property>
  <property name="meta.media.0.codec.sample_fmt">fltp</property>
  <property name="meta.media.0.codec.sample_rate">48000</property>
  <property name="meta.media.0.codec.channels">2</property>
  <property name="meta.media.0.codec.layout">stereo</property>
  <property name="meta.media.0.codec.name">aac</property>
  <property name="meta.media.0.codec.long_name">AAC (Advanced Audio Coding)</property>
  <property name="meta.media.0.codec.bit_rate">147998</property>
  <property name="meta.attr.0.stream.creation_time.markup">2024-08-05T01:33:33.000000Z</property>
  <property name="meta.attr.0.stream.language.markup">eng</property>
  <property name="meta.attr.0.stream.handler_name.markup">SoundHandle</property>
  <property name="meta.attr.0.stream.vendor_id.markup">[0][0][0][0]</property>
  <property name="meta.attr.major_brand.markup">mp42</property>
  <property name="meta.attr.minor_version.markup">0</property>
  <property name="meta.attr.compatible_brands.markup">isommp42</property>
  <property name="meta.attr.creation_time.markup">2024-08-05T01:33:33.000000Z</property>
  <property name="meta.attr.com.android.version.markup">12</property>
  <property name="seekable">1</property>
  <property name="audio_index">0</property>
  <property name="video_index">-1</property>
  <property name="astream">0</property>
  <property name="kdenlive:folderid">-1</property>
  <property name="kdenlive:id">109</property>
  <property name="kdenlive:clip_type">1</property>
  <property name="kdenlive:file_size">75928</property>
  <property name="kdenlive:file_hash">ee326efe5927f1175f3330a4ff207e97</property>
  <property name="kdenlive:audio_max0">149</property>
  <property name="kdenlive:monitorPosition">0</property>
 </chain>
 <chain id="chain227" out="00:00:07.080">
  <property name="length">178</property>
  <property name="eof">pause</property>
  <property name="resource">onekey.m4a</property>
  <property name="mlt_service">avformat</property>
  <property name="meta.media.nb_streams">1</property>
  <property name="meta.media.0.stream.type">audio</property>
  <property name="meta.media.0.codec.sample_fmt">fltp</property>
  <property name="meta.media.0.codec.sample_rate">48000</property>
  <property name="meta.media.0.codec.channels">2</property>
  <property name="meta.media.0.codec.layout">stereo</property>
  <property name="meta.media.0.codec.name">aac</property>
  <property name="meta.media.0.codec.long_name">AAC (Advanced Audio Coding)</property>
  <property name="meta.media.0.codec.bit_rate">148001</property>
  <property name="meta.attr.0.stream.creation_time.markup">2024-08-05T01:31:57.000000Z</property>
  <property name="meta.attr.0.stream.language.markup">eng</property>
  <property name="meta.attr.0.stream.handler_name.markup">SoundHandle</property>
  <property name="meta.attr.0.stream.vendor_id.markup">[0][0][0][0]</property>
  <property name="meta.attr.major_brand.markup">mp42</property>
  <property name="meta.attr.minor_version.markup">0</property>
  <property name="meta.attr.compatible_brands.markup">isommp42</property>
  <property name="meta.attr.creation_time.markup">2024-08-05T01:31:57.000000Z</property>
  <property name="meta.attr.com.android.version.markup">12</property>
  <property name="seekable">1</property>
  <property name="audio_index">0</property>
  <property name="video_index">-1</property>
  <property name="astream">0</property>
  <property name="kdenlive:folderid">-1</property>
  <property name="kdenlive:id">110</property>
  <property name="kdenlive:clip_type">1</property>
  <property name="kdenlive:file_size">134773</property>
  <property name="kdenlive:file_hash">f863fea1722cfa0374e55d4d3f15f47e</property>
  <property name="kdenlive:audio_max0">160</property>
  <property name="kdenlive:monitorPosition">43</property>
 </chain>
 <chain id="chain228" out="00:00:02.160">
  <property name="length">55</property>
  <property name="eof">pause</property>
  <property name="resource">isemagens.m4a</property>
  <property name="mlt_service">avformat</property>
  <property name="meta.media.nb_streams">1</property>
  <property name="meta.media.0.stream.type">audio</property>
  <property name="meta.media.0.codec.sample_fmt">fltp</property>
  <property name="meta.media.0.codec.sample_rate">48000</property>
  <property name="meta.media.0.codec.channels">2</property>
  <property name="meta.media.0.codec.layout">stereo</property>
  <property name="meta.media.0.codec.name">aac</property>
  <property name="meta.media.0.codec.long_name">AAC (Advanced Audio Coding)</property>
  <property name="meta.media.0.codec.bit_rate">147997</property>
  <property name="meta.attr.0.stream.creation_time.markup">2024-08-05T01:33:13.000000Z</property>
  <property name="meta.attr.0.stream.language.markup">eng</property>
  <property name="meta.attr.0.stream.handler_name.markup">SoundHandle</property>
  <property name="meta.attr.0.stream.vendor_id.markup">[0][0][0][0]</property>
  <property name="meta.attr.major_brand.markup">mp42</property>
  <property name="meta.attr.minor_version.markup">0</property>
  <property name="meta.attr.compatible_brands.markup">isommp42</property>
  <property name="meta.attr.creation_time.markup">2024-08-05T01:33:13.000000Z</property>
  <property name="meta.attr.com.android.version.markup">12</property>
  <property name="seekable">1</property>
  <property name="audio_index">0</property>
  <property name="video_index">-1</property>
  <property name="astream">0</property>
  <property name="kdenlive:folderid">-1</property>
  <property name="kdenlive:id">111</property>
  <property name="kdenlive:clip_type">1</property>
  <property name="kdenlive:file_size">43940</property>
  <property name="kdenlive:file_hash">1112bb09b999ccb186f1441bf2544d9d</property>
  <property name="kdenlive:audio_max0">151</property>
  <property name="kdenlive:monitorPosition">0</property>
 </chain>
 <chain id="chain229" out="00:00:05.680">
  <property name="length">143</property>
  <property name="eof">pause</property>
  <property name="resource">youcantexp.m4a</property>
  <property name="mlt_service">avformat</property>
  <property name="meta.media.nb_streams">1</property>
  <property name="meta.media.0.stream.type">audio</property>
  <property name="meta.media.0.codec.sample_fmt">fltp</property>
  <property name="meta.media.0.codec.sample_rate">48000</property>
  <property name="meta.media.0.codec.channels">2</property>
  <property name="meta.media.0.codec.layout">stereo</property>
  <property name="meta.media.0.codec.name">aac</property>
  <property name="meta.media.0.codec.long_name">AAC (Advanced Audio Coding)</property>
  <property name="meta.media.0.codec.bit_rate">148000</property>
  <property name="meta.attr.0.stream.creation_time.markup">2024-08-05T01:22:02.000000Z</property>
  <property name="meta.attr.0.stream.language.markup">eng</property>
  <property name="meta.attr.0.stream.handler_name.markup">SoundHandle</property>
  <property name="meta.attr.0.stream.vendor_id.markup">[0][0][0][0]</property>
  <property name="meta.attr.major_brand.markup">mp42</property>
  <property name="meta.attr.minor_version.markup">0</property>
  <property name="meta.attr.compatible_brands.markup">isommp42</property>
  <property name="meta.attr.creation_time.markup">2024-08-05T01:22:02.000000Z</property>
  <property name="meta.attr.com.android.version.markup">12</property>
  <property name="seekable">1</property>
  <property name="audio_index">0</property>
  <property name="video_index">-1</property>
  <property name="astream">0</property>
  <property name="kdenlive:folderid">-1</property>
  <property name="kdenlive:id">112</property>
  <property name="kdenlive:clip_type">1</property>
  <property name="kdenlive:file_size">109496</property>
  <property name="kdenlive:file_hash">11b279bcb9bc9765453ec299929af9ad</property>
  <property name="kdenlive:audio_max0">133</property>
  <property name="kdenlive:monitorPosition">0</property>
 </chain>
 <chain id="chain230" out="00:00:06.120">
  <property name="length">154</property>
  <property name="eof">pause</property>
  <property name="resource">while.m4a</property>
  <property name="mlt_service">avformat</property>
  <property name="meta.media.nb_streams">1</property>
  <property name="meta.media.0.stream.type">audio</property>
  <property name="meta.media.0.codec.sample_fmt">fltp</property>
  <property name="meta.media.0.codec.sample_rate">48000</property>
  <property name="meta.media.0.codec.channels">2</property>
  <property name="meta.media.0.codec.layout">stereo</property>
  <property name="meta.media.0.codec.name">aac</property>
  <property name="meta.media.0.codec.long_name">AAC (Advanced Audio Coding)</property>
  <property name="meta.media.0.codec.bit_rate">147999</property>
  <property name="meta.attr.0.stream.creation_time.markup">2024-08-05T01:20:17.000000Z</property>
  <property name="meta.attr.0.stream.language.markup">eng</property>
  <property name="meta.attr.0.stream.handler_name.markup">SoundHandle</property>
  <property name="meta.attr.0.stream.vendor_id.markup">[0][0][0][0]</property>
  <property name="meta.attr.major_brand.markup">mp42</property>
  <property name="meta.attr.minor_version.markup">0</property>
  <property name="meta.attr.compatible_brands.markup">isommp42</property>
  <property name="meta.attr.creation_time.markup">2024-08-05T01:20:17.000000Z</property>
  <property name="meta.attr.com.android.version.markup">12</property>
  <property name="seekable">1</property>
  <property name="audio_index">0</property>
  <property name="video_index">-1</property>
  <property name="astream">0</property>
  <property name="kdenlive:folderid">-1</property>
  <property name="kdenlive:id">113</property>
  <property name="kdenlive:clip_type">1</property>
  <property name="kdenlive:file_size">117394</property>
  <property name="kdenlive:file_hash">ff959fabc05979f67c9d4c7ec91e1d62</property>
  <property name="kdenlive:audio_max0">150</property>
  <property name="kdenlive:monitorPosition">0</property>
 </chain>
 <chain id="chain231" out="00:00:02.400">
  <property name="length">61</property>
  <property name="eof">pause</property>
  <property name="resource">thereisaproblem.m4a</property>
  <property name="mlt_service">avformat</property>
  <property name="meta.media.nb_streams">1</property>
  <property name="meta.media.0.stream.type">audio</property>
  <property name="meta.media.0.codec.sample_fmt">fltp</property>
  <property name="meta.media.0.codec.sample_rate">48000</property>
  <property name="meta.media.0.codec.channels">2</property>
  <property name="meta.media.0.codec.layout">stereo</property>
  <property name="meta.media.0.codec.name">aac</property>
  <property name="meta.media.0.codec.long_name">AAC (Advanced Audio Coding)</property>
  <property name="meta.media.0.codec.bit_rate">147997</property>
  <property name="meta.attr.0.stream.creation_time.markup">2024-08-05T01:20:43.000000Z</property>
  <property name="meta.attr.0.stream.language.markup">eng</property>
  <property name="meta.attr.0.stream.handler_name.markup">SoundHandle</property>
  <property name="meta.attr.0.stream.vendor_id.markup">[0][0][0][0]</property>
  <property name="meta.attr.major_brand.markup">mp42</property>
  <property name="meta.attr.minor_version.markup">0</property>
  <property name="meta.attr.compatible_brands.markup">isommp42</property>
  <property name="meta.attr.creation_time.markup">2024-08-05T01:20:43.000000Z</property>
  <property name="meta.attr.com.android.version.markup">12</property>
  <property name="seekable">1</property>
  <property name="audio_index">0</property>
  <property name="video_index">-1</property>
  <property name="astream">0</property>
  <property name="kdenlive:folderid">-1</property>
  <property name="kdenlive:id">114</property>
  <property name="kdenlive:clip_type">1</property>
  <property name="kdenlive:file_size">48678</property>
  <property name="kdenlive:file_hash">bffd59203cf1395ba1961e3399ed3c24</property>
  <property name="kdenlive:audio_max0">133</property>
  <property name="kdenlive:monitorPosition">0</property>
 </chain>
 <chain id="chain232" out="00:00:05.480">
  <property name="length">138</property>
  <property name="eof">pause</property>
  <property name="resource">weknowthatwecan.m4a</property>
  <property name="mlt_service">avformat</property>
  <property name="meta.media.nb_streams">1</property>
  <property name="meta.media.0.stream.type">audio</property>
  <property name="meta.media.0.codec.sample_fmt">fltp</property>
  <property name="meta.media.0.codec.sample_rate">48000</property>
  <property name="meta.media.0.codec.channels">2</property>
  <property name="meta.media.0.codec.layout">stereo</property>
  <property name="meta.media.0.codec.name">aac</property>
  <property name="meta.media.0.codec.long_name">AAC (Advanced Audio Coding)</property>
  <property name="meta.media.0.codec.bit_rate">147999</property>
  <property name="meta.attr.0.stream.creation_time.markup">2024-08-05T01:17:55.000000Z</property>
  <property name="meta.attr.0.stream.language.markup">eng</property>
  <property name="meta.attr.0.stream.handler_name.markup">SoundHandle</property>
  <property name="meta.attr.0.stream.vendor_id.markup">[0][0][0][0]</property>
  <property name="meta.attr.major_brand.markup">mp42</property>
  <property name="meta.attr.minor_version.markup">0</property>
  <property name="meta.attr.compatible_brands.markup">isommp42</property>
  <property name="meta.attr.creation_time.markup">2024-08-05T01:17:55.000000Z</property>
  <property name="meta.attr.com.android.version.markup">12</property>
  <property name="seekable">1</property>
  <property name="audio_index">0</property>
  <property name="video_index">-1</property>
  <property name="astream">0</property>
  <property name="kdenlive:folderid">-1</property>
  <property name="kdenlive:id">115</property>
  <property name="kdenlive:clip_type">1</property>
  <property name="kdenlive:file_size">105548</property>
  <property name="kdenlive:file_hash">19d42394558990540e405aa3bba5624e</property>
  <property name="kdenlive:audio_max0">151</property>
  <property name="kdenlive:monitorPosition">0</property>
 </chain>
 <chain id="chain233" out="00:00:04.480">
  <property name="length">113</property>
  <property name="eof">pause</property>
  <property name="resource">guide.m4a</property>
  <property name="mlt_service">avformat</property>
  <property name="meta.media.nb_streams">1</property>
  <property name="meta.media.0.stream.type">audio</property>
  <property name="meta.media.0.codec.sample_fmt">fltp</property>
  <property name="meta.media.0.codec.sample_rate">48000</property>
  <property name="meta.media.0.codec.channels">2</property>
  <property name="meta.media.0.codec.layout">stereo</property>
  <property name="meta.media.0.codec.name">aac</property>
  <property name="meta.media.0.codec.long_name">AAC (Advanced Audio Coding)</property>
  <property name="meta.media.0.codec.bit_rate">148000</property>
  <property name="meta.attr.0.stream.creation_time.markup">2024-08-05T01:18:37.000000Z</property>
  <property name="meta.attr.0.stream.language.markup">eng</property>
  <property name="meta.attr.0.stream.handler_name.markup">SoundHandle</property>
  <property name="meta.attr.0.stream.vendor_id.markup">[0][0][0][0]</property>
  <property name="meta.attr.major_brand.markup">mp42</property>
  <property name="meta.attr.minor_version.markup">0</property>
  <property name="meta.attr.compatible_brands.markup">isommp42</property>
  <property name="meta.attr.creation_time.markup">2024-08-05T01:18:37.000000Z</property>
  <property name="meta.attr.com.android.version.markup">12</property>
  <property name="seekable">1</property>
  <property name="audio_index">0</property>
  <property name="video_index">-1</property>
  <property name="astream">0</property>
  <property name="kdenlive:folderid">-1</property>
  <property name="kdenlive:id">116</property>
  <property name="kdenlive:clip_type">1</property>
  <property name="kdenlive:file_size">86593</property>
  <property name="kdenlive:file_hash">75d06a1ffb84ca18477173cd7b68275e</property>
  <property name="kdenlive:audio_max0">139</property>
  <property name="kdenlive:monitorPosition">0</property>
 </chain>
 <chain id="chain234" out="00:00:03.200">
  <property name="length">81</property>
  <property name="eof">pause</property>
  <property name="resource">youarethemain.m4a</property>
  <property name="mlt_service">avformat</property>
  <property name="meta.media.nb_streams">1</property>
  <property name="meta.media.0.stream.type">audio</property>
  <property name="meta.media.0.codec.sample_fmt">fltp</property>
  <property name="meta.media.0.codec.sample_rate">48000</property>
  <property name="meta.media.0.codec.channels">2</property>
  <property name="meta.media.0.codec.layout">stereo</property>
  <property name="meta.media.0.codec.name">aac</property>
  <property name="meta.media.0.codec.long_name">AAC (Advanced Audio Coding)</property>
  <property name="meta.media.0.codec.bit_rate">148000</property>
  <property name="meta.attr.0.stream.creation_time.markup">2024-08-05T01:16:42.000000Z</property>
  <property name="meta.attr.0.stream.language.markup">eng</property>
  <property name="meta.attr.0.stream.handler_name.markup">SoundHandle</property>
  <property name="meta.attr.0.stream.vendor_id.markup">[0][0][0][0]</property>
  <property name="meta.attr.major_brand.markup">mp42</property>
  <property name="meta.attr.minor_version.markup">0</property>
  <property name="meta.attr.compatible_brands.markup">isommp42</property>
  <property name="meta.attr.creation_time.markup">2024-08-05T01:16:42.000000Z</property>
  <property name="meta.attr.com.android.version.markup">12</property>
  <property name="seekable">1</property>
  <property name="audio_index">0</property>
  <property name="video_index">-1</property>
  <property name="astream">0</property>
  <property name="kdenlive:folderid">-1</property>
  <property name="kdenlive:id">117</property>
  <property name="kdenlive:clip_type">1</property>
  <property name="kdenlive:file_size">62897</property>
  <property name="kdenlive:file_hash">9350ba9222e8d2783977320ef39d5fef</property>
  <property name="kdenlive:audio_max0">144</property>
  <property name="kdenlive:monitorPosition">0</property>
 </chain>
 <chain id="chain235" out="00:00:04.040">
  <property name="length">102</property>
  <property name="eof">pause</property>
  <property name="resource">thisisabadway.m4a</property>
  <property name="mlt_service">avformat</property>
  <property name="meta.media.nb_streams">1</property>
  <property name="meta.media.0.stream.type">audio</property>
  <property name="meta.media.0.codec.sample_fmt">fltp</property>
  <property name="meta.media.0.codec.sample_rate">48000</property>
  <property name="meta.media.0.codec.channels">2</property>
  <property name="meta.media.0.codec.layout">stereo</property>
  <property name="meta.media.0.codec.name">aac</property>
  <property name="meta.media.0.codec.long_name">AAC (Advanced Audio Coding)</property>
  <property name="meta.media.0.codec.bit_rate">148001</property>
  <property name="meta.attr.0.stream.creation_time.markup">2024-08-05T01:15:59.000000Z</property>
  <property name="meta.attr.0.stream.language.markup">eng</property>
  <property name="meta.attr.0.stream.handler_name.markup">SoundHandle</property>
  <property name="meta.attr.0.stream.vendor_id.markup">[0][0][0][0]</property>
  <property name="meta.attr.major_brand.markup">mp42</property>
  <property name="meta.attr.minor_version.markup">0</property>
  <property name="meta.attr.compatible_brands.markup">isommp42</property>
  <property name="meta.attr.creation_time.markup">2024-08-05T01:15:59.000000Z</property>
  <property name="meta.attr.com.android.version.markup">12</property>
  <property name="seekable">1</property>
  <property name="audio_index">0</property>
  <property name="video_index">-1</property>
  <property name="astream">0</property>
  <property name="kdenlive:folderid">-1</property>
  <property name="kdenlive:id">118</property>
  <property name="kdenlive:clip_type">1</property>
  <property name="kdenlive:file_size">78694</property>
  <property name="kdenlive:file_hash">f0bd24a4d740ac23c3a068c4bf97c57d</property>
  <property name="kdenlive:audio_max0">135</property>
  <property name="kdenlive:monitorPosition">0</property>
 </chain>
 <chain id="chain236" out="00:00:05.320">
  <property name="length">134</property>
  <property name="eof">pause</property>
  <property name="resource">excptnooooooo.m4a</property>
  <property name="mlt_service">avformat</property>
  <property name="meta.media.nb_streams">1</property>
  <property name="meta.media.0.stream.type">audio</property>
  <property name="meta.media.0.codec.sample_fmt">fltp</property>
  <property name="meta.media.0.codec.sample_rate">48000</property>
  <property name="meta.media.0.codec.channels">2</property>
  <property name="meta.media.0.codec.layout">stereo</property>
  <property name="meta.media.0.codec.name">aac</property>
  <property name="meta.media.0.codec.long_name">AAC (Advanced Audio Coding)</property>
  <property name="meta.media.0.codec.bit_rate">148001</property>
  <property name="meta.attr.0.stream.creation_time.markup">2024-08-05T01:15:08.000000Z</property>
  <property name="meta.attr.0.stream.language.markup">eng</property>
  <property name="meta.attr.0.stream.handler_name.markup">SoundHandle</property>
  <property name="meta.attr.0.stream.vendor_id.markup">[0][0][0][0]</property>
  <property name="meta.attr.major_brand.markup">mp42</property>
  <property name="meta.attr.minor_version.markup">0</property>
  <property name="meta.attr.compatible_brands.markup">isommp42</property>
  <property name="meta.attr.creation_time.markup">2024-08-05T01:15:08.000000Z</property>
  <property name="meta.attr.com.android.version.markup">12</property>
  <property name="seekable">1</property>
  <property name="audio_index">0</property>
  <property name="video_index">-1</property>
  <property name="astream">0</property>
  <property name="kdenlive:folderid">-1</property>
  <property name="kdenlive:id">119</property>
  <property name="kdenlive:clip_type">1</property>
  <property name="kdenlive:file_size">102785</property>
  <property name="kdenlive:file_hash">b9fe159deefa5c82a8e3cf7529a58e63</property>
  <property name="kdenlive:audio_max0">144</property>
  <property name="kdenlive:monitorPosition">0</property>
 </chain>
 <chain id="chain237" out="00:00:02.560">
  <property name="length">65</property>
  <property name="eof">pause</property>
  <property name="resource">thisiskindof.m4a</property>
  <property name="mlt_service">avformat</property>
  <property name="meta.media.nb_streams">1</property>
  <property name="meta.media.0.stream.type">audio</property>
  <property name="meta.media.0.codec.sample_fmt">fltp</property>
  <property name="meta.media.0.codec.sample_rate">48000</property>
  <property name="meta.media.0.codec.channels">2</property>
  <property name="meta.media.0.codec.layout">stereo</property>
  <property name="meta.media.0.codec.name">aac</property>
  <property name="meta.media.0.codec.long_name">AAC (Advanced Audio Coding)</property>
  <property name="meta.media.0.codec.bit_rate">148001</property>
  <property name="meta.attr.0.stream.creation_time.markup">2024-08-05T01:13:22.000000Z</property>
  <property name="meta.attr.0.stream.language.markup">eng</property>
  <property name="meta.attr.0.stream.handler_name.markup">SoundHandle</property>
  <property name="meta.attr.0.stream.vendor_id.markup">[0][0][0][0]</property>
  <property name="meta.attr.major_brand.markup">mp42</property>
  <property name="meta.attr.minor_version.markup">0</property>
  <property name="meta.attr.compatible_brands.markup">isommp42</property>
  <property name="meta.attr.creation_time.markup">2024-08-05T01:13:22.000000Z</property>
  <property name="meta.attr.com.android.version.markup">12</property>
  <property name="seekable">1</property>
  <property name="audio_index">0</property>
  <property name="video_index">-1</property>
  <property name="astream">0</property>
  <property name="kdenlive:folderid">-1</property>
  <property name="kdenlive:id">120</property>
  <property name="kdenlive:clip_type">1</property>
  <property name="kdenlive:file_size">51051</property>
  <property name="kdenlive:file_hash">a2cf03a3b9cc6bd7e5ded9f32c142d19</property>
  <property name="kdenlive:audio_max0">143</property>
  <property name="kdenlive:monitorPosition">0</property>
 </chain>
 <chain id="chain238" out="00:00:04.800">
  <property name="length">121</property>
  <property name="eof">pause</property>
  <property name="resource">becausethe.m4a</property>
  <property name="mlt_service">avformat</property>
  <property name="meta.media.nb_streams">1</property>
  <property name="meta.media.0.stream.type">audio</property>
  <property name="meta.media.0.codec.sample_fmt">fltp</property>
  <property name="meta.media.0.codec.sample_rate">48000</property>
  <property name="meta.media.0.codec.channels">2</property>
  <property name="meta.media.0.codec.layout">stereo</property>
  <property name="meta.media.0.codec.name">aac</property>
  <property name="meta.media.0.codec.long_name">AAC (Advanced Audio Coding)</property>
  <property name="meta.media.0.codec.bit_rate">148000</property>
  <property name="meta.attr.0.stream.creation_time.markup">2024-08-05T01:14:03.000000Z</property>
  <property name="meta.attr.0.stream.language.markup">eng</property>
  <property name="meta.attr.0.stream.handler_name.markup">SoundHandle</property>
  <property name="meta.attr.0.stream.vendor_id.markup">[0][0][0][0]</property>
  <property name="meta.attr.major_brand.markup">mp42</property>
  <property name="meta.attr.minor_version.markup">0</property>
  <property name="meta.attr.compatible_brands.markup">isommp42</property>
  <property name="meta.attr.creation_time.markup">2024-08-05T01:14:03.000000Z</property>
  <property name="meta.attr.com.android.version.markup">12</property>
  <property name="seekable">1</property>
  <property name="audio_index">0</property>
  <property name="video_index">-1</property>
  <property name="astream">0</property>
  <property name="kdenlive:folderid">-1</property>
  <property name="kdenlive:id">121</property>
  <property name="kdenlive:clip_type">1</property>
  <property name="kdenlive:file_size">92515</property>
  <property name="kdenlive:file_hash">5b3f1447edf760ae6635568d04178ca2</property>
  <property name="kdenlive:audio_max0">148</property>
  <property name="kdenlive:monitorPosition">0</property>
 </chain>
 <chain id="chain239" out="00:00:05.680">
  <property name="length">143</property>
  <property name="eof">pause</property>
  <property name="resource">yougetnosayinthis.m4a</property>
  <property name="mlt_service">avformat</property>
  <property name="meta.media.nb_streams">1</property>
  <property name="meta.media.0.stream.type">audio</property>
  <property name="meta.media.0.codec.sample_fmt">fltp</property>
  <property name="meta.media.0.codec.sample_rate">48000</property>
  <property name="meta.media.0.codec.channels">2</property>
  <property name="meta.media.0.codec.layout">stereo</property>
  <property name="meta.media.0.codec.name">aac</property>
  <property name="meta.media.0.codec.long_name">AAC (Advanced Audio Coding)</property>
  <property name="meta.media.0.codec.bit_rate">148000</property>
  <property name="meta.attr.0.stream.creation_time.markup">2024-08-05T01:12:44.000000Z</property>
  <property name="meta.attr.0.stream.language.markup">eng</property>
  <property name="meta.attr.0.stream.handler_name.markup">SoundHandle</property>
  <property name="meta.attr.0.stream.vendor_id.markup">[0][0][0][0]</property>
  <property name="meta.attr.major_brand.markup">mp42</property>
  <property name="meta.attr.minor_version.markup">0</property>
  <property name="meta.attr.compatible_brands.markup">isommp42</property>
  <property name="meta.attr.creation_time.markup">2024-08-05T01:12:44.000000Z</property>
  <property name="meta.attr.com.android.version.markup">12</property>
  <property name="seekable">1</property>
  <property name="audio_index">0</property>
  <property name="video_index">-1</property>
  <property name="astream">0</property>
  <property name="kdenlive:folderid">-1</property>
  <property name="kdenlive:id">122</property>
  <property name="kdenlive:clip_type">1</property>
  <property name="kdenlive:file_size">109496</property>
  <property name="kdenlive:file_hash">ab5075b60433eec1a3bfacb7e43f011e</property>
  <property name="kdenlive:audio_max0">131</property>
  <property name="kdenlive:monitorPosition">0</property>
 </chain>
 <chain id="chain240" out="00:00:01.920">
  <property name="length">49</property>
  <property name="eof">pause</property>
  <property name="resource">wow.m4a</property>
  <property name="mlt_service">avformat</property>
  <property name="meta.media.nb_streams">1</property>
  <property name="meta.media.0.stream.type">audio</property>
  <property name="meta.media.0.codec.sample_fmt">fltp</property>
  <property name="meta.media.0.codec.sample_rate">48000</property>
  <property name="meta.media.0.codec.channels">2</property>
  <property name="meta.media.0.codec.layout">stereo</property>
  <property name="meta.media.0.codec.name">aac</property>
  <property name="meta.media.0.codec.long_name">AAC (Advanced Audio Coding)</property>
  <property name="meta.media.0.codec.bit_rate">147997</property>
  <property name="meta.attr.0.stream.creation_time.markup">2024-08-05T01:13:09.000000Z</property>
  <property name="meta.attr.0.stream.language.markup">eng</property>
  <property name="meta.attr.0.stream.handler_name.markup">SoundHandle</property>
  <property name="meta.attr.0.stream.vendor_id.markup">[0][0][0][0]</property>
  <property name="meta.attr.major_brand.markup">mp42</property>
  <property name="meta.attr.minor_version.markup">0</property>
  <property name="meta.attr.compatible_brands.markup">isommp42</property>
  <property name="meta.attr.creation_time.markup">2024-08-05T01:13:09.000000Z</property>
  <property name="meta.attr.com.android.version.markup">12</property>
  <property name="seekable">1</property>
  <property name="audio_index">0</property>
  <property name="video_index">-1</property>
  <property name="astream">0</property>
  <property name="kdenlive:folderid">-1</property>
  <property name="kdenlive:id">123</property>
  <property name="kdenlive:clip_type">1</property>
  <property name="kdenlive:file_size">39202</property>
  <property name="kdenlive:file_hash">1275112b5b5c85b9b8135597ba276bf8</property>
  <property name="kdenlive:audio_max0">127</property>
  <property name="kdenlive:monitorPosition">0</property>
 </chain>
 <chain id="chain241" out="00:00:04.360">
  <property name="length">110</property>
  <property name="eof">pause</property>
  <property name="resource">theimportant.m4a</property>
  <property name="mlt_service">avformat</property>
  <property name="meta.media.nb_streams">1</property>
  <property name="meta.media.0.stream.type">audio</property>
  <property name="meta.media.0.codec.sample_fmt">fltp</property>
  <property name="meta.media.0.codec.sample_rate">48000</property>
  <property name="meta.media.0.codec.channels">2</property>
  <property name="meta.media.0.codec.layout">stereo</property>
  <property name="meta.media.0.codec.name">aac</property>
  <property name="meta.media.0.codec.long_name">AAC (Advanced Audio Coding)</property>
  <property name="meta.media.0.codec.bit_rate">148001</property>
  <property name="meta.attr.0.stream.creation_time.markup">2024-08-05T01:12:20.000000Z</property>
  <property name="meta.attr.0.stream.language.markup">eng</property>
  <property name="meta.attr.0.stream.handler_name.markup">SoundHandle</property>
  <property name="meta.attr.0.stream.vendor_id.markup">[0][0][0][0]</property>
  <property name="meta.attr.major_brand.markup">mp42</property>
  <property name="meta.attr.minor_version.markup">0</property>
  <property name="meta.attr.compatible_brands.markup">isommp42</property>
  <property name="meta.attr.creation_time.markup">2024-08-05T01:12:20.000000Z</property>
  <property name="meta.attr.com.android.version.markup">12</property>
  <property name="seekable">1</property>
  <property name="audio_index">0</property>
  <property name="video_index">-1</property>
  <property name="astream">0</property>
  <property name="kdenlive:folderid">-1</property>
  <property name="kdenlive:id">124</property>
  <property name="kdenlive:clip_type">1</property>
  <property name="kdenlive:file_size">84618</property>
  <property name="kdenlive:file_hash">c33c46df74e6708fb16f376f84d6ce7e</property>
  <property name="kdenlive:audio_max0">149</property>
  <property name="kdenlive:monitorPosition">0</property>
 </chain>
 <chain id="chain242" out="00:00:03.960">
  <property name="length">100</property>
  <property name="eof">pause</property>
  <property name="resource">somaybeyourfeat.m4a</property>
  <property name="mlt_service">avformat</property>
  <property name="meta.media.nb_streams">1</property>
  <property name="meta.media.0.stream.type">audio</property>
  <property name="meta.media.0.codec.sample_fmt">fltp</property>
  <property name="meta.media.0.codec.sample_rate">48000</property>
  <property name="meta.media.0.codec.channels">2</property>
  <property name="meta.media.0.codec.layout">stereo</property>
  <property name="meta.media.0.codec.name">aac</property>
  <property name="meta.media.0.codec.long_name">AAC (Advanced Audio Coding)</property>
  <property name="meta.media.0.codec.bit_rate">148001</property>
  <property name="meta.attr.0.stream.creation_time.markup">2024-08-05T01:11:24.000000Z</property>
  <property name="meta.attr.0.stream.language.markup">eng</property>
  <property name="meta.attr.0.stream.handler_name.markup">SoundHandle</property>
  <property name="meta.attr.0.stream.vendor_id.markup">[0][0][0][0]</property>
  <property name="meta.attr.major_brand.markup">mp42</property>
  <property name="meta.attr.minor_version.markup">0</property>
  <property name="meta.attr.compatible_brands.markup">isommp42</property>
  <property name="meta.attr.creation_time.markup">2024-08-05T01:11:24.000000Z</property>
  <property name="meta.attr.com.android.version.markup">12</property>
  <property name="seekable">1</property>
  <property name="audio_index">0</property>
  <property name="video_index">-1</property>
  <property name="astream">0</property>
  <property name="kdenlive:folderid">-1</property>
  <property name="kdenlive:id">125</property>
  <property name="kdenlive:clip_type">1</property>
  <property name="kdenlive:file_size">77510</property>
  <property name="kdenlive:file_hash">3330feec323a3bd41fbdfda324dcf9e1</property>
  <property name="kdenlive:audio_max0">141</property>
  <property name="kdenlive:monitorPosition">0</property>
 </chain>
 <chain id="chain243" out="00:00:04.040">
  <property name="length">102</property>
  <property name="eof">pause</property>
  <property name="resource">butitsdesidedatthismoment.m4a</property>
  <property name="mlt_service">avformat</property>
  <property name="meta.media.nb_streams">1</property>
  <property name="meta.media.0.stream.type">audio</property>
  <property name="meta.media.0.codec.sample_fmt">fltp</property>
  <property name="meta.media.0.codec.sample_rate">48000</property>
  <property name="meta.media.0.codec.channels">2</property>
  <property name="meta.media.0.codec.layout">stereo</property>
  <property name="meta.media.0.codec.name">aac</property>
  <property name="meta.media.0.codec.long_name">AAC (Advanced Audio Coding)</property>
  <property name="meta.media.0.codec.bit_rate">148000</property>
  <property name="meta.attr.0.stream.creation_time.markup">2024-08-05T01:11:42.000000Z</property>
  <property name="meta.attr.0.stream.language.markup">eng</property>
  <property name="meta.attr.0.stream.handler_name.markup">SoundHandle</property>
  <property name="meta.attr.0.stream.vendor_id.markup">[0][0][0][0]</property>
  <property name="meta.attr.major_brand.markup">mp42</property>
  <property name="meta.attr.minor_version.markup">0</property>
  <property name="meta.attr.compatible_brands.markup">isommp42</property>
  <property name="meta.attr.creation_time.markup">2024-08-05T01:11:42.000000Z</property>
  <property name="meta.attr.com.android.version.markup">12</property>
  <property name="seekable">1</property>
  <property name="audio_index">0</property>
  <property name="video_index">-1</property>
  <property name="astream">0</property>
  <property name="kdenlive:folderid">-1</property>
  <property name="kdenlive:id">126</property>
  <property name="kdenlive:clip_type">1</property>
  <property name="kdenlive:file_size">79088</property>
  <property name="kdenlive:file_hash">82ad89503df7ac1bd6f48d92f387f5a9</property>
  <property name="kdenlive:audio_max0">154</property>
  <property name="kdenlive:monitorPosition">0</property>
 </chain>
 <chain id="chain244" out="00:00:04.560">
  <property name="length">115</property>
  <property name="eof">pause</property>
  <property name="resource">justbecause.m4a</property>
  <property name="mlt_service">avformat</property>
  <property name="meta.media.nb_streams">1</property>
  <property name="meta.media.0.stream.type">audio</property>
  <property name="meta.media.0.codec.sample_fmt">fltp</property>
  <property name="meta.media.0.codec.sample_rate">48000</property>
  <property name="meta.media.0.codec.channels">2</property>
  <property name="meta.media.0.codec.layout">stereo</property>
  <property name="meta.media.0.codec.name">aac</property>
  <property name="meta.media.0.codec.long_name">AAC (Advanced Audio Coding)</property>
  <property name="meta.media.0.codec.bit_rate">148001</property>
  <property name="meta.attr.0.stream.creation_time.markup">2024-08-05T01:10:13.000000Z</property>
  <property name="meta.attr.0.stream.language.markup">eng</property>
  <property name="meta.attr.0.stream.handler_name.markup">SoundHandle</property>
  <property name="meta.attr.0.stream.vendor_id.markup">[0][0][0][0]</property>
  <property name="meta.attr.major_brand.markup">mp42</property>
  <property name="meta.attr.minor_version.markup">0</property>
  <property name="meta.attr.compatible_brands.markup">isommp42</property>
  <property name="meta.attr.creation_time.markup">2024-08-05T01:10:13.000000Z</property>
  <property name="meta.attr.com.android.version.markup">12</property>
  <property name="seekable">1</property>
  <property name="audio_index">0</property>
  <property name="video_index">-1</property>
  <property name="astream">0</property>
  <property name="kdenlive:folderid">-1</property>
  <property name="kdenlive:id">127</property>
  <property name="kdenlive:clip_type">1</property>
  <property name="kdenlive:file_size">88567</property>
  <property name="kdenlive:file_hash">a17abdd4002c4915604f8e0ee59d2363</property>
  <property name="kdenlive:audio_max0">133</property>
  <property name="kdenlive:monitorPosition">0</property>
 </chain>
 <chain id="chain245" out="00:00:04.000">
  <property name="length">101</property>
  <property name="eof">pause</property>
  <property name="resource">doesntmeanyouhaveany.m4a</property>
  <property name="mlt_service">avformat</property>
  <property name="meta.media.nb_streams">1</property>
  <property name="meta.media.0.stream.type">audio</property>
  <property name="meta.media.0.codec.sample_fmt">fltp</property>
  <property name="meta.media.0.codec.sample_rate">48000</property>
  <property name="meta.media.0.codec.channels">2</property>
  <property name="meta.media.0.codec.layout">stereo</property>
  <property name="meta.media.0.codec.name">aac</property>
  <property name="meta.media.0.codec.long_name">AAC (Advanced Audio Coding)</property>
  <property name="meta.media.0.codec.bit_rate">148001</property>
  <property name="meta.attr.0.stream.creation_time.markup">2024-08-05T01:10:31.000000Z</property>
  <property name="meta.attr.0.stream.language.markup">eng</property>
  <property name="meta.attr.0.stream.handler_name.markup">SoundHandle</property>
  <property name="meta.attr.0.stream.vendor_id.markup">[0][0][0][0]</property>
  <property name="meta.attr.major_brand.markup">mp42</property>
  <property name="meta.attr.minor_version.markup">0</property>
  <property name="meta.attr.compatible_brands.markup">isommp42</property>
  <property name="meta.attr.creation_time.markup">2024-08-05T01:10:31.000000Z</property>
  <property name="meta.attr.com.android.version.markup">12</property>
  <property name="seekable">1</property>
  <property name="audio_index">0</property>
  <property name="video_index">-1</property>
  <property name="astream">0</property>
  <property name="kdenlive:folderid">-1</property>
  <property name="kdenlive:id">128</property>
  <property name="kdenlive:clip_type">1</property>
  <property name="kdenlive:file_size">77905</property>
  <property name="kdenlive:file_hash">f4d8d495893d40694df5034d424a72ac</property>
  <property name="kdenlive:audio_max0">133</property>
  <property name="kdenlive:monitorPosition">59</property>
 </chain>
 <chain id="chain246" out="00:00:05.560">
  <property name="length">140</property>
  <property name="eof">pause</property>
  <property name="resource">witchyoutube.m4a</property>
  <property name="mlt_service">avformat</property>
  <property name="meta.media.nb_streams">1</property>
  <property name="meta.media.0.stream.type">audio</property>
  <property name="meta.media.0.codec.sample_fmt">fltp</property>
  <property name="meta.media.0.codec.sample_rate">48000</property>
  <property name="meta.media.0.codec.channels">2</property>
  <property name="meta.media.0.codec.layout">stereo</property>
  <property name="meta.media.0.codec.name">aac</property>
  <property name="meta.media.0.codec.long_name">AAC (Advanced Audio Coding)</property>
  <property name="meta.media.0.codec.bit_rate">148000</property>
  <property name="meta.attr.0.stream.creation_time.markup">2024-08-05T01:08:14.000000Z</property>
  <property name="meta.attr.0.stream.language.markup">eng</property>
  <property name="meta.attr.0.stream.handler_name.markup">SoundHandle</property>
  <property name="meta.attr.0.stream.vendor_id.markup">[0][0][0][0]</property>
  <property name="meta.attr.major_brand.markup">mp42</property>
  <property name="meta.attr.minor_version.markup">0</property>
  <property name="meta.attr.compatible_brands.markup">isommp42</property>
  <property name="meta.attr.creation_time.markup">2024-08-05T01:08:14.000000Z</property>
  <property name="meta.attr.com.android.version.markup">12</property>
  <property name="seekable">1</property>
  <property name="audio_index">0</property>
  <property name="video_index">-1</property>
  <property name="astream">0</property>
  <property name="kdenlive:folderid">-1</property>
  <property name="kdenlive:id">129</property>
  <property name="kdenlive:clip_type">1</property>
  <property name="kdenlive:file_size">107128</property>
  <property name="kdenlive:file_hash">e18909e75badfc14b0fb13dd87bea684</property>
  <property name="kdenlive:audio_max0">148</property>
  <property name="kdenlive:monitorPosition">0</property>
 </chain>
 <chain id="chain247" out="00:00:03.840">
  <property name="length">97</property>
  <property name="eof">pause</property>
  <property name="resource">oritgoesright.m4a</property>
  <property name="mlt_service">avformat</property>
  <property name="meta.media.nb_streams">1</property>
  <property name="meta.media.0.stream.type">audio</property>
  <property name="meta.media.0.codec.sample_fmt">fltp</property>
  <property name="meta.media.0.codec.sample_rate">48000</property>
  <property name="meta.media.0.codec.channels">2</property>
  <property name="meta.media.0.codec.layout">stereo</property>
  <property name="meta.media.0.codec.name">aac</property>
  <property name="meta.media.0.codec.long_name">AAC (Advanced Audio Coding)</property>
  <property name="meta.media.0.codec.bit_rate">148001</property>
  <property name="meta.attr.0.stream.creation_time.markup">2024-08-05T01:08:36.000000Z</property>
  <property name="meta.attr.0.stream.language.markup">eng</property>
  <property name="meta.attr.0.stream.handler_name.markup">SoundHandle</property>
  <property name="meta.attr.0.stream.vendor_id.markup">[0][0][0][0]</property>
  <property name="meta.attr.major_brand.markup">mp42</property>
  <property name="meta.attr.minor_version.markup">0</property>
  <property name="meta.attr.compatible_brands.markup">isommp42</property>
  <property name="meta.attr.creation_time.markup">2024-08-05T01:08:36.000000Z</property>
  <property name="meta.attr.com.android.version.markup">12</property>
  <property name="seekable">1</property>
  <property name="audio_index">0</property>
  <property name="video_index">-1</property>
  <property name="astream">0</property>
  <property name="kdenlive:folderid">-1</property>
  <property name="kdenlive:id">130</property>
  <property name="kdenlive:clip_type">1</property>
  <property name="kdenlive:file_size">75140</property>
  <property name="kdenlive:file_hash">f59a230c799e58c1acbd52b797216bc6</property>
  <property name="kdenlive:audio_max0">119</property>
  <property name="kdenlive:monitorPosition">0</property>
 </chain>
 <chain id="chain248" out="00:00:03.360">
  <property name="length">85</property>
  <property name="eof">pause</property>
  <property name="resource">thatcreat.m4a</property>
  <property name="mlt_service">avformat</property>
  <property name="meta.media.nb_streams">1</property>
  <property name="meta.media.0.stream.type">audio</property>
  <property name="meta.media.0.codec.sample_fmt">fltp</property>
  <property name="meta.media.0.codec.sample_rate">48000</property>
  <property name="meta.media.0.codec.channels">2</property>
  <property name="meta.media.0.codec.layout">stereo</property>
  <property name="meta.media.0.codec.name">aac</property>
  <property name="meta.media.0.codec.long_name">AAC (Advanced Audio Coding)</property>
  <property name="meta.media.0.codec.bit_rate">147998</property>
  <property name="meta.attr.0.stream.creation_time.markup">2024-08-05T01:01:13.000000Z</property>
  <property name="meta.attr.0.stream.language.markup">eng</property>
  <property name="meta.attr.0.stream.handler_name.markup">SoundHandle</property>
  <property name="meta.attr.0.stream.vendor_id.markup">[0][0][0][0]</property>
  <property name="meta.attr.major_brand.markup">mp42</property>
  <property name="meta.attr.minor_version.markup">0</property>
  <property name="meta.attr.compatible_brands.markup">isommp42</property>
  <property name="meta.attr.creation_time.markup">2024-08-05T01:01:13.000000Z</property>
  <property name="meta.attr.com.android.version.markup">12</property>
  <property name="seekable">1</property>
  <property name="audio_index">0</property>
  <property name="video_index">-1</property>
  <property name="astream">0</property>
  <property name="kdenlive:folderid">-1</property>
  <property name="kdenlive:id">131</property>
  <property name="kdenlive:clip_type">1</property>
  <property name="kdenlive:file_size">66450</property>
  <property name="kdenlive:file_hash">7d2b52138623bf4eafe464e9786e028b</property>
  <property name="kdenlive:audio_max0">162</property>
  <property name="kdenlive:monitorPosition">0</property>
 </chain>
 <chain id="chain249" out="00:00:04.000">
  <property name="length">101</property>
  <property name="eof">pause</property>
  <property name="resource">sayan.m4a</property>
  <property name="mlt_service">avformat</property>
  <property name="meta.media.nb_streams">1</property>
  <property name="meta.media.0.stream.type">audio</property>
  <property name="meta.media.0.codec.sample_fmt">fltp</property>
  <property name="meta.media.0.codec.sample_rate">48000</property>
  <property name="meta.media.0.codec.channels">2</property>
  <property name="meta.media.0.codec.layout">stereo</property>
  <property name="meta.media.0.codec.name">aac</property>
  <property name="meta.media.0.codec.long_name">AAC (Advanced Audio Coding)</property>
  <property name="meta.media.0.codec.bit_rate">148000</property>
  <property name="meta.attr.0.stream.creation_time.markup">2024-08-05T00:56:12.000000Z</property>
  <property name="meta.attr.0.stream.language.markup">eng</property>
  <property name="meta.attr.0.stream.handler_name.markup">SoundHandle</property>
  <property name="meta.attr.0.stream.vendor_id.markup">[0][0][0][0]</property>
  <property name="meta.attr.major_brand.markup">mp42</property>
  <property name="meta.attr.minor_version.markup">0</property>
  <property name="meta.attr.compatible_brands.markup">isommp42</property>
  <property name="meta.attr.creation_time.markup">2024-08-05T00:56:12.000000Z</property>
  <property name="meta.attr.com.android.version.markup">12</property>
  <property name="seekable">1</property>
  <property name="audio_index">0</property>
  <property name="video_index">-1</property>
  <property name="astream">0</property>
  <property name="kdenlive:folderid">-1</property>
  <property name="kdenlive:id">132</property>
  <property name="kdenlive:clip_type">1</property>
  <property name="kdenlive:file_size">78299</property>
  <property name="kdenlive:file_hash">f572c7bca48bf3370d901047e01b7b90</property>
  <property name="kdenlive:audio_max0">151</property>
  <property name="kdenlive:monitorPosition">0</property>
 </chain>
 <chain id="chain250" out="00:00:06.200">
  <property name="length">156</property>
  <property name="eof">pause</property>
  <property name="resource">ifitgoseleft.m4a</property>
  <property name="mlt_service">avformat</property>
  <property name="meta.media.nb_streams">1</property>
  <property name="meta.media.0.stream.type">audio</property>
  <property name="meta.media.0.codec.sample_fmt">fltp</property>
  <property name="meta.media.0.codec.sample_rate">48000</property>
  <property name="meta.media.0.codec.channels">2</property>
  <property name="meta.media.0.codec.layout">stereo</property>
  <property name="meta.media.0.codec.name">aac</property>
  <property name="meta.media.0.codec.long_name">AAC (Advanced Audio Coding)</property>
  <property name="meta.media.0.codec.bit_rate">148000</property>
  <property name="meta.attr.0.stream.creation_time.markup">2024-08-05T00:59:44.000000Z</property>
  <property name="meta.attr.0.stream.language.markup">eng</property>
  <property name="meta.attr.0.stream.handler_name.markup">SoundHandle</property>
  <property name="meta.attr.0.stream.vendor_id.markup">[0][0][0][0]</property>
  <property name="meta.attr.major_brand.markup">mp42</property>
  <property name="meta.attr.minor_version.markup">0</property>
  <property name="meta.attr.compatible_brands.markup">isommp42</property>
  <property name="meta.attr.creation_time.markup">2024-08-05T00:59:44.000000Z</property>
  <property name="meta.attr.com.android.version.markup">12</property>
  <property name="seekable">1</property>
  <property name="audio_index">0</property>
  <property name="video_index">-1</property>
  <property name="astream">0</property>
  <property name="kdenlive:folderid">-1</property>
  <property name="kdenlive:id">133</property>
  <property name="kdenlive:clip_type">1</property>
  <property name="kdenlive:file_size">118581</property>
  <property name="kdenlive:file_hash">da157e2a5304db5f05ea9f0f5a1c2434</property>
  <property name="kdenlive:audio_max0">143</property>
  <property name="kdenlive:monitorPosition">0</property>
 </chain>
 <chain id="chain251" out="00:00:04.040">
  <property name="length">102</property>
  <property name="eof">pause</property>
  <property name="resource">theserandom.m4a</property>
  <property name="mlt_service">avformat</property>
  <property name="meta.media.nb_streams">1</property>
  <property name="meta.media.0.stream.type">audio</property>
  <property name="meta.media.0.codec.sample_fmt">fltp</property>
  <property name="meta.media.0.codec.sample_rate">48000</property>
  <property name="meta.media.0.codec.channels">2</property>
  <property name="meta.media.0.codec.layout">stereo</property>
  <property name="meta.media.0.codec.name">aac</property>
  <property name="meta.media.0.codec.long_name">AAC (Advanced Audio Coding)</property>
  <property name="meta.media.0.codec.bit_rate">148001</property>
  <property name="meta.attr.0.stream.creation_time.markup">2024-08-05T00:55:16.000000Z</property>
  <property name="meta.attr.0.stream.language.markup">eng</property>
  <property name="meta.attr.0.stream.handler_name.markup">SoundHandle</property>
  <property name="meta.attr.0.stream.vendor_id.markup">[0][0][0][0]</property>
  <property name="meta.attr.major_brand.markup">mp42</property>
  <property name="meta.attr.minor_version.markup">0</property>
  <property name="meta.attr.compatible_brands.markup">isommp42</property>
  <property name="meta.attr.creation_time.markup">2024-08-05T00:55:16.000000Z</property>
  <property name="meta.attr.com.android.version.markup">12</property>
  <property name="seekable">1</property>
  <property name="audio_index">0</property>
  <property name="video_index">-1</property>
  <property name="astream">0</property>
  <property name="kdenlive:folderid">-1</property>
  <property name="kdenlive:id">134</property>
  <property name="kdenlive:clip_type">1</property>
  <property name="kdenlive:file_size">78694</property>
  <property name="kdenlive:file_hash">d6851b6a4d222134cc31eaa138c84309</property>
  <property name="kdenlive:audio_max0">146</property>
  <property name="kdenlive:monitorPosition">0</property>
 </chain>
 <chain id="chain252" out="00:00:02.160">
  <property name="length">55</property>
  <property name="eof">pause</property>
  <property name="resource">how.m4a</property>
  <property name="mlt_service">avformat</property>
  <property name="meta.media.nb_streams">1</property>
  <property name="meta.media.0.stream.type">audio</property>
  <property name="meta.media.0.codec.sample_fmt">fltp</property>
  <property name="meta.media.0.codec.sample_rate">48000</property>
  <property name="meta.media.0.codec.channels">2</property>
  <property name="meta.media.0.codec.layout">stereo</property>
  <property name="meta.media.0.codec.name">aac</property>
  <property name="meta.media.0.codec.long_name">AAC (Advanced Audio Coding)</property>
  <property name="meta.media.0.codec.bit_rate">147997</property>
  <property name="meta.attr.0.stream.creation_time.markup">2024-08-05T00:55:30.000000Z</property>
  <property name="meta.attr.0.stream.language.markup">eng</property>
  <property name="meta.attr.0.stream.handler_name.markup">SoundHandle</property>
  <property name="meta.attr.0.stream.vendor_id.markup">[0][0][0][0]</property>
  <property name="meta.attr.major_brand.markup">mp42</property>
  <property name="meta.attr.minor_version.markup">0</property>
  <property name="meta.attr.compatible_brands.markup">isommp42</property>
  <property name="meta.attr.creation_time.markup">2024-08-05T00:55:30.000000Z</property>
  <property name="meta.attr.com.android.version.markup">12</property>
  <property name="seekable">1</property>
  <property name="audio_index">0</property>
  <property name="video_index">-1</property>
  <property name="astream">0</property>
  <property name="kdenlive:folderid">-1</property>
  <property name="kdenlive:id">135</property>
  <property name="kdenlive:clip_type">1</property>
  <property name="kdenlive:file_size">43940</property>
  <property name="kdenlive:file_hash">bcbb332496c202d730a3942778529080</property>
  <property name="kdenlive:audio_max0">128</property>
  <property name="kdenlive:monitorPosition">0</property>
 </chain>
 <chain id="chain253" out="00:00:03.960">
  <property name="length">100</property>
  <property name="eof">pause</property>
  <property name="resource">theydontallow.m4a</property>
  <property name="mlt_service">avformat</property>
  <property name="meta.media.nb_streams">1</property>
  <property name="meta.media.0.stream.type">audio</property>
  <property name="meta.media.0.codec.sample_fmt">fltp</property>
  <property name="meta.media.0.codec.sample_rate">48000</property>
  <property name="meta.media.0.codec.channels">2</property>
  <property name="meta.media.0.codec.layout">stereo</property>
  <property name="meta.media.0.codec.name">aac</property>
  <property name="meta.media.0.codec.long_name">AAC (Advanced Audio Coding)</property>
  <property name="meta.media.0.codec.bit_rate">147999</property>
  <property name="meta.attr.0.stream.creation_time.markup">2024-08-05T00:51:45.000000Z</property>
  <property name="meta.attr.0.stream.language.markup">eng</property>
  <property name="meta.attr.0.stream.handler_name.markup">SoundHandle</property>
  <property name="meta.attr.0.stream.vendor_id.markup">[0][0][0][0]</property>
  <property name="meta.attr.major_brand.markup">mp42</property>
  <property name="meta.attr.minor_version.markup">0</property>
  <property name="meta.attr.compatible_brands.markup">isommp42</property>
  <property name="meta.attr.creation_time.markup">2024-08-05T00:51:45.000000Z</property>
  <property name="meta.attr.com.android.version.markup">12</property>
  <property name="seekable">1</property>
  <property name="audio_index">0</property>
  <property name="video_index">-1</property>
  <property name="astream">0</property>
  <property name="kdenlive:folderid">-1</property>
  <property name="kdenlive:id">136</property>
  <property name="kdenlive:clip_type">1</property>
  <property name="kdenlive:file_size">77509</property>
  <property name="kdenlive:file_hash">3c440cab79be4cc7a1f9bd3094efd037</property>
  <property name="kdenlive:audio_max0">148</property>
  <property name="kdenlive:monitorPosition">0</property>
 </chain>
 <chain id="chain254" out="00:00:06.840">
  <property name="length">172</property>
  <property name="eof">pause</property>
  <property name="resource">becauseif.m4a</property>
  <property name="mlt_service">avformat</property>
  <property name="meta.media.nb_streams">1</property>
  <property name="meta.media.0.stream.type">audio</property>
  <property name="meta.media.0.codec.sample_fmt">fltp</property>
  <property name="meta.media.0.codec.sample_rate">48000</property>
  <property name="meta.media.0.codec.channels">2</property>
  <property name="meta.media.0.codec.layout">stereo</property>
  <property name="meta.media.0.codec.name">aac</property>
  <property name="meta.media.0.codec.long_name">AAC (Advanced Audio Coding)</property>
  <property name="meta.media.0.codec.bit_rate">148000</property>
  <property name="meta.attr.0.stream.creation_time.markup">2024-08-05T00:53:38.000000Z</property>
  <property name="meta.attr.0.stream.language.markup">eng</property>
  <property name="meta.attr.0.stream.handler_name.markup">SoundHandle</property>
  <property name="meta.attr.0.stream.vendor_id.markup">[0][0][0][0]</property>
  <property name="meta.attr.major_brand.markup">mp42</property>
  <property name="meta.attr.minor_version.markup">0</property>
  <property name="meta.attr.compatible_brands.markup">isommp42</property>
  <property name="meta.attr.creation_time.markup">2024-08-05T00:53:38.000000Z</property>
  <property name="meta.attr.com.android.version.markup">12</property>
  <property name="seekable">1</property>
  <property name="audio_index">0</property>
  <property name="video_index">-1</property>
  <property name="astream">0</property>
  <property name="kdenlive:folderid">-1</property>
  <property name="kdenlive:id">137</property>
  <property name="kdenlive:clip_type">1</property>
  <property name="kdenlive:file_size">130427</property>
  <property name="kdenlive:file_hash">80d90bb3f075ab8b95359ce4a9bdc66b</property>
  <property name="kdenlive:audio_max0">141</property>
  <property name="kdenlive:monitorPosition">0</property>
 </chain>
 <chain id="chain255" out="00:00:05.080">
  <property name="length">128</property>
  <property name="eof">pause</property>
  <property name="resource">theythinkthat.m4a</property>
  <property name="mlt_service">avformat</property>
  <property name="meta.media.nb_streams">1</property>
  <property name="meta.media.0.stream.type">audio</property>
  <property name="meta.media.0.codec.sample_fmt">fltp</property>
  <property name="meta.media.0.codec.sample_rate">48000</property>
  <property name="meta.media.0.codec.channels">2</property>
  <property name="meta.media.0.codec.layout">stereo</property>
  <property name="meta.media.0.codec.name">aac</property>
  <property name="meta.media.0.codec.long_name">AAC (Advanced Audio Coding)</property>
  <property name="meta.media.0.codec.bit_rate">148001</property>
  <property name="meta.attr.0.stream.creation_time.markup">2024-08-05T00:51:19.000000Z</property>
  <property name="meta.attr.0.stream.language.markup">eng</property>
  <property name="meta.attr.0.stream.handler_name.markup">SoundHandle</property>
  <property name="meta.attr.0.stream.vendor_id.markup">[0][0][0][0]</property>
  <property name="meta.attr.major_brand.markup">mp42</property>
  <property name="meta.attr.minor_version.markup">0</property>
  <property name="meta.attr.compatible_brands.markup">isommp42</property>
  <property name="meta.attr.creation_time.markup">2024-08-05T00:51:19.000000Z</property>
  <property name="meta.attr.com.android.version.markup">12</property>
  <property name="seekable">1</property>
  <property name="audio_index">0</property>
  <property name="video_index">-1</property>
  <property name="astream">0</property>
  <property name="kdenlive:folderid">-1</property>
  <property name="kdenlive:id">138</property>
  <property name="kdenlive:clip_type">1</property>
  <property name="kdenlive:file_size">98045</property>
  <property name="kdenlive:file_hash">eb91b7be92bbc9d6af768f641e0b1c77</property>
  <property name="kdenlive:audio_max0">129</property>
  <property name="kdenlive:monitorPosition">0</property>
 </chain>
 <chain id="chain256" out="00:00:03.760">
  <property name="length">95</property>
  <property name="eof">pause</property>
  <property name="resource">thisdoesnt.m4a</property>
  <property name="mlt_service">avformat</property>
  <property name="meta.media.nb_streams">1</property>
  <property name="meta.media.0.stream.type">audio</property>
  <property name="meta.media.0.codec.sample_fmt">fltp</property>
  <property name="meta.media.0.codec.sample_rate">48000</property>
  <property name="meta.media.0.codec.channels">2</property>
  <property name="meta.media.0.codec.layout">stereo</property>
  <property name="meta.media.0.codec.name">aac</property>
  <property name="meta.media.0.codec.long_name">AAC (Advanced Audio Coding)</property>
  <property name="meta.media.0.codec.bit_rate">148000</property>
  <property name="meta.attr.0.stream.creation_time.markup">2024-08-05T00:48:36.000000Z</property>
  <property name="meta.attr.0.stream.language.markup">eng</property>
  <property name="meta.attr.0.stream.handler_name.markup">SoundHandle</property>
  <property name="meta.attr.0.stream.vendor_id.markup">[0][0][0][0]</property>
  <property name="meta.attr.major_brand.markup">mp42</property>
  <property name="meta.attr.minor_version.markup">0</property>
  <property name="meta.attr.compatible_brands.markup">isommp42</property>
  <property name="meta.attr.creation_time.markup">2024-08-05T00:48:36.000000Z</property>
  <property name="meta.attr.com.android.version.markup">12</property>
  <property name="seekable">1</property>
  <property name="audio_index">0</property>
  <property name="video_index">-1</property>
  <property name="astream">0</property>
  <property name="kdenlive:folderid">-1</property>
  <property name="kdenlive:id">139</property>
  <property name="kdenlive:clip_type">1</property>
  <property name="kdenlive:file_size">73561</property>
  <property name="kdenlive:file_hash">53b26c17ece0414d94f7bc6d425cdd99</property>
  <property name="kdenlive:audio_max0">139</property>
  <property name="kdenlive:monitorPosition">86</property>
 </chain>
 <chain id="chain257" out="00:00:03.120">
  <property name="length">79</property>
  <property name="eof">pause</property>
  <property name="resource">butforthenofreewill.m4a</property>
  <property name="mlt_service">avformat</property>
  <property name="meta.media.nb_streams">1</property>
  <property name="meta.media.0.stream.type">audio</property>
  <property name="meta.media.0.codec.sample_fmt">fltp</property>
  <property name="meta.media.0.codec.sample_rate">48000</property>
  <property name="meta.media.0.codec.channels">2</property>
  <property name="meta.media.0.codec.layout">stereo</property>
  <property name="meta.media.0.codec.name">aac</property>
  <property name="meta.media.0.codec.long_name">AAC (Advanced Audio Coding)</property>
  <property name="meta.media.0.codec.bit_rate">148001</property>
  <property name="meta.attr.0.stream.creation_time.markup">2024-08-05T00:47:13.000000Z</property>
  <property name="meta.attr.0.stream.language.markup">eng</property>
  <property name="meta.attr.0.stream.handler_name.markup">SoundHandle</property>
  <property name="meta.attr.0.stream.vendor_id.markup">[0][0][0][0]</property>
  <property name="meta.attr.major_brand.markup">mp42</property>
  <property name="meta.attr.minor_version.markup">0</property>
  <property name="meta.attr.compatible_brands.markup">isommp42</property>
  <property name="meta.attr.creation_time.markup">2024-08-05T00:47:13.000000Z</property>
  <property name="meta.attr.com.android.version.markup">12</property>
  <property name="seekable">1</property>
  <property name="audio_index">0</property>
  <property name="video_index">-1</property>
  <property name="astream">0</property>
  <property name="kdenlive:folderid">-1</property>
  <property name="kdenlive:id">140</property>
  <property name="kdenlive:clip_type">1</property>
  <property name="kdenlive:file_size">62108</property>
  <property name="kdenlive:file_hash">396d1339b92b9f3fa5aca7176b383bb6</property>
  <property name="kdenlive:audio_max0">146</property>
  <property name="kdenlive:monitorPosition">0</property>
 </chain>
 <playlist id="main_bin">
  <property name="kdenlive:folder.-1.2">序列</property>
  <property name="kdenlive:sequenceFolder">2</property>
  <property name="kdenlive:docproperties.activetimeline">{a0484364-b717-4fd3-93d0-39770914990b}</property>
  <property name="kdenlive:docproperties.audioChannels">2</property>
  <property name="kdenlive:docproperties.binsort">100</property>
  <property name="kdenlive:docproperties.browserurl">/home/xaxkrt/Documents/</property>
  <property name="kdenlive:docproperties.documentid">1722413296105</property>
  <property name="kdenlive:docproperties.enableTimelineZone">0</property>
  <property name="kdenlive:docproperties.enableexternalproxy">0</property>
  <property name="kdenlive:docproperties.enableproxy">0</property>
  <property name="kdenlive:docproperties.externalproxyparams"/>
  <property name="kdenlive:docproperties.generateimageproxy">0</property>
  <property name="kdenlive:docproperties.generateproxy">0</property>
  <property name="kdenlive:docproperties.guidesCategories">[
    {
        "color": "#9b59b6",
        "comment": "类别 1",
        "index": 0
    },
    {
        "color": "#3daee9",
        "comment": "类别 2",
        "index": 1
    },
    {
        "color": "#1abc9c",
        "comment": "类别 3",
        "index": 2
    },
    {
        "color": "#1cdc9a",
        "comment": "类别 4",
        "index": 3
    },
    {
        "color": "#c9ce3b",
        "comment": "类别 5",
        "index": 4
    },
    {
        "color": "#fdbc4b",
        "comment": "类别 6",
        "index": 5
    },
    {
        "color": "#f39c1f",
        "comment": "类别 7",
        "index": 6
    },
    {
        "color": "#f47750",
        "comment": "类别 8",
        "index": 7
    },
    {
        "color": "#da4453",
        "comment": "类别 9",
        "index": 8
    }
]
</property>
  <property name="kdenlive:docproperties.kdenliveversion">24.05.2</property>
  <property name="kdenlive:docproperties.opensequences">{a0484364-b717-4fd3-93d0-39770914990b}</property>
  <property name="kdenlive:docproperties.previewextension">mp4</property>
  <property name="kdenlive:docproperties.previewparameters">c:v=h264_vaapi g=1 bf=0 vprofile=main preset=fast</property>
  <property name="kdenlive:docproperties.profile">atsc_1080p_25</property>
  <property name="kdenlive:docproperties.proxyextension"/>
  <property name="kdenlive:docproperties.proxyimageminsize">2000</property>
  <property name="kdenlive:docproperties.proxyimagesize">800</property>
  <property name="kdenlive:docproperties.proxyminsize">1000</property>
  <property name="kdenlive:docproperties.proxyparams"/>
  <property name="kdenlive:docproperties.proxyresize">640</property>
  <property name="kdenlive:docproperties.rendercategory">Generic (HD for web, mobile devices...)</property>
  <property name="kdenlive:docproperties.rendercustomquality">-1</property>
  <property name="kdenlive:docproperties.renderendguide">-1</property>
  <property name="kdenlive:docproperties.renderexportaudio">0</property>
  <property name="kdenlive:docproperties.renderfullcolorrange">0</property>
  <property name="kdenlive:docproperties.rendermode">0</property>
  <property name="kdenlive:docproperties.renderplay">0</property>
  <property name="kdenlive:docproperties.renderpreview">0</property>
  <property name="kdenlive:docproperties.renderprofile">MP4-H264/AAC</property>
  <property name="kdenlive:docproperties.renderrescale">0</property>
  <property name="kdenlive:docproperties.renderrescaleheight">540</property>
  <property name="kdenlive:docproperties.renderrescalewidth">960</property>
  <property name="kdenlive:docproperties.renderspeed">6</property>
  <property name="kdenlive:docproperties.renderstartguide">-1</property>
  <property name="kdenlive:docproperties.rendertcoverlay">0</property>
  <property name="kdenlive:docproperties.rendertctype">-1</property>
  <property name="kdenlive:docproperties.rendertwopass">0</property>
  <property name="kdenlive:docproperties.renderurl">/home/xaxkrt/Videos/ehw.mp4</property>
  <property name="kdenlive:docproperties.seekOffset">7500</property>
  <property name="kdenlive:docproperties.uuid">{a0484364-b717-4fd3-93d0-39770914990b}</property>
  <property name="kdenlive:docproperties.version">1.1</property>
  <property name="kdenlive:expandedFolders"/>
  <property name="kdenlive:binZoom">4</property>
  <property name="kdenlive:extraBins">project_bin:-1:0</property>
  <property name="kdenlive:documentnotes"/>
  <property name="xml_retain">1</property>
  <entry in="00:00:00.000" out="00:11:58.640" producer="chain8"/>
  <entry in="00:00:00.000" out="00:00:01.680" producer="chain9"/>
  <entry in="00:00:00.000" out="00:00:03.920" producer="chain10"/>
  <entry in="00:00:00.000" out="00:00:05.640" producer="chain11"/>
  <entry in="00:00:00.000" out="00:00:03.760" producer="chain12"/>
  <entry in="00:00:00.000" out="00:11:58.600" producer="chain13"/>
  <entry in="00:00:00.000" out="00:00:05.520" producer="chain16"/>
  <entry in="00:00:00.000" out="00:00:03.320" producer="chain17"/>
  <entry in="00:00:00.000" out="00:00:05.680" producer="chain18"/>
  <entry in="00:00:00.000" out="00:00:03.960" producer="chain19"/>
  <entry in="00:00:00.000" out="00:00:03.720" producer="chain20"/>
  <entry in="00:00:00.000" out="00:00:06.240" producer="chain21"/>
  <entry in="00:00:00.000" out="00:00:04.160" producer="chain22"/>
  <entry in="00:00:00.000" out="00:00:03.640" producer="chain23"/>
  <entry in="00:00:00.000" out="00:00:04.120" producer="chain24"/>
  <entry in="00:00:00.000" out="00:00:03.080" producer="chain25"/>
  <entry in="00:00:00.000" out="00:00:06.920" producer="chain26"/>
  <entry in="00:00:00.000" out="00:00:04.840" producer="chain27"/>
  <entry in="00:00:00.000" out="00:00:01.920" producer="chain28"/>
  <entry in="00:00:00.000" out="00:00:04.680" producer="chain29"/>
  <entry in="00:00:00.000" out="00:00:02.640" producer="chain30"/>
  <entry in="00:00:00.000" out="00:00:04.160" producer="chain31"/>
  <entry in="00:00:00.000" out="00:00:03.200" producer="chain32"/>
  <entry in="00:00:00.000" out="00:00:02.240" producer="chain33"/>
  <entry in="00:00:00.000" out="00:00:04.360" producer="chain34"/>
  <entry in="00:00:00.000" out="00:00:05.600" producer="chain46"/>
  <entry in="00:00:00.000" out="00:00:02.560" producer="chain47"/>
  <entry in="00:00:00.000" out="00:00:03.440" producer="chain48"/>
  <entry in="00:00:00.000" out="00:11:58.680" producer="chain50"/>
  <entry in="00:00:00.000" out="00:00:05.680" producer="chain61"/>
  <entry in="00:00:00.000" out="00:00:03.080" producer="chain62"/>
  <entry in="00:00:00.000" out="00:00:02.520" producer="chain63"/>
  <entry in="00:00:00.000" out="00:00:05.800" producer="chain64"/>
  <entry in="00:00:00.000" out="00:00:06.560" producer="chain65"/>
  <entry in="00:00:00.000" out="00:00:06.680" producer="chain66"/>
  <entry in="00:00:00.000" out="00:00:03.320" producer="chain67"/>
  <entry in="00:00:00.000" out="00:00:04.480" producer="chain68"/>
  <entry in="00:00:00.000" out="00:00:03.440" producer="chain69"/>
  <entry in="00:00:00.000" out="00:00:03.800" producer="chain70"/>
  <entry in="00:00:00.000" out="00:00:04.800" producer="chain71"/>
  <entry in="00:00:00.000" out="00:00:06.600" producer="chain72"/>
  <entry in="00:00:00.000" out="00:00:04.760" producer="chain73"/>
  <entry in="00:00:00.000" out="00:00:04.200" producer="chain74"/>
  <entry in="00:00:00.000" out="00:00:05.760" producer="chain75"/>
  <entry in="00:00:00.000" out="00:00:05.880" producer="chain76"/>
  <entry in="00:00:00.000" out="00:00:03.720" producer="chain77"/>
  <entry in="00:00:00.000" out="00:00:04.160" producer="chain78"/>
  <entry in="00:00:00.000" out="00:00:05.440" producer="chain79"/>
  <entry in="00:00:00.000" out="00:00:03.280" producer="chain80"/>
  <entry in="00:00:00.000" out="00:00:05.040" producer="chain81"/>
  <entry in="00:00:00.000" out="00:00:01.760" producer="chain82"/>
  <entry in="00:00:00.000" out="00:00:04.600" producer="chain89"/>
  <entry in="00:00:00.000" out="00:00:07.640" producer="chain90"/>
  <entry in="00:00:00.000" out="00:00:03.240" producer="chain91"/>
  <entry in="00:00:00.000" out="00:00:06.440" producer="chain92"/>
  <entry in="00:00:00.000" out="00:00:06.800" producer="chain93"/>
  <entry in="00:00:00.000" out="00:00:02.880" producer="chain94"/>
  <entry in="00:00:00.000" out="00:00:04.440" producer="chain95"/>
  <entry in="00:00:00.000" out="00:00:03.920" producer="chain96"/>
  <entry in="00:00:00.000" out="00:00:04.000" producer="chain97"/>
  <entry in="00:00:00.000" out="00:00:03.920" producer="chain98"/>
  <entry in="00:00:00.000" out="00:00:04.320" producer="chain99"/>
  <entry in="00:00:00.000" out="00:00:07.880" producer="chain100"/>
  <entry in="00:00:00.000" out="00:00:05.560" producer="chain101"/>
  <entry in="00:00:00.000" out="00:00:03.480" producer="chain102"/>
  <entry in="00:00:00.000" out="00:00:04.680" producer="chain103"/>
  <entry in="00:00:00.000" out="00:00:03.520" producer="chain104"/>
  <entry in="00:00:00.000" out="00:00:02.840" producer="chain105"/>
  <entry in="00:00:00.000" out="00:00:06.920" producer="chain106"/>
  <entry in="00:00:00.000" out="00:00:02.840" producer="chain107"/>
  <entry in="00:00:00.000" out="00:00:04.280" producer="chain108"/>
  <entry in="00:00:00.000" out="00:00:04.880" producer="chain109"/>
  <entry in="00:00:00.000" out="00:00:03.120" producer="chain110"/>
  <entry in="00:00:00.000" out="00:12:01.120" producer="tractor4"/>
  <entry in="00:00:00.000" out="00:00:06.360" producer="chain194"/>
  <entry in="00:00:00.000" out="00:00:04.040" producer="chain195"/>
  <entry in="00:00:00.000" out="00:00:02.520" producer="chain196"/>
  <entry in="00:00:00.000" out="00:00:03.680" producer="chain197"/>
  <entry in="00:00:00.000" out="00:00:05.080" producer="chain198"/>
  <entry in="00:00:00.000" out="00:00:04.360" producer="chain199"/>
  <entry in="00:00:00.000" out="00:00:02.800" producer="chain200"/>
  <entry in="00:00:00.000" out="00:00:02.560" producer="chain201"/>
  <entry in="00:00:00.000" out="00:00:02.400" producer="chain202"/>
  <entry in="00:00:00.000" out="00:00:03.200" producer="chain203"/>
  <entry in="00:00:00.000" out="00:00:04.160" producer="chain204"/>
  <entry in="00:00:00.000" out="00:00:05.440" producer="chain205"/>
  <entry in="00:00:00.000" out="00:00:04.760" producer="chain206"/>
  <entry in="00:00:00.000" out="00:00:05.440" producer="chain207"/>
  <entry in="00:00:00.000" out="00:00:04.520" producer="chain208"/>
  <entry in="00:00:00.000" out="00:00:02.720" producer="chain209"/>
  <entry in="00:00:00.000" out="00:00:03.520" producer="chain210"/>
  <entry in="00:00:00.000" out="00:00:04.200" producer="chain211"/>
  <entry in="00:00:00.000" out="00:00:02.680" producer="chain212"/>
  <entry in="00:00:00.000" out="00:00:03.360" producer="chain213"/>
  <entry in="00:00:00.000" out="00:00:03.760" producer="chain214"/>
  <entry in="00:00:00.000" out="00:00:07.720" producer="chain215"/>
  <entry in="00:00:00.000" out="00:00:03.880" producer="chain216"/>
  <entry in="00:00:00.000" out="00:00:04.440" producer="chain217"/>
  <entry in="00:00:00.000" out="00:00:04.000" producer="chain218"/>
  <entry in="00:00:00.000" out="00:00:03.840" producer="chain219"/>
  <entry in="00:00:00.000" out="00:00:02.920" producer="chain220"/>
  <entry in="00:00:00.000" out="00:00:03.360" producer="chain221"/>
  <entry in="00:00:00.000" out="00:00:02.800" producer="chain222"/>
  <entry in="00:00:00.000" out="00:00:05.280" producer="chain223"/>
  <entry in="00:00:00.000" out="00:00:04.440" producer="chain224"/>
  <entry in="00:00:00.000" out="00:00:06.160" producer="chain225"/>
  <entry in="00:00:00.000" out="00:00:03.880" producer="chain226"/>
  <entry in="00:00:00.000" out="00:00:07.080" producer="chain227"/>
  <entry in="00:00:00.000" out="00:00:02.160" producer="chain228"/>
  <entry in="00:00:00.000" out="00:00:05.680" producer="chain229"/>
  <entry in="00:00:00.000" out="00:00:06.120" producer="chain230"/>
  <entry in="00:00:00.000" out="00:00:02.400" producer="chain231"/>
  <entry in="00:00:00.000" out="00:00:05.480" producer="chain232"/>
  <entry in="00:00:00.000" out="00:00:04.480" producer="chain233"/>
  <entry in="00:00:00.000" out="00:00:03.200" producer="chain234"/>
  <entry in="00:00:00.000" out="00:00:04.040" producer="chain235"/>
  <entry in="00:00:00.000" out="00:00:05.320" producer="chain236"/>
  <entry in="00:00:00.000" out="00:00:02.560" producer="chain237"/>
  <entry in="00:00:00.000" out="00:00:04.800" producer="chain238"/>
  <entry in="00:00:00.000" out="00:00:05.680" producer="chain239"/>
  <entry in="00:00:00.000" out="00:00:01.920" producer="chain240"/>
  <entry in="00:00:00.000" out="00:00:04.360" producer="chain241"/>
  <entry in="00:00:00.000" out="00:00:03.960" producer="chain242"/>
  <entry in="00:00:00.000" out="00:00:04.040" producer="chain243"/>
  <entry in="00:00:00.000" out="00:00:04.560" producer="chain244"/>
  <entry in="00:00:00.000" out="00:00:04.000" producer="chain245"/>
  <entry in="00:00:00.000" out="00:00:05.560" producer="chain246"/>
  <entry in="00:00:00.000" out="00:00:03.840" producer="chain247"/>
  <entry in="00:00:00.000" out="00:00:03.360" producer="chain248"/>
  <entry in="00:00:00.000" out="00:00:04.000" producer="chain249"/>
  <entry in="00:00:00.000" out="00:00:06.200" producer="chain250"/>
  <entry in="00:00:00.000" out="00:00:04.040" producer="chain251"/>
  <entry in="00:00:00.000" out="00:00:02.160" producer="chain252"/>
  <entry in="00:00:00.000" out="00:00:03.960" producer="chain253"/>
  <entry in="00:00:00.000" out="00:00:06.840" producer="chain254"/>
  <entry in="00:00:00.000" out="00:00:05.080" producer="chain255"/>
  <entry in="00:00:00.000" out="00:00:03.760" producer="chain256"/>
  <entry in="00:00:00.000" out="00:00:03.120" producer="chain257"/>
 </playlist>
 <tractor id="tractor5" in="00:00:00.000" out="00:12:04.800">
  <property name="kdenlive:projectTractor">1</property>
  <track in="00:00:00.000" out="00:12:04.800" producer="tractor4"/>
 </tractor>
</mlt>
